<svg width="285" height="273" viewBox="0 0 285 273" fill="none" xmlns="http://www.w3.org/2000/svg">
<path d="M222.916 44.1725C205.33 43.3837 191.44 48.1882 183.902 51.2717C150.38 65.0039 149.159 73.5372 127.84 81.9272C91.0867 96.3765 76.0481 78.4493 52.4315 95.3008C38.685 105.125 28.3482 122.227 27.4509 141.194C26.5895 159.731 34.8446 178.053 48.1604 189.168C65.2089 203.366 76.4429 193.972 109.822 207.095C138.32 218.281 138.787 228.536 159.46 230.902C175.324 232.731 199.156 229.683 211.036 213.8C220.189 201.573 221.122 185.224 221.086 169.914C221.05 154.64 220.584 138.577 227.726 125.06C232.571 115.917 240.467 108.854 247.179 101.002C253.927 93.1496 259.813 83.5406 259.203 73.2145C258.7 64.7171 253.711 56.8649 246.82 51.8453C239.965 46.8974 231.387 44.5669 222.916 44.1725Z" fill="#8C00FF"/>
<path d="M74.6125 248.829H74.5407C72.0283 248.829 69.5877 248.686 67.2906 248.435C66.6087 248.363 66.1062 247.718 66.178 247.037C66.2497 246.355 66.8599 245.853 67.5777 245.925C69.7671 246.176 72.136 246.284 74.5407 246.284H74.6125C75.2944 246.284 75.8687 246.857 75.8687 247.539C75.8687 248.22 75.2944 248.829 74.6125 248.829ZM81.719 248.542C81.073 248.542 80.4987 248.04 80.4628 247.359C80.4269 246.678 80.9294 246.068 81.6472 246.033C83.9802 245.889 86.349 245.674 88.7179 245.459C89.3998 245.387 90.01 245.889 90.0817 246.57C90.1535 247.252 89.651 247.861 88.9691 247.933C86.5644 248.184 84.1596 248.363 81.8267 248.542C81.7908 248.542 81.7549 248.542 81.719 248.542ZM60.3994 247.144C60.2917 247.144 60.1841 247.144 60.0764 247.108C57.7075 246.499 55.3746 245.71 53.1493 244.742C52.5033 244.455 52.2161 243.738 52.5033 243.093C52.7904 242.447 53.5082 242.16 54.1543 242.447C56.2719 243.344 58.4613 244.096 60.7224 244.706C61.4044 244.885 61.7992 245.567 61.6197 246.248C61.4403 246.786 60.9378 247.144 60.3994 247.144ZM95.9321 247.108C95.3219 247.108 94.7836 246.642 94.6759 246.033C94.5682 245.351 95.0707 244.706 95.7526 244.634C98.0856 244.312 100.419 243.953 102.751 243.595C103.433 243.487 104.079 243.953 104.187 244.634C104.295 245.316 103.828 245.961 103.146 246.068C100.777 246.463 98.4086 246.821 96.0398 247.144C96.0398 247.108 95.968 247.108 95.9321 247.108ZM110.002 244.778C109.427 244.778 108.889 244.347 108.781 243.774C108.638 243.093 109.104 242.447 109.786 242.304C112.083 241.838 114.416 241.336 116.713 240.798C117.395 240.654 118.077 241.049 118.221 241.73C118.364 242.411 117.97 243.093 117.288 243.236C114.955 243.774 112.622 244.276 110.289 244.742C110.145 244.778 110.073 244.778 110.002 244.778ZM123.892 241.551C123.353 241.551 122.815 241.192 122.671 240.619C122.492 239.937 122.887 239.256 123.569 239.077C125.937 238.432 128.235 237.786 130.388 237.141C131.07 236.926 131.752 237.32 131.967 237.965C132.183 238.611 131.788 239.328 131.142 239.543C128.952 240.224 126.619 240.87 124.215 241.515C124.107 241.551 123.999 241.551 123.892 241.551ZM47.3349 241.515C47.1195 241.515 46.8683 241.443 46.6529 241.3C44.6071 239.973 42.669 238.432 40.8744 236.746C40.3719 236.28 40.3719 235.456 40.8385 234.989C41.3051 234.488 42.1306 234.488 42.5972 234.954C44.2841 236.567 46.0787 238.001 47.9809 239.22C48.5552 239.579 48.7346 240.368 48.3398 240.941C48.1604 241.336 47.7656 241.515 47.3349 241.515ZM137.566 237.392C137.028 237.392 136.561 237.069 136.382 236.531C136.167 235.886 136.525 235.169 137.172 234.954C139.504 234.201 141.73 233.448 143.955 232.695C144.601 232.48 145.319 232.838 145.534 233.484C145.75 234.129 145.391 234.846 144.745 235.061C142.555 235.778 140.294 236.531 137.961 237.32C137.818 237.392 137.674 237.392 137.566 237.392ZM151.097 232.91C150.559 232.91 150.092 232.587 149.913 232.049C149.698 231.404 150.057 230.687 150.703 230.472C153.036 229.683 155.261 228.93 157.45 228.177C158.096 227.962 158.814 228.321 159.029 228.966C159.245 229.611 158.886 230.328 158.24 230.544C156.05 231.296 153.789 232.049 151.492 232.838C151.349 232.874 151.205 232.91 151.097 232.91ZM37.0699 231.763C36.6751 231.763 36.3162 231.583 36.0649 231.261C34.6651 229.36 33.373 227.245 32.2245 225.058C31.9015 224.448 32.1527 223.695 32.7629 223.373C33.373 223.05 34.1268 223.301 34.4498 223.91C35.5265 225.99 36.7827 227.998 38.1107 229.791C38.5055 230.364 38.3979 231.117 37.8236 231.547C37.5724 231.691 37.3211 231.763 37.0699 231.763ZM164.593 228.285C164.09 228.285 163.588 227.962 163.408 227.46C163.193 226.815 163.516 226.098 164.198 225.847C166.603 225.022 168.792 224.233 170.91 223.48C171.556 223.229 172.273 223.588 172.525 224.233C172.776 224.879 172.417 225.596 171.771 225.847C169.653 226.6 167.464 227.388 165.023 228.213C164.88 228.285 164.736 228.285 164.593 228.285ZM178.016 223.48C177.514 223.48 177.047 223.158 176.832 222.656C176.58 222.01 176.903 221.293 177.55 221.042C179.882 220.146 182.108 219.285 184.154 218.461C184.8 218.21 185.517 218.496 185.805 219.142C186.056 219.787 185.769 220.504 185.123 220.791C183.041 221.616 180.816 222.512 178.447 223.373C178.303 223.444 178.16 223.48 178.016 223.48ZM30.4299 219.178C29.9275 219.178 29.425 218.855 29.2455 218.353C29.1378 218.066 29.0302 217.815 28.9584 217.564L28.8148 217.206C28.1329 215.341 27.5586 213.369 27.092 211.397C26.9485 210.716 27.3433 210.035 28.0252 209.891C28.7071 209.748 29.3891 210.142 29.5326 210.824C29.9633 212.688 30.5376 214.552 31.1837 216.345L31.3272 216.704C31.399 216.955 31.5067 217.206 31.6144 217.493C31.8656 218.138 31.5067 218.855 30.8606 219.106C30.753 219.142 30.5735 219.178 30.4299 219.178ZM191.224 218.138C190.758 218.138 190.291 217.851 190.076 217.385C189.789 216.74 190.076 216.023 190.722 215.736C192.983 214.768 195.136 213.764 197.146 212.76C197.757 212.473 198.51 212.724 198.833 213.333C199.12 213.943 198.869 214.696 198.259 215.019C196.213 216.023 194.024 217.026 191.727 218.03C191.547 218.102 191.404 218.138 191.224 218.138ZM204.038 211.863C203.607 211.863 203.176 211.612 202.925 211.218C202.602 210.609 202.817 209.856 203.427 209.497C205.509 208.35 207.555 207.131 209.493 205.912C210.067 205.553 210.857 205.732 211.216 206.306C211.575 206.88 211.395 207.668 210.821 208.027C208.847 209.282 206.765 210.501 204.612 211.684C204.432 211.828 204.217 211.863 204.038 211.863ZM27.1638 205.338C26.5178 205.338 25.9794 204.836 25.9076 204.191C25.7281 202.434 25.6564 200.605 25.6564 198.812C25.6564 198.167 25.6564 197.558 25.6922 196.912C25.7281 196.231 26.3024 195.693 26.9843 195.693C27.6663 195.729 28.2047 196.303 28.2047 196.984C28.1688 197.593 28.1688 198.203 28.1688 198.812C28.1688 200.533 28.2405 202.254 28.42 203.94C28.4918 204.621 27.9893 205.23 27.3074 205.302C27.2356 205.338 27.1997 205.338 27.1638 205.338ZM216.061 204.262C215.666 204.262 215.272 204.083 215.056 203.724C214.661 203.151 214.769 202.362 215.343 201.968C217.102 200.713 218.968 199.35 221.05 197.737C221.589 197.307 222.378 197.414 222.809 197.952C223.24 198.49 223.132 199.279 222.593 199.709C220.476 201.322 218.609 202.685 216.815 203.975C216.564 204.191 216.312 204.262 216.061 204.262ZM227.367 195.55C227.008 195.55 226.649 195.406 226.398 195.119C225.967 194.582 226.003 193.793 226.542 193.363C228.372 191.821 230.131 190.243 231.818 188.666C232.32 188.2 233.11 188.235 233.576 188.737C234.043 189.239 234.007 190.028 233.505 190.494C231.782 192.108 229.951 193.721 228.121 195.263C227.941 195.478 227.654 195.55 227.367 195.55ZM27.6304 191.14C27.5586 191.14 27.4868 191.14 27.415 191.14C26.7331 191.032 26.2665 190.387 26.3742 189.705C26.769 187.339 27.2715 184.937 27.9534 182.606C28.1329 181.925 28.8507 181.566 29.4968 181.746C30.1787 181.925 30.5376 182.642 30.3582 183.287C29.7121 185.51 29.2096 187.805 28.8507 190.1C28.7789 190.709 28.2406 191.14 27.6304 191.14ZM237.776 185.833C237.453 185.833 237.165 185.726 236.914 185.475C236.412 185.008 236.412 184.184 236.878 183.718C238.493 182.033 240.109 180.276 241.616 178.483C242.083 177.945 242.872 177.909 243.375 178.34C243.913 178.806 243.949 179.594 243.518 180.096C241.975 181.889 240.324 183.682 238.673 185.439C238.422 185.69 238.099 185.833 237.776 185.833ZM31.5426 177.479C31.3631 177.479 31.2196 177.443 31.0401 177.371C30.394 177.085 30.1069 176.368 30.394 175.722C31.399 173.392 32.5116 171.24 33.8037 169.233C34.1627 168.659 34.9523 168.48 35.5265 168.838C36.1008 169.197 36.2803 169.985 35.9213 170.559C34.7369 172.424 33.6602 174.503 32.727 176.69C32.5116 177.192 32.0451 177.479 31.5426 177.479ZM247.072 175.005C246.82 175.005 246.533 174.933 246.318 174.754C245.779 174.324 245.672 173.535 246.067 172.997C246.964 171.814 247.861 170.631 248.687 169.448L250.23 167.296C250.625 166.723 251.414 166.579 251.989 167.01C252.563 167.404 252.706 168.193 252.276 168.766L250.732 170.918C249.871 172.137 248.974 173.356 248.041 174.539C247.825 174.862 247.43 175.005 247.072 175.005ZM39.1875 165.504C38.9003 165.504 38.5773 165.396 38.3261 165.181C37.8236 164.715 37.7877 163.926 38.2543 163.424C39.9412 161.56 41.664 159.982 43.1714 158.62L43.4586 158.369C43.9611 157.903 44.7507 157.938 45.2173 158.44C45.6839 158.942 45.648 159.731 45.1455 160.197L44.8942 160.448C43.3509 161.847 41.7717 163.317 40.1207 165.109C39.8694 165.36 39.5105 165.504 39.1875 165.504ZM255.327 163.388C255.075 163.388 254.824 163.317 254.609 163.173C254.034 162.779 253.891 161.99 254.286 161.416C255.721 159.301 256.978 157.329 258.09 155.464C258.449 154.855 259.239 154.676 259.813 155.034C260.423 155.393 260.603 156.182 260.244 156.755C259.095 158.656 257.803 160.663 256.367 162.815C256.116 163.209 255.721 163.388 255.327 163.388ZM49.0577 155.285C48.8423 155.285 48.5911 155.213 48.3757 155.106C47.8015 154.747 47.622 153.959 47.9809 153.385C48.5911 152.417 49.0936 151.341 49.5602 150.086C49.955 149.011 50.2062 148.078 50.3498 147.254C50.4574 146.573 51.1035 146.106 51.7854 146.214C52.4674 146.322 52.934 146.967 52.8263 147.648C52.6827 148.652 52.3956 149.728 51.929 150.947C51.3906 152.381 50.8164 153.636 50.0985 154.712C49.8832 155.07 49.4884 155.285 49.0577 155.285ZM262.684 151.198C262.505 151.198 262.29 151.162 262.11 151.054C261.5 150.732 261.249 149.979 261.572 149.369C262.684 147.218 263.653 145.103 264.515 142.987C264.766 142.342 265.52 142.055 266.166 142.306C266.812 142.557 267.099 143.31 266.848 143.955C265.951 146.106 264.946 148.329 263.797 150.517C263.582 150.947 263.115 151.198 262.684 151.198ZM50.9958 141.625C50.4215 141.625 49.9191 141.23 49.7755 140.657C49.5602 139.653 49.273 138.469 48.9141 137.035V136.999C48.6629 135.996 48.3757 134.92 48.1245 133.737C47.9809 133.055 48.3757 132.374 49.0577 132.231C49.7396 132.087 50.4216 132.482 50.5651 133.163C50.8522 134.31 51.1035 135.386 51.3547 136.39V136.426C51.7136 137.896 52.0008 139.043 52.252 140.083C52.3956 140.764 51.9649 141.445 51.2829 141.589C51.1753 141.625 51.1035 141.625 50.9958 141.625ZM268.032 138.003C267.925 138.003 267.781 138.003 267.673 137.968C266.991 137.788 266.632 137.071 266.812 136.426C267.458 134.167 267.996 131.872 268.391 129.613C268.499 128.932 269.145 128.466 269.827 128.574C270.509 128.681 270.975 129.327 270.868 130.008C270.473 132.374 269.899 134.741 269.217 137.071C269.073 137.645 268.571 138.003 268.032 138.003ZM47.8374 127.713C47.2272 127.713 46.7247 127.283 46.617 126.673C46.1863 124.307 45.8274 121.976 45.5403 119.538C45.4685 118.857 45.9351 118.212 46.6529 118.14C47.3349 118.068 47.9809 118.534 48.0527 119.252C48.3398 121.618 48.6629 123.913 49.0936 126.207C49.2012 126.889 48.7705 127.534 48.0886 127.677C48.0168 127.713 47.9091 127.713 47.8374 127.713ZM270.401 123.984C270.365 123.984 270.365 123.984 270.329 123.984C269.647 123.948 269.109 123.375 269.145 122.658C269.181 121.761 269.217 120.829 269.217 119.897C269.217 118.499 269.181 117.1 269.073 115.702C269.037 115.021 269.54 114.411 270.222 114.375C270.904 114.339 271.514 114.841 271.55 115.523C271.657 116.993 271.693 118.463 271.693 119.897C271.693 120.865 271.657 121.833 271.621 122.765C271.621 123.447 271.083 123.984 270.401 123.984ZM46.1504 113.587C45.5044 113.587 44.9301 113.085 44.8942 112.403C44.7148 109.822 44.6071 107.455 44.4994 105.268C44.4635 104.587 45.0019 103.978 45.7198 103.978C46.4017 103.942 47.0118 104.48 47.0118 105.197C47.0836 107.384 47.2272 109.714 47.4067 112.296C47.4425 112.977 46.9401 113.587 46.2222 113.622C46.1863 113.587 46.1863 113.587 46.1504 113.587ZM269.396 109.786C268.786 109.786 268.283 109.356 268.176 108.746C267.745 106.487 267.171 104.193 266.489 101.97C266.274 101.324 266.668 100.607 267.314 100.392C267.96 100.177 268.678 100.571 268.894 101.217C269.611 103.547 270.186 105.914 270.652 108.28C270.796 108.961 270.329 109.607 269.647 109.75C269.576 109.786 269.468 109.786 269.396 109.786ZM45.6121 99.3524C44.9301 99.3524 44.3559 98.7787 44.3559 98.0975C44.3559 95.5877 44.4277 93.1495 44.5353 90.8907C44.5712 90.2095 45.1455 89.6717 45.8633 89.7075C46.5453 89.7434 47.0836 90.3529 47.0477 91.0341C46.9401 93.2571 46.8683 95.6235 46.8683 98.0975C46.8683 98.7787 46.294 99.3524 45.6121 99.3524ZM265.233 96.1972C264.73 96.1972 264.299 95.9103 264.084 95.4442C263.187 93.3288 262.146 91.2134 260.962 89.1697C260.639 88.5602 260.854 87.8072 261.428 87.4487C262.038 87.126 262.792 87.3411 263.151 87.9148C264.335 90.0302 265.412 92.2173 266.381 94.4044C266.668 95.0498 266.345 95.7669 265.735 96.0538C265.556 96.1613 265.412 96.1972 265.233 96.1972ZM46.4376 85.1182C46.3658 85.1182 46.3299 85.1182 46.2581 85.1182C45.5762 85.0465 45.0737 84.4011 45.1814 83.7198C45.5044 81.2459 45.9351 78.8436 46.4376 76.5848C46.5812 75.9036 47.2631 75.4733 47.945 75.6526C48.627 75.796 49.0577 76.4773 48.8782 77.1585C48.3757 79.3098 47.9809 81.6403 47.6579 84.0425C47.622 84.6521 47.0836 85.1182 46.4376 85.1182ZM258.306 83.7916C257.911 83.7916 257.516 83.6123 257.265 83.2537C256.655 82.3574 256.009 81.4969 255.362 80.6005C254.609 79.6324 253.819 78.6285 253.03 77.6605C252.599 77.1226 252.671 76.3338 253.209 75.9036C253.747 75.4733 254.537 75.545 254.968 76.0829C255.793 77.0868 256.619 78.0907 257.372 79.1305C258.054 80.0268 258.7 80.9591 259.346 81.8554C259.741 82.4291 259.598 83.2179 259.023 83.6123C258.772 83.7198 258.521 83.7916 258.306 83.7916ZM249.225 72.8201C248.902 72.8201 248.579 72.6767 248.328 72.4257C246.713 70.7764 245.026 69.1271 243.231 67.5495C242.729 67.0834 242.657 66.2946 243.123 65.7927C243.59 65.2907 244.38 65.219 244.882 65.6851C246.713 67.2985 248.471 68.9837 250.122 70.6688C250.589 71.1708 250.589 71.9596 250.086 72.4257C249.835 72.6767 249.512 72.8201 249.225 72.8201ZM49.7037 71.2784C49.5601 71.2784 49.4166 71.2425 49.273 71.2067C48.627 70.9557 48.3039 70.2386 48.5193 69.5932C49.3807 67.2268 50.4216 65.0039 51.5701 62.9602C51.8931 62.3506 52.6827 62.1355 53.2929 62.494C53.903 62.8167 54.1184 63.6055 53.7954 64.2151C52.7186 66.1512 51.7495 68.2666 50.924 70.5254C50.7087 70.9557 50.2421 71.2784 49.7037 71.2784ZM238.601 63.2828C238.314 63.2828 238.063 63.2111 237.811 62.996C235.981 61.5618 234.079 60.1635 232.105 58.8728C231.53 58.4784 231.387 57.7254 231.746 57.1159C232.141 56.5422 232.894 56.3988 233.505 56.7573C235.514 58.084 237.488 59.5181 239.355 60.9882C239.893 61.4184 240.001 62.2072 239.57 62.745C239.319 63.1394 238.96 63.2828 238.601 63.2828ZM56.6667 58.9086C56.3796 58.9086 56.1283 58.8369 55.8771 58.6218C55.3387 58.1915 55.231 57.4027 55.6976 56.8649C57.2051 54.9646 58.892 53.1719 60.6865 51.5226C61.189 51.0565 61.9786 51.0924 62.4452 51.5943C62.9118 52.0963 62.8759 52.8851 62.3734 53.3512C60.6507 54.9288 59.0714 56.6139 57.6358 58.4066C57.3845 58.7293 57.0256 58.9086 56.6667 58.9086ZM226.721 55.3949C226.506 55.3949 226.29 55.359 226.111 55.2515C224.065 54.14 221.947 53.0643 219.83 52.0963C219.184 51.8094 218.933 51.0565 219.22 50.447C219.507 49.8016 220.261 49.5506 220.871 49.8375C223.06 50.8414 225.249 51.917 227.331 53.1002C227.941 53.4229 228.157 54.2117 227.834 54.8212C227.582 55.1798 227.152 55.3949 226.721 55.3949ZM213.764 49.5148C213.621 49.5148 213.477 49.4789 213.333 49.4431C211.144 48.6543 208.883 47.9372 206.622 47.2918C205.94 47.1125 205.581 46.3954 205.76 45.75C205.94 45.0688 206.658 44.7103 207.304 44.8895C209.637 45.5349 211.934 46.2879 214.195 47.1125C214.841 47.3635 215.2 48.0806 214.949 48.726C214.733 49.1921 214.267 49.5148 213.764 49.5148ZM67.1111 49.2638C66.7163 49.2638 66.3215 49.0845 66.0703 48.726C65.6755 48.1523 65.819 47.3635 66.3933 46.9691C68.3314 45.6425 70.4491 44.3876 72.6743 43.2402C73.2845 42.9176 74.0382 43.1685 74.3612 43.7781C74.6843 44.3876 74.433 45.1405 73.8229 45.4632C71.7053 46.5388 69.6953 47.722 67.829 49.0128C67.5777 49.1921 67.3624 49.2638 67.1111 49.2638ZM200.018 45.6783C199.946 45.6783 199.838 45.6783 199.766 45.6425C198.259 45.3557 196.68 45.0688 195.172 44.8537C195.029 44.8178 194.849 44.8178 194.706 44.782L192.875 44.6027C192.193 44.531 191.691 43.9215 191.727 43.2402C191.798 42.559 192.409 42.057 193.091 42.0929L194.921 42.2722C195.136 42.308 195.316 42.308 195.531 42.3439C197.11 42.559 198.69 42.8458 200.269 43.1685C200.951 43.312 201.382 43.9573 201.238 44.6386C201.13 45.2839 200.592 45.6783 200.018 45.6783ZM185.876 43.9932C185.84 43.9932 185.805 43.9932 185.769 43.9932L178.662 43.3478C177.98 43.2761 177.478 42.6666 177.514 41.9853C177.585 41.3041 178.196 40.8021 178.878 40.838L185.984 41.4834C186.666 41.5551 187.168 42.1646 187.133 42.8458C187.061 43.5271 186.487 43.9932 185.876 43.9932ZM79.745 42.7383C79.2425 42.7383 78.7759 42.4156 78.5606 41.9136C78.3093 41.2683 78.6323 40.5512 79.2784 40.3002C80.9653 39.6548 82.6881 39.0811 84.4827 38.5792C85.0569 38.3999 85.6312 38.2565 86.2055 38.0772C86.8874 37.8979 87.5693 38.2923 87.7488 38.9736C87.9283 39.6548 87.5334 40.336 86.8515 40.5153C86.3131 40.6587 85.7389 40.838 85.2005 40.9814C83.4777 41.4834 81.7908 42.057 80.1757 42.6666C80.0321 42.7024 79.8885 42.7383 79.745 42.7383ZM171.663 42.7024C171.627 42.7024 171.592 42.7024 171.556 42.7024L164.449 42.0571C163.767 41.9853 163.265 41.3758 163.301 40.6946C163.372 40.0133 163.983 39.5114 164.664 39.5472L171.771 40.1926C172.453 40.2643 172.955 40.8739 172.92 41.5551C172.848 42.2363 172.309 42.7024 171.663 42.7024ZM157.45 41.4117C157.414 41.4117 157.378 41.4117 157.343 41.4117L150.236 40.7663C149.554 40.6946 149.052 40.0851 149.088 39.4038C149.159 38.7226 149.769 38.2206 150.451 38.2565L157.558 38.9019C158.24 38.9736 158.742 39.5831 158.706 40.2643C158.635 40.9456 158.096 41.4117 157.45 41.4117ZM143.237 40.1209C143.201 40.1209 143.165 40.1209 143.13 40.1209L136.023 39.4755C135.341 39.4038 134.839 38.7943 134.874 38.1131C134.946 37.4318 135.556 36.9299 136.238 36.9657L143.345 37.6111C144.027 37.6828 144.529 38.2923 144.493 38.9736C144.422 39.6548 143.883 40.1209 143.237 40.1209ZM93.4914 39.0094C92.8813 39.0094 92.3788 38.5792 92.2711 37.9696C92.1635 37.2884 92.5942 36.643 93.2761 36.4996C95.6091 36.0694 98.0138 35.7467 100.419 35.4957C101.1 35.424 101.711 35.9259 101.782 36.6072C101.854 37.2884 101.352 37.8979 100.67 37.9696C98.3009 38.2206 95.968 38.5433 93.7068 38.9377C93.635 39.0094 93.5632 39.0094 93.4914 39.0094ZM129.024 38.8302C128.988 38.8302 128.952 38.8302 128.916 38.8302L121.81 38.1848C121.128 38.1131 120.625 37.5035 120.661 36.8223C120.733 36.1411 121.343 35.6391 122.025 35.675L129.132 36.3203C129.814 36.3921 130.316 37.0016 130.28 37.6828C130.209 38.364 129.67 38.8302 129.024 38.8302ZM114.811 37.5753C114.775 37.5753 114.775 37.5753 114.739 37.5753C112.514 37.4677 110.073 37.4677 107.705 37.5394C106.987 37.5753 106.448 37.0016 106.412 36.3203C106.377 35.6391 106.951 35.0654 107.633 35.0296C110.073 34.9579 112.55 34.9579 114.847 35.0654C115.529 35.1013 116.067 35.675 116.031 36.3921C116.031 37.0374 115.493 37.5753 114.811 37.5753Z" fill="#EAEDEF"/>
<path d="M79.2783 237.428C105.982 235.922 127.014 229.109 130.639 227.926C172.309 214.086 193.126 207.202 209.924 195.119C217.892 189.347 230.238 180.312 241.58 164.392C250.984 151.162 262.038 135.852 260.315 115.63C258.198 91.1418 239.57 75.7602 233.504 70.7765C218.071 58.1557 201.74 54.6779 193.952 53.5305C167.536 51.1283 141.12 48.726 114.667 46.3238C109.966 46.0728 77.5914 44.8896 63.0195 65.9361C54.8003 77.8039 55.1592 96.5199 56.2001 112.332C57.7793 135.852 64.8858 141.015 60.2199 153.923C55.2669 167.583 45.5762 166.508 39.7976 182.714C38.5773 186.12 34.2344 198.992 39.4746 213.369C40.7667 216.847 44.2482 227.353 54.549 232.91C62.9477 237.499 71.131 237.858 79.2783 237.428Z" fill="#EAEDEF"/>
<path d="M139.971 32.5558C130.962 32.5558 123.676 25.2415 123.676 16.2779C123.676 7.27844 130.998 0 139.971 0C148.98 0 156.266 7.31429 156.266 16.2779C156.266 25.2415 148.944 32.5558 139.971 32.5558ZM139.971 5.19889C133.869 5.19889 128.881 10.1826 128.881 16.2779C128.881 22.3731 133.834 27.3569 139.971 27.3569C146.073 27.3569 151.062 22.3731 151.062 16.2779C151.026 10.1468 146.073 5.19889 139.971 5.19889Z" fill="#8C00FF"/>
<path d="M15.1042 121.403C14.9607 121.403 14.853 121.403 14.7094 121.403C11.7304 121.224 9.39746 118.678 9.39746 115.595V114.053C9.39746 112.941 8.50017 112.009 7.35164 112.009H5.70062C4.12139 112.009 2.61395 111.364 1.57309 110.216C0.496345 109.069 -0.0420284 107.563 0.0656463 105.95C0.245104 102.974 2.79341 100.643 5.88008 100.643H7.42342C8.53606 100.643 9.46924 99.7469 9.46924 98.5996V96.9503C9.46924 95.3727 10.1153 93.8668 11.2638 92.827C12.4123 91.7514 13.9557 91.2136 15.5349 91.3211C18.5139 91.5004 20.8469 94.0461 20.8469 97.1295V98.6713C20.8469 99.7828 21.7442 100.715 22.8927 100.715H24.436C27.4868 100.715 30.0351 103.046 30.2505 106.021C30.3581 107.599 29.8198 109.105 28.743 110.288C27.6663 111.435 26.1588 112.081 24.6155 112.081H22.9645C21.8518 112.081 20.9187 112.977 20.9187 114.125V115.774C20.9187 117.351 20.2726 118.857 19.1241 119.897C17.9038 120.865 16.5399 121.403 15.1042 121.403ZM5.84419 104.3C4.69566 104.3 3.72659 105.161 3.6548 106.237C3.61891 106.81 3.79837 107.384 4.19318 107.778C4.58799 108.209 5.12636 108.424 5.70062 108.424H7.35164C10.4742 108.424 12.9866 110.933 12.9866 114.053V115.595C12.9866 116.742 13.848 117.71 14.9248 117.782C15.499 117.818 16.0733 117.638 16.4681 117.244C16.8988 116.849 17.1141 116.312 17.1141 115.738V114.089C17.1141 110.969 19.6266 108.46 22.7491 108.46H24.4001C24.9744 108.46 25.5128 108.244 25.9076 107.814C26.3024 107.384 26.5177 106.846 26.446 106.272C26.3742 105.197 25.4051 104.336 24.2566 104.336H22.7132C19.5907 104.336 17.0783 101.826 17.0783 98.7071V97.1295C17.0783 95.9822 16.2169 95.0141 15.1401 94.9424C14.5658 94.9066 13.9916 95.0858 13.5968 95.4802C13.1661 95.8746 12.9507 96.4125 12.9507 96.9861V98.6354C12.9507 101.755 10.4383 104.265 7.31574 104.265H5.84419V104.3Z" fill="#EAEDEF"/>
<path d="M158.383 272.601C156.194 272.601 154.148 271.74 152.605 270.199L143.309 260.912C140.115 257.721 140.115 252.522 143.309 249.367L152.605 240.081C154.148 238.539 156.194 237.679 158.383 237.679C160.573 237.679 162.619 238.539 164.162 240.081L173.458 249.367C176.652 252.558 176.652 257.757 173.458 260.948L164.162 270.235C162.619 271.74 160.573 272.601 158.383 272.601ZM158.383 243.559C157.773 243.559 157.199 243.81 156.768 244.204L147.472 253.49C146.575 254.387 146.575 255.785 147.472 256.682L156.768 265.968C157.63 266.828 159.101 266.828 159.963 265.968L169.259 256.682C170.156 255.785 170.156 254.387 169.259 253.49L159.963 244.204C159.568 243.81 158.994 243.559 158.383 243.559Z" fill="#EAEDEF"/>
<path d="M250.374 201.287C250.374 205.266 247.143 208.493 243.159 208.493C239.175 208.493 235.945 205.266 235.945 201.287C235.945 197.307 239.175 194.08 243.159 194.08C247.143 194.116 250.374 197.343 250.374 201.287Z" fill="#EAEDEF"/>
<path d="M14.1352 166.293C14.1352 170.165 11.0126 173.284 7.13629 173.284C3.26 173.284 0.137436 170.165 0.137436 166.293C0.137436 162.42 3.26 159.301 7.13629 159.301C11.0126 159.301 14.1352 162.456 14.1352 166.293Z" fill="#8C00FF"/>
<path d="M279.876 57.9765L276.287 61.5619L272.698 57.9765C271.514 56.7933 269.647 56.7933 268.463 57.9765C267.278 59.1597 267.278 61.0241 268.463 62.2073L272.052 65.7928L268.463 69.3782C267.278 70.5614 267.278 72.4258 268.463 73.609C269.647 74.7922 271.514 74.7922 272.698 73.609L276.287 70.0236L279.876 73.609C281.061 74.7922 282.927 74.7922 284.112 73.609C285.296 72.4258 285.296 70.5614 284.112 69.3782L280.523 65.7928L284.112 62.2073C285.296 61.0241 285.296 59.1597 284.112 57.9765C282.927 56.8292 281.061 56.8292 279.876 57.9765Z" fill="#8C00FF"/>
<path d="M213.369 77.804H68.3673C67.2188 77.804 66.2856 78.7362 66.2856 79.8835V178.053C66.2856 179.2 67.2188 180.132 68.3673 180.132H213.369C213.979 180.132 214.554 179.881 214.948 179.415C214.948 179.379 214.984 179.379 214.984 179.344C215.092 179.2 215.2 179.021 215.272 178.842C215.379 178.591 215.415 178.34 215.415 178.053V79.8835C215.451 78.7362 214.518 77.804 213.369 77.804ZM214.841 178.053C214.841 178.34 214.769 178.626 214.59 178.877C214.446 179.093 214.267 179.272 214.015 179.379C213.8 179.487 213.585 179.559 213.333 179.559H68.3314C67.5059 179.559 66.8599 178.877 66.8599 178.089V79.8835C66.8599 79.0589 67.5418 78.4135 68.3314 78.4135H213.333C214.159 78.4135 214.841 79.0947 214.841 79.8835V178.053Z" fill="#202131"/>
<path d="M212.831 179.702H68.7262C67.5418 179.702 66.5728 178.734 66.5728 177.551V80.3497C66.5728 79.1666 67.5418 78.1985 68.7262 78.1985H212.831C214.015 78.1985 214.984 79.1666 214.984 80.3497V177.551C214.984 178.734 214.015 179.702 212.831 179.702Z" fill="white"/>
<path d="M215.128 86.1581H66.5369V86.7676H215.128V86.1581Z" fill="#202131"/>
<path d="M71.6334 84.0785C72.6246 84.0785 73.428 83.2758 73.428 82.2858C73.428 81.2957 72.6246 80.493 71.6334 80.493C70.6423 80.493 69.8389 81.2957 69.8389 82.2858C69.8389 83.2758 70.6423 84.0785 71.6334 84.0785Z" fill="#202131"/>
<path d="M76.766 84.0785C77.7571 84.0785 78.5605 83.2758 78.5605 82.2858C78.5605 81.2957 77.7571 80.493 76.766 80.493C75.7748 80.493 74.9714 81.2957 74.9714 82.2858C74.9714 83.2758 75.7748 84.0785 76.766 84.0785Z" fill="#202131"/>
<path d="M81.8985 84.0785C82.8896 84.0785 83.693 83.2758 83.693 82.2858C83.693 81.2957 82.8896 80.493 81.8985 80.493C80.9073 80.493 80.1039 81.2957 80.1039 82.2858C80.1039 83.2758 80.9073 84.0785 81.8985 84.0785Z" fill="#202131"/>
<path d="M162.511 119.682C159.855 119.682 157.701 117.531 157.701 114.877C157.701 112.224 159.855 110.073 162.511 110.073C165.167 110.073 167.32 112.224 167.32 114.877C167.32 117.495 165.167 119.646 162.511 119.682ZM162.511 110.503C160.106 110.503 158.132 112.439 158.132 114.877C158.132 117.28 160.07 119.252 162.511 119.252C164.916 119.252 166.89 117.316 166.89 114.877C166.854 112.439 164.916 110.503 162.511 110.503Z" fill="#F2C029"/>
<path d="M162.044 116.598C161.937 116.598 161.829 116.563 161.757 116.491L160.68 115.666C160.465 115.523 160.429 115.2 160.609 114.985C160.752 114.77 161.075 114.734 161.291 114.913L161.973 115.451L163.624 113.3C163.767 113.085 164.09 113.049 164.306 113.228C164.521 113.371 164.557 113.694 164.377 113.909L162.439 116.455C162.331 116.527 162.188 116.598 162.044 116.598Z" fill="#F2C029"/>
<path d="M176.293 119.682C173.637 119.682 171.484 117.531 171.484 114.877C171.484 112.224 173.637 110.073 176.293 110.073C178.949 110.073 181.103 112.224 181.103 114.877C181.103 117.495 178.949 119.646 176.293 119.682ZM176.293 110.503C173.889 110.503 171.915 112.439 171.915 114.877C171.915 117.28 173.853 119.252 176.293 119.252C178.698 119.252 180.672 117.316 180.672 114.877C180.636 112.439 178.698 110.503 176.293 110.503Z" fill="#E6E6E6"/>
<path d="M178.016 116.527C177.908 116.634 177.693 116.634 177.585 116.527L176.437 115.379C176.401 115.344 176.293 115.344 176.257 115.379L175.109 116.527C175.001 116.634 174.786 116.634 174.678 116.527C174.571 116.419 174.571 116.204 174.678 116.096L175.827 114.949C175.863 114.913 175.863 114.806 175.827 114.77L174.678 113.623C174.571 113.515 174.571 113.3 174.678 113.192C174.786 113.085 175.001 113.085 175.109 113.192L176.257 114.34C176.293 114.375 176.401 114.375 176.437 114.34L177.585 113.192C177.693 113.085 177.908 113.085 178.016 113.192C178.124 113.3 178.124 113.515 178.016 113.623L176.868 114.77C176.832 114.806 176.796 114.913 176.868 114.949L178.016 116.096C178.124 116.204 178.124 116.383 178.016 116.527Z" fill="#E6E6E6"/>
<path d="M162.511 134.956C159.855 134.956 157.701 132.805 157.701 130.151C157.701 127.498 159.855 125.347 162.511 125.347C165.167 125.347 167.32 127.498 167.32 130.151C167.32 132.805 165.167 134.956 162.511 134.956ZM162.511 125.777C160.106 125.777 158.132 127.713 158.132 130.151C158.132 132.554 160.07 134.526 162.511 134.526C164.916 134.526 166.89 132.589 166.89 130.151C166.854 127.749 164.916 125.777 162.511 125.777Z" fill="#F2C029"/>
<path d="M162.044 131.873C161.937 131.873 161.829 131.837 161.757 131.765L160.68 130.94C160.465 130.797 160.429 130.474 160.609 130.259C160.752 130.044 161.075 130.008 161.291 130.187L161.973 130.725L163.624 128.574C163.767 128.359 164.09 128.323 164.306 128.502C164.521 128.646 164.557 128.968 164.377 129.183L162.439 131.729C162.331 131.837 162.188 131.873 162.044 131.873Z" fill="#F2C029"/>
<path d="M176.293 134.956C173.637 134.956 171.484 132.805 171.484 130.151C171.484 127.498 173.637 125.347 176.293 125.347C178.949 125.347 181.103 127.498 181.103 130.151C181.103 132.805 178.949 134.956 176.293 134.956ZM176.293 125.777C173.889 125.777 171.915 127.713 171.915 130.151C171.915 132.554 173.853 134.526 176.293 134.526C178.698 134.526 180.672 132.589 180.672 130.151C180.636 127.749 178.698 125.777 176.293 125.777Z" fill="#E6E6E6"/>
<path d="M178.016 131.801C177.908 131.908 177.693 131.908 177.585 131.801L176.437 130.653C176.401 130.617 176.293 130.617 176.257 130.653L175.109 131.801C175.001 131.908 174.786 131.908 174.678 131.801C174.571 131.693 174.571 131.478 174.678 131.37L175.827 130.223C175.863 130.187 175.863 130.08 175.827 130.044L174.678 128.896C174.571 128.789 174.571 128.574 174.678 128.466C174.786 128.359 175.001 128.359 175.109 128.466L176.257 129.614C176.293 129.649 176.401 129.649 176.437 129.614L177.585 128.466C177.693 128.359 177.908 128.359 178.016 128.466C178.124 128.574 178.124 128.789 178.016 128.896L176.868 130.044C176.832 130.08 176.832 130.187 176.868 130.223L178.016 131.37C178.124 131.478 178.124 131.693 178.016 131.801Z" fill="#E6E6E6"/>
<path d="M162.511 150.23C159.855 150.23 157.701 148.079 157.701 145.425C157.701 142.772 159.855 140.621 162.511 140.621C165.167 140.621 167.32 142.772 167.32 145.425C167.32 148.079 165.167 150.23 162.511 150.23ZM162.511 141.051C160.106 141.051 158.132 142.987 158.132 145.425C158.132 147.828 160.07 149.8 162.511 149.8C164.916 149.8 166.89 147.863 166.89 145.425C166.854 143.023 164.916 141.051 162.511 141.051Z" fill="#E6E6E6"/>
<path d="M162.044 147.182C161.937 147.182 161.829 147.146 161.757 147.075L160.68 146.25C160.465 146.107 160.429 145.784 160.609 145.569C160.752 145.354 161.075 145.318 161.291 145.497L161.973 146.035L163.624 143.884C163.767 143.669 164.09 143.633 164.306 143.812C164.521 143.955 164.557 144.278 164.377 144.493L162.439 147.039C162.331 147.111 162.188 147.182 162.044 147.182Z" fill="#E6E6E6"/>
<path d="M176.293 150.23C173.637 150.23 171.484 148.079 171.484 145.425C171.484 142.772 173.637 140.621 176.293 140.621C178.949 140.621 181.103 142.772 181.103 145.425C181.103 148.079 178.949 150.23 176.293 150.23ZM176.293 141.051C173.889 141.051 171.915 142.987 171.915 145.425C171.915 147.828 173.853 149.8 176.293 149.8C178.698 149.8 180.672 147.863 180.672 145.425C180.636 143.023 178.698 141.051 176.293 141.051Z" fill="#E6E6E6"/>
<path d="M178.016 147.075C177.908 147.182 177.693 147.182 177.585 147.075L176.437 145.927C176.401 145.892 176.293 145.892 176.257 145.927L175.109 147.075C175.001 147.182 174.786 147.182 174.678 147.075C174.571 146.967 174.571 146.752 174.678 146.645L175.827 145.497C175.863 145.461 175.863 145.354 175.827 145.318L174.678 144.171C174.571 144.063 174.571 143.848 174.678 143.74C174.786 143.633 175.001 143.633 175.109 143.74L176.257 144.888C176.293 144.924 176.401 144.924 176.437 144.888L177.585 143.74C177.693 143.633 177.908 143.633 178.016 143.74C178.124 143.848 178.124 144.063 178.016 144.171L176.868 145.318C176.832 145.354 176.796 145.461 176.868 145.497L178.016 146.645C178.124 146.788 178.124 146.967 178.016 147.075Z" fill="#E6E6E6"/>
<path d="M164.377 133.056C165.526 133.737 166.997 133.378 167.679 132.231C167.751 132.123 167.823 131.98 167.859 131.837L176.401 132.123L174.068 128.359L166.315 128.681C165.059 128.287 163.695 129.004 163.301 130.259C162.978 131.335 163.408 132.482 164.377 133.056Z" fill="#FFB8B8"/>
<path d="M212.472 151.521C213.333 150.517 213.262 149.011 212.257 148.15C212.149 148.043 212.041 147.971 211.898 147.899L213.656 139.545L209.529 141.159L208.488 148.832C207.878 150.015 208.345 151.485 209.529 152.094C210.534 152.596 211.754 152.345 212.472 151.521Z" fill="#FFB8B8"/>
<path d="M192.48 194.976H189.573L188.173 183.718H192.48V194.976Z" fill="#FFB8B8"/>
<path d="M193.234 197.845H183.795V197.737C183.795 195.693 185.446 194.08 187.456 194.08H193.234V197.845Z" fill="#2F2E41"/>
<path d="M206.837 194.976H203.894L202.494 183.718H206.837V194.976Z" fill="#FFB8B8"/>
<path d="M207.555 197.845H198.115V197.737C198.115 195.693 199.766 194.08 201.776 194.08H207.555V197.845Z" fill="#2F2E41"/>
<path d="M192.803 189.096L188.64 188.917C188.066 188.881 187.599 188.415 187.599 187.805L188.784 149.513L188.855 149.477C196.105 146.86 202.135 147.039 207.232 150.086L207.304 150.122L207.986 187.411C207.986 188.02 207.519 188.486 206.945 188.522C206.945 188.522 206.945 188.522 206.909 188.522H203.427C202.925 188.522 202.458 188.164 202.386 187.662L197.613 163.46C197.577 163.281 197.398 163.137 197.182 163.173C197.039 163.209 196.931 163.317 196.895 163.496L193.916 188.164C193.844 188.702 193.378 189.096 192.839 189.096H192.803Z" fill="#202131"/>
<path d="M196.823 115.953C200.054 115.953 202.674 113.336 202.674 110.109C202.674 106.881 200.054 104.264 196.823 104.264C193.592 104.264 190.973 106.881 190.973 110.109C190.973 113.336 193.592 115.953 196.823 115.953Z" fill="#FFB8B8"/>
<path d="M169.259 131.657C169.187 131.442 169.187 131.227 169.259 131.012L169.869 129.076C170.012 128.646 170.407 128.359 170.838 128.323L178.519 128L191.009 121.618C192.839 121.044 194.778 122.048 195.352 123.877C195.926 125.706 194.921 127.642 193.091 128.215L185.446 132.625C183.113 133.988 180.385 134.418 177.765 133.916L170.048 132.41C169.761 132.339 169.474 132.159 169.33 131.908C169.294 131.837 169.259 131.729 169.259 131.657Z" fill="#CCCCCC"/>
<path d="M212.221 146.106C212.005 146.178 211.79 146.178 211.575 146.142L209.601 145.604C209.17 145.497 208.847 145.103 208.811 144.672L208.129 136.999L201.202 124.809C200.556 123.016 201.453 121.044 203.248 120.363C205.042 119.718 207.016 120.614 207.698 122.407L212.472 129.864C213.908 132.123 214.482 134.848 214.087 137.501L212.903 145.246C212.867 145.533 212.687 145.82 212.436 145.999C212.364 146.035 212.293 146.071 212.221 146.106Z" fill="#CCCCCC"/>
<path d="M190.399 120.543C192.445 118.32 195.388 117.101 198.403 117.316C198.51 117.316 198.582 117.316 198.69 117.352C201.561 117.567 204.181 119.037 205.904 121.331C207.663 123.662 208.309 126.638 207.698 129.47C206.55 134.848 206.837 140.442 208.524 145.676L210.103 150.553C210.283 151.126 209.96 151.736 209.421 151.915C209.35 151.951 209.242 151.951 209.134 151.951L201.094 152.381L199.049 148.832V152.489L189.25 153.027C189.214 153.027 189.214 153.027 189.178 153.027C188.568 153.027 188.102 152.561 188.102 151.951C188.102 151.915 188.102 151.879 188.102 151.879L189.214 138.183L187.815 128.897C187.42 125.813 188.353 122.766 190.399 120.543Z" fill="#CCCCCC"/>
<path d="M200.915 115.702C200.377 116.025 198.223 116.204 198.079 115.63C197.972 115.2 198.044 114.734 198.079 114.268C198.115 113.802 198.079 113.3 197.756 112.977C197.182 112.368 196.141 112.69 195.316 112.511C194.311 112.296 193.593 111.328 193.701 110.288C193.701 110.181 193.737 110.109 193.737 110.001C193.916 109.141 193.378 108.28 192.516 108.101C192.373 108.065 192.229 108.065 192.086 108.065C191.224 108.101 190.327 108.388 189.609 107.742C189.071 107.241 188.927 105.986 189.178 105.304C189.573 104.157 192.157 103.548 193.27 103.225C196.07 102.4 199.084 102.902 201.489 104.587C202.207 105.089 202.853 105.699 203.176 106.523C203.463 107.348 203.32 108.352 202.638 108.89C203.714 110.037 204.109 111.651 203.643 113.157C203.32 114.232 201.705 115.236 200.915 115.702Z" fill="#2F2E41"/>
<path d="M119.908 116.025H82.365C81.3601 116.025 80.5346 115.2 80.5346 114.196C80.5346 113.192 81.3601 112.368 82.365 112.368H119.908C120.913 112.368 121.738 113.192 121.738 114.196C121.738 115.2 120.948 116.025 119.908 116.025Z" fill="#F2C029"/>
<path d="M143.129 117.566H78.5964C78.4529 117.566 78.3452 117.459 78.3452 117.315C78.3452 117.172 78.4529 117.064 78.5964 117.064H143.094C143.237 117.064 143.345 117.172 143.345 117.315C143.345 117.459 143.237 117.566 143.129 117.566Z" fill="#202131"/>
<path d="M119.908 131.299H82.365C81.3601 131.299 80.5346 130.474 80.5346 129.47C80.5346 128.466 81.3601 127.642 82.365 127.642H119.908C120.913 127.642 121.738 128.466 121.738 129.47C121.738 130.474 120.948 131.299 119.908 131.299Z" fill="#F2C029"/>
<path d="M143.129 132.876H78.5964C78.4529 132.876 78.3452 132.769 78.3452 132.625C78.3452 132.482 78.4529 132.374 78.5964 132.374H143.094C143.237 132.374 143.345 132.482 143.345 132.625C143.345 132.769 143.237 132.876 143.129 132.876Z" fill="#202131"/>
<path d="M119.908 146.609H82.365C81.3601 146.609 80.5346 145.784 80.5346 144.78C80.5346 143.776 81.3601 142.951 82.365 142.951H119.908C120.913 142.951 121.738 143.776 121.738 144.78C121.738 145.784 120.948 146.609 119.908 146.609Z" fill="#F2F2F2"/>
<path d="M143.129 148.15H78.5964C78.4529 148.15 78.3452 148.043 78.3452 147.899C78.3452 147.756 78.4529 147.648 78.5964 147.648H143.094C143.237 147.648 143.345 147.756 143.345 147.899C143.345 148.043 143.237 148.15 143.129 148.15Z" fill="#202131"/>
</svg>
