<svg id="eOn9IxHXYw81" xmlns="http://www.w3.org/2000/svg" xmlns:xlink="http://www.w3.org/1999/xlink" viewBox="0 0 1039.310000 790.310000" shape-rendering="geometricPrecision" text-rendering="geometricPrecision"><path id="eOn9IxHXYw82" d="M743.640000,140.240000C694.620000,138,656,151.420000,635,160C541.630000,198.320000,538.220000,222.070000,478.810000,245.450000C376.450000,285.740000,334.460000,235.770000,268.670000,282.800000C230.370000,310.190000,201.560000,357.900000,199.090000,410.800000C196.680000,462.470000,219.640000,513.610000,256.770000,544.590000C304.270000,584.240000,335.560000,558.010000,428.610000,594.590000C508.050000,625.840000,509.290000,654.420000,566.940000,661.020000C611.120000,666.080000,677.530000,657.590000,710.620000,613.360000C736.150000,579.250000,738.710000,533.620000,738.620000,491.010000C738.530000,448.400000,737.190000,403.660000,757.110000,366C770.590000,340.500000,792.590000,320.770000,811.350000,298.860000C830.110000,276.950000,846.520000,250.200000,844.870000,221.400000C843.520000,197.720000,829.560000,175.770000,810.390000,161.810000C791.220000,147.850000,767.340000,141.320000,743.640000,140.240000Z" fill="rgb(140,0,255)" stroke="none" stroke-width="1"/><path id="eOn9IxHXYw83" d="M330.450000,711L330.200000,711C323.451341,711.013398,316.707298,710.646148,310,709.900000C308.720797,709.804561,307.596292,709.016993,307.069349,707.847464C306.542405,706.677935,306.697460,705.313848,307.473447,704.292422C308.249435,703.270996,309.522012,702.755902,310.790000,702.950000C317.246021,703.648870,323.736345,703.982734,330.230000,703.950000L330.480000,703.950000C332.412997,703.950000,333.980000,705.517003,333.980000,707.450000C333.980000,709.382997,332.412997,710.950000,330.480000,710.950000ZM350.300000,710.230000C348.367003,710.290751,346.750751,708.772997,346.690000,706.840000C346.629249,704.907003,348.147003,703.290751,350.080000,703.230000C356.570000,702.800000,363.190000,702.230000,369.770000,701.590000C371.702997,701.396700,373.426700,702.807003,373.620000,704.740000C373.813300,706.672997,372.402997,708.396700,370.470000,708.590000C363.810000,709.260000,357.110000,709.820000,350.540000,710.250000ZM290.840000,706.350000C290.543373,706.347897,290.248018,706.310978,289.960000,706.240000C283.369598,704.531779,276.920532,702.318569,270.670000,699.620000C269.462453,699.165773,268.602708,698.084064,268.432754,696.805155C268.262801,695.526245,268.810201,694.257542,269.857210,693.503708C270.904219,692.749875,272.281039,692.633164,273.440000,693.200000C279.362284,695.747362,285.469939,697.840078,291.710000,699.460000C293.417829,699.898582,294.532744,701.539108,294.311853,703.288463C294.090962,705.037818,292.603246,706.349711,290.840000,706.350000ZM389.840000,706.260000C387.907003,706.387025,386.237025,704.922997,386.110000,702.990000C385.982975,701.057003,387.447003,699.387025,389.380000,699.260000C395.830000,698.400000,402.380000,697.410000,408.930000,696.320000C410.838144,696.002436,412.642436,697.291856,412.960000,699.200000C413.277564,701.108144,411.988144,702.912436,410.080000,703.230000C403.480000,704.330000,396.830000,705.330000,390.310000,706.230000ZM429.060000,699.730000C427.265641,699.721641,425.768263,698.357633,425.593033,696.571831C425.417803,694.786029,426.621490,693.156981,428.380000,692.800000C434.820000,691.520000,441.320000,690.120000,447.710000,688.640000C449.593291,688.203695,451.473695,689.376709,451.910000,691.260000C452.346305,693.143291,451.173291,695.023695,449.290000,695.460000C442.830000,696.960000,436.290000,698.370000,429.750000,699.660000C429.529717,699.706622,429.305163,699.730083,429.080000,699.730000ZM467.800000,690.730000C466.045765,690.725697,464.565694,689.423412,464.338154,687.683992C464.110613,685.944571,465.205900,684.305394,466.900000,683.850000C473.500000,682.100000,479.900000,680.270000,485.900000,678.430000C487.750154,677.863908,489.708908,678.904846,490.275000,680.755000C490.841092,682.605154,489.800154,684.563908,487.950000,685.130000C481.860000,686.990000,475.380000,688.840000,468.700000,690.620000C468.413902,690.704292,468.118131,690.751347,467.820000,690.760000ZM254.470000,690.620000C253.800673,690.619030,253.145335,690.428323,252.580000,690.070000C246.827493,686.346954,241.440152,682.087974,236.490000,677.350000C235.586118,676.485417,235.212146,675.204295,235.508956,673.989219C235.805765,672.774142,236.728264,671.809712,237.928956,671.459218C239.129647,671.108725,240.426118,671.425417,241.330000,672.290000C245.942327,676.719248,250.964875,680.700455,256.330000,684.180000C257.633589,685.022035,258.227039,686.621941,257.787896,688.110404C257.348753,689.598867,255.981892,690.620420,254.430000,690.620000ZM505.830000,679.130000C504.103270,679.141191,502.626409,677.891389,502.351844,676.186592C502.077279,674.481794,503.087069,672.831507,504.730000,672.300000L523.590000,666.040000C525.407528,665.481496,527.338493,666.476210,527.938954,668.280310C528.539416,670.084411,527.589705,672.037903,525.800000,672.680000L507,679C506.627927,679.115554,506.239486,679.169598,505.850000,679.160000ZM543.540000,666.570000C541.821349,666.575937,540.352684,665.333148,540.074171,663.637204C539.795658,661.941259,540.789716,660.294034,542.420000,659.750000Q552.140000,656.480000,561.230000,653.390000C563.060824,652.765918,565.050918,653.744176,565.675000,655.575000C566.299082,657.405824,565.320824,659.395918,563.490000,660.020000Q554.370000,663.130000,544.650000,666.380000C544.301619,666.514091,543.933118,666.588467,543.560000,666.600000ZM225.840000,663.380000C224.727473,663.399029,223.672552,662.886426,223,662C218.983695,656.501904,215.393249,650.705040,212.260000,644.660000C211.671280,643.549440,211.723284,642.208472,212.396244,641.146841C213.069204,640.085211,214.259765,639.465965,215.515356,639.524501C216.770947,639.583037,217.898731,640.310363,218.470000,641.430000C221.437996,647.159043,224.841324,652.651841,228.650000,657.860000C229.790041,659.420308,229.449829,661.609303,227.890000,662.750000C227.299803,663.178448,226.589314,663.409445,225.860000,663.410000ZM581.150000,653.740000C579.507810,653.662826,578.140669,652.453115,577.864160,650.832532C577.587651,649.211949,578.476311,647.617346,580,647C586.700000,644.670000,592.810000,642.500000,598.700000,640.390000C600.489926,639.829163,602.403769,640.779090,603.039401,642.543840C603.675033,644.308591,602.806451,646.260698,601.070000,646.970000C595.160000,649.100000,589.020000,651.270000,582.300000,653.610000C581.934427,653.723927,581.552831,653.777958,581.170000,653.770000ZM618.530000,640.260000C616.832792,640.269129,615.373626,639.059265,615.068282,637.389724C614.762938,635.720184,615.699426,634.072177,617.290000,633.480000C623.790000,631.030000,629.990000,628.610000,635.730000,626.300000C636.891113,625.831982,638.213711,626.018962,639.199583,626.790507C640.185455,627.562051,640.684824,628.800944,640.509583,630.040507C640.334341,631.280069,639.511113,632.331982,638.350000,632.800000C632.560000,635.120000,626.350000,637.560000,619.760000,640.030000C619.374880,640.186451,618.965394,640.274440,618.550000,640.290000ZM207.410000,628.260000C205.945185,628.258246,204.636407,627.344496,204.130000,625.970000C203.830000,625.160000,203.570000,624.430000,203.330000,623.770000L202.970000,622.770000C201.034536,617.474011,199.415023,612.067844,198.120000,606.580000C197.683695,604.680140,198.870140,602.786305,200.770000,602.350000C202.669860,601.913695,204.563695,603.100140,205,605C206.236234,610.218520,207.775509,615.360569,209.610000,620.400000L209.980000,621.400000C210.210000,622.050000,210.470000,622.780000,210.770000,623.570000C211.434927,625.384232,210.503865,627.394073,208.690000,628.060000C208.289423,628.221708,207.861972,628.306520,207.430000,628.310000ZM655.410000,625.350000C653.748740,625.357177,652.311315,624.195552,651.969685,622.569783C651.628056,620.944014,652.476358,619.302080,654,618.640000C660.260000,615.900000,666.290000,613.130000,671.920000,610.390000C673.641535,609.632833,675.653691,610.371505,676.476427,612.062684C677.299163,613.753864,676.638328,615.792909,674.980000,616.680000C669.270000,619.460000,663.150000,622.280000,656.810000,625.060000C656.363290,625.274738,655.875556,625.390703,655.380000,625.400000ZM691.060000,608C689.459394,608.004216,688.059872,606.922081,687.661127,605.371932C687.262383,603.821784,687.966029,602.198651,689.370000,601.430000C695.200000,598.220000,700.890000,594.860000,706.290000,591.430000C707.346472,590.698358,708.718929,590.604518,709.865155,591.185551C711.011380,591.766585,711.747009,592.929036,711.781418,594.213657C711.815826,595.498277,711.143479,596.698441,710.030000,597.340000C704.510000,600.830000,698.700000,604.270000,692.750000,607.540000C692.235269,607.835321,691.653400,607.993700,691.060000,608ZM198.300000,589.740000C196.498203,589.742910,194.990368,588.373727,194.820000,586.580000C194.340000,581.640000,194.100000,576.580000,194.100000,571.580000C194.100000,569.830000,194.100000,568.040000,194.190000,566.260000C194.256274,564.327003,195.877003,562.813726,197.810000,562.880000C199.742997,562.946274,201.256274,564.567003,201.190000,566.500000C201.130000,568.190000,201.110000,569.900000,201.110000,571.580000C201.110000,576.370000,201.340000,581.180000,201.790000,585.890000C201.881966,586.813316,201.602462,587.735245,201.013257,588.452049C200.424052,589.168852,199.573656,589.621514,198.650000,589.710000C198.534439,589.730246,198.417321,589.740285,198.300000,589.740000ZM724.590000,586.740000C723.068392,586.746287,721.717051,585.768741,721.246843,584.321594C720.776634,582.874447,721.295300,581.289296,722.530000,580.400000C727.410000,576.880000,732.650000,573.070000,738.440000,568.640000C739.433198,567.879024,740.756927,567.705719,741.912551,568.185366C743.068174,568.665013,743.880126,569.724743,744.042551,570.965366C744.204976,572.205989,743.693198,573.439024,742.700000,574.200000C736.840000,578.680000,731.550000,582.530000,726.630000,586.080000C726.033989,586.503234,725.320997,586.730412,724.590000,586.730000ZM756.070000,562.470000C754.602322,562.468749,753.291310,561.551934,752.786515,560.173797C752.281719,558.795660,752.690371,557.248952,753.810000,556.300000C758.870000,552.040000,763.810000,547.640000,768.550000,543.230000C769.969578,541.975744,772.129403,542.078527,773.423459,543.461921C774.717515,544.845316,774.676096,547.007188,773.330000,548.340000C768.520000,552.830000,763.470000,557.340000,758.330000,561.650000C757.694863,562.176496,756.894977,562.463181,756.070000,562.460000ZM199.600000,550.120000C198.581792,550.129019,197.611008,549.690360,196.944860,548.920246C196.278711,548.150132,195.984435,547.126295,196.140000,546.120000C197.201874,539.436515,198.671281,532.824186,200.540000,526.320000C200.862626,525.094164,201.822827,524.138569,203.050200,523.821842C204.277572,523.505115,205.580272,523.876762,206.455774,524.793418C207.331275,525.710073,207.642733,527.028460,207.270000,528.240000C205.481600,534.482472,204.072361,540.827387,203.050000,547.240000C202.745879,548.906878,201.294394,550.118552,199.600000,550.120000ZM785.080000,535.310000C783.675356,535.316036,782.403988,534.479385,781.853830,533.186951C781.303672,531.894516,781.581960,530.398215,782.560000,529.390000C787.090000,524.670000,791.560000,519.770000,795.790000,514.820000C796.598557,513.850360,797.866663,513.391331,799.108535,513.618756C800.350406,513.846182,801.373545,514.724810,801.786010,515.918057C802.198475,517.111305,801.936331,518.434211,801.100000,519.380000C796.770000,524.380000,792.230000,529.380000,787.610000,534.240000C786.946383,534.924591,786.033442,535.310696,785.080000,535.310000ZM210.510000,512C209.334397,511.997832,208.238409,511.405613,207.592351,510.423444C206.946293,509.441274,206.836474,508.200366,207.300000,507.120000C209.961604,500.837590,213.121690,494.778250,216.750000,489C217.391559,487.886521,218.591723,487.214174,219.876343,487.248582C221.160964,487.282991,222.323415,488.018620,222.904449,489.164845C223.485482,490.311071,223.391642,491.683528,222.660000,492.740000C219.234224,498.193968,216.248122,503.912035,213.730000,509.840000C213.189977,511.143067,211.920525,511.994625,210.510000,512ZM811,505.160000C809.667017,505.161049,808.449163,504.404835,807.858986,503.209622C807.268809,502.014408,807.408784,500.587721,808.220000,499.530000C810.720000,496.270000,813.220000,492.920000,815.550000,489.590000L819.830000,483.590000C820.489980,482.440177,821.742981,481.761951,823.066563,481.838111C824.390144,481.914270,825.557082,482.731740,826.080821,483.949675C826.604559,485.167610,826.395186,486.576923,825.540000,487.590000L821.260000,493.590000C818.840000,496.990000,816.330000,500.400000,813.780000,503.730000C813.129526,504.617030,812.099891,505.146662,811,505.160000ZM231.750000,478.640000C230.362283,478.642124,229.104373,477.824168,228.543381,476.554896C227.982389,475.285624,228.224279,473.804788,229.160000,472.780000C233.900000,467.570000,238.640000,463.210000,242.830000,459.360000L243.590000,458.670000C245.016522,457.376807,247.219698,457.478704,248.520765,458.898049C249.821831,460.317394,249.732125,462.521101,248.320000,463.830000L247.590000,464.500000C243.290000,468.450000,238.870000,472.500000,234.340000,477.500000C233.676363,478.228662,232.735573,478.642755,231.750000,478.640000ZM834,472.750000C832.705157,472.750102,831.516053,472.035317,830.908673,470.891767C830.301292,469.748217,830.374888,468.362767,831.100000,467.290000C835.100000,461.370000,838.570000,455.940000,841.740000,450.700000C842.742397,449.043146,844.898146,448.512603,846.555000,449.515000C848.211854,450.517397,848.742397,452.673146,847.740000,454.330000C844.510000,459.660000,840.970000,465.180000,836.910000,471.200000C836.263080,472.173929,835.169187,472.756587,834,472.750000ZM259.310000,450.140000C258.035628,450.132611,256.865379,449.435072,256.252661,448.317640C255.639942,447.200207,255.681028,445.838460,256.360000,444.760000C258.155195,441.868597,259.630540,438.790492,260.760000,435.580000C261.732486,433.012002,262.455813,430.356450,262.920000,427.650000C263.065261,426.372907,263.898830,425.278183,265.091279,424.798463C266.283728,424.318743,267.643181,424.531219,268.632381,425.351920C269.621580,426.172621,270.081354,427.469489,269.830000,428.730000C269.306377,431.884498,268.472325,434.979535,267.340000,437.970000C266.040493,441.658155,264.340324,445.192627,262.270000,448.510000C261.627003,449.523772,260.510490,450.138608,259.310000,450.140000ZM854.450000,438.690000C853.892814,438.692672,853.343461,438.558767,852.850000,438.300000C852.023731,437.877138,851.399947,437.142551,851.116581,436.258676C850.833215,435.374800,850.913615,434.414456,851.340000,433.590000C854.420000,427.590000,857.180000,421.640000,859.560000,415.840000C860.291777,414.050597,862.335597,413.193223,864.125000,413.925000C865.914403,414.656777,866.771777,416.700597,866.040000,418.490000C863.580000,424.490000,860.730000,430.640000,857.560000,436.790000C856.960849,437.955677,855.760643,438.688923,854.450000,438.690000ZM264.720000,412C263.082271,411.996963,261.665619,410.858656,261.310000,409.260000C260.670000,406.420000,259.880000,403.170000,258.880000,399.170000L258.880000,399.060000C258.170000,396.240000,257.420000,393.230000,256.650000,389.990000C256.202649,388.109470,257.364470,386.222351,259.245000,385.775000C261.125530,385.327649,263.012649,386.489470,263.460000,388.370000C264.230000,391.580000,264.970000,394.570000,265.670000,397.370000L265.670000,397.480000C266.670000,401.530000,267.480000,404.820000,268.130000,407.730000C268.552283,409.616015,267.365927,411.487324,265.480000,411.910000C265.230803,411.968174,264.975892,411.998361,264.720000,412ZM869.380000,401.900000C869.041871,401.898753,868.705472,401.851657,868.380000,401.760000C866.524323,401.218761,865.458761,399.275677,866,397.420000C867.827541,391.175690,869.296604,384.832007,870.400000,378.420000C870.725848,376.514618,872.534618,375.234152,874.440000,375.560000C876.345382,375.885848,877.625848,377.694618,877.300000,379.600000C876.156411,386.263044,874.627174,392.854120,872.720000,399.340000C872.308708,400.850020,870.944944,401.903467,869.380000,401.920000ZM255.920000,373.260000C254.231062,373.258633,252.784008,372.051352,252.480000,370.390000C251.270000,363.760000,250.290000,357.270000,249.480000,350.530000C249.331735,349.279570,249.861828,348.045027,250.870599,347.291411C251.879371,346.537795,253.213563,346.379598,254.370599,346.876411C255.527636,347.373224,256.331735,348.449570,256.480000,349.700000C257.270000,356.290000,258.230000,362.650000,259.420000,369.130000C259.586101,370.043711,259.382255,370.985977,258.853346,371.749333C258.324436,372.512688,257.513828,373.034544,256.600000,373.200000C256.375958,373.243033,256.148116,373.263137,255.920000,373.260000ZM876,362.830000L875.830000,362.830000C874.903059,362.788630,874.031022,362.378799,873.407622,361.691556C872.784221,361.004314,872.461084,360.096573,872.510000,359.170000C872.630000,356.620000,872.690000,354.030000,872.690000,351.460000C872.690000,347.580000,872.550000,343.640000,872.270000,339.730000C872.129167,337.797003,873.582003,336.115833,875.515000,335.975000C877.447997,335.834167,879.129167,337.287003,879.270000,339.220000C879.560000,343.300000,879.710000,347.420000,879.710000,351.460000C879.710000,354.140000,879.650000,356.840000,879.520000,359.460000C879.449797,361.349826,877.891091,362.842110,876,362.830000ZM251.140000,333.830000C249.297227,333.828718,247.771096,332.398790,247.650000,330.560000C247.170000,323.320000,246.820000,316.800000,246.580000,310.620000C246.505442,308.687003,248.012003,307.059558,249.945000,306.985000C251.877997,306.910442,253.505442,308.417003,253.580000,310.350000C253.830000,316.460000,254.170000,322.920000,254.650000,330.100000C254.710278,331.027075,254.399497,331.940079,253.786133,332.637851C253.172769,333.335623,252.307151,333.760907,251.380000,333.820000ZM873.200000,323.290000C871.517077,323.281595,870.075531,322.083101,869.760000,320.430000C868.560160,314.047156,867.001014,307.737120,865.090000,301.530000C864.526705,299.684434,865.563379,297.731127,867.407545,297.163267C869.251712,296.595407,871.207579,297.627244,871.780000,299.470000C873.768438,305.930104,875.391014,312.497195,876.640000,319.140000C876.812455,320.051174,876.615179,320.993520,876.091720,321.759007C875.568262,322.524495,874.761668,323.050175,873.850000,323.220000C873.642106,323.258004,873.431331,323.278078,873.220000,323.280000ZM249.680000,294.100000L249.680000,294.100000C247.747003,294.100000,246.180000,292.532997,246.180000,290.600000C246.180000,283.600000,246.360000,276.840000,246.710000,270.540000C246.814934,268.607003,248.467003,267.125066,250.400000,267.230000C252.332997,267.334934,253.814934,268.987003,253.710000,270.920000C253.370000,277.100000,253.190000,283.720000,253.190000,290.600000C253.192682,291.530813,252.823419,292.424131,252.164294,293.081378C251.505169,293.738625,250.610802,294.105338,249.680000,294.100000ZM861.580000,285.360000C860.183545,285.354807,858.923006,284.522302,858.370000,283.240000C855.786077,277.268183,852.895563,271.433751,849.710000,265.760000C848.765593,264.072770,849.367770,261.939407,851.055000,260.995000C852.742230,260.050593,854.875593,260.652770,855.820000,262.340000C859.129171,268.224864,862.133148,274.276208,864.820000,280.470000C865.586498,282.242853,864.771988,284.301505,863,285.070000C862.550810,285.260613,862.067960,285.359223,861.580000,285.360000ZM252,254.430000L251.550000,254.430000C250.632300,254.308112,249.800626,253.826603,249.237995,253.091432C248.675364,252.356261,248.427879,251.427669,248.550000,250.510000C249.450000,243.560000,250.650000,236.870000,252.090000,230.610000C252.526305,228.726709,254.406709,227.553695,256.290000,227.990000C258.173291,228.426305,259.346305,230.306709,258.910000,232.190000C257.520000,238.190000,256.370000,244.690000,255.490000,251.410000C255.253324,253.151983,253.757915,254.446005,252,254.430000ZM842.240000,250.700000C841.090256,250.700257,840.013712,250.135819,839.360000,249.190000C837.660000,246.720000,835.870000,244.240000,834.040000,241.820000C831.970000,239.070000,829.780000,236.300000,827.540000,233.600000C826.741511,232.637169,826.517342,231.321488,826.951933,230.148562C827.386525,228.975635,828.413853,228.123658,829.646933,227.913561C830.880013,227.703465,832.131511,228.167169,832.930000,229.130000C835.240000,231.920000,837.500000,234.770000,839.630000,237.610000C841.510000,240.100000,843.360000,242.610000,845.120000,245.200000C845.858042,246.272322,845.942005,247.665038,845.338136,248.818260C844.734267,249.971483,843.541754,250.695789,842.240000,250.700000ZM817,220.080000C816.053337,220.086004,815.145798,219.702741,814.490000,219.020000C810.020000,214.430000,805.250000,209.870000,800.300000,205.460000C799.332885,204.638188,798.886420,203.357235,799.133197,202.112331C799.379974,200.867426,800.281323,199.853651,801.488802,199.462908C802.696282,199.072165,804.020675,199.365685,804.950000,200.230000C810.030000,204.750000,814.950000,209.430000,819.510000,214.140000C820.490770,215.148611,820.772314,216.646427,820.224722,217.942323C819.677129,219.238220,818.406842,220.080296,817,220.080000ZM261.170000,215.820000C260.757734,215.818459,260.348675,215.747466,259.960000,215.610000C259.088344,215.288312,258.380366,214.633241,257.992081,213.789143C257.603795,212.945045,257.567071,211.981197,257.890000,211.110000C260.228237,204.714840,263.063566,198.512556,266.370000,192.560000C267.339861,190.932985,269.428086,190.372764,271.082081,191.295861C272.736076,192.218958,273.355583,194.290369,272.480000,195.970000C269.365879,201.608972,266.691282,207.479712,264.480000,213.530000C263.966255,214.934333,262.614938,215.855321,261.120000,215.820000ZM787.390000,193.570000C786.602519,193.573475,785.837275,193.308990,785.220000,192.820000C780.120000,188.820000,774.780000,184.920000,769.370000,181.320000C767.760090,180.248568,767.323568,178.074910,768.395000,176.465000C769.466432,174.855090,771.640090,174.418568,773.250000,175.490000C778.820000,179.200000,784.310000,183.180000,789.560000,187.330000C790.724150,188.255239,791.176554,189.815082,790.688116,191.219625C790.199677,192.624168,788.877045,193.566731,787.390000,193.570000ZM280.490000,181.320000C279.143790,181.319930,277.916932,180.547757,277.334593,179.334018C276.752254,178.120279,276.917657,176.680114,277.760000,175.630000C282.007252,170.319838,286.650527,165.338930,291.650000,160.730000C292.563455,159.852897,293.879457,159.537635,295.091188,159.905629C296.302918,160.273624,297.221354,161.267467,297.492787,162.504413C297.764221,163.741359,297.346310,165.028449,296.400000,165.870000C291.662565,170.246862,287.257089,174.969879,283.220000,180C282.559626,180.834186,281.553936,181.320454,280.490000,181.320000ZM754.280000,171.570000C753.688368,171.569803,753.106612,171.418340,752.590000,171.130000C746.910000,167.990000,741.030000,165.020000,735.090000,162.320000C733.816318,161.895654,732.897598,160.780154,732.725254,159.448751C732.552910,158.117348,733.157316,156.804686,734.280969,156.070016C735.404622,155.335346,736.849491,155.308144,738,156C744.100000,158.780000,750.160000,161.830000,756,165.060000C757.394688,165.834344,758.089321,167.453788,757.689142,168.998009C757.288962,170.542231,755.895231,171.620483,754.300000,171.620000ZM718.140000,155.130000C717.729987,155.129839,717.323404,155.055299,716.940000,154.910000C710.850000,152.700000,704.570000,150.680000,698.270000,148.910000C697.063192,148.574811,696.127482,147.620303,695.816361,146.407067C695.505240,145.193831,695.866137,143.906822,696.762714,143.032243C697.659290,142.157665,698.954865,141.828843,700.160000,142.170000C706.620000,143.970000,713.070000,146.040000,719.340000,148.320000C720.938227,148.900072,721.888391,150.544829,721.592492,152.219122C721.296594,153.893416,719.840237,155.112868,718.140000,155.110000ZM309.560000,154.430000C308.020229,154.441364,306.653898,153.445062,306.193956,151.975546C305.734013,150.506030,306.288512,148.908530,307.560000,148.040000C313.149352,144.216828,318.974245,140.749948,325,137.660000C326.115382,137.067623,327.463395,137.122082,328.527356,137.802504C329.591318,138.482927,330.206197,139.683771,330.136315,140.944765C330.066433,142.205759,329.322631,143.331308,328.190000,143.890000C322.426301,146.841484,316.855166,150.154773,311.510000,153.810000C310.936819,154.207410,310.257444,154.423416,309.560000,154.430000ZM679.890000,144.430000C679.658407,144.426688,679.427540,144.403266,679.200000,144.360000C674.950000,143.510000,670.640000,142.770000,666.390000,142.140000L665.060000,141.980000L659.910000,141.520000C657.977003,141.343269,656.553269,139.632997,656.730000,137.700000C656.906731,135.767003,658.617003,134.343269,660.550000,134.520000L665.690000,134.980000C666.260000,135.030000,666.830000,135.100000,667.390000,135.190000C671.770000,135.830000,676.200000,136.590000,680.570000,137.460000C682.353474,137.794031,683.585939,139.435650,683.408999,141.241487C683.232058,143.047324,681.704391,144.418497,679.890000,144.400000ZM640.440000,139.730000L640.120000,139.730000L620.320000,137.930000C618.387003,137.753269,616.963269,136.042997,617.140000,134.110000C617.316731,132.177003,619.027003,130.753269,620.960000,130.930000L640.750000,132.730000C642.682997,132.815604,644.180604,134.452003,644.095000,136.385000C644.009396,138.317997,642.372997,139.815604,640.440000,139.730000ZM344.800000,136.230000C343.113164,136.226233,341.668995,135.019820,341.365087,133.360582C341.061179,131.701344,341.984005,130.061390,343.560000,129.460000C348.210000,127.700000,353.080000,126.070000,358.020000,124.610000Q360.410000,123.910000,362.790000,123.260000C364.656722,122.754659,366.579659,123.858278,367.085000,125.725000C367.590341,127.591722,366.486722,129.514659,364.620000,130.020000C363.090000,130.430000,361.540000,130.870000,360,131.320000C355.220000,132.730000,350.520000,134.320000,346,136C345.619053,136.157317,345.212076,136.242104,344.800000,136.250000ZM600.850000,136.130000L600.530000,136.130000L580.730000,134.330000C578.797003,134.153269,577.373269,132.442997,577.550000,130.510000C577.726731,128.577003,579.437003,127.153269,581.370000,127.330000L601.160000,129.130000C603.092997,129.215604,604.590604,130.852003,604.505000,132.785000C604.419396,134.717997,602.782997,136.215604,600.850000,136.130000ZM561.260000,132.530000L560.940000,132.530000L541.140000,130.730000C539.207003,130.553269,537.783269,128.842997,537.960000,126.910000C538.136731,124.977003,539.847003,123.553269,541.780000,123.730000L561.570000,125.530000C563.502997,125.615604,565.000604,127.252003,564.915000,129.185000C564.829396,131.117997,563.192997,132.615604,561.260000,132.530000ZM521.670000,129L521.350000,129L501.550000,127.200000C499.617003,127.023269,498.193269,125.312997,498.370000,123.380000C498.546731,121.447003,500.257003,120.023269,502.190000,120.200000L522,122C523.932997,122.085604,525.430604,123.722003,525.345000,125.655000C525.259396,127.587997,523.622997,129.085604,521.690000,129ZM383.090000,125.800000C381.287256,125.787215,379.789122,124.407166,379.628705,122.611528C379.468288,120.815890,380.698070,119.192136,382.470000,118.860000C388.950000,117.690000,395.670000,116.740000,402.420000,116.040000C404.352997,115.843939,406.078939,117.252003,406.275000,119.185000C406.471061,121.117997,405.062997,122.843939,403.130000,123.040000C396.560000,123.710000,390.030000,124.640000,383.720000,125.780000C383.511095,125.806452,383.300162,125.813148,383.090000,125.800000ZM482.090000,125.360000L481.770000,125.360000L461.970000,123.560000C460.037003,123.383269,458.613269,121.672997,458.790000,119.740000C458.966731,117.807003,460.677003,116.383269,462.610000,116.560000L482.400000,118.360000C484.332997,118.445604,485.830604,120.082003,485.745000,122.015000C485.659396,123.947997,484.022997,125.445604,482.090000,125.360000ZM442.500000,121.820000L442.330000,121.820000C436.100000,121.530000,429.330000,121.500000,422.730000,121.710000C420.797003,121.770751,419.180751,120.252997,419.120000,118.320000C419.059249,116.387003,420.577003,114.770751,422.510000,114.710000C429.320000,114.500000,436.250000,114.530000,442.650000,114.830000C444.582997,114.871421,446.116421,116.472003,446.075000,118.405000C446.033579,120.337997,444.432997,121.871421,442.500000,121.830000Z" fill="rgb(234,237,239)" stroke="none" stroke-width="1"/><path id="eOn9IxHXYw84" d="M343.480000,679.200000C417.870000,675.030000,476.480000,656,486.600000,652.660000C602.680000,614.170000,660.730000,594.930000,707.470000,561.190000C729.720000,545.130000,764.080000,519.880000,795.630000,475.460000C821.870000,438.520000,852.630000,395.860000,847.800000,339.460000C841.900000,271.200000,790,228.260000,773.050000,214.400000C730.050000,179.220000,684.570000,169.510000,662.850000,166.320000L442,146.210000C428.870000,145.550000,338.720000,142.210000,298.090000,200.870000C275.150000,234.010000,276.150000,286.140000,279.090000,330.270000C283.520000,395.840000,303.300000,410.270000,290.240000,446.270000C276.410000,484.400000,249.400000,481.330000,233.350000,526.590000C229.990000,536.070000,217.820000,572.030000,232.450000,612.040000C236,621.750000,245.790000,651.040000,274.450000,666.580000C298,679.400000,320.810000,680.480000,343.480000,679.200000Z" fill="rgb(234,237,239)" stroke="none" stroke-width="1"/><path id="eOn9IxHXYw85" d="M512.550000,107.820000C487.448658,107.820000,467.100000,87.471342,467.100000,62.370000C467.100000,37.268658,487.448658,16.920000,512.550000,16.920000C537.651342,16.920000,558,37.268658,558,62.370000C557.972444,87.459919,537.639919,107.792444,512.550000,107.820000ZM512.550000,31.500000C500.058387,31.495955,488.794717,39.018143,484.012515,50.558115C479.230313,62.098088,481.871639,75.382551,490.704544,84.215456C499.537449,93.048361,512.821912,95.689687,524.361885,90.907485C535.901857,86.125283,543.424045,74.861613,543.420000,62.370000C543.397963,45.330106,529.589894,31.522037,512.550000,31.500000Z" opacity="0" fill="rgb(140,0,255)" stroke="none" stroke-width="1"/><path id="eOn9IxHXYw86" d="M164.660000,355.620000L163.600000,355.620000C155.192783,354.953087,148.735789,347.893207,148.820000,339.460000L148.820000,335.180000C148.814484,332.052451,146.277553,329.519995,143.150000,329.520000L138.510000,329.520000C134.138407,329.516076,129.962541,327.706776,126.970000,324.520000C123.956518,321.335327,122.415082,317.033813,122.720000,312.660000C123.386913,304.252783,130.446793,297.795789,138.880000,297.880000L143.150000,297.880000C146.277553,297.880005,148.814484,295.347549,148.820000,292.220000L148.820000,287.570000C148.825115,283.198654,150.634219,279.023241,153.820000,276.030000C157.008404,273.016005,161.313142,271.474713,165.690000,271.780000C174.094904,272.451643,180.549294,279.508675,180.470000,287.940000L180.470000,292.220000C180.475504,295.343649,183.006351,297.874496,186.130000,297.880000L190.410000,297.880000C198.843207,297.795789,205.903087,304.252783,206.570000,312.660000C206.869960,317.033127,205.329216,321.332707,202.320000,324.520000C199.324667,327.702804,195.150604,329.511323,190.780000,329.520000L186.130000,329.520000C183.006351,329.525504,180.475504,332.056351,180.470000,335.180000L180.470000,339.830000C180.463696,344.201098,178.654787,348.376061,175.470000,351.370000C172.544715,354.120042,168.674917,355.641470,164.660000,355.620000ZM138.880000,307.890000C135.753289,307.829476,133.095743,310.161874,132.750000,313.270000C132.639049,314.866606,133.196229,316.437569,134.288384,317.607465C135.380540,318.777360,136.909544,319.441077,138.510000,319.440000L143.150000,319.440000C151.825730,319.445508,158.858971,326.474275,158.870000,335.150000L158.870000,339.430000C158.809476,342.556711,161.141874,345.214257,164.250000,345.560000C165.848989,345.667339,167.420771,345.105988,168.590000,344.010000C169.762081,342.924457,170.425800,341.397543,170.420000,339.800000L170.420000,335.150000C170.431019,326.478175,177.458175,319.451019,186.130000,319.440000L190.780000,319.440000C192.379502,319.438111,193.906711,318.773491,194.998217,317.604291C196.089722,316.435092,196.647926,314.865858,196.540000,313.270000C196.194257,310.161874,193.536711,307.829476,190.410000,307.890000L186.130000,307.890000C177.458175,307.878981,170.431019,300.851825,170.420000,292.180000L170.420000,287.900000C170.475786,284.775023,168.145791,282.120215,165.040000,281.770000C163.443394,281.659049,161.872431,282.216229,160.702535,283.308384C159.532640,284.400540,158.868923,285.929544,158.870000,287.530000L158.870000,292.180000C158.858971,300.855725,151.825730,307.884492,143.150000,307.890000Z" fill="rgb(234,237,239)" stroke="none" stroke-width="1"/><path id="eOn9IxHXYw87" d="M563.910000,777.320000C557.859963,777.336640,552.054949,774.931088,547.790000,770.640000L521.840000,744.700000C512.948633,735.788521,512.948633,721.361479,521.840000,712.450000L547.790000,686.450000C552.066070,682.172356,557.866611,679.769069,563.915000,679.769069C569.963389,679.769069,575.763930,682.172356,580.040000,686.450000L605.980000,712.450000C614.871367,721.361479,614.871367,735.788521,605.980000,744.700000L580,770.640000C575.741742,774.922747,569.949423,777.327513,563.910000,777.320000ZM563.910000,696.320000C562.240447,696.314350,560.638034,696.976921,559.460000,698.160000L533.460000,724.100000C531.011542,726.561474,531.011542,730.538526,533.460000,733L559.460000,759C561.953520,761.369531,565.866480,761.369531,568.360000,759L594.310000,733C596.758458,730.538526,596.758458,726.561474,594.310000,724.100000L568.360000,698.160000C567.178675,696.984254,565.576670,696.329052,563.910000,696.340000Z" opacity="0" fill="rgb(234,237,239)" stroke="none" stroke-width="1"/><path id="eOn9IxHXYw88" d="M820.140000,578.470000C820.144045,586.592511,815.254276,593.917476,807.751215,597.028629C800.248154,600.139783,791.609749,598.424293,785.864835,592.682240C780.119922,586.940188,778.400129,578.302638,781.507544,570.798028C784.614960,563.293419,791.937488,558.400001,800.060000,558.400000C811.145974,558.399999,820.134479,567.384028,820.140000,578.470000Z" fill="rgb(234,237,239)" stroke="none" stroke-width="1"/><path id="eOn9IxHXYw89" d="M162,480.870000C162,491.650598,153.260599,500.390000,142.480000,500.390000C131.699402,500.390000,122.960000,491.650599,122.960000,480.870000C122.960000,470.089402,131.699401,461.350000,142.480000,461.350000C153.260598,461.350000,162,470.089402,162,480.870000Z" fill="rgb(140,0,255)" stroke="none" stroke-width="1"/><path id="eOn9IxHXYw810" d="M902.390000,178.770000L892.390000,188.770000L882.390000,178.770000C879.131271,175.521558,873.858729,175.521558,870.600000,178.770000L870.600000,178.770000C869.034276,180.334275,868.154540,182.456757,868.154540,184.670000C868.154540,186.883243,869.034276,189.005725,870.600000,190.570000L880.600000,200.570000L870.600000,210.570000C869.034883,212.132567,868.155395,214.253393,868.155395,216.465000C868.155395,218.676607,869.034883,220.797433,870.600000,222.360000L870.600000,222.360000C872.162567,223.925117,874.283393,224.804605,876.495000,224.804605C878.706607,224.804605,880.827433,223.925117,882.390000,222.360000L892.390000,212.360000L902.390000,222.360000C903.954275,223.925724,906.076757,224.805460,908.290000,224.805460C910.503243,224.805460,912.625725,223.925724,914.190000,222.360000L914.190000,222.360000C917.438442,219.101271,917.438442,213.828729,914.190000,210.570000L904.190000,200.570000L914.190000,190.570000C917.439595,187.307845,917.439595,182.032155,914.190000,178.770000L914.190000,178.770000C910.927845,175.520405,905.652155,175.520405,902.390000,178.770000Z" fill="rgb(140,0,255)" stroke="none" stroke-width="1"/><path id="eOn9IxHXYw811" d="M717.060000,234.060000L313,234.060000C311.461744,234.060000,309.986492,234.671070,308.898781,235.758781C307.811070,236.846492,307.200000,238.321744,307.200000,239.860000L307.200000,513.660000C307.200000,516.863252,309.796748,519.460000,313,519.460000L717,519.460000C718.692156,519.472260,720.304396,518.741085,721.410000,517.460000C721.458730,517.411288,721.502295,517.357670,721.540000,517.300000C721.883015,516.875998,722.162603,516.404404,722.370000,515.900000C722.659449,515.202596,722.808951,514.455085,722.810000,513.700000L722.810000,239.860000C722.804694,236.678409,720.241425,234.092852,717.060000,234.060000ZM721.210000,513.660000C721.209352,514.466760,720.973002,515.255752,720.530000,515.930000C720.132074,516.526945,719.588202,517.012300,718.950000,517.340000C718.367448,517.646513,717.718253,517.804518,717.060000,517.800000L313,517.800000C310.711918,517.800007,308.855513,515.948075,308.850000,513.660000L308.850000,239.860000C308.855513,237.571925,310.711918,235.719993,313,235.720000L717,235.720000C718.099728,235.717344,719.155324,236.152348,719.933889,236.929037C720.712453,237.705725,721.150003,238.760269,721.150000,239.860000Z" fill="rgb(32,33,49)" stroke="none" stroke-width="1"/><rect id="eOn9IxHXYw812" width="413.570000" height="283.210000" rx="6.040000" ry="6.040000" transform="matrix(1 0 0 1 308.02999999999997 236.54499878000001)" fill="rgb(255,255,255)" stroke="none" stroke-width="1"/><rect id="eOn9IxHXYw813" width="414" height="1.660000" rx="0" ry="0" transform="matrix(1 0 0 1 308.02999999999997 257.31999999999999)" fill="rgb(32,33,49)" stroke="none" stroke-width="1"/><circle id="eOn9IxHXYw814" r="4.980000" transform="matrix(1 0 0 1 322.13999999999999 246.50000000000000)" fill="rgb(32,33,49)" stroke="none" stroke-width="1"/><circle id="eOn9IxHXYw815" r="4.980000" transform="matrix(1 0 0 1 350.75999999999999 246.50000000000000)" fill="rgb(32,33,49)" stroke="none" stroke-width="1"/><circle id="eOn9IxHXYw816" r="4.980000" transform="matrix(1 0 0 1 336.44999999999999 246.50000000000000)" fill="rgb(32,33,49)" stroke="none" stroke-width="1"/><g id="eOn9IxHXYw817"><path id="eOn9IxHXYw818" d="M575.340000,393.420000C569.907162,393.419998,565.009466,390.146801,562.931344,385.127126C560.853223,380.107451,562.004070,374.330185,565.847097,370.490020C569.690124,366.649854,575.468246,365.503310,580.486371,367.585170C585.504497,369.667030,588.774045,374.567164,588.770000,380C588.764480,387.413279,582.753281,393.420002,575.340000,393.420000ZM575.340000,367.840000C570.420831,367.835955,565.983786,370.796077,564.098498,375.339636C562.213209,379.883195,563.251098,385.115067,566.728045,388.594877C570.204993,392.074686,575.436009,393.116878,579.981118,391.235329C584.526226,389.353779,587.489998,384.919171,587.490000,380L587.490000,380C587.490000,373.289740,582.050260,367.850000,575.340000,367.850000Z" fill="rgb(242,242,242)" stroke="none" stroke-width="1"/><path id="eOn9IxHXYw819" d="M574.070000,384.870000C573.782338,384.871450,573.501846,384.780290,573.270000,384.610000L573.270000,384.610000L570.270000,382.310000C569.854577,382.032081,569.628356,381.546059,569.683184,381.049260C569.738013,380.552460,570.064776,380.127467,570.530808,379.946829C570.996839,379.766190,571.524671,379.859934,571.900000,380.190000L573.840000,381.680000L578.440000,375.680000C578.655980,375.397304,578.975511,375.212098,579.328165,375.165202C579.680819,375.118307,580.037647,375.213572,580.320000,375.430000L580.320000,375.430000L580.320000,375.430000L580.320000,375.430000C580.897337,375.882009,581.008326,376.712208,580.570000,377.300000L575.150000,384.360000C574.898198,384.690500,574.505481,384.883154,574.090000,384.880000Z" fill="rgb(242,242,242)" stroke="none" stroke-width="1"/></g><g id="eOn9IxHXYw820"><path id="eOn9IxHXYw821" d="M575.340000,393.420000C569.907162,393.419998,565.009466,390.146801,562.931344,385.127126C560.853223,380.107451,562.004070,374.330185,565.847097,370.490020C569.690124,366.649854,575.468246,365.503310,580.486371,367.585170C585.504497,369.667030,588.774045,374.567164,588.770000,380C588.764480,387.413279,582.753281,393.420002,575.340000,393.420000ZM575.340000,367.840000C570.420831,367.835955,565.983786,370.796077,564.098498,375.339636C562.213209,379.883195,563.251098,385.115067,566.728045,388.594877C570.204993,392.074686,575.436009,393.116878,579.981118,391.235329C584.526226,389.353779,587.489998,384.919171,587.490000,380L587.490000,380C587.490000,373.289740,582.050260,367.850000,575.340000,367.850000Z" opacity="0" fill="rgb(242,192,41)" stroke="none" stroke-width="1"/><path id="eOn9IxHXYw822" d="M574.070000,384.870000C573.782338,384.871450,573.501846,384.780290,573.270000,384.610000L573.270000,384.610000L570.270000,382.310000C569.854577,382.032081,569.628356,381.546059,569.683184,381.049260C569.738013,380.552460,570.064776,380.127467,570.530808,379.946829C570.996839,379.766190,571.524671,379.859934,571.900000,380.190000L573.840000,381.680000L578.440000,375.680000C578.655980,375.397304,578.975511,375.212098,579.328165,375.165202C579.680819,375.118307,580.037647,375.213572,580.320000,375.430000L580.320000,375.430000L580.320000,375.430000L580.320000,375.430000C580.897337,375.882009,581.008326,376.712208,580.570000,377.300000L575.150000,384.360000C574.898198,384.690500,574.505481,384.883154,574.090000,384.880000Z" opacity="0" fill="rgb(242,192,41)" stroke="none" stroke-width="1"/></g><path id="eOn9IxHXYw823" d="M456.720000,383.240000L352,383.240000C349.188871,383.240000,346.910000,380.961129,346.910000,378.150000C346.910000,375.338871,349.188871,373.060000,352,373.060000L456.720000,373.060000C459.531129,373.060000,461.810000,375.338871,461.810000,378.150000C461.810000,380.961129,459.531129,383.240000,456.720000,383.240000Z" fill="rgb(242,242,242)" stroke="none" stroke-width="1"/><path id="eOn9IxHXYw824" d="M456.720000,383.240000L352,383.240000C349.188871,383.240000,346.910000,380.961129,346.910000,378.150000C346.910000,375.338871,349.188871,373.060000,352,373.060000L456.720000,373.060000C459.531129,373.060000,461.810000,375.338871,461.810000,378.150000C461.810000,380.961129,459.531129,383.240000,456.720000,383.240000Z" opacity="0" fill="rgb(242,192,41)" stroke="none" stroke-width="1"/><path id="eOn9IxHXYw825" d="M456.720000,340.610000L352,340.610000C349.188871,340.610000,346.910000,338.331129,346.910000,335.520000C346.910000,332.708871,349.188871,330.430000,352,330.430000L456.720000,330.430000C459.531129,330.430000,461.810000,332.708871,461.810000,335.520000C461.810000,338.331129,459.531129,340.610000,456.720000,340.610000Z" fill="rgb(245,245,245)" stroke="none" stroke-width="1"/><path id="eOn9IxHXYw826" d="M456.720000,340.610000L352,340.610000C349.188871,340.610000,346.910000,338.331129,346.910000,335.520000C346.910000,332.708871,349.188871,330.430000,352,330.430000L456.720000,330.430000C459.531129,330.430000,461.810000,332.708871,461.810000,335.520000C461.810000,338.331129,459.531129,340.610000,456.720000,340.610000Z" opacity="0" fill="rgb(242,192,41)" stroke="none" stroke-width="1"/><g id="eOn9IxHXYw827"><path id="eOn9IxHXYw828" d="M575.340000,350.790000C569.908072,350.790000,565.011007,347.517886,562.932298,342.499438C560.853589,337.480991,562.002603,331.704509,565.843556,327.863556C569.684509,324.022603,575.460991,322.873589,580.479438,324.952298C585.497886,327.031007,588.770000,331.928072,588.770000,337.360000L588.770000,337.360000C588.758986,344.772617,582.752617,350.778986,575.340000,350.790000ZM575.340000,325.200000C570.420831,325.195955,565.983786,328.156077,564.098498,332.699636C562.213209,337.243195,563.251098,342.475067,566.728045,345.954877C570.204993,349.434686,575.436009,350.476878,579.981118,348.595329C584.526226,346.713779,587.489998,342.279171,587.490000,337.360000L587.490000,337.360000C587.484496,330.650402,582.049592,325.211024,575.340000,325.200000Z" fill="rgb(242,242,242)" stroke="none" stroke-width="1"/><path id="eOn9IxHXYw829" d="M574.070000,342.240000C573.781324,342.237851,573.500939,342.143221,573.270000,341.970000L573.270000,341.970000L570.270000,339.670000C569.854577,339.392081,569.628356,338.906059,569.683184,338.409260C569.738013,337.912460,570.064776,337.487467,570.530808,337.306829C570.996839,337.126190,571.524671,337.219934,571.900000,337.550000L573.840000,339.040000L578.440000,333.040000C578.895611,332.461389,579.729010,332.350564,580.320000,332.790000L580.320000,332.790000L580.320000,332.790000L580.320000,332.790000C580.898611,333.245611,581.009436,334.079010,580.570000,334.670000L575.150000,341.670000C574.899253,342.003025,574.506868,342.199217,574.090000,342.200000Z" fill="rgb(242,242,242)" stroke="none" stroke-width="1"/></g><g id="eOn9IxHXYw830"><path id="eOn9IxHXYw831" d="M575.340000,350.790000C569.908072,350.790000,565.011007,347.517886,562.932298,342.499438C560.853589,337.480991,562.002603,331.704509,565.843556,327.863556C569.684509,324.022603,575.460991,322.873589,580.479438,324.952298C585.497886,327.031007,588.770000,331.928072,588.770000,337.360000L588.770000,337.360000C588.758986,344.772617,582.752617,350.778986,575.340000,350.790000ZM575.340000,325.200000C570.420831,325.195955,565.983786,328.156077,564.098498,332.699636C562.213209,337.243195,563.251098,342.475067,566.728045,345.954877C570.204993,349.434686,575.436009,350.476878,579.981118,348.595329C584.526226,346.713779,587.489998,342.279171,587.490000,337.360000L587.490000,337.360000C587.484496,330.650402,582.049592,325.211024,575.340000,325.200000Z" opacity="0" fill="rgb(242,192,41)" stroke="none" stroke-width="1"/><path id="eOn9IxHXYw832" d="M574.070000,342.240000C573.781324,342.237851,573.500939,342.143221,573.270000,341.970000L573.270000,341.970000L570.270000,339.670000C569.854577,339.392081,569.628356,338.906059,569.683184,338.409260C569.738013,337.912460,570.064776,337.487467,570.530808,337.306829C570.996839,337.126190,571.524671,337.219934,571.900000,337.550000L573.840000,339.040000L578.440000,333.040000C578.895611,332.461389,579.729010,332.350564,580.320000,332.790000L580.320000,332.790000L580.320000,332.790000L580.320000,332.790000C580.898611,333.245611,581.009436,334.079010,580.570000,334.670000L575.150000,341.670000C574.899253,342.003025,574.506868,342.199217,574.090000,342.200000Z" opacity="0" fill="rgb(242,192,41)" stroke="none" stroke-width="1"/></g><path id="eOn9IxHXYw833" d="M613.760000,350.790000C608.328072,350.790000,603.431007,347.517886,601.352298,342.499438C599.273589,337.480991,600.422603,331.704509,604.263556,327.863556C608.104509,324.022603,613.880991,322.873589,618.899438,324.952298C623.917886,327.031007,627.190000,331.928072,627.190000,337.360000L627.190000,337.360000C627.178986,344.772617,621.172617,350.778986,613.760000,350.790000ZM613.760000,325.200000C608.841739,325.200000,604.407762,328.162689,602.525625,332.706569C600.643488,337.250450,601.683846,342.480683,605.161582,345.958418C608.639317,349.436154,613.869550,350.476512,618.413431,348.594375C622.957311,346.712238,625.920000,342.278261,625.920000,337.360000L625.920000,337.360000C625.908989,330.648784,620.471216,325.211011,613.760000,325.200000Z" fill="rgb(230,230,230)" stroke="none" stroke-width="1"/><path id="eOn9IxHXYw834" d="M618.590000,342C618.430283,342.161842,618.212381,342.252945,617.985000,342.252945C617.757619,342.252945,617.539717,342.161842,617.380000,342L614.160000,338.780000C614.007874,338.628722,613.762126,338.628722,613.610000,338.780000L610.390000,342C610.048008,342.278934,609.550389,342.253731,609.238329,341.941671C608.926269,341.629611,608.901066,341.131992,609.180000,340.790000L612.400000,337.570000C612.551278,337.417874,612.551278,337.172126,612.400000,337.020000L609.180000,333.800000C608.901066,333.458008,608.926269,332.960389,609.238329,332.648329C609.550389,332.336269,610.048008,332.311066,610.390000,332.590000L610.390000,332.590000L613.610000,335.810000C613.762126,335.961278,614.007874,335.961278,614.160000,335.810000L617.380000,332.590000C617.721992,332.311066,618.219611,332.336269,618.531671,332.648329C618.843731,332.960389,618.868934,333.458008,618.590000,333.800000L615.370000,337C615.218722,337.152126,615.218722,337.397874,615.370000,337.550000L615.370000,337.550000L618.590000,340.770000C618.758123,340.930400,618.853250,341.152635,618.853250,341.385000C618.853250,341.617365,618.758123,341.839600,618.590000,342Z" fill="rgb(230,230,230)" stroke="none" stroke-width="1"/><path id="eOn9IxHXYw835" d="M613.760000,393.420000C608.327162,393.419998,603.429466,390.146801,601.351344,385.127126C599.273223,380.107451,600.424070,374.330185,604.267097,370.490020C608.110124,366.649854,613.888246,365.503310,618.906371,367.585170C623.924497,369.667030,627.194045,374.567164,627.190000,380C627.184480,387.413279,621.173281,393.420002,613.760000,393.420000ZM613.760000,367.840000C608.841739,367.840000,604.407762,370.802689,602.525625,375.346569C600.643488,379.890450,601.683846,385.120683,605.161582,388.598418C608.639317,392.076154,613.869550,393.116512,618.413431,391.234375C622.957311,389.352238,625.920000,384.918261,625.920000,380L625.920000,380C625.908976,373.290408,620.469598,367.855504,613.760000,367.850000Z" fill="rgb(230,230,230)" stroke="none" stroke-width="1"/><path id="eOn9IxHXYw836" d="M618.590000,384.640000C618.254873,384.971723,617.715127,384.971723,617.380000,384.640000L614.160000,381.420000C614.007874,381.268722,613.762126,381.268722,613.610000,381.420000L610.390000,384.640000C610.049233,384.949039,609.525608,384.935185,609.201659,384.608559C608.877710,384.281933,608.868167,383.758212,609.180000,383.420000L609.180000,383.420000L612.400000,380.200000C612.472062,380.128633,612.512605,380.031421,612.512605,379.930000C612.512605,379.828579,612.472062,379.731367,612.400000,379.660000L609.180000,376.440000C609.017560,376.278568,608.926218,376.059013,608.926218,375.830000C608.926218,375.600987,609.017560,375.381432,609.180000,375.220000C609.339717,375.058158,609.557619,374.967055,609.785000,374.967055C610.012381,374.967055,610.230283,375.058158,610.390000,375.220000L610.390000,375.220000L613.610000,378.440000C613.762126,378.591278,614.007874,378.591278,614.160000,378.440000L617.380000,375.220000C617.539717,375.058158,617.757619,374.967055,617.985000,374.967055C618.212381,374.967055,618.430283,375.058158,618.590000,375.220000C618.752440,375.381432,618.843782,375.600987,618.843782,375.830000C618.843782,376.059013,618.752440,376.278568,618.590000,376.440000L615.370000,379.660000C615.297938,379.731367,615.257395,379.828579,615.257395,379.930000C615.257395,380.031421,615.297938,380.128633,615.370000,380.200000L618.590000,383.420000C618.752440,383.581432,618.843782,383.800987,618.843782,384.030000C618.843782,384.259013,618.752440,384.478568,618.590000,384.640000Z" fill="rgb(230,230,230)" stroke="none" stroke-width="1"/><path id="eOn9IxHXYw837" d="M575.340000,436.060000C569.908072,436.060000,565.011007,432.787886,562.932298,427.769438C560.853589,422.750991,562.002603,416.974509,565.843556,413.133556C569.684509,409.292603,575.460991,408.143589,580.479438,410.222298C585.497886,412.301007,588.770000,417.198072,588.770000,422.630000C588.770000,430.047184,582.757184,436.060000,575.340000,436.060000ZM575.340000,410.470000C570.420831,410.465955,565.983786,413.426077,564.098498,417.969636C562.213209,422.513195,563.251098,427.745067,566.728045,431.224877C570.204993,434.704686,575.436009,435.746878,579.981118,433.865329C584.526226,431.983779,587.489998,427.549171,587.490000,422.630000L587.490000,422.630000C587.484496,415.920402,582.049592,410.481024,575.340000,410.470000Z" fill="rgb(230,230,230)" stroke="none" stroke-width="1"/><path id="eOn9IxHXYw838" d="M574.070000,427.510000C573.781324,427.507851,573.500939,427.413221,573.270000,427.240000L573.270000,427.240000L570.270000,424.940000C569.854577,424.662081,569.628356,424.176059,569.683184,423.679260C569.738013,423.182460,570.064776,422.757467,570.530808,422.576829C570.996839,422.396190,571.524671,422.489934,571.900000,422.820000L573.840000,424.310000L578.440000,418.310000C578.655980,418.027304,578.975511,417.842098,579.328165,417.795202C579.680819,417.748307,580.037647,417.843572,580.320000,418.060000L580.320000,418.060000L580.320000,418.060000L580.320000,418.060000C580.898611,418.515611,581.009436,419.349010,580.570000,419.940000L575.130000,427C574.881377,427.334345,574.486576,427.528021,574.070000,427.520000Z" fill="rgb(230,230,230)" stroke="none" stroke-width="1"/><path id="eOn9IxHXYw839" d="M613.760000,436.060000C608.328072,436.060000,603.431007,432.787886,601.352298,427.769438C599.273589,422.750991,600.422603,416.974509,604.263556,413.133556C608.104509,409.292603,613.880991,408.143589,618.899438,410.222298C623.917886,412.301007,627.190000,417.198072,627.190000,422.630000C627.190000,430.047184,621.177184,436.060000,613.760000,436.060000ZM613.760000,410.470000C608.841739,410.470000,604.407762,413.432689,602.525625,417.976569C600.643488,422.520450,601.683846,427.750683,605.161582,431.228418C608.639317,434.706154,613.869550,435.746512,618.413431,433.864375C622.957311,431.982238,625.920000,427.548261,625.920000,422.630000L625.920000,422.630000C625.908989,415.918784,620.471216,410.481011,613.760000,410.470000Z" fill="rgb(230,230,230)" stroke="none" stroke-width="1"/><path id="eOn9IxHXYw840" d="M618.590000,427.270000C618.430283,427.431842,618.212381,427.522945,617.985000,427.522945C617.757619,427.522945,617.539717,427.431842,617.380000,427.270000L614.160000,424.050000C614.007874,423.898722,613.762126,423.898722,613.610000,424.050000L610.390000,427.270000C610.048008,427.548934,609.550389,427.523731,609.238329,427.211671C608.926269,426.899611,608.901066,426.401992,609.180000,426.060000L609.180000,426.060000L612.400000,422.830000C612.472062,422.758633,612.512605,422.661421,612.512605,422.560000C612.512605,422.458579,612.472062,422.361367,612.400000,422.290000L609.180000,419.070000C608.901066,418.728008,608.926269,418.230389,609.238329,417.918329C609.550389,417.606269,610.048008,417.581066,610.390000,417.860000L610.390000,417.860000L613.610000,421.080000C613.762126,421.231278,614.007874,421.231278,614.160000,421.080000L617.380000,417.860000C617.721992,417.581066,618.219611,417.606269,618.531671,417.918329C618.843731,418.230389,618.868934,418.728008,618.590000,419.070000L615.370000,422.290000C615.218722,422.442126,615.218722,422.687874,615.370000,422.840000L615.370000,422.840000L618.590000,426.060000C618.751842,426.219717,618.842945,426.437619,618.842945,426.665000C618.842945,426.892381,618.751842,427.110283,618.590000,427.270000Z" fill="rgb(230,230,230)" stroke="none" stroke-width="1"/><path id="eOn9IxHXYw841" d="M580.560000,388.120000C582.079446,389.038623,583.901747,389.315545,585.625492,388.889767C587.349237,388.463989,588.833021,387.370439,589.750000,385.850000C589.953129,385.512079,590.127092,385.157463,590.270000,384.790000L614.040000,385.580000L607.590000,375L586,375.870000C582.742486,374.856837,579.242156,376.441284,577.853799,379.557430C576.465443,382.673576,577.628266,386.335627,580.560000,388.080000Z" fill="rgb(255,184,184)" stroke="none" stroke-width="1"/><path id="eOn9IxHXYw842" d="M714.600000,439.610000C715.772006,438.277041,716.365335,436.532450,716.249011,434.761336C716.132688,432.990222,715.316278,431.338220,713.980000,430.170000C713.671330,429.903278,713.336263,429.668731,712.980000,429.470000L718,406.200000L706.500000,410.710000L703.570000,432.120000C701.975547,435.149776,702.913838,438.893915,705.748664,440.813702C708.583490,442.733489,712.408438,442.215088,714.630000,439.610000Z" fill="rgb(255,184,184)" stroke="none" stroke-width="1"/><polygon id="eOn9IxHXYw843" points="658.910000,560.870000 650.750000,560.870000 646.870000,529.400000 658.910000,529.400000 658.910000,560.870000" fill="rgb(255,184,184)" stroke="none" stroke-width="1"/><path id="eOn9IxHXYw844" d="M661,568.780000L634.680000,568.780000L634.680000,568.450000C634.680000,565.734183,635.758854,563.129599,637.679227,561.209227C639.599599,559.288854,642.204183,558.210000,644.920000,558.210000L661,558.210000Z" fill="rgb(47,46,65)" stroke="none" stroke-width="1"/><polygon id="eOn9IxHXYw845" points="698.850000,560.870000 690.690000,560.870000 686.810000,529.400000 698.850000,529.400000 698.850000,560.870000" fill="rgb(255,184,184)" stroke="none" stroke-width="1"/><path id="eOn9IxHXYw846" d="M700.930000,568.780000L674.620000,568.780000L674.620000,568.450000C674.617343,565.733370,675.695344,563.127241,677.616293,561.206293C679.537241,559.285344,682.143370,558.207343,684.860000,558.210000L700.930000,558.210000Z" fill="rgb(47,46,65)" stroke="none" stroke-width="1"/><path id="eOn9IxHXYw847" d="M659.760000,544.440000L648.210000,544C646.568632,543.929594,645.289204,542.552092,645.340000,540.910000L648.590000,434.150000L648.800000,434.080000C669.050000,426.750000,685.800000,427.310000,700.010000,435.770000L700.170000,435.860000L702.170000,539.860000C702.170327,541.493703,700.863376,542.827326,699.230000,542.860000L689.430000,542.860000C687.998035,542.858377,686.766846,541.844949,686.490000,540.440000L673.170000,473C673.150670,472.447715,672.687285,472.015670,672.135000,472.035000C671.582715,472.054330,671.150670,472.517715,671.170000,473.070000L662.830000,541.860000C662.642264,543.370923,661.352497,544.501619,659.830000,544.490000Z" fill="rgb(32,33,49)" stroke="none" stroke-width="1"/><circle id="eOn9IxHXYw848" r="16.350000" transform="matrix(1 0 0 1 671 324.16000000000003)" fill="rgb(255,184,184)" stroke="none" stroke-width="1"/><path id="eOn9IxHXYw849" d="M594.140000,384.250000C593.959924,383.670330,593.959924,383.049670,594.140000,382.470000L595.830000,377.040000C596.207498,375.835314,597.298789,374.995859,598.560000,374.940000L620,374L654.800000,356.160000C659.844557,354.632770,665.181332,357.435606,666.787309,362.455649C668.393285,367.475692,665.674299,372.855670,660.680000,374.540000L660.680000,374.540000L639.350000,386.910000C632.880020,390.670251,625.263520,391.949737,617.920000,390.510000L596.440000,386.300000C595.603235,386.135615,594.875968,385.622892,594.440000,384.890000C594.313831,384.689942,594.213056,384.474955,594.140000,384.250000Z" fill="rgb(204,204,204)" stroke="none" stroke-width="1"/><path id="eOn9IxHXYw850" d="M713.910000,424.550000C713.334387,424.755088,712.709871,424.779510,712.120000,424.620000L706.620000,423.160000C705.404637,422.833622,704.522145,421.783416,704.410000,420.530000L702.550000,399.140000L683.240000,365.140000C681.403653,360.136300,683.971300,354.591347,688.975000,352.755000C693.978700,350.918653,699.523653,353.486300,701.360000,358.490000L701.360000,358.490000L714.630000,379.270000C718.659953,385.572170,720.259430,393.125255,719.130000,400.520000L715.840000,422.160000C715.710047,422.999386,715.230367,423.744344,714.520000,424.210000C714.331652,424.348346,714.126725,424.462567,713.910000,424.550000Z" fill="rgb(204,204,204)" stroke="none" stroke-width="1"/><path id="eOn9IxHXYw851" d="M653.120000,353.200000C658.812047,346.973113,667.020656,343.663190,675.440000,344.200000L676.260000,344.260000L676.260000,344.260000C684.236283,344.890452,691.553816,348.928214,696.340000,355.340000C701.204896,361.841856,703.027369,370.126819,701.340000,378.070000C698.173583,393.076297,698.976693,408.649040,703.670000,423.250000L708.060000,436.870000C708.565021,438.443762,707.702007,440.129544,706.130000,440.640000C705.883068,440.716451,705.627965,440.763444,705.370000,440.780000L683,442L677.210000,432L677.210000,442.220000L650,443.730000L649.840000,443.730000C648.183146,443.730000,646.840000,442.386854,646.840000,440.730000C646.835021,440.650077,646.835021,440.569923,646.840000,440.490000L649.920000,402.300000L646,376.360000C644.737281,367.959645,647.356365,359.440266,653.120000,353.200000Z" fill="rgb(204,204,204)" stroke="none" stroke-width="1"/><path id="eOn9IxHXYw852" d="M682.360000,339.770000C680.850000,340.640000,674.870000,341.220000,674.440000,339.530000L674.440000,339.530000C674.250230,338.267089,674.250230,336.982911,674.440000,335.720000C674.634682,334.443245,674.306643,333.141906,673.530000,332.110000C671.910000,330.370000,669.040000,331.290000,666.700000,330.850000C663.868405,330.217972,661.948844,327.578575,662.220000,324.690000C662.252089,324.424290,662.298827,324.160556,662.360000,323.900000C662.661716,322.539575,662.305739,321.116474,661.399036,320.058326C660.492332,319.000178,659.140592,318.430324,657.750000,318.520000C655.390000,318.650000,652.840000,319.370000,650.880000,317.620000C649.370000,316.270000,649,312.750000,649.670000,310.830000C650.780000,307.610000,657.930000,305.920000,661.050000,305C668.869457,302.714143,677.302980,304.081145,684,308.720000C686.054177,310.011181,687.673943,311.888715,688.650000,314.110000C689.490000,316.370000,689.090000,319.220000,687.190000,320.720000C690.174078,323.885597,691.244954,328.401569,690,332.570000C689.080000,335.580000,684.620000,338.480000,682.360000,339.770000Z" fill="rgb(47,46,65)" stroke="none" stroke-width="1"/><path id="eOn9IxHXYw853" d="M521.350000,345L341.630000,345C341.372947,345.031581,341.120713,344.912186,340.982191,344.693359C340.843669,344.474532,340.843669,344.195468,340.982191,343.976641C341.120713,343.757814,341.372947,343.638419,341.630000,343.670000L521.350000,343.670000C521.607053,343.638419,521.859287,343.757814,521.997809,343.976641C522.136331,344.195468,522.136331,344.474532,521.997809,344.693359C521.859287,344.912186,521.607053,345.031581,521.350000,345Z" fill="rgb(32,33,49)" stroke="none" stroke-width="1"/><path id="eOn9IxHXYw854" d="M521.350000,387.590000L341.630000,387.590000C341.452305,387.590000,341.281888,387.519411,341.156238,387.393762C341.030589,387.268112,340.960000,387.097695,340.960000,386.920000C340.959980,386.743211,341.030886,386.573804,341.156832,386.449738C341.282777,386.325673,341.453231,386.257321,341.630000,386.260000L521.350000,386.260000C521.526769,386.257321,521.697223,386.325673,521.823168,386.449738C521.949114,386.573804,522.020020,386.743211,522.020000,386.920000C522.020000,387.290031,521.720031,387.590000,521.350000,387.590000Z" fill="rgb(32,33,49)" stroke="none" stroke-width="1"/><path id="eOn9IxHXYw855" d="M456.720000,425.880000L352,425.880000C349.188871,425.880000,346.910000,423.601129,346.910000,420.790000C346.910000,417.978871,349.188871,415.700000,352,415.700000L456.720000,415.700000C459.531129,415.700000,461.810000,417.978871,461.810000,420.790000C461.810000,423.601129,459.531129,425.880000,456.720000,425.880000Z" fill="rgb(242,242,242)" stroke="none" stroke-width="1"/><path id="eOn9IxHXYw856" d="M521.350000,430.220000L341.630000,430.220000C341.372947,430.251581,341.120713,430.132186,340.982191,429.913359C340.843669,429.694532,340.843669,429.415468,340.982191,429.196641C341.120713,428.977814,341.372947,428.858419,341.630000,428.890000L521.350000,428.890000C521.607053,428.858419,521.859287,428.977814,521.997809,429.196641C522.136331,429.415468,522.136331,429.694532,521.997809,429.913359C521.859287,430.132186,521.607053,430.251581,521.350000,430.220000Z" fill="rgb(32,33,49)" stroke="none" stroke-width="1"/><script><![CDATA[!function(t,n){"object"==typeof exports&&"undefined"!=typeof module?module.exports=n():"function"==typeof define&&define.amd?define(n):(t="undefined"!=typeof globalThis?globalThis:t||self).__SVGATOR_PLAYER__=n()}(this,(function(){"use strict";function t(n){return(t="function"==typeof Symbol&&"symbol"==typeof Symbol.iterator?function(t){return typeof t}:function(t){return t&&"function"==typeof Symbol&&t.constructor===Symbol&&t!==Symbol.prototype?"symbol":typeof t})(n)}function n(t,n){if(!(t instanceof n))throw new TypeError("Cannot call a class as a function")}function r(t,n){for(var r=0;r<n.length;r++){var e=n[r];e.enumerable=e.enumerable||!1,e.configurable=!0,"value"in e&&(e.writable=!0),Object.defineProperty(t,e.key,e)}}function e(t,n,e){return n&&r(t.prototype,n),e&&r(t,e),t}function i(t){return(i=Object.setPrototypeOf?Object.getPrototypeOf:function(t){return t.__proto__||Object.getPrototypeOf(t)})(t)}function o(t,n){return(o=Object.setPrototypeOf||function(t,n){return t.__proto__=n,t})(t,n)}function u(t,n){return!n||"object"!=typeof n&&"function"!=typeof n?function(t){if(void 0===t)throw new ReferenceError("this hasn't been initialised - super() hasn't been called");return t}(t):n}function a(t){var n=function(){if("undefined"==typeof Reflect||!Reflect.construct)return!1;if(Reflect.construct.sham)return!1;if("function"==typeof Proxy)return!0;try{return Boolean.prototype.valueOf.call(Reflect.construct(Boolean,[],(function(){}))),!0}catch(t){return!1}}();return function(){var r,e=i(t);if(n){var o=i(this).constructor;r=Reflect.construct(e,arguments,o)}else r=e.apply(this,arguments);return u(this,r)}}function l(t,n,r){return(l="undefined"!=typeof Reflect&&Reflect.get?Reflect.get:function(t,n,r){var e=function(t,n){for(;!Object.prototype.hasOwnProperty.call(t,n)&&null!==(t=i(t)););return t}(t,n);if(e){var o=Object.getOwnPropertyDescriptor(e,n);return o.get?o.get.call(r):o.value}})(t,n,r||t)}var f=Math.abs;function s(t){return t}function c(t,n,r){var e=1-r;return 3*r*e*(t*e+n*r)+r*r*r}function h(){var t=arguments.length>0&&void 0!==arguments[0]?arguments[0]:0,n=arguments.length>1&&void 0!==arguments[1]?arguments[1]:0,r=arguments.length>2&&void 0!==arguments[2]?arguments[2]:1,e=arguments.length>3&&void 0!==arguments[3]?arguments[3]:1;return t<0||t>1||r<0||r>1?null:f(t-n)<=1e-5&&f(r-e)<=1e-5?s:function(i){if(i<=0)return t>0?i*n/t:0===n&&r>0?i*e/r:0;if(i>=1)return r<1?1+(i-1)*(e-1)/(r-1):1===r&&t<1?1+(i-1)*(n-1)/(t-1):1;for(var o,u=0,a=1;u<a;){var l=c(t,r,o=(u+a)/2);if(f(i-l)<1e-5)break;l<i?u=o:a=o}return c(n,e,o)}}function v(){return 1}function y(t){return 1===t?1:0}function d(){var t=arguments.length>0&&void 0!==arguments[0]?arguments[0]:1,n=arguments.length>1&&void 0!==arguments[1]?arguments[1]:0;if(1===t){if(0===n)return y;if(1===n)return v}var r=1/t;return function(t){return t>=1?1:(t+=n*r)-t%r}}function g(t){var n=arguments.length>1&&void 0!==arguments[1]?arguments[1]:2;if(Number.isInteger(t))return t;var r=Math.pow(10,n);return Math.round(t*r)/r}var p=Math.PI/180;function m(t,n,r){return t>=.5?r:n}function b(t,n,r){return 0===t||n===r?n:t*(r-n)+n}function w(t,n,r){var e=b(t,n,r);return e<=0?0:e}function x(t,n,r){return 0===t?n:1===t?r:{x:b(t,n.x,r.x),y:b(t,n.y,r.y)}}function k(t,n,r){var e=function(t,n,r){return Math.round(b(t,n,r))}(t,n,r);return e<=0?0:e>=255?255:e}function A(t,n,r){return 0===t?n:1===t?r:{r:k(t,n.r,r.r),g:k(t,n.g,r.g),b:k(t,n.b,r.b),a:b(t,null==n.a?1:n.a,null==r.a?1:r.a)}}function _(t,n,r){if(0===t)return n;if(1===t)return r;var e=n.length;if(e!==r.length)return m(t,n,r);for(var i=[],o=0;o<e;o++)i.push(A(t,n[o],r[o]));return i}function S(t,n){for(var r=[],e=0;e<t;e++)r.push(n);return r}function O(t,n){if(--n<=0)return t;var r=(t=Object.assign([],t)).length;do{for(var e=0;e<r;e++)t.push(t[e])}while(--n>0);return t}var M,j=function(){function t(r){n(this,t),this.list=r,this.length=r.length}return e(t,[{key:"setAttribute",value:function(t,n){for(var r=this.list,e=0;e<this.length;e++)r[e].setAttribute(t,n)}},{key:"removeAttribute",value:function(t){for(var n=this.list,r=0;r<this.length;r++)n[r].removeAttribute(t)}},{key:"style",value:function(t,n){for(var r=this.list,e=0;e<this.length;e++)r[e].style[t]=n}}]),t}(),F=/-./g,P=function(t,n){return n.toUpperCase()};function B(t){return"function"==typeof t?t:m}function I(t){return t?"function"==typeof t?t:Array.isArray(t)?function(t){var n=arguments.length>1&&void 0!==arguments[1]?arguments[1]:s;if(!Array.isArray(t))return n;switch(t.length){case 1:return d(t[0])||n;case 2:return d(t[0],t[1])||n;case 4:return h(t[0],t[1],t[2],t[3])||n}return n}(t,null):function(t,n){var r=arguments.length>2&&void 0!==arguments[2]?arguments[2]:s;switch(t){case"linear":return s;case"steps":return d(n.steps||1,n.jump||0)||r;case"bezier":case"cubic-bezier":return h(n.x1||0,n.y1||0,n.x2||0,n.y2||0)||r}return r}(t.type,t.value,null):null}function R(t,n,r){var e=arguments.length>3&&void 0!==arguments[3]&&arguments[3],i=n.length-1;if(t<=n[0].t)return e?[0,0,n[0].v]:n[0].v;if(t>=n[i].t)return e?[i,1,n[i].v]:n[i].v;var o,u=n[0],a=null;for(o=1;o<=i;o++){if(!(t>n[o].t)){a=n[o];break}u=n[o]}return null==a?e?[i,1,n[i].v]:n[i].v:u.t===a.t?e?[o,1,a.v]:a.v:(t=(t-u.t)/(a.t-u.t),u.e&&(t=u.e(t)),e?[o,t,r(t,u.v,a.v)]:r(t,u.v,a.v))}function q(t,n){var r=arguments.length>2&&void 0!==arguments[2]?arguments[2]:null;return t&&t.length?"function"!=typeof n?null:("function"!=typeof r&&(r=null),function(e){var i=R(e,t,n);return null!=i&&r&&(i=r(i)),i}):null}function E(t,n){return t.t-n.t}function T(n,r,e,i,o){var u,a="@"===e[0],l="#"===e[0],f=M[e],s=m;switch(a?(u=e.substr(1),e=u.replace(F,P)):l&&(e=e.substr(1)),t(f)){case"function":if(s=f(i,o,R,I,e,a,r,n),l)return s;break;case"string":s=q(i,B(f));break;case"object":if((s=q(i,B(f.i),f.f))&&"function"==typeof f.u)return f.u(r,s,e,a,n)}return s?function(t,n,r){var e=arguments.length>3&&void 0!==arguments[3]&&arguments[3];if(e)return t instanceof j?function(e){return t.style(n,r(e))}:function(e){return t.style[n]=r(e)};if(Array.isArray(n)){var i=n.length;return function(e){var o=r(e);if(null==o)for(var u=0;u<i;u++)t[u].removeAttribute(n);else for(var a=0;a<i;a++)t[a].setAttribute(n,o)}}return function(e){var i=r(e);null==i?t.removeAttribute(n):t.setAttribute(n,i)}}(r,e,s,a):null}function N(n,r,e,i){if(!i||"object"!==t(i))return null;var o=null,u=null;return Array.isArray(i)?u=function(t){if(!t||!t.length)return null;for(var n=0;n<t.length;n++)t[n].e&&(t[n].e=I(t[n].e));return t.sort(E)}(i):(u=i.keys,o=i.data||null),u?T(n,r,e,u,o):null}function C(t,n,r){if(!r)return null;var e=[];for(var i in r)if(r.hasOwnProperty(i)){var o=N(t,n,i,r[i]);o&&e.push(o)}return e.length?e:null}function z(t,n){if(!n.duration||n.duration<0)return null;var r=function(t,n){if(!n)return null;var r=[];if(Array.isArray(n))for(var e=n.length,i=0;i<e;i++){var o=n[i];if(2===o.length){var u=null;if("string"==typeof o[0])u=t.getElementById(o[0]);else if(Array.isArray(o[0])){u=[];for(var a=0;a<o[0].length;a++)if("string"==typeof o[0][a]){var l=t.getElementById(o[0][a]);l&&u.push(l)}u=u.length?1===u.length?u[0]:new j(u):null}if(u){var f=C(t,u,o[1]);f&&(r=r.concat(f))}}}else for(var s in n)if(n.hasOwnProperty(s)){var c=t.getElementById(s);if(c){var h=C(t,c,n[s]);h&&(r=r.concat(h))}}return r.length?r:null}(t,n.elements);return r?function(t,n){var r=arguments.length>2&&void 0!==arguments[2]?arguments[2]:1/0,e=arguments.length>3&&void 0!==arguments[3]?arguments[3]:1,i=arguments.length>4&&void 0!==arguments[4]&&arguments[4],o=arguments.length>5&&void 0!==arguments[5]?arguments[5]:1,u=t.length,a=e>0?n:0;i&&r%2==0&&(a=n-a);var l=null;return function(f,s){var c=f%n,h=1+(f-c)/n;s*=e,i&&h%2==0&&(s=-s);var v=!1;if(h>r)c=a,v=!0,-1===o&&(c=e>0?0:n);else if(s<0&&(c=n-c),c===l)return!1;l=c;for(var y=0;y<u;y++)t[y](c);return v}}(r,n.duration,n.iterations||1/0,n.direction||1,!!n.alternate,n.fill||1):null}var L=function(){function t(r,e){var i=arguments.length>2&&void 0!==arguments[2]?arguments[2]:{};n(this,t),this._id=0,this._running=!1,this._rollingBack=!1,this._animations=r,this.duration=e.duration,this.alternate=e.alternate,this.fill=e.fill,this.iterations=e.iterations,this.direction=i.direction||1,this.speed=i.speed||1,this.fps=i.fps||100,this.offset=i.offset||0,this.rollbackStartOffset=0}return e(t,[{key:"_rollback",value:function(){var t=this,n=1/0,r=null;this.rollbackStartOffset=this.offset,this._rollingBack||(this._rollingBack=!0,this._running=!0);this._id=window.requestAnimationFrame((function e(i){if(t._rollingBack){null==r&&(r=i);var o=i-r,u=t.rollbackStartOffset-o,a=Math.round(u*t.speed);if(a>t.duration&&n!=1/0){var l=!!t.alternate&&a/t.duration%2>1,f=a%t.duration;a=(f+=l?t.duration:0)||t.duration}var s=t.fps?1e3/t.fps:0,c=Math.max(0,a);if(c<n-s){t.offset=c,n=c;for(var h=t._animations,v=h.length,y=0;y<v;y++)h[y](c,t.direction)}var d=!1;if(t.iterations>0&&-1===t.fill){var g=t.iterations*t.duration,p=g==a;a=p?0:a,t.offset=p?0:t.offset,d=a>g}a>0&&t.offset>=a&&!d?t._id=window.requestAnimationFrame(e):t.stop()}}))}},{key:"_start",value:function(){var t=this,n=arguments.length>0&&void 0!==arguments[0]?arguments[0]:0,r=-1/0,e=null,i={},o=function o(u){t._running=!0,null==e&&(e=u);var a=Math.round((u-e+n)*t.speed),l=t.fps?1e3/t.fps:0;if(a>r+l&&!t._rollingBack){t.offset=a,r=a;for(var f=t._animations,s=f.length,c=0,h=0;h<s;h++)i[h]?c++:(i[h]=f[h](a,t.direction),i[h]&&c++);if(c===s)return void t._stop()}t._id=window.requestAnimationFrame(o)};this._id=window.requestAnimationFrame(o)}},{key:"_stop",value:function(){this._id&&window.cancelAnimationFrame(this._id),this._running=!1,this._rollingBack=!1}},{key:"play",value:function(){!this._rollingBack&&this._running||(this._rollingBack=!1,this.rollbackStartOffset>this.duration&&(this.offset=this.rollbackStartOffset-(this.rollbackStartOffset-this.offset)%this.duration,this.rollbackStartOffset=0),this._start(this.offset))}},{key:"stop",value:function(){this._stop(),this.offset=0,this.rollbackStartOffset=0;var t=this.direction,n=this._animations;window.requestAnimationFrame((function(){for(var r=0;r<n.length;r++)n[r](0,t)}))}},{key:"reachedToEnd",value:function(){return this.iterations>0&&this.offset>=this.iterations*this.duration}},{key:"restart",value:function(){this._stop(),this.offset=0,this._start()}},{key:"pause",value:function(){this._stop()}},{key:"reverse",value:function(){this.direction=-this.direction}}],[{key:"build",value:function(n,r){return(n=function(t,n){if(M=n,!t||!t.root||!Array.isArray(t.animations))return null;for(var r=document.getElementsByTagName("svg"),e=!1,i=0;i<r.length;i++)if(r[i].id===t.root&&!r[i].svgatorAnimation){(e=r[i]).svgatorAnimation=!0;break}if(!e)return null;var o=t.animations.map((function(t){return z(e,t)})).filter((function(t){return!!t}));return o.length?{element:e,animations:o,animationSettings:t.animationSettings,options:t.options||void 0}:null}(n,r))?{el:n.element,options:n.options||{},player:new t(n.animations,n.animationSettings,n.options)}:null}}]),t}();!function(){for(var t=0,n=["ms","moz","webkit","o"],r=0;r<n.length&&!window.requestAnimationFrame;++r)window.requestAnimationFrame=window[n[r]+"RequestAnimationFrame"],window.cancelAnimationFrame=window[n[r]+"CancelAnimationFrame"]||window[n[r]+"CancelRequestAnimationFrame"];window.requestAnimationFrame||(window.requestAnimationFrame=function(n){var r=Date.now(),e=Math.max(0,16-(r-t)),i=window.setTimeout((function(){n(r+e)}),e);return t=r+e,i},window.cancelAnimationFrame=window.clearTimeout)}();var D=/\.0+$/g;function Q(t){return Number.isInteger(t)?t+"":t.toFixed(6).replace(D,"")}function U(t){var n=arguments.length>1&&void 0!==arguments[1]?arguments[1]:" ";return t&&t.length?t.map(Q).join(n):""}function V(t){return t?null==t.a||t.a>=1?"rgb("+t.r+","+t.g+","+t.b+")":"rgba("+t.r+","+t.g+","+t.b+","+t.a+")":"transparent"}var $={f:null,i:function(t,n,r){return 0===t?n:1===t?r:{x:w(t,n.x,r.x),y:w(t,n.y,r.y)}},u:function(t,n){return function(r){var e=n(r);t.setAttribute("rx",Q(e.x)),t.setAttribute("ry",Q(e.y))}}},G={f:null,i:function(t,n,r){return 0===t?n:1===t?r:{width:w(t,n.width,r.width),height:w(t,n.height,r.height)}},u:function(t,n){return function(r){var e=n(r);t.setAttribute("width",Q(e.width)),t.setAttribute("height",Q(e.height))}}},H=Math.sin,Y=Math.cos,Z=Math.acos,J=Math.asin,K=Math.tan,W=Math.atan2,X=Math.PI/180,tt=180/Math.PI,nt=Math.sqrt,rt=function(){function t(){var r=arguments.length>0&&void 0!==arguments[0]?arguments[0]:1,e=arguments.length>1&&void 0!==arguments[1]?arguments[1]:0,i=arguments.length>2&&void 0!==arguments[2]?arguments[2]:0,o=arguments.length>3&&void 0!==arguments[3]?arguments[3]:1,u=arguments.length>4&&void 0!==arguments[4]?arguments[4]:0,a=arguments.length>5&&void 0!==arguments[5]?arguments[5]:0;n(this,t),this.m=[r,e,i,o,u,a],this.i=null,this.w=null,this.s=null}return e(t,[{key:"determinant",get:function(){var t=this.m;return t[0]*t[3]-t[1]*t[2]}},{key:"isIdentity",get:function(){if(null===this.i){var t=this.m;this.i=1===t[0]&&0===t[1]&&0===t[2]&&1===t[3]&&0===t[4]&&0===t[5]}return this.i}},{key:"point",value:function(t,n){var r=this.m;return{x:r[0]*t+r[2]*n+r[4],y:r[1]*t+r[3]*n+r[5]}}},{key:"translateSelf",value:function(){var t=arguments.length>0&&void 0!==arguments[0]?arguments[0]:0,n=arguments.length>1&&void 0!==arguments[1]?arguments[1]:0;if(!t&&!n)return this;var r=this.m;return r[4]+=r[0]*t+r[2]*n,r[5]+=r[1]*t+r[3]*n,this.w=this.s=this.i=null,this}},{key:"rotateSelf",value:function(){var t=arguments.length>0&&void 0!==arguments[0]?arguments[0]:0;if(t%=360){var n=H(t*=X),r=Y(t),e=this.m,i=e[0],o=e[1];e[0]=i*r+e[2]*n,e[1]=o*r+e[3]*n,e[2]=e[2]*r-i*n,e[3]=e[3]*r-o*n,this.w=this.s=this.i=null}return this}},{key:"scaleSelf",value:function(){var t=arguments.length>0&&void 0!==arguments[0]?arguments[0]:1,n=arguments.length>1&&void 0!==arguments[1]?arguments[1]:1;if(1!==t||1!==n){var r=this.m;r[0]*=t,r[1]*=t,r[2]*=n,r[3]*=n,this.w=this.s=this.i=null}return this}},{key:"skewSelf",value:function(t,n){if(n%=360,(t%=360)||n){var r=this.m,e=r[0],i=r[1],o=r[2],u=r[3];t&&(t=K(t*X),r[2]+=e*t,r[3]+=i*t),n&&(n=K(n*X),r[0]+=o*n,r[1]+=u*n),this.w=this.s=this.i=null}return this}},{key:"resetSelf",value:function(){var t=arguments.length>0&&void 0!==arguments[0]?arguments[0]:1,n=arguments.length>1&&void 0!==arguments[1]?arguments[1]:0,r=arguments.length>2&&void 0!==arguments[2]?arguments[2]:0,e=arguments.length>3&&void 0!==arguments[3]?arguments[3]:1,i=arguments.length>4&&void 0!==arguments[4]?arguments[4]:0,o=arguments.length>5&&void 0!==arguments[5]?arguments[5]:0,u=this.m;return u[0]=t,u[1]=n,u[2]=r,u[3]=e,u[4]=i,u[5]=o,this.w=this.s=this.i=null,this}},{key:"recomposeSelf",value:function(){var t=arguments.length>0&&void 0!==arguments[0]?arguments[0]:null,n=arguments.length>1&&void 0!==arguments[1]?arguments[1]:null,r=arguments.length>2&&void 0!==arguments[2]?arguments[2]:null,e=arguments.length>3&&void 0!==arguments[3]?arguments[3]:null,i=arguments.length>4&&void 0!==arguments[4]?arguments[4]:null;return this.isIdentity||this.resetSelf(),t&&(t.x||t.y)&&this.translateSelf(t.x,t.y),n&&this.rotateSelf(n),r&&(r.x&&this.skewSelf(r.x,0),r.y&&this.skewSelf(0,r.y)),!e||1===e.x&&1===e.y||this.scaleSelf(e.x,e.y),i&&(i.x||i.y)&&this.translateSelf(i.x,i.y),this}},{key:"decompose",value:function(){var t=arguments.length>0&&void 0!==arguments[0]?arguments[0]:0,n=arguments.length>1&&void 0!==arguments[1]?arguments[1]:0,r=this.m,e=r[0]*r[0]+r[1]*r[1],i=[[r[0],r[1]],[r[2],r[3]]],o=nt(e);if(0===o)return{origin:{x:r[4],y:r[5]},translate:{x:t,y:n},scale:{x:0,y:0},skew:{x:0,y:0},rotate:0};i[0][0]/=o,i[0][1]/=o;var u=r[0]*r[3]-r[1]*r[2]<0;u&&(o=-o);var a=i[0][0]*i[1][0]+i[0][1]*i[1][1];i[1][0]-=i[0][0]*a,i[1][1]-=i[0][1]*a;var l=nt(i[1][0]*i[1][0]+i[1][1]*i[1][1]);if(0===l)return{origin:{x:r[4],y:r[5]},translate:{x:t,y:n},scale:{x:o,y:0},skew:{x:0,y:0},rotate:0};i[1][0]/=l,i[1][1]/=l,a/=l;var f=0;return i[1][1]<0?(f=Z(i[1][1])*tt,i[0][1]<0&&(f=360-f)):f=J(i[0][1])*tt,u&&(f=-f),a=W(a,nt(i[0][0]*i[0][0]+i[0][1]*i[0][1]))*tt,u&&(a=-a),{origin:{x:r[4],y:r[5]},translate:{x:t,y:n},scale:{x:o,y:l},skew:{x:a,y:0},rotate:f}}},{key:"toString",value:function(){return null===this.s&&(this.s="matrix("+this.m.map(it).join(" ")+")"),this.s}}]),t}(),et=/\.0+$/;function it(t){return Number.isInteger(t)?t:t.toFixed(14).replace(et,"")}function ot(t,n,r){return t+(n-t)*r}function ut(t,n,r){var e=arguments.length>3&&void 0!==arguments[3]&&arguments[3],i={x:ot(t.x,n.x,r),y:ot(t.y,n.y,r)};return e&&(i.a=at(t,n)),i}function at(t,n){return Math.atan2(n.y-t.y,n.x-t.x)}Object.freeze({M:2,L:2,Z:0,H:1,V:1,C:6,Q:4,T:2,S:4,A:7});var lt={},ft=null;function st(n){var r=function(){if(ft)return ft;if("object"!==("undefined"==typeof document?"undefined":t(document)))return{};var n=document.createElementNS("http://www.w3.org/2000/svg","svg");return n.style.position="absolute",n.style.opacity="0.01",n.style.zIndex="-9999",n.style.left="-9999px",n.style.width="1px",n.style.height="1px",ft={svg:n}}().svg;if(!r)return function(t){return null};var e=document.createElementNS(r.namespaceURI,"path");e.setAttributeNS(null,"d",n),e.setAttributeNS(null,"fill","none"),e.setAttributeNS(null,"stroke","none"),r.appendChild(e);var i=e.getTotalLength();return function(t){var n=e.getPointAtLength(i*t);return{x:n.x,y:n.y}}}function ct(t){return lt[t]?lt[t]:lt[t]=st(t)}function ht(t,n,r,e){if(!t||!e)return!1;var i=["M",t.x,t.y];if(n&&r&&(i.push("C"),i.push(n.x),i.push(n.y),i.push(r.x),i.push(r.y)),n?!r:r){var o=n||r;i.push("Q"),i.push(o.x),i.push(o.y)}return n||r||i.push("L"),i.push(e.x),i.push(e.y),i.join(" ")}function vt(t,n,r,e){var i=arguments.length>4&&void 0!==arguments[4]?arguments[4]:1,o=ht(t,n,r,e),u=ct(o);try{return u(i)}catch(t){return null}}function yt(t,n,r,e){var i=1-e;return i*i*t+2*i*e*n+e*e*r}function dt(t,n,r,e){return 2*(1-e)*(n-t)+2*e*(r-n)}function gt(t,n,r,e){var i=arguments.length>4&&void 0!==arguments[4]&&arguments[4],o=vt(t,n,null,r,e);return o||(o={x:yt(t.x,n.x,r.x,e),y:yt(t.y,n.y,r.y,e)}),i&&(o.a=pt(t,n,r,e)),o}function pt(t,n,r,e){return Math.atan2(dt(t.y,n.y,r.y,e),dt(t.x,n.x,r.x,e))}function mt(t,n,r,e,i){var o=i*i;return i*o*(e-t+3*(n-r))+3*o*(t+r-2*n)+3*i*(n-t)+t}function bt(t,n,r,e,i){var o=1-i;return 3*(o*o*(n-t)+2*o*i*(r-n)+i*i*(e-r))}function wt(t,n,r,e,i){var o=arguments.length>5&&void 0!==arguments[5]&&arguments[5],u=vt(t,n,r,e,i);return u||(u={x:mt(t.x,n.x,r.x,e.x,i),y:mt(t.y,n.y,r.y,e.y,i)}),o&&(u.a=xt(t,n,r,e,i)),u}function xt(t,n,r,e,i){return Math.atan2(bt(t.y,n.y,r.y,e.y,i),bt(t.x,n.x,r.x,e.x,i))}function kt(t,n,r){var e=arguments.length>3&&void 0!==arguments[3]&&arguments[3];if(_t(n)){if(St(r))return gt(n,r.start,r,t,e)}else if(_t(r)){if(n.end)return gt(n,n.end,r,t,e)}else{if(n.end)return r.start?wt(n,n.end,r.start,r,t,e):gt(n,n.end,r,t,e);if(r.start)return gt(n,r.start,r,t,e)}return ut(n,r,t,e)}function At(t,n,r){var e=kt(t,n,r,!0);return e.a=function(t){var n=arguments.length>1&&void 0!==arguments[1]&&arguments[1];return n?t+Math.PI:t}(e.a)/p,e}function _t(t){return!t.type||"corner"===t.type}function St(t){return null!=t.start&&!_t(t)}var Ot=new rt;var Mt={f:Q,i:b},jt={f:Q,i:function(t,n,r){var e=b(t,n,r);return e<=0?0:e>=1?1:e}};function Ft(t,n,r,e,i,o,u,a){return n=function(t,n,r){for(var e,i,o,u=t.length-1,a={},l=0;l<=u;l++)(e=t[l]).e&&(e.e=n(e.e)),e.v&&"g"===(i=e.v).t&&i.r&&(o=r.getElementById(i.r))&&(a[i.r]=o.querySelectorAll("stop"));return a}(t,e,a),function(e){var i,o=r(e,t,Pt);return o?"c"===o.t?V(o.v):"g"===o.t?(n[o.r]&&function(t,n){for(var r=0,e=t.length;r<e;r++)t[r].setAttribute("stop-color",V(n[r]))}(n[o.r],o.v),(i=o.r)?"url(#"+i+")":"none"):"none":"none"}}function Pt(t,n,r){if(0===t)return n;if(1===t)return r;if(n&&r){var e=n.t;if(e===r.t)switch(n.t){case"c":return{t:e,v:A(t,n.v,r.v)};case"g":if(n.r===r.r)return{t:e,v:_(t,n.v,r.v),r:n.r}}}return m(t,n,r)}var Bt={fill:Ft,"fill-opacity":jt,stroke:Ft,"stroke-opacity":jt,"stroke-width":Mt,"stroke-dashoffset":{f:Q,i:b},"stroke-dasharray":{f:function(t){var n=arguments.length>1&&void 0!==arguments[1]?arguments[1]:" ";return t&&t.length>0&&(t=t.map((function(t){return Math.floor(1e4*t)/1e4}))),U(t,n)},i:function(t,n,r){var e,i,o,u=n.length,a=r.length;if(u!==a)if(0===u)n=S(u=a,0);else if(0===a)a=u,r=S(u,0);else{var l=(o=(e=u)*(i=a)/function(t,n){for(var r;n;)r=n,n=t%n,t=r;return t||1}(e,i))<0?-o:o;n=O(n,Math.floor(l/u)),r=O(r,Math.floor(l/a)),u=a=l}for(var f=[],s=0;s<u;s++)f.push(g(w(t,n[s],r[s]),6));return f}},opacity:jt,transform:function(n,r,e,i){if(!(n=function(n,r){if(!n||"object"!==t(n))return null;var e=!1;for(var i in n)n.hasOwnProperty(i)&&(n[i]&&n[i].length?(n[i].forEach((function(t){t.e&&(t.e=r(t.e))})),e=!0):delete n[i]);return e?n:null}(n,i)))return null;var o=function(t,i,o){var u=arguments.length>3&&void 0!==arguments[3]?arguments[3]:null;return n[t]?e(i,n[t],o):r&&r[t]?r[t]:u};return r&&r.a&&n.o?function(t){var r=e(t,n.o,At);return Ot.recomposeSelf(r,o("r",t,b,0)+r.a,o("k",t,x),o("s",t,x),o("t",t,x)).toString()}:function(t){return Ot.recomposeSelf(o("o",t,kt,null),o("r",t,b,0),o("k",t,x),o("s",t,x),o("t",t,x)).toString()}},r:Mt,"#size":G,"#radius":$,_:function(t,n){if(Array.isArray(t))for(var r=0;r<t.length;r++)this[t[r]]=n;else this[t]=n}};return function(t){!function(t,n){if("function"!=typeof n&&null!==n)throw new TypeError("Super expression must either be null or a function");t.prototype=Object.create(n&&n.prototype,{constructor:{value:t,writable:!0,configurable:!0}}),n&&o(t,n)}(u,t);var r=a(u);function u(){return n(this,u),r.apply(this,arguments)}return e(u,null,[{key:"build",value:function(t){var n=l(i(u),"build",this).call(this,t,Bt);n.el,n.options;var r=n.player;return function(t,n,r){t.play()}(r),r}}]),u}(L)}));
__SVGATOR_PLAYER__.build({"root":"eOn9IxHXYw81","animations":[{"duration":3000,"direction":1,"iterations":0,"fill":1,"alternate":false,"speed":1,"elements":{"eOn9IxHXYw85":{"opacity":[{"t":0,"v":0},{"t":1500,"v":1},{"t":3000,"v":0}]},"eOn9IxHXYw86":{"transform":{"data":{"o":{"x":164.64444732666016,"y":313.68109130859375,"type":"corner"},"t":{"x":-164.64444732666016,"y":-313.68109130859375}},"keys":{"r":[{"t":0,"v":0},{"t":3000,"v":181.04888507045575}]}}},"eOn9IxHXYw87":{"opacity":[{"t":0,"v":0},{"t":800,"v":1},{"t":1700,"v":0},{"t":2500,"v":1},{"t":3000,"v":0}]},"eOn9IxHXYw810":{"transform":{"data":{"o":{"x":892.3908996582031,"y":200.56915283203125,"type":"corner"},"t":{"x":-892.3908996582031,"y":-200.56915283203125}},"keys":{"r":[{"t":0,"v":0},{"t":3000,"v":-179.62552628685518}]}}},"eOn9IxHXYw818":{"opacity":[{"t":0,"v":1},{"t":1700,"v":1}]},"eOn9IxHXYw819":{"opacity":[{"t":0,"v":1},{"t":1700,"v":1}]},"eOn9IxHXYw821":{"opacity":[{"t":1700,"v":0},{"t":1800,"v":1},{"t":3000,"v":1}]},"eOn9IxHXYw822":{"opacity":[{"t":1700,"v":0},{"t":1800,"v":1},{"t":3000,"v":1}]},"eOn9IxHXYw823":{"opacity":[{"t":0,"v":1},{"t":1700,"v":1}]},"eOn9IxHXYw824":{"opacity":[{"t":1700,"v":0},{"t":1800,"v":1},{"t":3000,"v":1}]},"eOn9IxHXYw825":{"opacity":[{"t":0,"v":1},{"t":1200,"v":1}]},"eOn9IxHXYw826":{"opacity":[{"t":1100,"v":0},{"t":1200,"v":1},{"t":3000,"v":1}]},"eOn9IxHXYw828":{"opacity":[{"t":0,"v":1},{"t":1200,"v":1}]},"eOn9IxHXYw829":{"opacity":[{"t":0,"v":1},{"t":1200,"v":1}]},"eOn9IxHXYw831":{"opacity":[{"t":1200,"v":0},{"t":1400,"v":1},{"t":3000,"v":1}]},"eOn9IxHXYw832":{"opacity":[{"t":1200,"v":0},{"t":1400,"v":1},{"t":3000,"v":1}]}}}],"options":{"start":"load","hover":"freeze","click":"freeze","scroll":25,"font":"embed","exportedIds":"unique","svgFormat":"animated","title":"Customizable-Settings-03"},"animationSettings":{"duration":3000,"direction":1,"iterations":0,"fill":1,"alternate":false,"speed":1}})]]></script></svg>