<svg width="499" height="107" viewBox="0 0 499 107" fill="none" xmlns="http://www.w3.org/2000/svg">
<circle cx="290.5" cy="35.1021" r="35" fill="#F16500"/>
<path d="M258.022 85.8599L260.688 92.9438L263.347 85.8599H265.423V95.1021H263.823V92.0552L263.982 87.98L261.253 95.1021H260.104L257.38 87.9863L257.539 92.0552V95.1021H255.94V85.8599H258.022ZM269.022 95.1021H267.422V85.8599H269.022V95.1021ZM278.328 95.1021H276.722L272.602 88.5449V95.1021H270.996V85.8599H272.602L276.734 92.4424V85.8599H278.328V95.1021ZM287.602 90.7222C287.602 91.6278 287.445 92.4233 287.132 93.1089C286.819 93.7902 286.37 94.3149 285.786 94.6831C285.206 95.047 284.538 95.229 283.78 95.229C283.031 95.229 282.363 95.047 281.774 94.6831C281.19 94.3149 280.738 93.7923 280.416 93.1152C280.099 92.4382 279.938 91.6574 279.934 90.7729V90.2524C279.934 89.3511 280.092 88.5555 280.41 87.8657C280.731 87.1759 281.182 86.6491 281.762 86.2852C282.346 85.917 283.014 85.7329 283.768 85.7329C284.521 85.7329 285.187 85.9149 285.767 86.2788C286.351 86.6385 286.802 87.159 287.119 87.8403C287.437 88.5174 287.597 89.3066 287.602 90.208V90.7222ZM285.996 90.2397C285.996 89.2157 285.801 88.4307 285.412 87.8848C285.027 87.3389 284.479 87.0659 283.768 87.0659C283.074 87.0659 282.53 87.3389 282.136 87.8848C281.747 88.4264 281.548 89.1945 281.54 90.189V90.7222C281.54 91.7378 281.736 92.5228 282.13 93.0771C282.528 93.6315 283.078 93.9087 283.78 93.9087C284.491 93.9087 285.037 93.6379 285.418 93.0962C285.803 92.5545 285.996 91.7632 285.996 90.7222V90.2397ZM292.597 91.541H290.807V95.1021H289.201V85.8599H292.451C293.518 85.8599 294.341 86.099 294.92 86.5771C295.5 87.0553 295.79 87.7472 295.79 88.6528C295.79 89.2707 295.64 89.7891 295.339 90.208C295.043 90.6227 294.628 90.9422 294.095 91.1665L296.171 95.0195V95.1021H294.451L292.597 91.541ZM290.807 90.2524H292.458C292.999 90.2524 293.422 90.117 293.727 89.8462C294.032 89.5711 294.184 89.1966 294.184 88.7227C294.184 88.2275 294.042 87.8446 293.759 87.5737C293.48 87.3029 293.061 87.1632 292.502 87.1548H290.807V90.2524ZM299.008 95.1021H297.409V85.8599H299.008V95.1021ZM307.47 87.1548H304.588V95.1021H302.995V87.1548H300.138V85.8599H307.47V87.1548ZM310.383 95.1021H308.784V85.8599H310.383V95.1021ZM317.759 90.9761H313.963V93.8198H318.4V95.1021H312.357V85.8599H318.356V87.1548H313.963V89.7065H317.759V90.9761ZM324.539 92.7217C324.539 92.3154 324.395 92.0023 324.107 91.7822C323.823 91.5622 323.309 91.34 322.565 91.1157C321.82 90.8914 321.227 90.6418 320.787 90.3667C319.945 89.8377 319.524 89.1479 319.524 88.2974C319.524 87.5526 319.827 86.939 320.432 86.4565C321.041 85.9741 321.83 85.7329 322.799 85.7329C323.443 85.7329 324.016 85.8514 324.52 86.0884C325.023 86.3254 325.419 86.6639 325.707 87.104C325.994 87.5399 326.138 88.0244 326.138 88.5576H324.539C324.539 88.0752 324.386 87.6986 324.082 87.4277C323.781 87.1527 323.35 87.0151 322.787 87.0151C322.262 87.0151 321.854 87.1273 321.562 87.3516C321.274 87.5758 321.13 87.889 321.13 88.291C321.13 88.6296 321.287 88.9131 321.6 89.1416C321.913 89.3659 322.429 89.5859 323.148 89.8018C323.868 90.0133 324.446 90.2567 324.881 90.5317C325.317 90.8026 325.637 91.1157 325.84 91.4712C326.043 91.8224 326.145 92.235 326.145 92.709C326.145 93.4792 325.848 94.0928 325.256 94.5498C324.668 95.0026 323.868 95.229 322.857 95.229C322.188 95.229 321.572 95.1063 321.009 94.8608C320.451 94.6112 320.015 94.2684 319.702 93.8325C319.393 93.3966 319.238 92.8888 319.238 92.3091H320.844C320.844 92.8338 321.018 93.2401 321.365 93.5278C321.712 93.8156 322.209 93.9595 322.857 93.9595C323.415 93.9595 323.834 93.8473 324.113 93.623C324.397 93.3945 324.539 93.0941 324.539 92.7217Z" fill="#F16500"/>
<path d="M290.535 14.1021C292.404 14.1021 293.918 15.5259 293.918 17.2946C293.918 18.1435 293.564 18.9483 292.926 19.5497C292.289 20.151 291.43 20.4871 290.535 20.4871C289.641 20.4871 288.782 20.151 288.145 19.5497C287.507 18.9483 287.153 18.1435 287.153 17.2946C287.153 15.5259 288.667 14.1021 290.535 14.1021ZM293.219 21.3891C293.838 21.3891 294.458 21.6544 294.883 22.1674L303.296 32.2755C304.057 33.1952 303.933 34.5483 303.012 35.3177C302.091 36.0782 300.737 35.9544 299.966 35.0347L295.698 29.9055V39.8721C295.698 39.8987 295.698 39.9252 295.698 39.9517C295.716 40.0578 295.725 40.1728 295.725 40.2878V53.4204C295.725 54.6143 294.759 55.5782 293.564 55.5782C292.368 55.5782 291.403 54.6143 291.403 53.4204V42.6136H289.712V53.4116C289.712 54.6055 288.747 55.5694 287.551 55.5694C286.356 55.5694 285.391 54.6055 285.391 53.4116V40.2789C285.391 40.2612 285.391 40.2435 285.391 40.2259C285.373 40.1021 285.364 39.9871 285.364 39.8633V29.8435L281.025 35.0612C280.263 35.981 278.9 36.1048 277.979 35.3442C277.058 34.5837 276.934 33.2218 277.695 32.3021L286.108 22.2027C286.568 21.6456 287.241 21.3803 287.914 21.4245C287.985 21.4157 288.056 21.4157 288.127 21.4157H292.882C292.997 21.398 293.112 21.3891 293.219 21.3891Z" fill="white"/>
<path d="M290.5 59.6019C294.122 59.6019 297.531 59.1686 300.108 58.3903C302.977 57.5148 304.5 56.2856 304.5 54.8529C304.5 53.4203 302.977 52.191 300.108 51.3244C297.531 50.5461 294.122 50.1128 290.5 50.1128C286.878 50.1128 283.469 50.5461 280.892 51.3244C278.014 52.1999 276.5 53.4203 276.5 54.8529C276.5 56.2856 278.023 57.5148 280.892 58.3815C283.469 59.1686 286.878 59.6019 290.5 59.6019ZM290.5 51.5189C293.98 51.5189 297.248 51.9257 299.692 52.6686C302.198 53.438 303.083 54.3223 303.083 54.8529C303.083 55.3835 302.198 56.2679 299.692 57.0284C297.248 57.7713 293.98 58.1781 290.5 58.1781C287.02 58.1781 283.752 57.7713 281.308 57.0284C278.802 56.2679 277.917 55.3835 277.917 54.8529C277.917 54.3223 278.802 53.438 281.308 52.6774C283.752 51.9257 287.02 51.5189 290.5 51.5189Z" fill="white"/>
<circle cx="375.667" cy="35.1021" r="35" fill="#3299D9"/>
<path d="M337.94 96.082V86.8398H340.669C341.486 86.8398 342.209 87.0218 342.84 87.3857C343.475 87.7497 343.966 88.266 344.313 88.9346C344.66 89.6032 344.833 90.3691 344.833 91.2324V91.6958C344.833 92.5718 344.657 93.342 344.306 94.0063C343.959 94.6707 343.462 95.1828 342.815 95.5425C342.171 95.9022 341.433 96.082 340.599 96.082H337.94ZM339.545 88.1348V94.7998H340.593C341.435 94.7998 342.08 94.5374 342.529 94.0127C342.982 93.4837 343.212 92.7262 343.221 91.7402V91.2261C343.221 90.2231 343.003 89.4572 342.567 88.9282C342.131 88.3993 341.498 88.1348 340.669 88.1348H339.545ZM348.128 96.082H346.528V86.8398H348.128V96.082ZM354.932 93.7017C354.932 93.2954 354.788 92.9823 354.501 92.7622C354.217 92.5422 353.703 92.32 352.958 92.0957C352.213 91.8714 351.621 91.6217 351.181 91.3467C350.339 90.8177 349.918 90.1279 349.918 89.2773C349.918 88.5326 350.22 87.9189 350.825 87.4365C351.435 86.9541 352.224 86.7129 353.193 86.7129C353.836 86.7129 354.41 86.8314 354.913 87.0684C355.417 87.3053 355.812 87.6439 356.1 88.084C356.388 88.5199 356.532 89.0044 356.532 89.5376H354.932C354.932 89.0552 354.78 88.6785 354.475 88.4077C354.175 88.1326 353.743 87.9951 353.18 87.9951C352.655 87.9951 352.247 88.1073 351.955 88.3315C351.667 88.5558 351.523 88.869 351.523 89.271C351.523 89.6095 351.68 89.8931 351.993 90.1216C352.306 90.3459 352.823 90.5659 353.542 90.7817C354.261 90.9933 354.839 91.2367 355.275 91.5117C355.711 91.7826 356.03 92.0957 356.233 92.4512C356.437 92.8024 356.538 93.215 356.538 93.689C356.538 94.4591 356.242 95.0728 355.649 95.5298C355.061 95.9826 354.261 96.209 353.25 96.209C352.581 96.209 351.966 96.0863 351.403 95.8408C350.844 95.5911 350.408 95.2484 350.095 94.8125C349.786 94.3766 349.632 93.8688 349.632 93.2891H351.238C351.238 93.8138 351.411 94.2201 351.758 94.5078C352.105 94.7956 352.603 94.9395 353.25 94.9395C353.809 94.9395 354.228 94.8273 354.507 94.603C354.79 94.3745 354.932 94.0741 354.932 93.7017ZM363.121 93.9302H359.541L358.792 96.082H357.122L360.613 86.8398H362.054L365.552 96.082H363.876L363.121 93.9302ZM359.991 92.6353H362.67L361.331 88.8013L359.991 92.6353ZM366.606 96.082V86.8398H369.773C370.818 86.8398 371.614 87.0493 372.16 87.4683C372.706 87.8872 372.979 88.5114 372.979 89.3408C372.979 89.764 372.864 90.1449 372.636 90.4834C372.407 90.8219 372.073 91.0843 371.633 91.2705C372.132 91.4059 372.517 91.6619 372.788 92.0386C373.063 92.411 373.201 92.8595 373.201 93.3843C373.201 94.2518 372.921 94.9183 372.363 95.3838C371.808 95.8493 371.013 96.082 369.976 96.082H366.606ZM368.211 91.9116V94.7998H369.995C370.499 94.7998 370.892 94.675 371.176 94.4253C371.459 94.1756 371.601 93.8286 371.601 93.3843C371.601 92.4237 371.11 91.9328 370.128 91.9116H368.211ZM368.211 90.731H369.786C370.285 90.731 370.674 90.6188 370.954 90.3945C371.237 90.166 371.379 89.8444 371.379 89.4297C371.379 88.9727 371.248 88.6426 370.985 88.4395C370.727 88.2363 370.323 88.1348 369.773 88.1348H368.211V90.731ZM376.502 96.082H374.902V86.8398H376.502V96.082ZM380.082 94.7998H384.277V96.082H378.476V86.8398H380.082V94.7998ZM387.204 96.082H385.604V86.8398H387.204V96.082ZM395.665 88.1348H392.783V96.082H391.19V88.1348H388.334V86.8398H395.665V88.1348ZM398.579 96.082H396.979V86.8398H398.579V96.082ZM405.955 91.9561H402.159V94.7998H406.596V96.082H400.553V86.8398H406.551V88.1348H402.159V90.6865H405.955V91.9561ZM412.734 93.7017C412.734 93.2954 412.59 92.9823 412.302 92.7622C412.019 92.5422 411.505 92.32 410.76 92.0957C410.015 91.8714 409.423 91.6217 408.982 91.3467C408.14 90.8177 407.719 90.1279 407.719 89.2773C407.719 88.5326 408.022 87.9189 408.627 87.4365C409.236 86.9541 410.026 86.7129 410.995 86.7129C411.638 86.7129 412.211 86.8314 412.715 87.0684C413.218 87.3053 413.614 87.6439 413.902 88.084C414.19 88.5199 414.334 89.0044 414.334 89.5376H412.734C412.734 89.0552 412.582 88.6785 412.277 88.4077C411.976 88.1326 411.545 87.9951 410.982 87.9951C410.457 87.9951 410.049 88.1073 409.757 88.3315C409.469 88.5558 409.325 88.869 409.325 89.271C409.325 89.6095 409.482 89.8931 409.795 90.1216C410.108 90.3459 410.624 90.5659 411.344 90.7817C412.063 90.9933 412.641 91.2367 413.077 91.5117C413.513 91.7826 413.832 92.0957 414.035 92.4512C414.238 92.8024 414.34 93.215 414.34 93.689C414.34 94.4591 414.044 95.0728 413.451 95.5298C412.863 95.9826 412.063 96.209 411.052 96.209C410.383 96.209 409.767 96.0863 409.205 95.8408C408.646 95.5911 408.21 95.2484 407.897 94.8125C407.588 94.3766 407.434 93.8688 407.434 93.2891H409.04C409.04 93.8138 409.213 94.2201 409.56 94.5078C409.907 94.7956 410.404 94.9395 411.052 94.9395C411.61 94.9395 412.029 94.8273 412.309 94.603C412.592 94.3745 412.734 94.0741 412.734 93.7017Z" fill="#3299D9"/>
<path d="M368.801 57.2683C367.528 56.9245 366.191 56.6818 364.96 56.2369C359.081 54.1136 355.473 48.5525 355.855 42.2229C356.173 36.8641 360.566 31.6467 366.127 30.2109C366.127 31.4647 366.169 32.6983 366.084 33.9318C366.063 34.2149 365.618 34.5385 365.299 34.7205C359.526 37.8347 358.126 45.1349 362.413 49.8265C367.697 55.5898 377.269 53.9721 380.113 46.8134C380.198 46.6314 380.262 46.4292 380.347 46.2067C380.856 46.2067 381.366 46.2067 381.896 46.2067C382.151 46.6718 382.321 47.1572 382.639 47.5414C383.721 48.8356 383.297 49.9478 382.384 51.1409C379.859 54.4776 376.548 56.5403 372.239 57.1065C372.07 57.1267 371.921 57.2076 371.751 57.2683C370.796 57.2683 369.799 57.2683 368.801 57.2683Z" fill="white"/>
<path d="M373.916 11.7686C375.571 12.3146 376.951 13.1639 377.524 14.8626C378.309 17.2083 377.015 19.6754 374.595 20.4641C372.218 21.2326 369.586 20.0597 368.716 17.8352C367.782 15.5299 368.95 13.0426 371.348 12.1123C371.645 12.0112 371.921 11.8899 372.197 11.7686C372.77 11.7686 373.343 11.7686 373.916 11.7686Z" fill="white"/>
<path d="M377.163 32.5572C379.264 32.5572 381.196 32.5572 383.127 32.5572C383.488 32.5572 383.828 32.537 384.188 32.5774C385.398 32.6583 386.226 33.447 386.205 34.5187C386.205 35.5096 385.271 36.4398 384.146 36.4601C382.13 36.5005 380.113 36.4803 378.097 36.4803C377.821 36.4803 377.545 36.5005 377.206 36.5207C377.206 37.087 377.206 37.6127 377.206 38.2598C379.18 38.2598 381.111 38.2598 383.042 38.2598C383.743 38.2598 384.464 38.2598 385.165 38.2598C386.29 38.2598 387.16 38.725 387.669 39.6552C389.791 43.5985 391.914 47.5418 393.994 51.5256C394.694 52.8603 394.121 54.3567 392.805 54.9836C391.383 55.6712 389.834 55.2061 389.049 53.7501C387.351 50.6561 385.674 47.5418 384.061 44.4074C383.679 43.6794 383.255 43.4772 382.448 43.4974C379.519 43.5378 376.569 43.5176 373.64 43.5176C370.584 43.4974 368.907 41.9201 368.907 39.0283C368.907 34.8423 368.865 30.6765 368.928 26.4905C369.035 23.6998 371.921 21.8798 374.595 22.9112C376.336 23.5785 377.121 24.893 377.163 26.6321C377.206 28.533 377.163 30.4541 377.163 32.5572Z" fill="white"/>
<path d="M425.634 96.082H424.035V86.8398H425.634V96.082ZM434.94 96.082H433.334L429.214 89.5249V96.082H427.608V86.8398H429.214L433.347 93.4224V86.8398H434.94V96.082ZM436.838 96.082V86.8398H439.567C440.384 86.8398 441.108 87.0218 441.738 87.3857C442.373 87.7497 442.864 88.266 443.211 88.9346C443.558 89.6032 443.732 90.3691 443.732 91.2324V91.6958C443.732 92.5718 443.556 93.342 443.205 94.0063C442.858 94.6707 442.36 95.1828 441.713 95.5425C441.07 95.9022 440.331 96.082 439.498 96.082H436.838ZM438.444 88.1348V94.7998H439.491C440.333 94.7998 440.979 94.5374 441.427 94.0127C441.88 93.4837 442.111 92.7262 442.119 91.7402V91.2261C442.119 90.2231 441.901 89.4572 441.465 88.9282C441.03 88.3993 440.397 88.1348 439.567 88.1348H438.444ZM447.026 96.082H445.426V86.8398H447.026V96.082ZM456.084 94.8823C455.75 95.3182 455.286 95.6483 454.694 95.8726C454.101 96.0968 453.429 96.209 452.675 96.209C451.901 96.209 451.215 96.0334 450.619 95.6821C450.022 95.3309 449.561 94.8294 449.235 94.1777C448.913 93.5218 448.746 92.758 448.733 91.8862V91.1626C448.733 89.7661 449.068 88.6764 449.736 87.8936C450.405 87.1064 451.338 86.7129 452.536 86.7129C453.564 86.7129 454.381 86.9668 454.986 87.4746C455.591 87.9824 455.955 88.7145 456.078 89.6709H454.503C454.326 88.5579 453.68 88.0015 452.567 88.0015C451.848 88.0015 451.3 88.2617 450.923 88.7822C450.551 89.2985 450.358 90.0581 450.346 91.061V91.772C450.346 92.7707 450.555 93.5472 450.974 94.1016C451.397 94.6517 451.983 94.9268 452.732 94.9268C453.553 94.9268 454.137 94.7406 454.484 94.3682V92.5591H452.58V91.3403H456.084V94.8823ZM463.251 91.9561H459.455V94.7998H463.892V96.082H457.849V86.8398H463.847V88.1348H459.455V90.6865H463.251V91.9561ZM472.531 96.082H470.925L466.805 89.5249V96.082H465.199V86.8398H466.805L470.938 93.4224V86.8398H472.531V96.082ZM481.805 91.7021C481.805 92.6077 481.648 93.4033 481.335 94.0889C481.022 94.7702 480.573 95.2949 479.989 95.6631C479.41 96.027 478.741 96.209 477.983 96.209C477.234 96.209 476.566 96.027 475.978 95.6631C475.394 95.2949 474.941 94.7723 474.619 94.0952C474.302 93.4181 474.141 92.6374 474.137 91.7529V91.2324C474.137 90.3311 474.295 89.5355 474.613 88.8457C474.934 88.1559 475.385 87.6291 475.965 87.2651C476.549 86.897 477.218 86.7129 477.971 86.7129C478.724 86.7129 479.391 86.8949 479.97 87.2588C480.554 87.6185 481.005 88.139 481.322 88.8203C481.64 89.4974 481.801 90.2866 481.805 91.188V91.7021ZM480.199 91.2197C480.199 90.1956 480.004 89.4106 479.615 88.8647C479.23 88.3188 478.682 88.0459 477.971 88.0459C477.277 88.0459 476.733 88.3188 476.339 88.8647C475.95 89.4064 475.751 90.1745 475.743 91.1689V91.7021C475.743 92.7178 475.94 93.5028 476.333 94.0571C476.731 94.6115 477.281 94.8887 477.983 94.8887C478.694 94.8887 479.24 94.6178 479.621 94.0762C480.006 93.5345 480.199 92.7432 480.199 91.7021V91.2197ZM490.165 86.8398V93.0161C490.165 93.9979 489.849 94.7765 489.219 95.3521C488.593 95.9233 487.757 96.209 486.711 96.209C485.654 96.209 484.814 95.9276 484.191 95.3647C483.569 94.7977 483.258 94.0127 483.258 93.0098V86.8398H484.858V93.0225C484.858 93.6403 485.015 94.1121 485.328 94.438C485.641 94.7638 486.102 94.9268 486.711 94.9268C487.947 94.9268 488.565 94.2751 488.565 92.9717V86.8398H490.165ZM496.715 93.7017C496.715 93.2954 496.572 92.9823 496.284 92.7622C496 92.5422 495.486 92.32 494.741 92.0957C493.996 91.8714 493.404 91.6217 492.964 91.3467C492.122 90.8177 491.701 90.1279 491.701 89.2773C491.701 88.5326 492.003 87.9189 492.608 87.4365C493.218 86.9541 494.007 86.7129 494.976 86.7129C495.619 86.7129 496.193 86.8314 496.696 87.0684C497.2 87.3053 497.596 87.6439 497.883 88.084C498.171 88.5199 498.315 89.0044 498.315 89.5376H496.715C496.715 89.0552 496.563 88.6785 496.258 88.4077C495.958 88.1326 495.526 87.9951 494.963 87.9951C494.439 87.9951 494.03 88.1073 493.738 88.3315C493.451 88.5558 493.307 88.869 493.307 89.271C493.307 89.6095 493.463 89.8931 493.776 90.1216C494.09 90.3459 494.606 90.5659 495.325 90.7817C496.045 90.9933 496.622 91.2367 497.058 91.5117C497.494 91.7826 497.814 92.0957 498.017 92.4512C498.22 92.8024 498.321 93.215 498.321 93.689C498.321 94.4591 498.025 95.0728 497.433 95.5298C496.844 95.9826 496.045 96.209 495.033 96.209C494.365 96.209 493.749 96.0863 493.186 95.8408C492.628 95.5911 492.192 95.2484 491.878 94.8125C491.57 94.3766 491.415 93.8688 491.415 93.2891H493.021C493.021 93.8138 493.195 94.2201 493.542 94.5078C493.889 94.7956 494.386 94.9395 495.033 94.9395C495.592 94.9395 496.011 94.8273 496.29 94.603C496.574 94.3745 496.715 94.0741 496.715 93.7017Z" fill="#F2C029"/>
<circle cx="35" cy="35.1021" r="35" fill="#D90429"/>
<path d="M17.1885 91.8169L18.6104 84.8599H20.2037L18.0709 94.1021H16.5347L14.7764 87.3545L12.98 94.1021H11.4376L9.30475 84.8599H10.898L12.3326 91.8042L14.0972 84.8599H15.4429L17.1885 91.8169ZM28.754 89.7222C28.754 90.6278 28.5974 91.4233 28.2842 92.1089C27.9711 92.7902 27.5225 93.3149 26.9385 93.6831C26.3588 94.047 25.6902 94.229 24.9327 94.229C24.1837 94.229 23.515 94.047 22.9268 93.6831C22.3428 93.3149 21.89 92.7923 21.5684 92.1152C21.251 91.4382 21.0902 90.6574 21.086 89.7729V89.2524C21.086 88.3511 21.2447 87.5555 21.5621 86.8657C21.8837 86.1759 22.3344 85.6491 22.9141 85.2852C23.4981 84.917 24.1667 84.7329 24.92 84.7329C25.6732 84.7329 26.3397 84.9149 26.9195 85.2788C27.5035 85.6385 27.9542 86.159 28.2715 86.8403C28.5889 87.5174 28.7497 88.3066 28.754 89.208V89.7222ZM27.148 89.2397C27.148 88.2157 26.9533 87.4307 26.564 86.8848C26.1789 86.3389 25.6309 86.0659 24.92 86.0659C24.226 86.0659 23.6822 86.3389 23.2886 86.8848C22.8993 87.4264 22.7004 88.1945 22.692 89.189V89.7222C22.692 90.7378 22.8887 91.5228 23.2823 92.0771C23.6801 92.6315 24.2302 92.9087 24.9327 92.9087C25.6436 92.9087 26.1895 92.6379 26.5704 92.0962C26.9555 91.5545 27.148 90.7632 27.148 89.7222V89.2397ZM32.4356 84.8599L35.1016 91.9438L37.7613 84.8599H39.837V94.1021H38.2374V91.0552L38.3961 86.98L35.6666 94.1021H34.5176L31.7945 86.9863L31.9532 91.0552V94.1021H30.3536V84.8599H32.4356ZM47.1431 89.9761H43.3472V92.8198H47.7842V94.1021H41.7413V84.8599H47.7398V86.1548H43.3472V88.7065H47.1431V89.9761ZM56.4234 94.1021H54.8174L50.6978 87.5449V94.1021H49.0919V84.8599H50.6978L54.8301 91.4424V84.8599H56.4234V94.1021Z" fill="#D90429"/>
<path d="M33.4265 14.1021C34.4186 14.1021 35.3713 14.4635 36.0785 15.1103C36.7857 15.7572 37.1786 16.6228 37.1786 17.5359C37.1786 18.4491 36.7857 19.3147 36.0785 19.9615C35.3713 20.6084 34.4186 20.9698 33.4265 20.9698C31.3541 20.9698 29.6745 19.4384 29.6745 17.5359C29.6745 15.6335 31.3541 14.1021 33.4265 14.1021ZM36.2652 21.9401C36.8839 21.9401 37.5027 22.2254 37.9349 22.7771L46.3329 33.6496C47.099 34.6388 46.9713 36.0942 46.048 36.9217C45.1247 37.7398 43.7693 37.6066 43.0031 36.6173L38.3573 30.6057L38.9957 33.0027L42.1388 44.7788L38.426 44.7693V56.3931C38.426 57.6773 37.4635 58.7141 36.2652 58.7141C35.0668 58.7141 34.1043 57.6773 34.1043 56.3931V44.7503H33.2006H32.4149V56.3931C32.4149 57.6773 31.4523 58.7141 30.254 58.7141C29.0557 58.7141 28.0931 57.6773 28.0931 56.3931V44.7312L24.2723 44.7217L27.4154 33.0122L27.8377 31.4332L23.8303 36.6078C23.0642 37.5971 21.7087 37.7303 20.7854 36.9122C19.8622 36.0942 19.7345 34.6293 20.5006 33.64L28.9182 22.7771C29.4289 22.1208 30.2049 21.8354 30.9317 21.9686H35.9116H35.9214C36.0294 21.9496 36.1473 21.9401 36.2652 21.9401Z" fill="white"/>
<circle cx="205.333" cy="35.1021" r="35" fill="#8C00FF"/>
<path d="M184.545 92.8198H188.741V94.1021H182.94V84.8599H184.545V92.8198ZM196.65 92.9023C196.316 93.3382 195.853 93.6683 195.26 93.8926C194.668 94.1169 193.995 94.229 193.242 94.229C192.467 94.229 191.782 94.0534 191.185 93.7021C190.588 93.3509 190.127 92.8494 189.801 92.1978C189.48 91.5418 189.313 90.778 189.3 89.9062V89.1826C189.3 87.7861 189.634 86.6965 190.303 85.9136C190.971 85.1265 191.905 84.7329 193.102 84.7329C194.13 84.7329 194.947 84.9868 195.552 85.4946C196.157 86.0024 196.521 86.7345 196.644 87.6909H195.07C194.892 86.578 194.247 86.0215 193.134 86.0215C192.414 86.0215 191.866 86.2817 191.49 86.8022C191.117 87.3185 190.925 88.0781 190.912 89.0811V89.792C190.912 90.7907 191.122 91.5672 191.541 92.1216C191.964 92.6717 192.55 92.9468 193.299 92.9468C194.12 92.9468 194.704 92.7606 195.051 92.3882V90.5791H193.147V89.3604H196.65V92.9023ZM198.415 94.1021V84.8599H201.583C202.628 84.8599 203.423 85.0693 203.969 85.4883C204.515 85.9072 204.788 86.5314 204.788 87.3608C204.788 87.784 204.674 88.1649 204.445 88.5034C204.217 88.842 203.883 89.1043 203.442 89.2905C203.942 89.4259 204.327 89.682 204.598 90.0586C204.873 90.431 205.01 90.8796 205.01 91.4043C205.01 92.2718 204.731 92.9383 204.172 93.4038C203.618 93.8693 202.822 94.1021 201.786 94.1021H198.415ZM200.021 89.9316V92.8198H201.805C202.308 92.8198 202.702 92.695 202.985 92.4453C203.269 92.1956 203.411 91.8486 203.411 91.4043C203.411 90.4437 202.92 89.9528 201.938 89.9316H200.021ZM200.021 88.751H201.595C202.095 88.751 202.484 88.6388 202.763 88.4146C203.047 88.186 203.189 87.8644 203.189 87.4497C203.189 86.9927 203.057 86.6626 202.795 86.4595C202.537 86.2563 202.133 86.1548 201.583 86.1548H200.021V88.751ZM213.116 86.1548H210.234V94.1021H208.641V86.1548H205.785V84.8599H213.116V86.1548ZM221.502 89.7222C221.502 90.5981 221.362 91.3577 221.083 92.001C220.808 92.64 220.42 93.1478 219.921 93.5244L221.508 94.7622L220.467 95.7017L218.499 94.1465C218.241 94.2015 217.964 94.229 217.668 94.229C216.923 94.229 216.256 94.047 215.668 93.6831C215.084 93.3149 214.631 92.7923 214.31 92.1152C213.992 91.4382 213.831 90.6574 213.827 89.7729V89.2524C213.827 88.3511 213.986 87.5555 214.303 86.8657C214.625 86.1759 215.076 85.6491 215.655 85.2852C216.239 84.917 216.906 84.7329 217.655 84.7329C218.417 84.7329 219.087 84.9149 219.667 85.2788C220.251 85.6385 220.702 86.159 221.019 86.8403C221.336 87.5174 221.497 88.3066 221.502 89.208V89.7222ZM219.889 89.2397C219.889 88.1987 219.695 87.4095 219.305 86.8721C218.916 86.3346 218.366 86.0659 217.655 86.0659C216.965 86.0659 216.423 86.3389 216.03 86.8848C215.641 87.4264 215.442 88.1924 215.433 89.1826V89.7222C215.433 90.7209 215.628 91.5016 216.017 92.0645C216.411 92.6273 216.961 92.9087 217.668 92.9087C218.383 92.9087 218.931 92.6379 219.312 92.0962C219.697 91.5545 219.889 90.7632 219.889 89.7222V89.2397ZM226.548 89.0176H228.96V90.4268H226.548V93.1753H225.05V90.4268H222.625V89.0176H225.05V86.4468H226.548V89.0176Z" fill="#8C00FF"/>
<path d="M228.667 23.782C227.608 23.782 226.55 23.782 225.363 23.782C225.363 22.462 225.363 21.2973 225.363 20.2619C222.214 23.3938 219.065 26.5515 215.787 29.8386C217.645 33.2292 217.981 37.0599 216.148 40.9423C214.316 44.8247 211.115 46.973 206.959 47.7753C206.959 49.6648 206.959 51.4766 206.959 53.4696C208.043 53.4696 209.05 53.4696 210.083 53.4696C210.083 54.5825 210.083 55.5143 210.083 56.5755C209.076 56.5755 208.069 56.5755 206.83 56.5755C206.83 58.0508 206.83 59.4226 206.83 60.7685C205.798 60.7685 204.765 60.7685 203.759 60.7685C203.759 59.4485 203.759 58.1285 203.759 56.679C202.597 56.679 201.591 56.679 200.532 56.679C200.532 55.5661 200.532 54.6084 200.532 53.4696C201.565 53.4696 202.571 53.4696 203.63 53.4696C203.63 51.4766 203.63 49.6648 203.63 47.8271C194.518 46.093 190.827 36.6716 194.931 29.5539C193.95 28.6221 192.97 27.6903 191.937 26.7068C191.395 27.2244 190.75 27.8456 190.053 28.4927C189.304 27.6644 188.582 26.8879 187.807 26.0338C188.324 25.4903 188.943 24.8432 189.434 24.3255C188.04 22.9279 186.672 21.5561 185.252 20.1584C185.252 21.2714 185.252 22.4361 185.252 23.6785C184.168 23.6785 183.187 23.6785 182 23.6785C182 22.7467 182 21.789 182 20.8314C182 18.916 181.974 16.9748 182.026 15.0595C182.026 14.7489 182.387 14.1795 182.568 14.1536C185.562 14.1018 188.556 14.1277 191.602 14.1277C191.602 15.2407 191.602 16.1983 191.602 17.2854C190.414 17.2854 189.227 17.2854 188.246 17.2854C189.563 18.6054 190.931 19.9513 192.376 21.4008C192.712 21.0902 193.331 20.4949 193.925 19.9255C194.673 20.7019 195.422 21.4525 196.222 22.3067C195.706 22.6949 195.009 23.2385 194.363 23.7302C195.525 24.895 196.403 25.7491 197.332 26.655C202.546 22.7208 207.94 22.6949 213.335 26.7068C216.38 23.6267 219.426 20.5466 222.549 17.3889C221.439 17.3889 220.252 17.3889 218.987 17.3889C218.987 16.2501 218.987 15.2666 218.987 14.1018C219.865 14.1018 220.743 14.076 221.62 14.1018C223.969 14.1536 226.318 14.2312 228.641 14.283C228.667 17.4666 228.667 20.6243 228.667 23.782ZM213.283 35.7916C213.283 31.3398 209.747 27.8197 205.307 27.7938C200.868 27.7938 197.306 31.3139 197.306 35.7398C197.28 40.2176 200.868 43.8412 205.333 43.8153C209.747 43.7894 213.283 40.2176 213.283 35.7916Z" fill="white"/>
<circle cx="460.833" cy="35.1021" r="35" fill="#F2C029"/>
<path d="M447.752 46.7723C444.046 41.7093 446.073 36.933 447.879 31.7745C448.829 32.5706 449.621 33.2074 450.634 34.0353C450.698 32.6661 450.761 31.5835 450.824 30.2143C451.775 30.9148 452.566 31.5198 453.675 32.3795C453.675 30.8511 453.77 29.6729 453.643 28.4629C453.517 27.03 454.023 25.8837 455.195 25.215C458.458 23.3045 461.689 21.2029 465.173 19.8018C470.367 17.6684 475.72 16.0444 481.01 14.2294C481.2 14.1657 481.422 14.1657 481.833 14.1021C481.77 14.6434 481.77 15.121 481.643 15.535C479.204 23.5274 476.702 31.5198 472.394 38.7798C472.109 39.2256 471.824 39.6714 471.539 40.1172C470.431 41.8049 469.005 42.7283 466.883 42.4417C466.028 42.3462 465.141 42.4099 463.842 42.4099C464.634 43.5243 465.141 44.2249 465.806 45.1165C464.666 45.3075 463.652 45.4986 462.385 45.7215C462.987 46.5175 463.526 47.1862 464.096 47.9504C463.842 48.1733 463.684 48.4599 463.431 48.5554C460.675 49.6699 457.856 50.6252 454.847 50.3386C453.327 50.1794 451.775 49.7017 450.381 49.0012C449.367 48.4917 448.797 48.5554 448.069 49.3196C446.295 51.1347 444.458 52.886 442.652 54.6692C442.241 55.0831 441.892 55.5926 441.385 55.8473C440.942 56.0702 440.372 56.0065 439.833 56.0702C439.897 55.4971 439.738 54.7647 440.023 54.4463C441.734 52.6312 443.539 50.9436 445.313 49.1923C446.137 48.3962 446.96 47.5683 447.752 46.7723ZM461.72 47.4091C460.738 46.2946 459.851 45.3075 458.775 44.0975C460.263 44.002 461.435 43.9383 462.86 43.8746C462.037 42.8557 461.372 42.0914 460.517 41.0088C462.512 41.0088 464.096 40.9133 465.648 41.0406C467.897 41.1999 469.639 40.6585 470.747 38.5251C471.666 36.7419 472.711 35.0224 473.82 33.0482C470.684 32.698 467.992 32.3477 465.268 32.1248C464.793 32.093 464.222 32.5069 463.842 32.889C461.15 35.6274 458.521 38.3659 455.829 41.0406C453.928 42.9193 451.933 44.7343 450.096 46.4857C451.743 49.4789 456.937 49.7017 461.72 47.4091ZM451.87 37.1559C450.603 36.0414 449.621 35.1498 448.575 34.2264C446.485 38.7798 446.327 44.3841 449.304 45.7851C449.462 45.6896 449.621 45.5623 449.779 45.4349C454.15 40.977 458.521 36.5509 462.892 32.1248C463.177 31.8382 463.494 31.3924 463.462 31.0422C463.241 28.2082 462.924 25.3742 462.607 22.2218C460.802 23.2408 459.281 24.1642 457.729 24.9921C455.385 26.2021 454.752 28.1764 454.974 30.6282C455.1 32.1248 455.005 33.6214 455.005 35.4682C453.865 34.513 453.073 33.8443 452.06 32.9845C452.06 33.9716 452.091 34.5448 452.06 35.118C451.996 35.6911 451.933 36.2643 451.87 37.1559ZM467.295 20.7571C463.969 21.585 463.937 21.585 464.191 24.6737C464.318 26.3613 464.539 28.049 464.729 29.7366C464.888 29.8003 465.078 29.8321 465.236 29.8958C465.933 28.9087 467.041 27.9535 467.232 26.8708C467.517 24.9284 467.295 22.8905 467.295 20.7571ZM474.897 28.24C471.951 28.7495 468.403 26.9027 466.281 30.8829C467.96 31.074 469.575 31.2651 471.191 31.4243C474.232 31.679 474.232 31.679 475.023 28.654C475.055 28.6221 475.023 28.5585 474.897 28.24Z" fill="white"/>
<circle cx="120.167" cy="35.1021" r="35" fill="#32A955"/>
<path d="M92.1959 92.0898L94.5445 84.8599H96.3091L92.983 94.1021H91.4278L88.1143 84.8599H89.8726L92.1959 92.0898ZM102.758 89.9761H98.9625V92.8198H103.399V94.1021H97.3565V84.8599H103.355V86.1548H98.9625V88.7065H102.758V89.9761ZM111.512 86.1548H108.63V94.1021H107.037V86.1548H104.18V84.8599H111.512V86.1548ZM118.132 89.9761H114.336V92.8198H118.773V94.1021H112.731V84.8599H118.729V86.1548H114.336V88.7065H118.132V89.9761ZM123.477 90.541H121.687V94.1021H120.081V84.8599H123.331C124.398 84.8599 125.221 85.099 125.8 85.5771C126.38 86.0553 126.67 86.7472 126.67 87.6528C126.67 88.2707 126.52 88.7891 126.219 89.208C125.923 89.6227 125.508 89.9422 124.975 90.1665L127.051 94.0195V94.1021H125.331L123.477 90.541ZM121.687 89.2524H123.337C123.879 89.2524 124.302 89.117 124.607 88.8462C124.912 88.5711 125.064 88.1966 125.064 87.7227C125.064 87.2275 124.922 86.8446 124.639 86.5737C124.359 86.3029 123.94 86.1632 123.382 86.1548H121.687V89.2524ZM133.367 91.9502H129.787L129.038 94.1021H127.368L130.859 84.8599H132.3L135.798 94.1021H134.122L133.367 91.9502ZM130.237 90.6553H132.916L131.577 86.8213L130.237 90.6553ZM144.183 94.1021H142.577L138.458 87.5449V94.1021H136.852V84.8599H138.458L142.59 91.4424V84.8599H144.183V94.1021ZM150.912 91.7217C150.912 91.3154 150.768 91.0023 150.48 90.7822C150.197 90.5622 149.682 90.34 148.938 90.1157C148.193 89.8914 147.6 89.6418 147.16 89.3667C146.318 88.8377 145.897 88.1479 145.897 87.2974C145.897 86.5526 146.2 85.939 146.805 85.4565C147.414 84.9741 148.203 84.7329 149.172 84.7329C149.816 84.7329 150.389 84.8514 150.893 85.0884C151.396 85.3254 151.792 85.6639 152.08 86.104C152.367 86.5399 152.511 87.0244 152.511 87.5576H150.912C150.912 87.0752 150.759 86.6986 150.455 86.4277C150.154 86.1527 149.723 86.0151 149.16 86.0151C148.635 86.0151 148.227 86.1273 147.935 86.3516C147.647 86.5758 147.503 86.889 147.503 87.291C147.503 87.6296 147.66 87.9131 147.973 88.1416C148.286 88.3659 148.802 88.5859 149.522 88.8018C150.241 89.0133 150.819 89.2567 151.254 89.5317C151.69 89.8026 152.01 90.1157 152.213 90.4712C152.416 90.8224 152.518 91.235 152.518 91.709C152.518 92.4792 152.221 93.0928 151.629 93.5498C151.041 94.0026 150.241 94.229 149.23 94.229C148.561 94.229 147.945 94.1063 147.382 93.8608C146.824 93.6112 146.388 93.2684 146.075 92.8325C145.766 92.3966 145.611 91.8888 145.611 91.3091H147.217C147.217 91.8338 147.391 92.2401 147.738 92.5278C148.085 92.8156 148.582 92.9595 149.23 92.9595C149.788 92.9595 150.207 92.8473 150.486 92.623C150.77 92.3945 150.912 92.0941 150.912 91.7217Z" fill="#32A955"/>
<path d="M102.694 23.4009C105.459 25.0826 108.003 26.6241 110.547 28.1937C113.589 30.0435 116.63 31.8653 119.644 33.7993C120.473 34.3318 121.054 34.2477 121.856 33.7713C126.888 30.6601 131.948 27.5771 136.981 24.494C137.478 24.1857 138.004 23.9054 138.75 23.4569C138.75 26.0355 138.557 28.4459 138.806 30.8283C139.055 33.2107 138.17 34.472 136.151 35.6211C131.285 38.3678 126.557 41.3949 121.801 44.3378C121.054 44.8143 120.501 44.8704 119.699 44.3658C114.39 41.0585 109.082 37.8073 103.717 34.5841C102.943 34.1356 102.639 33.6311 102.667 32.7062C102.722 29.7072 102.694 26.6802 102.694 23.4009Z" fill="white"/>
<path d="M138.75 37.2468C138.75 40.6942 138.778 43.9174 138.723 47.1407C138.723 47.505 138.336 47.9815 138.004 48.1777C132.501 51.5691 126.971 54.9605 121.441 58.2958C121.082 58.5201 120.363 58.492 119.976 58.2678C114.418 54.9325 108.916 51.5411 103.413 48.1497C103.109 47.9535 102.75 47.5611 102.722 47.2248C102.667 44.0015 102.694 40.7223 102.694 37.2188C103.856 37.9195 104.823 38.508 105.791 39.0966C110.464 41.9555 115.109 44.7863 119.755 47.6452C120.501 48.0936 120.999 48.0936 121.718 47.6452C126.833 44.478 131.948 41.3669 137.091 38.2278C137.561 37.9475 138.031 37.6672 138.75 37.2468Z" fill="white"/>
<path d="M120.861 11.769C121.358 13.3106 121.884 14.8241 122.326 16.3656C122.547 17.1224 122.879 17.4027 123.681 17.3746C125.257 17.3186 126.861 17.3466 128.547 17.6269C127.303 18.5518 126.086 19.5048 124.815 20.3736C124.096 20.8501 123.847 21.3266 124.179 22.2235C124.732 23.681 125.146 25.2225 125.755 27.1284C124.151 25.9512 122.824 25.0543 121.579 24.0453C120.888 23.4848 120.446 23.5688 119.782 24.0733C118.538 25.0543 117.211 25.9793 115.635 27.1564C116.243 25.2225 116.796 23.6529 117.211 22.0553C117.321 21.6069 117.1 20.8782 116.741 20.5979C115.524 19.5608 114.169 18.6639 112.925 17.4027C114.224 17.4027 115.524 17.2906 116.796 17.4307C118.261 17.5708 119.063 17.1504 119.367 15.5809C119.616 14.3196 120.142 13.1144 120.529 11.8531C120.667 11.7971 120.75 11.769 120.861 11.769Z" fill="white"/>
</svg>
