<svg width="724" height="472" viewBox="0 0 724 472" fill="none" xmlns="http://www.w3.org/2000/svg">
<path d="M723.846 452.243C723.615 451.551 723.23 451.089 722.844 450.704C720.687 448.549 718.067 448.01 715.447 447.625C712.288 447.086 16.9503 444.854 16.9503 444.854V446.701C14.4846 446.932 11.9418 447.24 9.47603 447.625C6.93324 448.01 4.3134 448.549 2.07882 450.704C1.69355 451.089 1.30828 451.551 1.07712 452.243C0.383629 454.553 2.30999 456.708 3.92812 457.016C5.54626 457.401 7.54967 457.555 8.16611 459.864C8.62843 461.403 8.24316 463.559 9.09076 464.636C9.39898 465.098 9.8613 465.252 10.3236 465.329C15.8715 466.791 697.031 466.253 697.031 466.253C697.339 466.253 697.648 466.33 697.879 466.33C703.427 467.099 709.052 466.791 714.599 465.252C715.062 465.175 715.447 465.021 715.832 464.559C716.68 463.482 716.295 461.326 716.757 459.787C717.373 457.401 719.377 457.247 720.995 456.939C722.613 456.708 724.539 454.553 723.846 452.243Z" fill="#E6E6E6"/>
<path d="M383.112 76.6135C385.192 73.7655 388.968 72.303 392.436 73.0728C395.903 73.8425 398.677 76.7675 399.293 80.2313C399.602 81.7708 399.37 83.4642 398.215 84.5418C397.213 85.4655 395.826 85.6964 394.439 85.8504C390.586 86.3122 387.35 86.3892 383.96 84.3879C380.492 82.3865 380.646 80.0004 383.112 76.6135Z" fill="#805533"/>
<path d="M394.208 86.6203L391.357 92.2393C391.357 92.2393 381.032 154.203 381.032 153.048C381.032 151.894 391.357 82.7716 391.357 82.7716L381.417 82.3867C381.417 82.3867 347.359 175.063 359.996 180.836C372.633 186.609 405.227 147.506 405.227 147.506L394.208 86.6203Z" fill="#805533"/>
<path d="M394.208 86.6201L391.357 92.2392C391.357 92.2392 382.419 138.269 379.568 145.582C380.03 147.737 382.341 155.896 382.727 161.438C383.112 167.673 381.186 166.826 379.568 172.907C388.968 169.136 405.227 147.506 405.227 147.506L394.208 86.6201Z" fill="#465F80"/>
<path d="M413.471 216.859C413.471 216.859 405.535 307.226 408.771 346.328C412.007 385.508 416.708 446.394 416.708 446.394C416.708 446.394 393.823 450.627 393.514 454.553L436.434 456.092L431.117 442.314C431.117 442.314 438.591 382.968 438.36 377.887C438.129 372.807 432.041 361.107 432.041 361.107L448.531 249.804C448.762 248.418 449.764 247.264 451.074 246.802C453.308 246.109 455.62 247.725 455.774 250.035L459.01 361.646L481.664 443.931C481.664 443.931 467.101 452.706 465.252 457.401L498.847 458.556L493.454 443.546L495.303 373.115L491.604 365.726L493.454 217.167C493.454 217.167 428.112 209.855 417.555 216.32L413.471 216.859Z" fill="#182E4D"/>
<path d="M493.685 441.16L493.608 443.7L499.002 458.71L465.406 457.555C467.255 452.86 481.819 444.085 481.819 444.085L481.587 443.238C485.671 443.469 489.832 442.853 493.685 441.16Z" fill="#102337"/>
<path d="M420.175 447.24C422.256 447.625 424.336 447.856 426.417 447.394C428.574 446.932 430.423 445.701 431.887 444.084" fill="#102337"/>
<path d="M508.094 79.8465C496.228 70.8406 429.884 73.7656 429.884 73.7656L390.586 87.3129L411.237 223.556C411.545 225.326 413.086 226.712 414.858 226.635L487.058 225.403C490.063 224.941 492.452 222.555 492.837 219.476C495.611 195.768 518.496 87.7747 508.094 79.8465Z" fill="#92A5CC"/>
<path d="M447.221 50.4424L448.454 70.3785C448.454 70.3785 437.127 90.6995 436.588 90.0837C435.432 88.6981 432.427 82.6172 431.733 78.0758L426.802 57.447L447.221 50.4424Z" fill="#53321E"/>
<path d="M436.434 92.5469C434.507 90.5456 434.893 89.6989 432.966 87.6976C432.812 87.5436 432.581 87.3127 432.35 87.2357C431.964 87.0818 431.502 87.2357 431.04 87.4666C429.268 88.3903 427.572 89.6219 426.262 91.0844C427.881 86.543 429.113 82.0015 430.115 77.3062C433.043 82.0785 434.893 86.543 437.05 91.7002" fill="#60789E"/>
<path d="M429.73 69.686L434.276 81.6939L437.05 91.7004L430.886 82.3097L423.411 86.7741L427.572 73.6117L429.73 69.686Z" fill="#465F80"/>
<path d="M447.221 50.4424L448.069 64.5285C447.761 65.1443 447.375 65.7601 446.99 66.3759C444.987 69.5318 442.444 72.6107 438.899 73.7653C436.048 74.612 433.043 74.0732 430.423 72.7647L426.802 57.447L447.221 50.4424Z" fill="#352015"/>
<path d="M413.626 42.2064C413.857 41.5137 414.088 40.8979 414.396 40.2821C423.257 47.8255 436.511 33.2005 443.754 36.9722C446.065 38.3578 447.529 39.5124 447.529 39.5124C452.461 39.1275 454.773 41.8216 454.927 47.2097C455.004 52.5209 447.915 53.1366 447.915 53.1366C449.764 63.4511 442.752 70.6866 430.963 72.1491C419.096 73.6116 413.626 42.2064 413.626 42.2064Z" fill="#805533"/>
<path d="M447.221 46.132C447.221 46.2859 447.221 46.4399 447.067 46.5168C446.99 46.5168 446.913 46.5168 446.836 46.5168C445.757 46.2859 444.678 46.3629 443.677 46.5938C443.754 44.4386 443.523 42.3603 443.06 40.282C433.428 42.0524 423.566 42.1294 413.857 43.4379C413.086 35.5866 412.47 29.4288 411.853 21.6545C412.162 21.2696 413.549 21.1156 414.011 21.3466C414.473 21.5005 414.704 22.0393 414.627 22.5012C414.473 21.5005 415.013 20.4999 416.014 20.115C416.939 19.7301 418.249 20.2689 418.403 21.3466C418.865 20.6538 419.944 19.5762 420.715 19.1913C421.485 18.8064 422.564 19.1913 422.641 20.038C423.103 18.4216 425.184 17.5749 426.648 18.3446C426.725 18.4216 426.879 18.4985 426.879 18.5755C426.879 18.6525 426.725 18.8064 426.648 18.7295C427.341 18.1137 428.497 17.036 429.422 16.8821C430.346 16.7282 431.348 17.19 431.579 18.0367C432.196 17.3439 432.966 16.6512 433.891 16.5742C434.815 16.4972 435.894 17.3439 435.586 18.2676C436.048 17.6518 437.435 17.113 438.206 17.267C438.976 17.4209 439.593 18.0367 439.747 18.8064C440.055 17.9597 441.057 17.4209 441.981 17.4979C442.906 17.5749 443.677 18.3446 443.831 19.2683C444.293 18.4985 445.68 17.9597 446.528 18.0367C447.375 18.1906 448.146 19.0374 447.915 19.8841C448.377 19.1913 449.302 18.8834 449.995 19.1913C450.766 19.4222 451.305 20.2689 451.228 21.0387C452.153 20.4229 453.463 20.6538 454.079 21.5005C454.772 22.3472 454.695 23.6558 453.925 24.4255C454.85 24.9643 455.312 26.5807 454.695 27.4275C455.235 27.2735 455.774 27.8893 455.851 28.5051C455.851 29.1209 455.543 29.6597 455.235 30.1215C454.85 30.7373 454.464 31.3531 454.156 31.9689C452.384 34.9708 451.844 36.5873 450.457 39.6662C449.379 39.4353 446.99 43.3609 447.221 46.132Z" fill="#111D29"/>
<path d="M450.92 44.0539C451.151 44.1309 451.382 44.2848 451.613 44.5158C451.998 44.9776 452.153 45.6704 452.076 46.3631C451.999 46.9789 451.69 47.5947 451.382 48.1335C451.228 48.4414 450.997 48.7493 450.689 49.0572C450.303 49.3651 449.918 49.596 449.456 49.75C449.379 49.8269 449.302 49.8269 449.147 49.8269C448.993 49.8269 448.916 49.75 448.762 49.673C447.144 48.2875 448.531 43.5151 450.92 44.0539Z" fill="#53321E"/>
<path d="M443.6 47.3637C444.601 46.9789 445.911 47.2868 446.913 47.5177C447.221 47.5947 447.144 48.1335 446.836 48.1335C445.834 48.1335 444.678 48.4414 443.677 48.2104C443.291 48.2104 443.214 47.5177 443.6 47.3637Z" fill="#111D29"/>
<path d="M443.908 48.8261C444.833 48.5952 445.757 48.9031 446.682 48.98C447.067 48.98 447.067 49.5958 446.682 49.5958C445.757 49.5189 444.91 49.9037 443.985 49.8267C443.446 49.8267 443.368 48.98 443.908 48.8261Z" fill="#111D29"/>
<path d="M443.754 50.1345C444.447 49.8266 445.295 49.9036 446.065 50.0576C446.605 50.1345 446.605 50.9043 446.065 50.9043C445.372 50.9043 444.678 51.1352 443.908 51.1352C443.677 51.1352 443.445 50.9043 443.368 50.6733C443.368 50.4424 443.523 50.2885 443.754 50.1345Z" fill="#111D29"/>
<path d="M437.127 82.3865C436.588 87.7746 436.048 91.0845 435.74 95.395C435.355 99.9364 435.047 104.478 434.738 109.019C434.122 117.948 433.583 126.877 433.197 135.729C432.427 153.972 432.504 172.214 434.045 190.38C434.507 195.383 435.047 200.31 435.663 205.236C436.357 210.239 437.666 222.17 439.053 227.019C439.285 227.943 440.749 227.635 440.595 226.712C440.132 222.17 438.283 210.932 437.666 206.468C437.05 202.08 436.511 197.77 436.125 193.382C435.278 184.453 434.815 175.524 434.584 166.595C434.199 148.584 434.893 130.649 435.971 112.714C436.279 107.557 436.588 102.4 436.896 97.2424C437.204 92.3161 437.744 87.3128 437.435 82.4635C437.435 82.2326 437.204 82.1556 437.127 82.3865Z" fill="#465F80"/>
<path d="M443.908 82.5402C443.677 82.9251 435.894 93.2395 435.894 93.2395L437.127 82.3093L441.75 80.4619L443.908 82.5402Z" fill="#182E4D"/>
<path d="M448.454 67.2998L437.127 82.3866L449.379 90.5458L452.769 72.9958L448.454 67.2998Z" fill="#465F80"/>
<path d="M508.402 80.5391C508.402 80.5391 551.553 179.142 513.334 172.599L496.613 132.419C496.536 132.419 502.084 97.0883 508.402 80.5391Z" fill="#465F80"/>
<path d="M522.118 171.753C522.118 171.753 517.495 136.73 467.949 78.8457L460.243 81.6937C460.243 81.6937 492.914 179.142 503.933 183.606C514.875 188.071 521.578 180.758 522.118 171.753Z" fill="#805533"/>
<path d="M460.166 81.7706C458.933 82.2324 457.932 80.8469 457.238 79.6153C456.545 78.4607 456.391 77.0752 455.774 75.8436C455.312 74.766 454.618 73.8423 453.694 73.1495C452.615 72.3028 451.074 71.764 449.995 72.5338C449.456 72.3798 448.993 71.687 449.225 71.1482C449.533 70.6094 450.072 70.3785 450.689 70.2246C451.228 70.0706 451.844 69.9936 452.384 69.7627C452.461 68.916 453.385 68.2232 454.156 67.9154C454.927 67.6844 455.774 67.7614 456.622 67.8384C457.701 66.4529 459.704 65.914 461.322 66.5298C462.632 66.2219 463.865 66.2219 464.635 67.2226C465.483 68.2232 465.868 69.5318 466.177 70.8403C466.87 74.1502 467.024 77.691 468.334 80.7699C468.565 81.3087 468.873 81.9245 468.642 82.4633C468.488 82.8482 468.103 83.1561 467.795 83.464C466.947 84.1567 466.022 84.7725 464.944 85.0804C463.865 85.3883 462.632 85.2344 461.939 84.4646C461.168 83.6179 461.245 82.4633 460.166 81.7706Z" fill="#805533"/>
<path d="M389.199 74.766C389.122 73.1496 386.502 73.1496 386.657 74.766C386.811 76.6904 386.502 78.4608 385.886 80.2312C385.347 81.7706 387.812 82.4634 388.352 80.9239C389.045 78.9226 389.276 76.8443 389.199 74.766Z" fill="#805533"/>
<path d="M390.895 75.9205C390.972 77.6908 390.663 79.3843 390.047 81.0777C389.508 82.6171 391.973 83.3099 392.513 81.7704C393.129 79.8461 393.437 77.9218 393.437 75.9205C393.36 74.227 390.817 74.227 390.895 75.9205Z" fill="#805533"/>
<path d="M591.852 88.3906C591.852 88.3906 512.101 171.214 511.87 176.217C511.638 181.22 601.176 229.175 601.176 229.175L603.41 218.553C603.41 218.553 560.722 179.065 552.169 173.061C552.169 173.061 603.564 141.579 605.336 135.344C607.032 129.11 605.182 94.5485 591.852 88.3906Z" fill="#202131"/>
<path d="M603.333 219.245L601.098 229.868C601.098 229.868 585.996 221.785 568.273 211.933C570.2 206.16 573.821 196.692 575.054 192.92C589.617 204.543 603.333 219.245 603.333 219.245Z" fill="#A5724C"/>
<path d="M587.383 206.314C587.383 206.314 571.664 284.98 595.319 418.529V445.624C595.319 445.624 580.987 447.24 577.366 457.17H614.275L614.968 417.375C614.968 417.375 618.59 382.967 612.502 373.192L613.427 333.32L619.669 261.734H625.987C625.987 261.734 642.708 361.415 648.718 379.581L658.042 446.855C658.042 446.855 649.257 451.551 648.718 458.863C648.718 458.863 680.002 459.556 673.452 456.323C673.452 456.323 676.612 373.423 675.148 369.42C673.684 365.418 668.983 358.49 668.983 358.49L661.355 199.309C661.355 199.309 605.105 201.156 590.619 206.391" fill="#92A5CC"/>
<path d="M596.938 359.337C593.47 359.26 590.003 358.644 586.689 357.797C588.693 376.502 591.467 396.823 595.396 418.529V445.624C595.396 445.624 581.064 447.24 577.443 457.17H614.352L615.045 417.375C615.045 417.375 618.667 382.968 612.58 373.192L612.965 356.027C608.033 358.49 602.408 359.491 596.938 359.337Z" fill="#D3966C"/>
<path d="M598.71 447.933C597.169 447.471 595.628 446.778 594.472 445.778C591.313 446.317 580.448 448.78 577.366 457.17H614.275L614.429 446.471C609.651 448.857 603.949 449.396 598.71 447.933Z" fill="#23406E"/>
<path d="M675.071 369.343C673.606 365.341 668.906 358.413 668.906 358.413L668.598 352.101C661.124 354.872 653.418 356.873 645.482 356.335C644.711 356.258 643.863 356.181 643.093 356.104C645.25 366.803 647.254 375.347 648.641 379.504L657.964 446.778C657.964 446.778 649.18 451.474 648.641 458.786C648.641 458.786 672.528 460.71 674.146 457.324C674.146 457.401 676.535 373.346 675.071 369.343Z" fill="#D3966C"/>
<path d="M661.817 447.933C660.661 447.779 659.428 447.548 658.35 447.009C658.196 446.933 658.119 446.856 657.964 446.779C657.656 446.933 649.18 451.628 648.641 458.786C648.641 458.786 672.528 460.711 674.146 457.324C674.146 457.324 674.3 453.013 674.454 446.24C674.3 446.317 674.146 446.394 673.992 446.471C670.293 448.087 665.901 448.472 661.817 447.933Z" fill="#23406E"/>
<path d="M591.852 88.3902L661.278 82.0015C661.278 82.0015 666.209 142.887 667.442 179.219C667.982 194.613 661.74 216.397 662.357 222.17H584.532C584.532 222.17 569.352 147.352 577.443 109.019C579.369 99.6284 588.693 90.6995 591.852 88.3902Z" fill="#202131"/>
<path d="M661.355 82.0015C661.355 82.0015 702.81 176.525 684.317 187.917C665.824 199.232 645.79 111.174 645.79 111.174L661.355 82.0015Z" fill="#202131"/>
<path d="M610.268 82.4636C610.268 82.4636 597.554 80.6162 600.328 88.0056C603.102 95.3951 610.191 106.017 610.191 106.017L610.268 82.4636Z" fill="#1A1A1A"/>
<path d="M596.398 53.9062C596.398 53.9062 590.85 86.466 610.268 82.4634L610.191 106.017C610.191 106.017 626.757 88.6982 629.994 82.0785V69.9937C629.994 69.9937 638.393 72.2259 638.778 64.5286C639.163 56.8312 635.079 52.0589 631.073 55.7536L596.398 53.9062Z" fill="#D3966C"/>
<path d="M589.54 51.0583C593.008 55.3688 598.941 56.6774 604.489 57.0622C612.117 57.601 619.823 57.0622 627.297 55.2918C626.372 58.5247 625.448 61.3727 623.907 64.3747C625.987 65.6832 627.836 66.6839 629.609 68.3773C628.838 64.5286 630.996 60.757 631.766 56.9083C631.92 55.9076 633.307 55.2918 634.309 55.4458C635.311 55.5997 636.158 56.3695 636.389 57.3701C637.93 55.9076 639.317 53.9063 639.394 51.828C639.472 49.6728 638.855 47.5945 637.853 45.7471C637.237 44.6695 636.543 43.5919 635.542 42.9761C634.54 42.2833 633.153 41.9755 631.997 42.4373C629.454 37.1261 623.675 33.2005 617.819 33.1235C611.963 33.0465 606.646 36.0485 601.33 38.4347C596.013 40.8209 589.694 42.5143 584.532 39.8202C584.763 42.6682 586.766 45.9011 589.463 46.6708C586.15 46.4399 582.451 49.2879 581.989 52.5978C581.989 52.8287 582.297 53.2136 582.374 52.9057C584.609 51.1353 586.612 50.9044 589.54 51.0583Z" fill="#42210B"/>
<path d="M632.228 61.2189C632.691 60.4492 633.307 59.6795 634.155 59.5255C634.386 59.4485 634.617 59.4485 634.771 59.5255C635.079 59.6795 635.156 59.9873 635.233 60.2952C635.619 61.6038 636.004 62.9893 635.619 64.2979C635.233 65.4525 632.999 67.6077 631.689 66.5301C630.533 65.6064 631.689 62.2196 632.228 61.2189Z" fill="#8A3B33"/>
<path d="M610.191 106.018C610.191 106.018 627.374 75.1512 635.773 75.0743C644.249 74.9973 645.636 83.4643 645.636 83.4643L610.191 106.018Z" fill="#1A1A1A"/>
<path d="M640.858 75.6899C640.858 75.6899 688.555 180.451 684.24 187.917C680.002 195.384 662.125 210.085 652.108 186.378C642.091 162.67 633.538 80.9241 633.538 80.9241L640.858 75.6899Z" fill="#1A1A1A"/>
<path d="M623.059 88.6982L617.126 83.31C615.662 82.0015 615.585 79.7693 616.895 78.3068L634.386 58.6786C635.696 57.2161 638.007 57.0621 639.471 58.4476L645.405 63.8358C646.869 65.1443 646.946 67.3766 645.636 68.8391L628.144 88.4673C626.758 89.9298 624.523 90.0067 623.059 88.6982Z" fill="#202131"/>
<path d="M652.339 101.476C645.79 86.466 640.858 75.6128 640.858 75.6128L633.538 80.847C633.538 80.847 634.617 91.3154 636.466 105.863C642.014 106.017 647.562 104.401 652.339 101.476Z" fill="#D3966C"/>
<path d="M635.079 83.9256C632.537 81.8474 632.922 77.152 629.994 75.6895C629.223 75.3046 628.299 75.2277 627.451 74.9198C625.371 74.0731 624.369 71.6099 624.677 69.3777C624.985 67.2224 626.372 65.2981 628.067 63.8356C629.454 62.604 631.073 61.5264 632.922 61.4494C634.771 61.3725 636.775 62.5271 637.083 64.3744C637.237 65.452 640.627 73.8421 641.398 75.9974C641.706 76.998 642.091 77.9987 641.706 78.9993C641.475 79.5382 641.09 79.923 640.704 80.3079C638.701 82.0783 635.079 84.0026 633.615 82.3862" fill="#D3966C"/>
<path d="M615.276 101.63C614.506 101.63 613.889 102.246 613.889 103.015V163.439C613.889 164.209 614.506 164.825 615.276 164.825C616.047 164.825 616.663 164.209 616.663 163.439V103.015C616.663 102.323 616.047 101.63 615.276 101.63Z" fill="white"/>
<path d="M608.033 100.398C607.263 100.398 606.646 101.014 606.646 101.783V162.208C606.646 162.977 607.263 163.593 608.033 163.593C608.804 163.593 609.42 162.977 609.42 162.208V101.783C609.42 101.014 608.804 100.398 608.033 100.398Z" fill="white"/>
<path d="M147.557 86.3123C145.477 81.463 141.239 77.9992 136.847 75.1512C125.134 67.5308 111.496 63.2973 97.7031 61.0651C92.4634 60.2184 86.8384 59.7565 82.1381 62.2197C77.9001 64.4519 75.2032 68.7624 73.2769 73.0729C69.5783 81.1551 67.729 90.5459 70.8111 98.859C73.1998 105.171 78.3624 110.251 84.2956 113.484C90.3059 116.64 97.0866 118.102 103.79 118.641C111.496 119.257 129.912 121.797 137.078 118.872C144.398 115.793 143.319 114.562 148.636 109.327C153.259 104.786 150.485 93.24 147.557 86.3123Z" fill="#21266D"/>
<path d="M188.781 66.5298C188.781 66.5298 196.255 77.383 194.098 78.1528C191.94 78.9225 189.166 78.8455 189.166 78.8455L188.781 66.5298Z" fill="#C9766C"/>
<path d="M159.886 54.5986H186.47C186.47 54.5986 203.576 101.629 167.206 92.0077L163.353 102.784C163.353 102.784 151.179 102.707 147.48 95.2406L152.257 82.309C152.257 82.309 140.622 82.6939 140.16 74.0729C139.775 65.4519 144.244 60.0637 148.79 64.2203L157.805 58.8322L159.886 54.5986Z" fill="#C9766C"/>
<path d="M155.34 73.7651C154.03 75.3046 152.951 76.998 152.026 78.8454C151.333 72.9184 149.021 67.2224 146.787 61.6803C148.328 60.9875 150.023 60.5257 151.718 60.4487C153.876 60.3718 153.336 61.6033 153.49 63.4507C153.644 65.2211 153.876 66.9915 154.184 68.7618C154.261 69.3776 155.648 73.3802 155.34 73.7651Z" fill="#A67C52"/>
<path d="M147.634 70.3014C147.172 69.4547 146.401 68.608 145.477 68.3771C145.246 68.3001 145.014 68.3001 144.783 68.3771C144.475 68.531 144.321 68.9159 144.244 69.2238C143.782 70.6863 143.319 72.3027 143.782 73.7652C144.167 74.9968 146.71 77.4599 148.174 76.3053C149.638 75.2277 148.328 71.456 147.634 70.3014Z" fill="#8A3B33"/>
<path d="M152.721 66.2218C153.492 67.6073 155.033 64.0665 156.266 62.9889C156.42 62.835 156.651 62.681 156.728 62.4501C156.805 62.2192 156.728 61.9883 156.728 61.7573C156.574 61.1416 156.42 60.4488 156.343 59.833C156.343 59.833 164.665 62.835 169.519 62.835C169.519 62.835 194.947 64.2975 200.803 47.2863C200.803 47.2863 191.788 44.2074 187.242 38.1265C182.695 32.0456 156.651 33.816 152.798 42.591C152.798 42.591 138.466 44.5923 140.315 52.4436C142.165 60.2948 143.706 63.4508 143.706 63.4508C143.706 63.4508 151.334 63.6817 152.721 66.2218Z" fill="#A67C52"/>
<path d="M316.999 65.2215C316.075 59.1406 311.914 53.8294 306.828 50.3656C299.97 45.7472 291.263 43.9768 283.096 45.6703C275.005 47.3637 267.608 52.3669 263.139 59.3715C254.046 73.5346 257.668 92.624 250.733 107.942C240.408 130.803 210.279 138.731 198.028 160.668C194.483 167.057 192.634 174.447 193.25 181.759C193.713 187.686 195.716 193.459 198.413 198.77C205.733 213.087 219.141 224.556 234.86 227.789C250.579 231.022 268.378 224.864 277.317 211.548C286.101 198.539 285.561 181.605 285.33 165.826C285.099 152.74 285.33 139.732 285.87 126.646C286.332 117.332 286.948 107.788 290.262 99.0898C292.881 92.1622 298.198 83.5411 305.518 80.6931C308.678 79.4616 310.912 80.1543 313.532 77.5372C316.614 74.6122 317.616 69.2241 316.999 65.2215Z" fill="#202131"/>
<path d="M324.165 227.789L333.412 97.396C333.412 97.396 309.448 111.405 294.962 109.327L254.74 121.72L268.609 230.252C268.609 230.252 237.017 254.73 240.099 285.211C243.181 315.615 237.788 360.491 234.86 370.036C231.855 379.58 219.295 400.671 222.069 441.082L217.677 455.63H264.294C264.294 455.63 263.524 445.777 245.493 443.237C241.794 442.699 239.329 442.391 237.634 442.237C240.408 433.693 260.75 372.191 267.299 359.49C273.31 347.867 292.034 297.219 297.428 282.286C298.275 279.977 300.741 278.745 303.13 279.438C305.133 280.054 306.52 281.901 306.443 284.056C305.904 298.219 304.208 350.177 306.597 363.801C306.597 363.801 287.95 384.815 293.729 443.237L291.34 454.091H336.34C336.34 454.091 329.559 441.621 317.539 440.312H308.986C308.986 440.312 340.578 352.332 342.967 330.548C345.355 308.611 348.36 254.883 324.165 227.789Z" fill="#FFA9CC"/>
<path d="M359.688 7.10647C359.302 9.49264 358.146 11.4939 356.759 13.4183C356.374 13.1104 355.989 12.8025 355.604 12.5716C356.528 9.18475 356.528 5.567 355.527 2.02622C354.91 -0.0520571 351.674 1.02557 352.29 3.10385C353.061 5.87489 353.061 8.64593 352.367 11.263C351.751 11.1091 351.134 11.0321 350.518 11.0321C350.287 7.33739 349.054 3.79661 346.819 0.717676C345.587 -1.05271 342.736 0.79465 343.968 2.56504C345.818 5.10516 346.819 8.03015 347.051 11.0321C346.742 11.0321 346.434 11.1091 346.203 11.1861C346.126 10.9551 345.972 10.7242 345.895 10.5703C344.893 8.26107 343.583 6.18279 341.965 4.18148C341.657 3.79661 341.272 3.64266 340.886 3.56569C339.499 3.18082 337.727 4.72029 338.883 6.10581C340.578 8.10712 341.965 10.2624 343.044 12.5716C343.121 12.7255 343.198 12.9564 343.275 13.1104C342.196 16.6512 343.891 25.5801 343.891 25.5801C343.891 25.5801 343.891 25.5801 339.73 20.115C335.57 14.6499 334.799 18.4985 334.799 18.4985C334.953 23.5018 346.357 36.1254 346.357 36.1254L353.138 36.3563C353.138 36.3563 360.92 22.809 358.609 16.4202C360.612 13.8801 362.307 11.1091 362.924 7.79923C363.386 5.64397 360.073 4.95121 359.688 7.10647Z" fill="#FFD9B6"/>
<path d="M327.556 149.969C327.556 149.969 356.759 106.171 360.535 95.3181C364.311 84.4648 355.912 29.5059 355.912 29.5059L344.508 32.6618V84.8497L309.063 110.482C309.063 110.559 321.083 142.426 327.556 149.969Z" fill="#FFA9CC"/>
<path d="M329.482 234.794C318.926 239.951 307.753 243.8 296.118 245.031C283.635 246.417 270.536 244.57 259.44 238.874C250.348 248.649 238.173 265.66 240.099 285.135C243.181 315.539 237.788 360.414 234.86 369.959C231.855 379.504 219.295 400.595 222.069 441.006L217.677 455.554H264.294C264.294 455.554 263.524 445.701 245.493 443.161C241.794 442.622 239.329 442.314 237.634 442.16C240.408 433.616 260.75 372.114 267.299 359.414C273.31 347.791 292.034 297.142 297.428 282.21C298.275 279.9 300.741 278.669 303.13 279.362C305.133 279.977 306.52 281.825 306.443 283.98C305.904 298.143 304.208 350.1 306.597 363.724C306.597 363.724 287.95 384.738 293.729 443.161L291.34 454.014H336.34C336.34 454.014 329.559 441.544 317.539 440.236H308.986C308.986 440.236 340.578 352.255 342.967 330.472C345.124 310.382 347.821 263.351 329.482 234.794Z" fill="#182E4D"/>
<path d="M221.606 442.468L217.677 455.553H264.294C264.294 455.553 263.524 445.701 245.493 443.161C243.644 442.93 242.103 442.699 240.793 442.545C239.252 443.007 237.788 443.468 236.17 443.776C231.315 444.7 226.152 444.238 221.606 442.468Z" fill="#102337"/>
<path d="M293.652 443.392L291.263 453.937H336.263C336.263 453.937 329.482 441.467 317.462 440.159H310.296C307.214 441.313 304.054 442.314 300.895 442.93C298.584 443.469 296.118 443.623 293.652 443.392Z" fill="#102337"/>
<path d="M296.965 109.481L289.876 121.335C289.876 121.335 304.131 128.262 306.366 125.799C308.523 123.259 296.965 109.481 296.965 109.481Z" fill="#E897BB"/>
<path d="M278.01 94.3174L281.015 113.792C281.015 113.792 292.804 123.875 295.655 121.258C298.429 118.641 295.655 96.0108 295.655 96.0108L278.01 94.3174Z" fill="#FFD9B6"/>
<path d="M311.76 69.9167C311.76 69.9167 312.607 68.1463 312.145 66.145L299.431 70.8404C298.352 72.4568 297.428 74.2272 296.426 75.8437C294.191 79.3844 291.186 82.6173 287.411 84.6186C283.635 86.543 279.089 87.1587 275.159 85.6193C275.775 85.1574 276.623 84.2338 277.317 83.464C276.777 83.2331 275.698 82.8482 273.464 81.9246C269.149 80.2311 267.993 89.0831 269.149 92.085C270.305 95.087 276.238 96.1646 276.238 96.1646C278.781 102.323 289.491 105.324 304.594 101.938C319.542 98.4738 311.76 69.9167 311.76 69.9167Z" fill="#FFD9B6"/>
<path d="M271.614 86.774C271.152 87.0049 270.921 87.4667 270.844 88.0056C270.767 88.4674 270.921 89.0062 271.152 89.4681C271.383 90.0069 271.692 90.4687 272 90.9306C272.308 91.2384 272.616 91.6233 273.001 91.7773C273.387 91.9312 273.926 91.9312 274.234 91.6233C274.465 91.3924 274.543 91.0845 274.62 90.7766C274.851 89.0832 274.234 85.5424 271.614 86.774Z" fill="#C08840"/>
<path d="M279.166 109.481L295.655 121.335C295.655 121.335 282.017 134.189 276.854 131.726C271.769 129.186 279.166 109.481 279.166 109.481Z" fill="#E897BB"/>
<path d="M288.566 173.138C291.34 171.983 294.423 168.289 296.58 166.21C298.275 164.671 299.662 162.901 301.357 161.361C303.053 159.822 304.979 158.436 307.136 157.974C311.683 156.974 313.609 152.047 317.847 150.123C318.155 149.969 318.541 149.892 318.849 149.892C319.157 149.969 319.388 150.123 319.619 150.354C321.237 151.893 321.16 154.664 320.005 156.589C318.849 158.513 316.922 159.822 315.073 161.053C313.84 161.9 312.607 162.67 311.452 163.516C312.376 164.44 313.07 166.749 312.916 168.058C312.838 169.366 312.068 170.598 310.989 171.291C312.145 172.599 312.068 175.447 310.912 176.756C309.833 178.141 308.061 178.757 306.289 179.065C304.594 179.373 302.821 179.296 301.049 179.45C298.198 179.758 295.039 182.298 292.727 183.914C292.111 184.299 291.957 183.222 291.263 183.298C289.722 183.375 288.798 181.605 288.489 180.066C287.796 177.141 287.719 176.14 288.566 173.138Z" fill="#FFD9B6"/>
<path d="M254.74 121.72C254.74 121.72 236.632 129.186 234.783 137.345C233.01 145.505 228.926 177.833 226.075 184.53C223.224 191.227 215.365 208.238 221.452 212.702C227.539 217.244 265.99 206.852 292.573 183.991L289.722 171.598L244.954 188.764L252.813 169.674L261.752 151.201L254.74 121.72Z" fill="#E897BB"/>
<path d="M73.508 80.3853C73.508 80.3853 33.671 158.359 29.6642 198.385C28.6624 208.315 34.3645 217.629 43.611 221.477L44.7668 221.939C49.9294 224.095 55.7085 224.171 61.0252 222.324L63.8762 221.323L123.67 98.7819L73.508 80.3853Z" fill="#2E3192"/>
<path d="M203.19 202.081C202.343 200.85 200.956 200.157 199.492 199.618C196.487 198.54 193.096 198.155 190.322 196.539C189.321 195.923 188.319 195.23 187.24 195L140.776 165.211C140.776 165.211 186.932 136.808 170.211 102.939L160.194 103.632C157.882 103.786 155.802 105.018 154.415 106.865C144.783 120.797 105.254 178.219 109.569 180.529C114.347 183.069 167.977 202.004 184.081 203.775C185.314 206.161 187.009 208.47 187.934 210.625C188.319 211.626 188.704 212.549 189.321 213.396C190.014 214.166 191.016 214.782 192.017 214.628C193.25 214.397 194.098 213.165 195.331 212.703C196.41 212.319 197.642 212.626 198.644 212.165C200.493 211.395 200.725 208.932 202.112 207.546C202.574 207.084 203.113 206.7 203.421 206.238C204.269 205.006 204.038 203.236 203.19 202.081Z" fill="#C9766C"/>
<path d="M153.336 155.434C165.588 144.273 180.922 124.722 170.211 102.861L160.194 103.554C157.882 103.708 155.802 104.94 154.415 106.787C149.869 113.33 138.773 129.417 128.756 144.966C133.071 148.584 141.855 154.51 153.336 155.434Z" fill="#182E4D"/>
<path d="M113.422 88.4675C102.557 107.249 65.1091 173.446 55.4003 208.623C55.4003 208.623 104.021 232.485 131.761 224.172C131.761 224.172 166.975 145.736 182.925 121.104C185.622 116.948 184.158 111.329 179.843 108.942C166.435 101.553 140.853 88.3136 122.746 84.3879C119.047 83.5412 115.271 85.2347 113.422 88.4675Z" fill="#182E4D"/>
<path d="M122.669 84.3106C122.669 84.3106 122.9 135.575 66.1108 159.514V176.371C66.1108 176.371 147.788 153.741 140.006 89.8527C140.083 89.8527 139.081 77.383 122.669 84.3106Z" fill="#5B748C"/>
<path d="M115.271 451.705C114.578 446.778 93.388 437.849 86.5302 435.078C85.1432 434.539 83.6792 434.309 82.2151 434.386L75.5885 434.847C72.1981 435.078 69.3471 437.311 68.2683 440.543C66.9584 444.469 65.6485 449.472 66.1878 451.166C67.1125 454.091 116.042 457.554 115.271 451.705Z" fill="#23406E"/>
<path d="M75.5114 418.76L72.4293 436.772C72.4293 436.772 84.4497 443.007 89.9206 438.85L92.0011 421.608L75.5114 418.76Z" fill="#C9766C"/>
<path d="M76.5131 261.273L83.9104 348.561L69.193 420.992C69.193 420.992 82.6775 431.384 100.554 425.149L114.732 359.26L109.261 248.033C109.184 248.033 85.2973 245.878 76.5131 261.273Z" fill="#7DAACC"/>
<path d="M170.057 458.094C169.286 452.628 145.554 442.776 137.925 439.697C136.384 439.081 134.766 438.85 133.071 439.004L125.597 439.62C121.821 439.928 118.508 442.468 117.352 446.086C115.888 450.55 114.347 456.092 114.963 457.94C116.042 461.096 170.982 464.559 170.057 458.094Z" fill="#23406E"/>
<path d="M120.203 424.071L119.278 442.314C119.278 442.314 131.992 447.086 136.847 442.314V424.918L120.203 424.071Z" fill="#C9766C"/>
<path d="M55.3232 208.546C55.3232 208.546 50.6229 228.559 52.7034 236.872C54.7838 245.185 117.583 358.413 117.583 358.413L115.117 430.306C115.117 430.306 134.612 437.08 146.17 430.306L148.79 352.486L119.741 253.575L131.607 224.095C131.684 224.095 82.2922 218.783 55.3232 208.546Z" fill="#9FC5E6"/>
<path d="M165.357 101.245C165.357 101.245 166.744 151.663 147.403 188.148C147.403 188.148 157.343 179.527 165.357 171.214C173.37 162.901 187.086 122.875 180.459 110.713C174.218 99.2438 169.98 96.011 165.357 101.245Z" fill="#5B748C"/>
<path d="M310.45 326.931H305.75V461.711H310.45V326.931Z" fill="#B3B3B3"/>
<path d="M375.535 396.7V392.004H240.613V396.7H375.535Z" fill="#B3B3B3"/>
<path d="M307.599 461.711C269.226 461.711 237.942 430.537 237.942 392.127C237.942 353.795 269.149 322.543 307.599 322.543C345.972 322.543 377.256 353.718 377.256 392.127C377.256 430.537 345.972 461.711 307.599 461.711ZM307.599 331.241C274.003 331.241 246.649 358.567 246.649 392.127C246.649 425.688 274.003 453.013 307.599 453.013C341.195 453.013 368.549 425.688 368.549 392.127C368.549 358.567 341.195 331.241 307.599 331.241Z" fill="#B3B3B3"/>
<path d="M307.599 444.469C278.781 444.469 255.279 420.992 255.279 392.204C255.279 363.416 278.781 339.939 307.599 339.939C336.417 339.939 359.919 363.416 359.919 392.204C359.919 420.992 336.494 444.469 307.599 444.469ZM307.599 348.56C283.558 348.56 263.986 368.112 263.986 392.127C263.986 416.143 283.558 435.694 307.599 435.694C331.64 435.694 351.212 416.143 351.212 392.127C351.212 368.112 331.64 348.56 307.599 348.56Z" fill="#B3B3B3"/>
<path d="M315.304 365.956L352.444 435.54H404.071V431.615H355.681L319.311 364.186L315.304 365.956Z" fill="#808080"/>
<path d="M338.96 365.956L376.177 435.54H427.726V431.615H379.336L342.967 364.186L338.96 365.956Z" fill="#808080"/>
<path d="M353.677 358.413H255.972C251.657 358.413 248.113 362.108 248.421 366.495C248.652 370.498 252.197 373.577 256.204 373.577H353.6C357.761 373.577 361.152 370.19 361.152 366.033C361.229 361.8 357.838 358.413 353.677 358.413Z" fill="#5B748C"/>
<path d="M202.651 358.413C198.49 358.413 195.1 361.8 195.1 365.956C195.1 370.113 198.49 373.5 202.651 373.5H307.907V358.336H202.651V358.413Z" fill="#21325D"/>
<path d="M373.865 227.019C371.785 228.251 369.473 228.713 367.162 228.944C367.162 228.482 367.162 227.943 367.085 227.481C370.244 225.942 373.018 223.556 374.944 220.554C376.177 218.706 373.172 217.013 372.016 218.86C370.475 221.246 368.318 223.094 365.929 224.325C365.621 223.787 365.312 223.248 364.927 222.786C367.547 220.169 369.396 216.936 370.244 213.241C370.783 211.086 367.47 210.239 366.931 212.318C366.16 215.397 364.696 218.091 362.616 220.246C362.384 220.015 362.153 219.861 361.922 219.63C361.999 219.399 362.076 219.168 362.23 218.937C363.309 216.705 364.08 214.319 364.465 211.779C364.542 211.317 364.465 210.855 364.234 210.547C363.617 209.162 361.383 208.854 361.074 210.701C360.612 213.318 359.919 215.781 358.917 218.091C358.84 218.245 358.763 218.475 358.686 218.629C355.295 220.092 349.747 227.25 349.747 227.25C349.747 227.25 349.747 227.25 351.212 220.554C352.676 213.857 349.208 215.781 349.208 215.781C345.509 219.168 343.891 230.329 343.891 230.329L347.744 241.337C347.744 241.337 363.078 238.335 366.391 232.331C369.628 232.177 372.864 231.638 375.715 229.944C377.41 228.867 375.715 225.865 373.865 227.019Z" fill="#ECAF96"/>
<path d="M268.532 355.719L217.985 204.235H173.524C171.213 204.235 169.364 206.083 169.364 208.392C169.364 210.701 171.213 212.548 173.524 212.548H209.663L260.056 358.644C260.673 360.414 262.368 361.646 264.294 361.646C267.377 361.646 269.534 358.644 268.532 355.719Z" fill="#5B748C"/>
<path d="M300.972 359.953H199.723C193.096 359.953 187.24 355.642 185.237 349.407L147.942 231.407C145.477 223.633 151.256 215.782 159.424 215.782H255.356L300.972 359.953Z" fill="#5B748C"/>
<path d="M154.646 216.859C149.252 219.246 146.093 225.403 148.02 231.484L185.314 349.484C187.317 355.796 193.173 360.03 199.8 360.03H208.276L166.975 229.483C165.126 223.402 160.425 218.784 154.646 216.859Z" fill="#23406E"/>
<path d="M202.574 360.106L152.026 208.546H107.566C105.254 208.546 103.405 210.393 103.405 212.702C103.405 215.012 105.254 216.859 107.566 216.859H143.704L194.098 362.954C194.714 364.725 196.41 365.956 198.336 365.956C201.341 365.956 203.499 362.954 202.574 360.106Z" fill="#5B748C"/>
<path d="M363.309 329.933H252.505C248.883 329.933 245.878 327.008 245.878 323.313V321.004C245.878 317.386 248.806 314.384 252.505 314.384H363.309C366.931 314.384 369.936 317.309 369.936 321.004V323.313C369.936 326.931 366.931 329.933 363.309 329.933Z" fill="#455A74"/>
<path d="M362.153 314.384H348.746C353.061 314.384 356.528 317.848 356.528 322.159C356.528 326.469 353.061 329.933 348.746 329.933H362.153C366.468 329.933 369.936 326.469 369.936 322.159C369.936 317.848 366.468 314.384 362.153 314.384Z" fill="#5B748C"/>
<path d="M421.639 417.529C421.639 417.529 446.605 396.053 452.384 399.286C458.163 402.519 422.179 444.162 418.942 443.084C415.706 442.006 407.461 428.69 407.461 428.69L421.639 417.529Z" fill="#202131"/>
<path d="M433.66 407.522L352.136 330.472C349.516 327.393 345.664 325.469 341.58 325.161C323.626 323.698 273.926 319.773 273.31 320.927C266.76 333.012 267.762 342.865 267.762 342.865L333.874 347.868L415.012 419.607C435.201 420.531 433.66 407.522 433.66 407.522Z" fill="#21325D"/>
<path d="M270.921 210.394L299.508 245.724C304.363 251.728 313.301 252.575 319.157 247.495L343.814 226.404L352.444 243.954L314.148 281.748C308.523 287.29 299.431 286.982 294.191 281.132L267.299 251.112C267.299 251.189 258.438 217.629 270.921 210.394Z" fill="#92A5CC"/>
<path d="M410.158 413.911L341.58 340.863C334.645 332.704 324.628 327.778 313.84 327.316L288.566 326.161C288.566 326.161 283.327 232.254 270.921 210.394C270.921 210.394 227.154 204.928 192.172 223.787C192.172 223.787 199.723 349.33 212.976 355.026C222.608 359.183 274.774 360.03 302.359 360.261C313.378 360.338 323.78 365.033 331.023 373.269L388.198 430.999C391.511 435.464 397.598 436.849 402.53 434.309C404.687 433.154 407.076 431.615 409.233 429.691C413.703 425.457 414.165 418.529 410.158 413.911Z" fill="#944E4C"/>
<path d="M410.158 413.911L341.426 340.786C334.568 332.704 324.628 327.778 313.917 327.239C302.128 326.623 288.489 325.93 288.489 325.776C253.121 325.776 219.988 325.776 202.882 325.93C205.733 341.71 209.046 353.333 212.899 354.949C222.531 359.106 274.697 359.953 302.282 360.183C313.301 360.26 323.703 364.956 330.946 373.192L388.121 430.922C391.434 435.386 397.521 436.772 402.453 434.232C404.61 433.077 406.999 431.538 409.156 429.613C413.703 425.457 414.165 418.529 410.158 413.911Z" fill="#23406E"/>
<path d="M439.516 399.671C434.661 396.977 412.47 409.908 405.458 414.219C404.071 415.066 402.838 416.22 401.99 417.606L397.983 423.917C395.903 427.15 395.98 431.23 398.138 434.386C400.757 438.235 404.302 442.853 406.151 443.469C409.31 444.546 445.218 402.904 439.516 399.671Z" fill="#202131"/>
<path d="M247.805 216.705C248.267 215.166 248.421 213.549 248.19 211.933L244.414 186.224L223.841 187.07L227.848 212.164C228.618 217.321 242.873 229.021 242.873 229.021L247.805 216.705Z" fill="#ECAF96"/>
<path d="M255.125 154.665C254.354 154.049 253.584 153.51 252.89 153.048C248.267 167.904 222.916 160.9 217.445 170.367C215.827 173.6 215.057 175.909 215.057 175.909C209.278 178.988 206.272 182.991 209.971 189.149C213.67 195.23 224.38 191.535 224.38 191.535C229.697 204.467 248.652 207.622 262.984 200.772C277.317 193.844 255.125 154.665 255.125 154.665Z" fill="#ECAF96"/>
<path d="M217.908 183.068C217.445 182.221 216.675 181.375 215.75 181.144C215.519 181.067 215.288 181.067 215.057 181.144C214.748 181.298 214.594 181.682 214.517 181.99C214.055 183.453 213.593 185.069 214.055 186.532C214.44 187.763 216.983 190.227 218.447 189.072C219.834 187.994 218.524 184.223 217.908 183.068Z" fill="#C17E67"/>
<path d="M217.137 176.91C219.68 178.295 223.533 181.066 223.841 185.3L227.539 184.53C227.539 184.53 226.461 171.445 222.993 169.828C222.993 169.828 255.202 174.062 265.296 159.514C265.296 159.514 259.902 143.888 250.964 140.963C242.103 138.038 219.911 139.963 215.057 154.511C215.057 154.511 204.731 156.82 204.577 164.209C204.346 171.522 208.661 177.141 211.05 178.834L213.284 177.295C214.44 176.294 215.904 176.217 217.137 176.91Z" fill="#42210B"/>
<path d="M248.498 189.226C252.286 189.226 255.356 186.159 255.356 182.375C255.356 178.592 252.286 175.524 248.498 175.524C244.711 175.524 241.64 178.592 241.64 182.375C241.64 186.159 244.711 189.226 248.498 189.226Z" fill="#FAF0F3"/>
<path d="M263.061 184.531C266.594 184.531 269.457 181.67 269.457 178.142C269.457 174.613 266.594 171.753 263.061 171.753C259.529 171.753 256.666 174.613 256.666 178.142C256.666 181.67 259.529 184.531 263.061 184.531Z" fill="#FAF0F3"/>
<path d="M246.649 182.298H223.302L222.454 181.066L246.649 181.297V182.298Z" fill="#FAF0F3"/>
<path d="M251.735 181.298L251.041 180.836C251.118 180.759 252.89 178.373 255.356 178.219C256.666 178.142 257.899 178.68 259.132 179.835L258.515 180.451C257.514 179.45 256.512 178.988 255.433 179.142C253.353 179.142 251.735 181.298 251.735 181.298Z" fill="#FAF0F3"/>
<path d="M267.255 177.634L264.105 177.868L264.168 178.713L267.318 178.478L267.255 177.634Z" fill="#FAF0F3"/>
<path d="M265.065 191.15C264.063 188.533 261.906 186.686 259.209 186.07C258.669 185.993 258.438 186.763 258.978 186.917C261.366 187.455 263.37 189.072 264.217 191.381C264.448 191.92 265.296 191.689 265.065 191.15Z" fill="#C17E67"/>
<path d="M215.288 153.818C215.211 154.049 215.134 154.203 215.057 154.434C215.057 154.434 204.731 156.743 204.577 164.132C204.346 171.445 208.661 177.064 211.05 178.757L213.284 177.218C214.44 176.448 215.904 176.294 217.137 176.987C219.68 178.372 223.533 181.143 223.841 185.377L227.539 184.607C227.539 184.607 226.461 171.522 222.993 169.905C222.993 169.905 225.767 170.29 230.005 170.444C225.921 159.129 219.603 155.203 215.288 153.818Z" fill="#42210B"/>
<path d="M192.172 223.787C192.172 223.787 157.805 309.227 163.584 315.539C169.364 321.851 267.839 319.003 267.839 319.003L267.377 307.918C267.377 307.918 220.913 299.297 198.798 296.834L215.442 265.044C215.365 265.044 220.296 237.95 192.172 223.787Z" fill="#92A5CC"/>
<path d="M267.299 307.918C267.299 307.918 260.75 306.687 251.426 305.07C252.351 307.918 253.044 310.766 253.815 313.691C254.277 315.616 254.817 317.463 255.279 319.387C262.907 319.233 267.839 319.079 267.839 319.079L267.299 307.918Z" fill="#ECAF96"/>
<path d="M236.093 302.376L239.406 320.927H257.514L252.89 304.07" fill="#CEE3F4"/>
<path d="M241.332 219.168L242.95 229.098L236.093 222.94L241.332 219.168Z" fill="#8FA7B6"/>
<path d="M226.846 207.776L241.332 219.168L234.937 230.33L222.916 214.088L226.846 207.776Z" fill="#CEE3F4"/>
<path d="M245.185 218.552L242.95 229.098L249.808 221.4L245.185 218.552Z" fill="#8FA7B6"/>
<path d="M247.651 208.546L245.185 218.552L251.657 229.714V212.087L247.651 208.546Z" fill="#CEE3F4"/>
<path d="M343.814 226.404L352.444 243.954L345.741 256.423L337.65 231.715L343.814 226.404Z" fill="#CEE3F4"/>
<path d="M280.322 329.933H169.518C165.896 329.933 162.891 327.008 162.891 323.313V321.004C162.891 317.386 165.819 314.384 169.518 314.384H280.322C283.943 314.384 286.948 317.309 286.948 321.004V323.313C286.871 326.931 283.943 329.933 280.322 329.933Z" fill="#455A74"/>
<path d="M279.166 314.384H265.758C270.073 314.384 273.541 317.848 273.541 322.159C273.541 326.469 270.073 329.933 265.758 329.933H279.166C283.481 329.933 286.948 326.469 286.948 322.159C286.871 317.848 283.404 314.384 279.166 314.384Z" fill="#5B748C"/>
<path d="M220.789 326.808L215.781 326.769L214.655 471.017L219.663 471.056L220.789 326.808Z" fill="#CCCCCC"/>
<path d="M289.937 401.996L289.976 396.993L145.577 395.868L145.538 400.871L289.937 401.996Z" fill="#CCCCCC"/>
<path d="M216.675 471.102C175.605 470.794 142.395 437.08 142.703 396.053C143.011 355.026 176.761 321.85 217.831 322.158C258.901 322.466 292.111 356.181 291.803 397.207C291.495 438.234 257.745 471.41 216.675 471.102ZM217.754 331.472C181.769 331.164 152.257 360.183 152.026 396.13C151.718 432.076 180.768 461.557 216.752 461.788C252.736 462.096 282.248 433.077 282.479 397.13C282.787 361.184 253.738 331.703 217.754 331.472Z" fill="#CCCCCC"/>
<path d="M216.829 452.551C185.93 452.32 161.042 426.996 161.273 396.13C161.504 365.263 186.855 340.401 217.754 340.632C248.652 340.863 273.541 366.187 273.31 397.053C273.002 427.92 247.728 452.782 216.829 452.551ZM217.6 349.946C191.863 349.715 170.751 370.498 170.519 396.207C170.288 421.916 191.093 443.007 216.829 443.237C242.565 443.468 263.678 422.686 263.909 396.976C264.14 371.267 243.336 350.177 217.6 349.946Z" fill="#CCCCCC"/>
<path d="M436.897 425.227H415.784C414.705 425.227 413.703 425.689 413.087 426.536L404.072 437.62C402.222 439.929 403.84 443.393 406.769 443.393H426.494C427.496 443.393 428.421 443.008 429.037 442.315L439.44 431.154C441.597 428.845 439.979 425.227 436.897 425.227Z" fill="#999999"/>
<path d="M409.233 437.542L418.249 426.457C418.942 425.611 419.944 425.149 420.946 425.149H415.706C414.627 425.149 413.625 425.611 413.009 426.457L403.994 437.542C402.144 439.851 403.763 443.315 406.691 443.315H411.93C409.002 443.315 407.384 439.851 409.233 437.542Z" fill="#666666"/>
<path d="M292.342 318.31C291.186 314.385 288.721 311.152 285.33 309.073C284.945 308.843 284.56 308.766 284.251 308.843L284.174 308.766C282.402 306.841 267.377 307.996 267.377 307.996L265.758 314.539C272.154 314.539 271.075 316.694 273.31 318.002C273.695 318.233 274.388 318.387 275.159 318.387C275.93 320.389 276.315 322.544 275.544 324.083C274.543 326.008 277.471 327.778 278.472 325.777C279.628 323.544 279.397 320.85 278.703 318.31C279.089 318.31 279.474 318.233 279.936 318.156C280.707 320.543 281.092 322.929 280.168 325.392C279.397 327.47 282.71 328.317 283.481 326.315C284.483 323.391 284.174 320.543 283.327 317.771C283.558 317.695 283.789 317.694 284.02 317.694C284.868 319.927 285.176 322.313 285.022 324.776C284.868 326.931 288.258 326.931 288.412 324.776C288.721 320.927 287.796 317.233 285.87 314C287.411 315.462 288.489 317.31 289.106 319.465C289.645 321.312 292.959 320.389 292.342 318.31Z" fill="#ECAF96"/>
<path d="M147.326 209.009C146.478 207.392 144.86 206.315 143.242 205.545C139.775 203.698 135.768 202.851 132.609 200.465C131.453 199.618 130.374 198.54 129.064 198.079L77.5919 155.05C77.5919 155.05 137.694 127.879 122.669 84.3889L110.417 83.6961C107.566 83.5422 104.869 84.6198 102.943 86.775C89.15 102.093 32.6693 165.442 37.5237 168.906C42.8404 172.677 104.792 203.775 123.901 208.393C124.98 211.395 126.752 214.474 127.523 217.245C127.831 218.476 128.139 219.708 128.833 220.786C129.526 221.863 130.682 222.71 131.915 222.633C133.456 222.556 134.689 221.171 136.23 220.786C137.54 220.478 139.004 221.017 140.314 220.709C142.626 220.093 143.319 217.168 145.168 215.628C145.785 215.09 146.478 214.782 147.018 214.243C148.251 212.78 148.174 210.625 147.326 209.009Z" fill="#C9766C"/>
<path d="M94.3127 145.197C110.802 133.651 132.377 112.406 122.669 84.3107L110.417 83.618C107.566 83.464 104.869 84.5417 102.943 86.6969C96.4702 93.8554 80.597 111.636 66.1108 128.801C70.8882 133.805 80.597 142.272 94.3127 145.197Z" fill="#182E4D"/>
<path d="M194.252 200.694C192.557 200.387 191.247 201.618 190.785 203.158C190.014 206.006 190.63 209.008 192.249 211.471C193.096 212.856 195.177 213.087 196.41 212.163C197.797 211.163 197.951 209.392 197.103 208.007C196.41 206.929 196.332 205.621 196.718 204.081C197.103 202.542 195.716 200.925 194.252 200.694Z" fill="#C9766C"/>
<path d="M197.18 205.544C198.336 205.236 199.569 205.082 200.725 205.467C201.88 205.852 202.805 207.007 202.497 208.161C202.266 209.239 201.803 212.01 200.802 212.472C198.028 213.78 192.249 215.012 189.552 211.625C186.778 208.392 195.1 206.006 197.18 205.544Z" fill="#C9766C"/>
<path d="M479.199 178.064C476.656 178.372 474.421 176.217 473.188 173.985C470.414 168.981 470.414 162.439 473.343 157.435C476.039 152.74 480.894 149.661 485.594 146.967C491.065 143.965 497.075 141.194 503.317 141.348C510.02 141.502 516.339 144.966 520.808 149.969C525.277 154.972 527.974 161.361 529.361 167.827C531.904 179.296 544.618 186.223 554.327 192.92C564.267 199.694 573.975 207.16 580.91 217.013C587.845 226.865 591.698 239.412 588.693 251.035C585.688 262.658 574.823 272.588 562.803 271.972C553.479 271.51 545.234 265.198 539.84 257.578C534.369 249.957 531.133 241.028 527.203 232.561C518.805 214.473 507.015 198 492.529 184.222C489.524 181.451 483.283 177.602 479.199 178.064Z" fill="#F15A24"/>
<path d="M494.995 466.098C495.457 461.48 517.186 456.784 523.505 454.013C524.738 453.475 527.589 452.243 528.976 452.32L531.673 449.395C534.832 449.549 538.145 452.936 539.224 455.938C540.534 459.633 541.536 462.865 541.073 464.405C540.303 467.176 494.455 471.563 494.995 466.098Z" fill="#202131"/>
<path d="M555.713 459.71C556.176 455.63 575.439 451.396 581.141 448.933C582.297 448.471 580.294 445.777 581.527 445.854L583.992 442.16C586.843 442.314 594.241 448.01 595.165 450.704C596.398 453.937 597.246 456.862 596.783 458.247C596.09 460.633 555.174 464.559 555.713 459.71Z" fill="#202131"/>
<path d="M583.761 440.851L517.803 401.903C517.803 401.903 582.374 350.792 582.914 341.325C583.453 331.857 528.436 348.175 528.436 348.175C528.436 348.175 475.808 397.284 476.81 406.29C477.735 414.218 559.797 445.239 578.445 452.243C580.756 453.09 583.299 452.551 585.071 450.858C587.922 447.856 587.383 442.93 583.761 440.851Z" fill="#ECAF96"/>
<path d="M538.608 384.891C557.563 369.112 582.528 347.174 582.914 341.248C583.453 331.78 528.436 348.098 528.436 348.098C528.436 348.098 514.181 358.259 507.015 365.263C510.252 367.111 519.113 369.959 521.887 372.422C527.666 377.425 535.448 377.81 538.608 384.891Z" fill="#202131"/>
<path d="M509.943 224.71L504.01 281.978C504.01 281.978 497.692 304.993 497.615 313.229C497.615 321.465 492.375 334.243 492.375 334.243L505.32 337.861L536.681 229.79C536.681 229.713 519.575 222.401 509.943 224.71Z" fill="#182E4D"/>
<path d="M497.692 331.934L492.452 339.785C492.452 339.785 480.971 351.485 481.587 352.563C482.204 353.641 484.13 354.025 484.13 354.025C484.13 354.025 496.921 343.634 499.849 343.018C502.777 342.402 506.938 341.325 507.015 340.17C507.092 339.093 502.392 333.397 502.392 333.397L497.692 331.934Z" fill="#ECAF96"/>
<path d="M492.375 334.243L505.32 337.861L507.169 331.472C503.24 328.932 499.541 326.084 496.073 322.928C494.532 328.932 492.375 334.243 492.375 334.243Z" fill="#CEE3F4"/>
<path d="M515.26 204.851C515.26 204.851 507.169 238.95 507.555 247.186C507.94 256.885 525.894 257.963 525.894 257.963C525.894 257.963 549.626 298.143 548.624 304.301C547.623 310.381 459.704 364.186 463.942 372.422C468.257 380.658 523.659 455.322 523.659 455.322C523.659 455.322 532.597 456.708 536.681 453.86L498.847 378.272C498.847 378.272 582.76 357.258 591.004 329.394C599.326 301.529 578.444 298.835 572.357 284.364C566.27 269.74 565.037 190.457 515.26 204.851Z" fill="#7963A6"/>
<path d="M575.131 289.06C565.422 291.677 556.253 296.372 548.47 302.761C548.625 303.377 548.625 303.915 548.547 304.3C547.546 310.381 459.627 364.186 463.865 372.422C468.18 380.658 523.582 455.322 523.582 455.322C523.582 455.322 532.52 456.707 536.604 453.859L498.77 378.272C498.77 378.272 582.683 357.258 590.927 329.394C598.325 304.762 583.145 299.759 575.131 289.06Z" fill="#202131"/>
<path d="M489.601 348.021C474.19 359.337 462.324 369.189 463.942 372.345C468.257 380.581 523.659 455.245 523.659 455.245C523.659 455.245 532.597 456.631 536.681 453.783L498.847 378.195C498.847 378.195 505.859 376.425 516.031 373.269C510.251 362.339 500.851 353.333 489.601 348.021Z" fill="#F1D0CE"/>
<path d="M523.736 182.144C523.813 173.6 519.113 168.442 514.798 172.753C514.798 172.753 502.931 173.523 508.017 179.065C503.163 180.142 493.068 176.448 488.599 174.292C484.207 172.214 480.432 169.058 476.964 165.671C475.192 171.829 464.944 211.317 497.769 201.079L507.555 211.548C507.555 211.548 519.575 210.932 522.965 203.465L512.101 190.919C512.101 190.842 523.659 190.688 523.736 182.144Z" fill="#F1D0CE"/>
<path d="M475.423 177.449C475.423 177.449 468.488 188.533 470.646 189.149C472.803 189.841 475.577 189.688 475.577 189.688L475.423 177.449Z" fill="#F1D0CE"/>
<path d="M508.787 183.221C510.174 184.684 511.33 186.377 512.255 188.148C512.717 182.221 514.721 176.525 516.724 170.906C515.183 170.29 513.411 169.905 511.793 169.828C509.635 169.828 510.251 171.06 510.174 172.907C510.097 174.677 509.943 176.448 509.712 178.218C509.635 178.911 508.479 182.914 508.787 183.221Z" fill="#F15A24"/>
<path d="M516.262 179.527C516.724 178.68 517.341 177.833 518.342 177.526C518.573 177.449 518.805 177.449 519.036 177.526C519.344 177.679 519.498 177.987 519.575 178.372C520.114 179.835 520.577 181.374 520.192 182.837C519.883 184.068 517.418 186.608 515.954 185.531C514.567 184.453 515.645 180.681 516.262 179.527Z" fill="#8A3B33"/>
<path d="M517.803 194.998C509.789 202.849 503.317 212.24 504.087 211.47C504.087 211.47 506.553 234.254 510.406 231.791C514.258 229.328 522.965 203.388 522.965 203.388L517.803 194.998Z" fill="#CEE3F4"/>
<path d="M528.359 212.548L488.522 278.822L445.449 254.498L438.976 264.89C438.976 264.89 479.353 304.377 488.522 305.763C496.305 306.994 534.755 266.814 545.928 254.883C548.085 252.574 555.636 244.646 556.176 241.567C557.794 231.868 548.47 204.774 528.359 212.548Z" fill="#7963A6"/>
<path d="M415.937 252.883C417.709 254.037 419.636 254.499 421.639 254.73C421.639 254.345 421.716 253.883 421.793 253.498C419.096 252.113 416.785 249.958 415.167 247.263C414.165 245.647 416.785 244.261 417.786 245.878C419.096 247.956 420.792 249.65 422.872 250.727C423.18 250.265 423.488 249.804 423.797 249.419C421.639 247.11 420.098 244.262 419.482 241.106C419.096 239.258 421.947 238.565 422.333 240.413C422.872 243.03 424.105 245.416 425.877 247.34C426.108 247.186 426.262 247.033 426.494 246.879C426.416 246.648 426.339 246.494 426.262 246.263C425.415 244.338 424.798 242.26 424.567 240.028C424.49 239.643 424.644 239.258 424.798 238.95C425.338 237.796 427.341 237.642 427.495 239.104C427.803 241.337 428.343 243.492 429.113 245.57C429.19 245.724 429.268 245.878 429.345 246.032C432.196 247.417 436.819 253.729 436.819 253.729C436.819 253.729 436.819 253.729 435.74 247.879C434.661 242.029 437.666 243.8 437.666 243.8C440.749 246.802 441.827 256.5 441.827 256.5L438.206 265.891C438.206 265.891 425.107 262.889 422.41 257.655C419.636 257.424 416.862 256.885 414.396 255.269C412.778 254.268 414.319 251.805 415.937 252.883Z" fill="#F1D0CE"/>
<path d="M452.461 258.424L451.613 277.591L434.969 264.813L441.057 252.036L452.461 258.424Z" fill="#CEE3F4"/>
</svg>
