<svg width="309" height="227" viewBox="0 0 309 227" fill="none" xmlns="http://www.w3.org/2000/svg">
<path d="M71.1075 0.874711C43.2298 5.55781 19.0455 40.2961 18.7886 73.3665C18.4995 105.346 40.6283 133.06 64.7805 143.677C78.7515 149.804 83.0873 146.307 99.724 153.909C123.394 164.719 122.238 177.966 142.729 189.257C158.82 198.11 181.623 202.12 201.632 196.442C230.505 188.231 243.802 162.57 253.566 143.805C263.49 124.656 289.055 75.4514 261.499 38.147C246.789 18.1637 220.324 6.19933 196.525 5.01252C168.487 3.60117 161.935 17.6184 131.327 16.0787C98.2145 14.4429 92.5619 -2.74988 71.1075 0.874711Z" fill="#D90429"/>
<path d="M88.0013 226.594C85.3677 226.594 82.7341 226.433 80.2289 226.112C79.4902 226.016 79.0084 225.407 79.1048 224.765C79.2012 224.124 79.8756 223.643 80.5822 223.739C82.991 224.028 85.4961 224.188 88.0013 224.188C88.74 224.188 89.3181 224.733 89.3181 225.375C89.3181 226.08 88.74 226.594 88.0013 226.594ZM95.5809 226.177C94.9065 226.177 94.3605 225.728 94.2641 225.118C94.1678 224.477 94.6817 223.867 95.4204 223.771C97.8292 223.514 100.302 223.097 102.807 222.584C103.514 222.424 104.22 222.841 104.381 223.482C104.542 224.124 104.092 224.765 103.385 224.926C100.816 225.471 98.2467 225.856 95.7415 226.145C95.6773 226.177 95.6131 226.177 95.5809 226.177ZM72.9383 224.733C72.8098 224.733 72.6814 224.733 72.5529 224.701C70.0477 224.06 67.5747 223.226 65.2302 222.231C64.5557 221.943 64.2666 221.237 64.5878 220.627C64.909 220.018 65.6798 219.761 66.3543 220.05C68.6025 220.98 70.9149 221.782 73.2916 222.392C73.9982 222.584 74.3836 223.226 74.1909 223.867C74.0303 224.38 73.5164 224.733 72.9383 224.733ZM110.419 223.129C109.873 223.129 109.327 222.809 109.167 222.295C108.942 221.654 109.327 220.98 110.002 220.788C112.314 220.114 114.691 219.312 117.067 218.414C117.742 218.158 118.513 218.446 118.802 219.056C119.091 219.665 118.77 220.371 118.095 220.627C115.654 221.526 113.213 222.36 110.837 223.065C110.708 223.129 110.548 223.129 110.419 223.129ZM59.16 218.96C58.9031 218.96 58.6461 218.895 58.4213 218.767C56.2694 217.484 54.1818 216.041 52.2227 214.469C51.6767 214.02 51.6124 213.282 52.0942 212.769C52.576 212.256 53.411 212.224 53.957 212.673C55.8519 214.18 57.8111 215.559 59.8666 216.778C60.4768 217.131 60.6374 217.901 60.252 218.446C59.995 218.767 59.5775 218.96 59.16 218.96ZM124.519 217.901C124.037 217.901 123.555 217.644 123.33 217.227C123.009 216.618 123.266 215.912 123.94 215.624C126.157 214.629 128.405 213.571 130.621 212.416C131.263 212.095 132.066 212.288 132.419 212.865C132.773 213.442 132.548 214.18 131.906 214.501C129.625 215.656 127.345 216.778 125.097 217.773C124.936 217.837 124.711 217.901 124.519 217.901ZM137.815 211.101C137.365 211.101 136.948 210.908 136.691 210.556C136.306 210.01 136.466 209.24 137.109 208.888C139.196 207.669 141.316 206.386 143.371 205.071C143.982 204.686 144.785 204.814 145.234 205.359C145.652 205.905 145.523 206.642 144.913 207.027C142.825 208.374 140.674 209.69 138.522 210.941C138.297 211.037 138.04 211.101 137.815 211.101ZM47.7263 209.882C47.373 209.882 46.9876 209.754 46.7306 209.465C45.0284 207.733 43.4547 205.84 41.9773 203.884C41.5597 203.338 41.7203 202.601 42.3306 202.216C42.9408 201.831 43.7758 201.991 44.1612 202.537C45.5744 204.397 47.116 206.193 48.7219 207.861C49.2036 208.374 49.1394 209.112 48.5934 209.561C48.3365 209.786 48.0153 209.882 47.7263 209.882ZM150.244 203.082C149.859 203.082 149.474 202.921 149.217 202.633C148.767 202.12 148.863 201.35 149.442 200.965C151.69 199.361 153.392 198.046 154.388 197.276L155.255 196.57C155.801 196.121 156.636 196.186 157.118 196.699C157.599 197.212 157.535 197.95 156.989 198.399L156.122 199.072C155.094 199.906 153.392 201.221 151.08 202.857C150.823 202.986 150.534 203.082 150.244 203.082ZM39.1188 198.495C38.6371 198.495 38.1874 198.27 37.9305 197.853C36.7422 195.769 35.6502 193.619 34.7188 191.438C34.4618 190.829 34.783 190.123 35.4896 189.899C36.164 189.674 36.9349 189.963 37.1918 190.604C38.0911 192.689 39.1188 194.774 40.2751 196.763C40.6283 197.34 40.3714 198.078 39.7291 198.367C39.5364 198.463 39.3437 198.495 39.1188 198.495ZM161.903 194.165C161.518 194.165 161.164 194.004 160.875 193.748C160.394 193.235 160.49 192.497 161.036 192.048C162.931 190.604 164.922 189.129 166.945 187.653C167.524 187.236 168.359 187.3 168.808 187.814C169.258 188.327 169.194 189.097 168.616 189.514C166.624 190.989 164.633 192.465 162.738 193.908C162.513 194.069 162.192 194.165 161.903 194.165ZM33.691 185.633C33.1129 185.633 32.5669 185.28 32.4063 184.734C31.764 182.425 31.2822 180.083 31.0253 177.806C30.9289 177.132 31.4749 176.555 32.1815 176.491C32.9202 176.427 33.5626 176.876 33.6589 177.549C33.9158 179.731 34.3655 181.944 34.9757 184.189C35.1684 184.831 34.7188 185.472 34.0122 185.633C33.9158 185.633 33.8195 185.633 33.691 185.633ZM173.754 185.44C173.369 185.44 172.984 185.28 172.727 184.991C172.277 184.478 172.373 183.708 172.951 183.323C174.943 181.912 176.966 180.468 178.989 179.089C179.568 178.672 180.403 178.8 180.852 179.314C181.302 179.827 181.173 180.597 180.595 180.981C178.572 182.393 176.549 183.804 174.589 185.216C174.332 185.376 174.043 185.44 173.754 185.44ZM185.863 177.036C185.445 177.036 185.06 176.876 184.803 176.555C184.353 176.01 184.481 175.272 185.06 174.887C187.083 173.508 189.171 172.129 191.226 170.781C191.804 170.396 192.639 170.525 193.089 171.038C193.506 171.583 193.378 172.321 192.8 172.706C190.744 174.053 188.689 175.432 186.665 176.78C186.409 176.972 186.119 177.036 185.863 177.036ZM32.053 171.968H32.0209C31.2822 171.936 30.7041 171.391 30.7362 170.717C30.8005 168.504 31.0574 166.162 31.4107 163.725C31.507 163.083 32.1815 162.602 32.9202 162.698C33.6589 162.794 34.1407 163.404 34.0443 164.045C33.691 166.387 33.4662 168.664 33.402 170.781C33.3698 171.455 32.7596 171.968 32.053 171.968ZM198.196 168.921C197.778 168.921 197.36 168.728 197.104 168.408C196.686 167.862 196.814 167.125 197.425 166.74C199.512 165.425 201.6 164.077 203.688 162.794C204.298 162.409 205.101 162.57 205.518 163.115C205.936 163.66 205.775 164.398 205.165 164.783C203.077 166.066 200.99 167.413 198.934 168.728C198.742 168.857 198.485 168.921 198.196 168.921ZM210.785 161.126C210.368 161.126 209.95 160.934 209.694 160.581C209.276 160.036 209.437 159.298 210.047 158.913C212.167 157.63 214.318 156.347 216.438 155.096C217.048 154.743 217.883 154.904 218.269 155.449C218.654 155.994 218.494 156.732 217.883 157.117C215.796 158.336 213.644 159.619 211.524 160.902C211.299 161.03 211.042 161.126 210.785 161.126ZM34.1085 158.304C34.0122 158.304 33.9158 158.304 33.8195 158.272C33.1129 158.143 32.6633 157.502 32.8239 156.828C33.3377 154.679 33.9801 152.466 34.7188 150.06C34.9115 149.419 35.6502 149.066 36.3567 149.226C37.0633 149.419 37.4809 150.06 37.256 150.702C36.5173 153.043 35.9071 155.224 35.3932 157.309C35.2648 157.919 34.6867 158.304 34.1085 158.304ZM223.6 153.621C223.151 153.621 222.733 153.428 222.476 153.043C222.091 152.498 222.283 151.728 222.894 151.375C225.078 150.156 227.262 148.905 229.413 147.751C230.024 147.398 230.859 147.59 231.244 148.168C231.63 148.745 231.437 149.483 230.795 149.804C228.675 150.958 226.491 152.177 224.307 153.396C224.082 153.557 223.825 153.621 223.6 153.621ZM236.672 146.468C236.222 146.468 235.773 146.243 235.516 145.858C235.162 145.281 235.355 144.543 235.998 144.222C238.246 143.036 240.462 141.913 242.646 140.79C243.288 140.469 244.091 140.694 244.444 141.271C244.798 141.849 244.573 142.587 243.93 142.907C241.779 143.998 239.53 145.121 237.314 146.307C237.122 146.436 236.897 146.468 236.672 146.468ZM38.1874 145.024C38.059 145.024 37.9305 144.992 37.802 144.96C37.0954 144.768 36.71 144.094 36.9349 143.453C37.802 140.951 38.5728 138.834 39.3758 136.877C39.6327 136.268 40.3714 135.947 41.078 136.171C41.7524 136.396 42.1057 137.069 41.8809 137.711C41.1101 139.668 40.3393 141.72 39.4721 144.19C39.2473 144.704 38.7334 145.024 38.1874 145.024ZM250.001 139.796C249.519 139.796 249.069 139.571 248.812 139.154C248.459 138.577 248.716 137.839 249.358 137.551C251.671 136.46 253.951 135.401 256.199 134.407C256.842 134.118 257.645 134.343 257.966 134.952C258.287 135.562 258.03 136.268 257.355 136.556C255.139 137.551 252.859 138.577 250.579 139.668C250.418 139.732 250.225 139.796 250.001 139.796ZM263.554 133.413C263.104 133.413 262.655 133.188 262.398 132.803C262.045 132.226 262.237 131.488 262.88 131.167C265.032 130.045 267.183 128.826 269.303 127.575C269.913 127.222 270.748 127.35 271.134 127.928C271.551 128.473 271.359 129.211 270.748 129.596C268.597 130.879 266.38 132.13 264.196 133.284C264.004 133.381 263.779 133.413 263.554 133.413ZM43.3904 132.066C43.2298 132.066 43.0371 132.034 42.8766 131.969C42.2021 131.713 41.8809 131.007 42.17 130.398C42.5233 129.628 42.9087 128.858 43.2941 128.024C43.9364 126.709 44.5788 125.426 45.2853 124.047C45.6065 123.437 46.3773 123.181 47.0518 123.469C47.7263 123.758 47.9832 124.464 47.6941 125.073C46.9876 126.42 46.3452 127.703 45.735 128.986C45.3496 129.788 44.9642 130.558 44.6109 131.328C44.4182 131.809 43.9043 132.066 43.3904 132.066ZM276.273 125.811C275.855 125.811 275.47 125.65 275.213 125.33C274.763 124.816 274.892 124.047 275.47 123.662C277.525 122.25 279.516 120.807 281.347 119.396C281.893 118.946 282.728 119.011 283.21 119.524C283.692 120.037 283.627 120.775 283.081 121.224C281.219 122.699 279.195 124.175 277.076 125.618C276.819 125.747 276.562 125.811 276.273 125.811ZM49.846 119.588C49.6533 119.588 49.4606 119.556 49.2679 119.46C48.5934 119.171 48.3365 118.465 48.6577 117.856C49.9745 115.386 50.6489 113.814 50.938 111.729C51.0343 111.088 51.6767 110.607 52.4154 110.671C53.1541 110.767 53.6679 111.344 53.5716 112.018C53.2504 114.456 52.4796 116.22 51.0664 118.882C50.8095 119.331 50.3599 119.588 49.846 119.588ZM287.771 116.765C287.449 116.765 287.096 116.637 286.839 116.412C286.325 115.963 286.293 115.194 286.807 114.712C288.606 113.045 290.276 111.312 291.721 109.612C292.171 109.099 293.006 109.003 293.584 109.42C294.162 109.837 294.258 110.575 293.809 111.088C292.267 112.852 290.565 114.648 288.702 116.38C288.445 116.637 288.124 116.765 287.771 116.765ZM52.1906 106.18C51.5161 106.18 50.938 105.731 50.8737 105.122C50.6168 103.037 50.1672 100.888 49.4606 98.5141C49.2679 97.8726 49.6854 97.231 50.392 97.0386C51.0986 96.8782 51.8373 97.2631 51.9978 97.9046C52.7365 100.374 53.2183 102.652 53.4752 104.833C53.5716 105.507 53.0256 106.084 52.319 106.148C52.2869 106.18 52.2227 106.18 52.1906 106.18ZM297.052 105.859C296.828 105.859 296.603 105.795 296.378 105.699C295.736 105.378 295.543 104.641 295.896 104.063C297.181 102.075 298.241 100.054 299.076 98.0329C299.333 97.4235 300.104 97.1027 300.778 97.3273C301.452 97.5518 301.806 98.2575 301.549 98.8669C300.682 101.016 299.525 103.165 298.177 105.282C297.984 105.667 297.534 105.859 297.052 105.859ZM302.095 92.9649C302.031 92.9649 301.966 92.9649 301.934 92.9649C301.196 92.8687 300.682 92.2913 300.778 91.6177C301.003 90.1102 301.099 88.5384 301.099 86.9988C301.099 86.3252 301.067 85.6195 301.035 84.9459C301.003 84.2723 301.549 83.727 302.288 83.695C303.026 83.6629 303.636 84.1761 303.701 84.8176C303.733 85.5554 303.765 86.2931 303.765 86.9988C303.765 88.6347 303.636 90.3026 303.412 91.9064C303.315 92.5159 302.769 92.9649 302.095 92.9649ZM48.4328 92.8366C47.8868 92.8366 47.373 92.5159 47.1803 92.0347C46.4416 90.2064 45.6065 88.2497 44.4503 85.6516C44.1612 85.0421 44.5145 84.3365 45.189 84.0799C45.8635 83.8233 46.6343 84.144 46.9233 84.7535C48.0795 87.3837 48.9467 89.3724 49.6854 91.2328C49.9423 91.8423 49.5891 92.5479 48.8825 92.7725C48.754 92.8366 48.5934 92.8366 48.4328 92.8366ZM42.8444 80.0062C42.3306 80.0062 41.8167 79.7175 41.624 79.2685C41.2707 78.4345 40.8853 77.6326 40.532 76.7986C39.9539 75.4514 39.3758 74.0722 38.8619 72.7891C38.605 72.1797 38.9582 71.474 39.6648 71.2495C40.3393 71.0249 41.1101 71.3457 41.367 71.9872C41.8809 73.2703 42.4269 74.5854 43.005 75.9326C43.3583 76.7665 43.7116 77.5684 44.097 78.3703C44.3861 78.9798 44.0328 79.6855 43.3583 79.9421C43.1656 79.9741 43.005 80.0062 42.8444 80.0062ZM301.292 79.2364C300.682 79.2364 300.136 78.8515 300.007 78.3062C299.461 76.1892 298.723 74.0401 297.823 71.891C297.566 71.2815 297.887 70.5759 298.562 70.3513C299.236 70.1268 300.007 70.4155 300.264 71.0249C301.228 73.2703 301.998 75.5477 302.577 77.793C302.737 78.4345 302.288 79.076 301.581 79.2364C301.485 79.2364 301.388 79.2364 301.292 79.2364ZM37.7057 67.0154C37.1276 67.0154 36.6137 66.6626 36.421 66.1494C35.6502 63.8078 35.0399 61.5304 34.5261 59.3813C34.3655 58.7398 34.8472 58.0983 35.5538 57.97C36.2604 57.8417 36.967 58.2587 37.1276 58.9002C37.6093 60.9851 38.2196 63.2305 38.9582 65.5079C39.151 66.1494 38.7655 66.823 38.059 66.9834C37.9626 67.0154 37.8341 67.0154 37.7057 67.0154ZM295.832 66.406C295.35 66.406 294.901 66.1815 294.676 65.7645C293.198 63.2946 291.753 61.2738 290.757 59.9587C290.34 59.4134 290.501 58.6757 291.111 58.2908C291.721 57.9058 292.556 58.0662 292.941 58.6115C293.937 59.9587 295.447 62.0437 296.988 64.6097C297.341 65.1871 297.085 65.9249 296.442 66.2456C296.249 66.3739 296.025 66.406 295.832 66.406ZM287.289 54.9869C286.903 54.9869 286.55 54.8586 286.293 54.5699C284.752 52.9661 283.017 51.2982 281.122 49.6623C280.608 49.2132 280.576 48.4434 281.09 47.9623C281.604 47.4811 282.439 47.4811 282.953 47.9302C284.912 49.6302 286.711 51.3303 288.284 52.9982C288.766 53.5114 288.702 54.2492 288.124 54.6982C287.899 54.8907 287.578 54.9869 287.289 54.9869ZM34.7188 53.5114C34.0443 53.5114 33.4662 53.0303 33.402 52.4208C33.2414 50.8171 33.145 49.2453 33.145 47.7378C33.145 46.9358 33.1771 46.134 33.2093 45.3641C33.2414 44.6905 33.8837 44.2094 34.5903 44.2415C35.329 44.2735 35.875 44.8509 35.8429 45.4924C35.8108 46.2302 35.7786 47 35.7786 47.7378C35.7786 49.1812 35.8429 50.6887 36.0035 52.2284C36.0677 52.902 35.5217 53.4794 34.8151 53.5435C34.783 53.5114 34.7509 53.5114 34.7188 53.5114ZM276.305 45.4283C276.016 45.4283 275.694 45.3321 275.47 45.1396C273.575 43.7283 271.583 42.349 269.496 40.9697C268.918 40.5848 268.757 39.815 269.207 39.3018C269.624 38.7565 270.459 38.6602 271.07 39.0452C273.189 40.4565 275.245 41.8678 277.172 43.3113C277.75 43.7282 277.814 44.4981 277.365 45.0113C277.075 45.2679 276.69 45.4283 276.305 45.4283ZM35.5538 39.815C35.4575 39.815 35.3611 39.815 35.2648 39.7829C34.5582 39.6225 34.1085 39.0131 34.2691 38.3395C34.8472 36.0621 35.6181 33.7847 36.6458 31.5714C36.9349 30.962 37.7057 30.6733 38.3801 30.9299C39.0546 31.1865 39.3758 31.8922 39.1188 32.5016C38.1874 34.5866 37.4166 36.7357 36.9027 38.8848C36.71 39.4301 36.164 39.815 35.5538 39.815ZM263.972 37.313C263.715 37.313 263.49 37.2489 263.265 37.1206C261.21 35.9017 259.058 34.7149 256.906 33.5922L256.81 33.5602C256.167 33.2394 255.942 32.5016 256.328 31.9243C256.681 31.3469 257.516 31.1545 258.126 31.4752L258.223 31.5394C260.407 32.6941 262.591 33.8809 264.678 35.1319C265.288 35.4847 265.481 36.2225 265.064 36.7998C264.839 37.1206 264.421 37.313 263.972 37.313ZM250.804 30.3846C250.611 30.3846 250.386 30.3526 250.193 30.2563C247.977 29.2299 245.697 28.2035 243.417 27.2091C242.742 26.9204 242.485 26.2147 242.774 25.6053C243.095 24.9959 243.866 24.7393 244.541 25.0279C246.885 26.0223 249.198 27.0808 251.414 28.1072C252.056 28.428 252.313 29.1337 251.96 29.711C251.735 30.128 251.285 30.3846 250.804 30.3846ZM41.4313 27.145C41.1743 27.145 40.9174 27.0808 40.6926 26.9525C40.0823 26.5997 39.9218 25.8298 40.3393 25.2845C41.7846 23.36 43.4547 21.4996 45.3175 19.7675C45.8313 19.2863 46.6664 19.2863 47.1803 19.7675C47.6941 20.2165 47.6941 20.9864 47.1803 21.4675C45.4138 23.0713 43.8722 24.8034 42.5233 26.6317C42.2663 26.9525 41.8488 27.145 41.4313 27.145ZM237.025 24.4826C236.865 24.4826 236.672 24.4506 236.511 24.3864C234.231 23.4883 231.854 22.6222 229.478 21.7883C228.803 21.5637 228.45 20.8581 228.707 20.2486C228.964 19.6392 229.735 19.3184 230.409 19.575C232.818 20.409 235.195 21.3071 237.507 22.2052C238.182 22.4619 238.503 23.1675 238.214 23.777C238.021 24.194 237.539 24.4826 237.025 24.4826ZM222.797 19.4788C222.637 19.4788 222.508 19.4467 222.348 19.4146C220.003 18.6769 217.594 17.9391 215.153 17.2335C214.447 17.041 214.061 16.3674 214.286 15.7259C214.511 15.0844 215.25 14.7315 215.956 14.9561C218.397 15.6617 220.87 16.3995 223.215 17.1693C223.921 17.3938 224.275 18.0674 224.018 18.709C223.857 19.158 223.343 19.4788 222.797 19.4788ZM52.03 17.3297C51.6124 17.3297 51.227 17.1693 50.9701 16.8486C50.5526 16.3033 50.681 15.5655 51.2592 15.1806C53.2825 13.8334 55.4986 12.5824 57.8753 11.4277C58.5176 11.1069 59.3206 11.3315 59.6739 11.9088C60.0272 12.4862 59.7702 13.224 59.1279 13.5447C56.8797 14.6353 54.7599 15.8542 52.8329 17.1372C52.576 17.2655 52.2869 17.3297 52.03 17.3297ZM208.248 15.3089C208.12 15.3089 207.991 15.3089 207.895 15.2768C205.486 14.6674 203.045 14.0579 200.572 13.4806C199.866 13.3202 199.448 12.6466 199.609 12.0051C199.801 11.3636 200.508 10.9786 201.215 11.139C203.688 11.7164 206.193 12.3258 208.602 12.9674C209.308 13.1598 209.726 13.8013 209.501 14.4429C209.372 14.9561 208.826 15.3089 208.248 15.3089ZM193.474 11.8447C193.378 11.8447 193.282 11.8447 193.185 11.8126C190.744 11.2994 188.271 10.8183 185.766 10.3371C185.06 10.2088 184.578 9.5673 184.738 8.92578C184.899 8.28426 185.606 7.86727 186.312 7.99557C188.817 8.47671 191.355 8.95785 193.795 9.47107C194.502 9.63145 194.952 10.273 194.791 10.9145C194.631 11.4598 194.085 11.8447 193.474 11.8447ZM65.3907 10.722C64.8769 10.722 64.363 10.4333 64.1703 9.98428C63.8812 9.37484 64.2024 8.66917 64.909 8.41256C65.7761 8.0918 66.6754 7.77104 67.5426 7.48235C69.0521 6.96914 70.5937 6.488 72.1996 6.07101C72.9062 5.87855 73.6449 6.23139 73.8697 6.87291C74.0945 7.51443 73.7091 8.18803 73.0025 8.38048C71.4609 8.79747 69.9514 9.27861 68.5061 9.75975C67.6389 10.0484 66.7718 10.3692 65.9367 10.6579C65.7119 10.722 65.5513 10.722 65.3907 10.722ZM178.54 9.022C178.476 9.022 178.379 9.022 178.283 8.98993C175.81 8.57294 173.305 8.18803 170.8 7.83519C170.061 7.73896 169.579 7.12952 169.708 6.45592C169.836 5.8144 170.51 5.36534 171.217 5.46157C173.722 5.8144 176.259 6.23139 178.765 6.64838C179.471 6.77668 179.953 7.38613 179.824 8.05972C179.728 8.63709 179.182 9.022 178.54 9.022ZM163.477 6.84083C163.413 6.84083 163.348 6.84083 163.284 6.84083C160.779 6.52007 158.242 6.23139 155.737 5.97478C154.998 5.91063 154.484 5.30119 154.58 4.65967C154.677 3.98607 155.319 3.537 156.058 3.60116C158.595 3.85777 161.132 4.14645 163.67 4.46721C164.408 4.56344 164.89 5.17288 164.794 5.8144C164.697 6.42385 164.151 6.84083 163.477 6.84083ZM79.9398 6.64838C79.3296 6.64838 78.7836 6.26347 78.6552 5.71817C78.4946 5.07665 78.9442 4.43513 79.6508 4.27475C82.0917 3.76154 84.6611 3.31247 87.2305 2.95964C87.9692 2.86341 88.6436 3.31247 88.74 3.95399C88.8684 4.59551 88.3546 5.23703 87.648 5.33326C85.1428 5.6861 82.6377 6.13516 80.2289 6.6163C80.1326 6.6163 80.0362 6.64838 79.9398 6.64838ZM148.317 5.26911C148.285 5.26911 148.221 5.26911 148.189 5.26911C145.684 5.04458 143.147 4.8842 140.609 4.72382C139.871 4.69174 139.325 4.11437 139.389 3.44078C139.453 2.76718 140.063 2.28604 140.802 2.31812C143.339 2.4785 145.909 2.67095 148.446 2.89548C149.185 2.95964 149.699 3.537 149.634 4.2106C149.602 4.82005 149.024 5.26911 148.317 5.26911ZM95.0028 4.46721C94.2963 4.46721 93.7182 3.98607 93.686 3.34455C93.6539 2.67095 94.1999 2.12566 94.9386 2.06151C97.4759 1.9332 100.045 1.8049 102.583 1.74075C103.321 1.70867 103.931 2.22189 103.964 2.89548C103.996 3.56908 103.418 4.11437 102.679 4.14645C100.142 4.24268 97.6043 4.33891 95.0992 4.46721C95.035 4.46721 95.0028 4.46721 95.0028 4.46721ZM133.126 4.30683C133.094 4.30683 133.094 4.30683 133.062 4.30683C130.557 4.2106 127.987 4.11437 125.482 4.05022C124.743 4.01815 124.165 3.47285 124.197 2.83133C124.23 2.18981 124.808 1.6766 125.514 1.6766H125.546C128.084 1.74075 130.653 1.83698 133.19 1.9332C133.929 1.96528 134.475 2.54265 134.443 3.18417C134.411 3.79361 133.833 4.30683 133.126 4.30683ZM110.226 3.95399C109.52 3.95399 108.91 3.44078 108.91 2.76718C108.91 2.09358 109.488 1.54829 110.226 1.54829C112.796 1.51622 115.365 1.48414 117.87 1.51622C118.609 1.51622 119.187 2.06151 119.187 2.7351C119.187 3.4087 118.577 3.92192 117.87 3.92192C115.333 3.92192 112.796 3.92192 110.226 3.95399C110.259 3.95399 110.259 3.95399 110.226 3.95399Z" fill="#D90429"/>
<path d="M47.7262 35.4206C56.2052 17.2014 87.3268 13.5769 94.9064 12.8712C131.295 10.8825 160.65 14.3788 180.37 17.875C244.637 29.262 273.896 52.453 282.15 63.423C285.811 68.2665 294.065 79.4931 291.303 92.3235C291.143 93.0612 290.95 93.799 290.629 94.6329C283.724 112.596 254.369 125.907 254.369 125.907C215.089 143.068 171.763 172.289 148.253 190.957C138.072 199.072 98.2466 226.722 67.5747 211.197C52.8971 203.788 43.4546 188.102 42.6517 174.502C42.0736 164.815 45.735 154.038 47.7905 148.04C50.2956 140.694 51.9015 137.134 54.2139 132.322C59.449 121.481 62.7892 118.69 62.9819 109.677C63.3031 96.8462 56.7833 84.7856 51.5803 72.8533C43.5831 54.4417 43.7437 44.0491 47.7262 35.4206Z" fill="#EAEDEF"/>
<path d="M14.5812 152.626C6.55192 152.626 0 146.115 0 138.064C0 130.013 6.55192 123.501 14.5812 123.501C22.6427 123.501 29.1625 130.045 29.1625 138.064C29.1946 146.115 22.6427 152.626 14.5812 152.626ZM14.5812 128.152C9.1213 128.152 4.657 132.611 4.657 138.064C4.657 143.517 9.08918 147.975 14.5812 147.975C20.0412 147.975 24.5055 143.517 24.5055 138.064C24.5055 132.611 20.0733 128.152 14.5812 128.152Z" fill="#D90429"/>
<path d="M243.095 26.0224C242.999 26.0224 242.903 26.0224 242.806 26.0224C240.494 25.862 238.695 23.9054 238.695 21.5317V20.3449C238.695 19.4789 237.989 18.7732 237.122 18.7732H235.837C234.616 18.7732 233.46 18.26 232.625 17.3939C231.79 16.4958 231.373 15.3411 231.437 14.0901C231.597 11.7806 233.557 9.98437 235.933 9.98437H237.122C237.989 9.98437 238.695 9.2787 238.695 8.41265V7.12961C238.695 5.91072 239.209 4.75598 240.076 3.92201C240.976 3.08803 242.164 2.67104 243.384 2.73519C245.697 2.89557 247.495 4.85221 247.495 7.22584V8.38057C247.495 9.24663 248.202 9.9523 249.069 9.9523H250.258C252.634 9.9523 254.593 11.7486 254.754 14.058C254.818 15.2769 254.401 16.4637 253.566 17.3619C252.731 18.26 251.574 18.7411 250.354 18.7411H249.069C248.202 18.7411 247.495 19.4468 247.495 20.3129V21.5959C247.495 22.8148 246.982 23.9695 246.114 24.8035C245.279 25.6054 244.22 26.0224 243.095 26.0224ZM235.933 12.7429C235.034 12.7429 234.263 13.4165 234.231 14.2505C234.199 14.6995 234.36 15.1165 234.649 15.4694C234.97 15.7901 235.387 15.9826 235.837 15.9826H237.122C239.53 15.9826 241.49 17.9392 241.49 20.3449V21.5317C241.49 22.4299 242.164 23.1997 242.999 23.2318C243.449 23.2638 243.866 23.1035 244.22 22.8148C244.541 22.494 244.733 22.077 244.733 21.628V20.3449C244.733 17.9392 246.693 15.9826 249.101 15.9826H250.386C250.836 15.9826 251.253 15.7901 251.574 15.4694C251.896 15.1486 252.024 14.6995 251.992 14.2505C251.928 13.4165 251.157 12.7429 250.29 12.7429H249.101C246.693 12.7429 244.733 10.7863 244.733 8.38057V7.19376C244.733 6.29563 244.059 5.52581 243.224 5.49373C242.774 5.46166 242.357 5.62204 242.003 5.91072C241.682 6.23148 241.49 6.64847 241.49 7.09753V8.38057C241.49 10.7863 239.53 12.7429 237.122 12.7429H235.933Z" fill="#EAEDEF"/>
<path d="M181.591 225.599C180.338 225.599 179.15 225.118 178.251 224.22L172.887 218.863C171.056 217.035 171.056 214.052 172.887 212.224L178.251 206.867C179.15 205.969 180.306 205.488 181.591 205.488C182.843 205.488 184.032 205.969 184.931 206.867L190.295 212.224C192.125 214.052 192.125 217.035 190.295 218.863L184.931 224.22C184.032 225.118 182.843 225.599 181.591 225.599ZM181.591 208.92C181.238 208.92 180.916 209.048 180.659 209.305L175.328 214.629C174.814 215.143 174.814 215.944 175.328 216.458L180.692 221.814C181.173 222.296 182.041 222.296 182.522 221.814L187.886 216.458C188.4 215.944 188.4 215.143 187.886 214.629L182.522 209.273C182.265 209.048 181.944 208.92 181.591 208.92Z" fill="#EAEDEF"/>
<path d="M309 149.034C309 152.594 306.109 155.481 302.544 155.481C298.979 155.481 296.089 152.594 296.089 149.034C296.089 145.474 298.979 142.587 302.544 142.587C306.109 142.587 309 145.474 309 149.034Z" fill="#D90429"/>
<path d="M13.3287 44.7868L10.1169 47.9944L6.9052 44.7868C5.84533 43.7283 4.17524 43.7283 3.11537 44.7868C2.0555 45.8453 2.0555 47.5133 3.11537 48.5718L6.32709 51.7794L3.11537 54.987C2.0555 56.0455 2.0555 57.7134 3.11537 58.772C4.17524 59.8305 5.84533 59.8305 6.9052 58.772L10.1169 55.5643L13.3287 58.772C14.3885 59.8305 16.0586 59.8305 17.1185 58.772C18.1784 57.7134 18.1784 56.0455 17.1185 54.987L13.9068 51.7794L17.1185 48.5718C18.1784 47.5133 18.1784 45.8453 17.1185 44.7868C16.0907 43.7604 14.3885 43.7604 13.3287 44.7868Z" fill="#EAEDEF"/>
<path d="M38.9261 219.312C39.5363 219.312 39.5363 218.35 38.9261 218.35C38.3158 218.35 38.3158 219.312 38.9261 219.312Z" fill="url(#paint0_linear)"/>
<g opacity="0.5">
<g opacity="0.5">
<path opacity="0.5" d="M177.03 30.8977L190.07 30.7694L190.23 46.3583L177.159 46.4546L177.03 30.8977Z" fill="url(#paint1_linear)"/>
</g>
<path opacity="0.5" d="M189.881 31.0987L177.259 31.2131L177.395 46.1285L190.017 46.0141L189.881 31.0987Z" fill="#202131"/>
<path opacity="0.5" d="M183.679 40.4885C184.956 40.4885 185.991 39.4545 185.991 38.179C185.991 36.9035 184.956 35.8695 183.679 35.8695C182.401 35.8695 181.366 36.9035 181.366 38.179C181.366 39.4545 182.401 40.4885 183.679 40.4885Z" fill="white"/>
<path opacity="0.5" d="M183.705 41.0993C184.876 41.0887 185.817 40.1323 185.806 38.9631C185.795 37.7939 184.838 36.8547 183.667 36.8653C182.496 36.8759 181.556 37.8323 181.566 39.0015C181.577 40.1707 182.535 41.11 183.705 41.0993Z" fill="white"/>
<path opacity="0.5" d="M184.192 40.229L183.197 40.238L183.212 41.9381L184.208 41.929L184.192 40.229Z" fill="white"/>
<path opacity="0.5" d="M183.839 41.2903C185.188 41.2903 186.28 42.3488 186.28 43.696L186.312 45.9092L181.462 45.9734L181.43 43.7601C181.43 42.3809 182.522 41.2903 183.839 41.2903Z" fill="white"/>
<path opacity="0.5" d="M183.662 36.7049C184.123 36.7008 184.493 36.324 184.489 35.8634C184.485 35.4028 184.108 35.0328 183.646 35.037C183.185 35.0412 182.815 35.4179 182.819 35.8785C182.823 36.3391 183.2 36.7091 183.662 36.7049Z" fill="white"/>
<path opacity="0.5" d="M183.935 34.5224C184.385 34.4582 184.835 34.5544 185.252 34.7469C185.638 34.8752 185.991 35.0356 186.28 35.2922C186.826 35.8054 186.922 36.6073 186.954 37.345C186.987 38.0828 186.922 38.8526 187.276 39.5262C187.661 40.264 188.432 40.713 189.267 40.681C188.753 40.9696 188.143 41.0017 187.629 40.7451C187.179 40.5206 186.762 40.1998 186.505 39.7508C186.344 39.4621 186.216 39.1413 186.119 38.8205C185.766 37.8583 185.284 36.9281 184.706 36.0941C184.61 35.9658 184.514 35.8375 184.385 35.7092C184.192 35.5809 184 35.4846 183.775 35.4846C183.582 35.4526 183.293 35.5488 183.165 35.3563C182.94 34.9714 183.646 34.5544 183.935 34.5224Z" fill="white"/>
</g>
<g opacity="0.5">
<g opacity="0.5">
<path opacity="0.5" d="M121.532 30.3203L134.957 30.192L135.117 45.813L121.66 45.9413L121.532 30.3203Z" fill="url(#paint2_linear)"/>
</g>
<path opacity="0.5" d="M134.732 30.4879L121.788 30.6052L121.927 45.9055L134.871 45.7882L134.732 30.4879Z" fill="#202131"/>
<path opacity="0.5" d="M128.212 40.1677C129.525 40.1677 130.589 39.1049 130.589 37.794C130.589 36.4831 129.525 35.4204 128.212 35.4204C126.899 35.4204 125.835 36.4831 125.835 37.794C125.835 39.1049 126.899 40.1677 128.212 40.1677Z" fill="white"/>
<path opacity="0.5" d="M128.244 40.745C129.45 40.745 130.428 39.7685 130.428 38.5639C130.428 37.3592 129.45 36.3827 128.244 36.3827C127.038 36.3827 126.06 37.3592 126.06 38.5639C126.06 39.7685 127.038 40.745 128.244 40.745Z" fill="white"/>
<path opacity="0.5" d="M128.788 39.8758L127.76 39.8851L127.776 41.6172L128.803 41.6079L128.788 39.8758Z" fill="white"/>
<path opacity="0.5" d="M128.373 41.0979C129.754 41.0979 130.878 42.1885 130.878 43.5678L130.91 45.8452L125.932 45.8772L125.9 43.5998C125.867 42.2526 126.992 41.13 128.373 41.0979Z" fill="white"/>
<path opacity="0.5" d="M126.542 36.062C126.542 36.062 127.987 35.1959 128.276 34.2336C128.694 35.0997 129.272 35.8695 129.946 36.5431L126.542 36.062Z" fill="white"/>
</g>
<path d="M111.896 148.039H57.0723V201.67H111.896V148.039Z" fill="url(#paint3_linear)"/>
<path d="M111.64 148.456H57.3614V201.285H111.64V148.456Z" fill="white"/>
<path d="M106.083 152.851H62.8534V186.37H106.083V152.851Z" fill="#3299D9"/>
<path d="M103.674 189.931H65.487V191.695H103.674V189.931Z" fill="#202131"/>
<path d="M97.6043 193.459H71.5893V195.223H97.6043V193.459Z" fill="#202131"/>
<g opacity="0.5">
<path opacity="0.5" d="M164.954 62.8455H145.62V84.8175H164.954V62.8455Z" fill="url(#paint4_linear)"/>
</g>
<path d="M164.569 63.134H146.23V84.8174H164.569V63.134Z" fill="#3299D9"/>
<path d="M155.19 76.7344C157.053 76.7344 158.563 75.2265 158.563 73.3664C158.563 71.5063 157.053 69.9984 155.19 69.9984C153.328 69.9984 151.818 71.5063 151.818 73.3664C151.818 75.2265 153.328 76.7344 155.19 76.7344Z" fill="white"/>
<path d="M155.191 77.5684C156.893 77.5684 158.274 76.1897 158.274 74.4891C158.274 72.7884 156.893 71.4098 155.191 71.4098C153.488 71.4098 152.107 72.7884 152.107 74.4891C152.107 76.1897 153.488 77.5684 155.191 77.5684Z" fill="white"/>
<path d="M155.897 76.3174H154.452V78.7872H155.897V76.3174Z" fill="white"/>
<path d="M154.837 78.0815H155.865C157.535 78.0815 158.884 79.4287 158.884 81.0967V84.8175H151.818V81.0967C151.786 79.4287 153.167 78.0815 154.837 78.0815Z" fill="white"/>
<path d="M153.585 69.774C153.36 69.9023 153.167 69.9985 152.942 70.1268C152.75 70.223 152.589 70.3513 152.493 70.5438C152.461 70.6079 152.428 70.6721 152.396 70.7362C152.3 70.8325 152.139 70.8325 152.011 70.8646C151.561 70.9608 151.304 71.474 151.208 71.9231C151.144 72.1797 151.079 72.4684 151.047 72.725C151.015 72.8853 151.015 73.0778 151.079 73.2703C151.112 73.3344 151.144 73.3986 151.176 73.4948C151.272 73.7835 151.015 74.0401 150.951 74.3288C150.919 74.5854 150.951 74.842 151.079 75.0665C151.112 75.1307 151.144 75.2269 151.176 75.2911C151.208 75.3552 151.24 75.3873 151.304 75.4194C151.401 75.5156 151.497 75.6439 151.529 75.7722C152.011 75.8684 152.493 75.9967 152.974 76.1571C153.713 76.4458 154.484 76.8628 155.287 76.8307C155.512 76.8307 155.736 76.7665 155.929 76.7024C156.347 76.542 156.668 76.2854 157.085 76.1571C157.471 76.0609 157.856 75.9967 158.242 75.9646C158.434 75.9326 158.659 75.8043 158.595 75.6118C158.788 75.676 159.012 75.6439 159.141 75.5156C159.301 75.3873 159.398 75.2269 159.494 75.0344C159.655 74.7458 159.783 74.425 159.88 74.0722C160.04 73.4306 159.944 72.757 159.623 72.1797C159.558 72.0514 159.494 71.9551 159.398 71.891C159.334 71.8268 159.237 71.7948 159.173 71.7627C159.109 71.6985 159.045 71.6344 158.98 71.5381C158.723 71.1212 158.466 70.7042 158.177 70.3193C157.888 69.9343 157.567 69.5174 157.118 69.357C156.443 69.1004 155.961 69.5174 155.319 69.5494C155.03 69.5494 154.805 69.4532 154.484 69.5174C154.131 69.5174 153.842 69.6136 153.585 69.774Z" fill="white"/>
<g opacity="0.5">
<path opacity="0.5" d="M127.024 38.1469H110.483V56.9434H127.024V38.1469Z" fill="url(#paint5_linear)"/>
</g>
<path d="M126.67 38.4034H110.997V56.9434H126.67V38.4034Z" fill="#3299D9"/>
<path d="M118.673 50.0471C120.27 50.0471 121.564 48.7546 121.564 47.1603C121.564 45.5659 120.27 44.2734 118.673 44.2734C117.077 44.2734 115.783 45.5659 115.783 47.1603C115.783 48.7546 117.077 50.0471 118.673 50.0471Z" fill="white"/>
<path d="M121.28 48.5307C121.513 47.0968 120.538 45.7458 119.103 45.513C117.667 45.2803 116.314 46.2541 116.081 47.688C115.848 49.1219 116.823 50.473 118.259 50.7057C119.695 50.9384 121.047 49.9646 121.28 48.5307Z" fill="white"/>
<path d="M119.283 49.6942H118.063V51.7792H119.283V49.6942Z" fill="white"/>
<path d="M118.802 51.1698C120.472 51.1698 121.821 52.517 121.821 54.185V56.9435H115.783V54.185C115.783 52.517 117.132 51.1698 118.802 51.1698Z" fill="white"/>
<path d="M117.324 44.081C117.132 44.1772 116.971 44.2735 116.778 44.4018C116.618 44.498 116.489 44.5942 116.393 44.7546C116.361 44.8188 116.329 44.8829 116.297 44.915C116.2 45.0112 116.072 45.0112 115.943 45.0433C115.558 45.1395 115.365 45.5565 115.237 45.9414C115.172 46.166 115.108 46.3905 115.076 46.6471C115.044 46.8075 115.044 46.9679 115.076 47.0962C115.108 47.1603 115.14 47.2245 115.172 47.2886C115.237 47.5131 115.044 47.7377 114.98 47.9943C114.948 48.2188 114.98 48.4434 115.076 48.6358C115.108 48.7 115.14 48.7641 115.172 48.8283C115.205 48.8603 115.237 48.9245 115.269 48.9566C115.365 49.0528 115.429 49.149 115.461 49.2773C115.879 49.3415 116.296 49.4698 116.682 49.6302C117.324 49.8868 117.967 50.2396 118.641 50.2075C118.834 50.2075 119.026 50.1755 119.187 50.0792C119.54 49.9509 119.829 49.7264 120.183 49.6302C120.504 49.566 120.825 49.5019 121.178 49.4698C121.339 49.4377 121.532 49.3094 121.467 49.1811C121.628 49.2453 121.789 49.2132 121.917 49.0849C122.045 48.9566 122.142 48.8283 122.206 48.6679C122.335 48.4113 122.463 48.1226 122.527 47.866C122.656 47.3207 122.591 46.7433 122.335 46.2622C122.302 46.166 122.206 46.0697 122.142 46.0056C122.078 45.9735 122.013 45.9414 121.949 45.8773C121.885 45.8131 121.821 45.749 121.789 45.6848C121.564 45.332 121.339 44.9791 121.082 44.6263C120.857 44.2735 120.568 43.9848 120.183 43.7923C119.605 43.5678 119.187 43.9206 118.641 43.9527C118.384 43.9527 118.191 43.8565 117.934 43.9206C117.742 43.8886 117.517 43.9527 117.324 44.081Z" fill="white"/>
<g opacity="0.5">
<path opacity="0.5" d="M227.358 64.1605L245.601 64.0001L245.825 85.7156L227.583 85.908L227.358 64.1605Z" fill="url(#paint6_linear)"/>
</g>
<path d="M245.291 64.629L227.658 64.7888L227.848 85.6382L245.48 85.4784L245.291 64.629Z" fill="#3299D9"/>
<path d="M236.608 77.793C238.399 77.793 239.852 76.3425 239.852 74.5533C239.852 72.7641 238.399 71.3136 236.608 71.3136C234.816 71.3136 233.364 72.7641 233.364 74.5533C233.364 76.3425 234.816 77.793 236.608 77.793Z" fill="white"/>
<path d="M236.644 78.598C238.276 78.5832 239.587 77.25 239.572 75.6202C239.558 73.9904 238.223 72.6812 236.591 72.696C234.959 72.7108 233.648 74.044 233.663 75.6738C233.678 77.3035 235.013 78.6128 236.644 78.598Z" fill="white"/>
<path d="M237.313 77.4051L235.932 77.4176L235.954 79.7912L237.335 79.7787L237.313 77.4051Z" fill="white"/>
<path d="M236.415 79.0759H237.154C238.824 79.0759 240.205 80.391 240.205 82.059L240.237 85.5232L233.428 85.5874L233.396 82.1231C233.396 80.4552 234.745 79.108 236.415 79.0759Z" fill="white"/>
<path d="M236.576 72.5003C237.232 72.5003 237.764 71.969 237.764 71.3135C237.764 70.6581 237.232 70.1267 236.576 70.1267C235.919 70.1267 235.387 70.6581 235.387 71.3135C235.387 71.969 235.919 72.5003 236.576 72.5003Z" fill="white"/>
<path d="M236.961 69.3889C237.571 69.2606 238.214 69.4852 238.824 69.6776C239.338 69.838 239.819 70.0946 240.237 70.4474C241.008 71.1531 241.168 72.3079 241.168 73.3343C241.168 74.3607 241.136 75.4513 241.586 76.3815C242.132 77.408 243.224 78.0495 244.38 78.0174C243.706 78.4665 242.806 78.4023 242.1 78.0816C241.457 77.7929 240.911 77.3117 240.558 76.6702C240.333 76.2532 240.141 75.8042 240.012 75.3551C239.498 74.0079 238.856 72.7248 238.021 71.538C237.892 71.3456 237.764 71.1852 237.571 71.0248C237.314 70.8324 237.025 70.7041 236.736 70.672C236.479 70.6399 236.03 70.7682 235.901 70.5116C235.58 70.0305 236.576 69.4852 236.961 69.3889Z" fill="white"/>
<g opacity="0.5">
<path opacity="0.5" d="M85.5925 48.0583L101.169 47.8979L101.362 66.502L85.753 66.6303L85.5925 48.0583Z" fill="url(#paint7_linear)"/>
</g>
<path d="M100.932 48.3451L85.8364 48.4819L85.9985 66.3162L101.094 66.1794L100.932 48.3451Z" fill="#3299D9"/>
<path d="M93.5224 59.608C95.0656 59.594 96.3052 58.3333 96.2912 56.7921C96.2772 55.2509 95.0149 54.0128 93.4717 54.0268C91.9285 54.0408 90.6888 55.3015 90.7028 56.8427C90.7169 58.3839 91.9792 59.622 93.5224 59.608Z" fill="white"/>
<path d="M93.5201 60.2818C94.9214 60.2691 96.0471 59.1243 96.0344 57.7248C96.0217 56.3253 94.8754 55.2011 93.4741 55.2138C92.0728 55.2265 90.9471 56.3713 90.9599 57.7708C90.9726 59.1703 92.1189 60.2945 93.5201 60.2818Z" fill="white"/>
<path d="M94.0981 59.2502L92.9097 59.261L92.9281 61.2818L94.1164 61.271L94.0981 59.2502Z" fill="white"/>
<path d="M93.6539 60.6964C95.2597 60.6964 96.5765 61.9795 96.5765 63.5833L96.6087 66.2456L90.7954 66.3097L90.7633 63.6474C90.7633 62.0115 92.048 60.6964 93.6539 60.6964Z" fill="white"/>
<path d="M93.4611 55.051C94.011 55.051 94.4568 54.6058 94.4568 54.0566C94.4568 53.5074 94.011 53.0623 93.4611 53.0623C92.9112 53.0623 92.4655 53.5074 92.4655 54.0566C92.4655 54.6058 92.9112 55.051 93.4611 55.051Z" fill="white"/>
<path d="M93.7823 52.4207C94.3283 52.3245 94.8422 52.4849 95.3561 52.6773C95.8057 52.8056 96.2232 53.0302 96.5765 53.3509C97.2189 53.9604 97.3473 54.9227 97.3795 55.8208C97.4116 56.7189 97.3473 57.6491 97.7327 58.4189C98.1824 59.3171 99.1138 59.8303 100.109 59.7982C99.5313 60.1831 98.7605 60.151 98.1503 59.8624C97.6043 59.6057 97.1225 59.1888 96.8335 58.6755C96.6408 58.3227 96.4802 57.9378 96.3838 57.5529C95.9663 56.3982 95.3882 55.3076 94.6816 54.2811C94.5852 54.1208 94.4568 53.9604 94.2962 53.8321C94.0714 53.6717 93.8466 53.5755 93.5575 53.5434C93.3327 53.5113 92.9794 53.6075 92.8509 53.4151C92.594 52.966 93.4612 52.4849 93.7823 52.4207Z" fill="white"/>
<g opacity="0.5">
<path opacity="0.5" d="M58.0679 66.0209L76.8565 65.8605L77.0492 87.6722L58.2606 87.8646L58.0679 66.0209Z" fill="url(#paint8_linear)"/>
</g>
<path d="M76.5372 66.295L58.4552 66.4589L58.6497 87.8536L76.7317 87.6897L76.5372 66.295Z" fill="#3299D9"/>
<path d="M67.4793 79.8167C69.3241 79.8 70.806 78.2929 70.7892 76.4505C70.7725 74.6082 69.2635 73.1282 67.4187 73.1449C65.574 73.1616 64.0921 74.6687 64.1088 76.5111C64.1256 78.3535 65.6346 79.8334 67.4793 79.8167Z" fill="white"/>
<path d="M67.4763 80.5866C69.1436 80.5714 70.483 79.2093 70.4679 77.544C70.4527 75.8788 69.0888 74.5411 67.4215 74.5563C65.7541 74.5714 64.4147 75.9335 64.4298 77.5988C64.445 79.264 65.8089 80.6017 67.4763 80.5866Z" fill="white"/>
<path d="M68.1766 79.3936L66.7635 79.4064L66.7856 81.8442L68.1988 81.8314L68.1766 79.3936Z" fill="white"/>
<path d="M67.1571 81.0967H68.0885C69.7586 81.0967 71.1397 82.4118 71.1397 84.0798L71.1718 87.7043L64.2024 87.7685L64.1702 84.1439C64.1702 82.508 65.487 81.1288 67.1571 81.0967Z" fill="white"/>
<path d="M65.1016 74.0721C65.1016 74.0721 67.125 72.8532 67.5104 71.5381C67.5104 71.5381 68.4418 73.4626 69.855 74.7457L65.1016 74.0721Z" fill="white"/>
<path d="M84.235 172.713C87.4101 172.684 89.9607 170.09 89.9319 166.919C89.903 163.748 87.3058 161.201 84.1307 161.23C80.9556 161.258 78.4051 163.852 78.4339 167.023C78.4627 170.194 81.06 172.742 84.235 172.713Z" fill="white"/>
<path d="M84.2623 174.092C87.1536 174.066 89.4762 171.704 89.4499 168.816C89.4237 165.928 87.0586 163.609 84.1673 163.635C81.276 163.661 78.9535 166.023 78.9797 168.911C79.0059 171.798 81.3711 174.118 84.2623 174.092Z" fill="white"/>
<path d="M85.4484 171.996L83.0075 172.018L83.0454 176.188L85.4863 176.166L85.4484 171.996Z" fill="white"/>
<path d="M84.3398 174.951H84.6931C87.9049 174.919 90.5706 177.517 90.5706 180.725L90.6348 186.402L78.5909 186.498L78.5266 180.821C78.5266 177.645 81.096 175.015 84.3398 174.951Z" fill="white"/>
<path d="M80.1325 162.794C80.1325 162.794 83.6012 160.677 84.2756 158.4C84.2756 158.4 85.8815 161.704 88.3545 163.949L80.1325 162.794Z" fill="white"/>
<g opacity="0.5">
<path opacity="0.5" d="M184.963 39.0452L200.604 38.9169L200.765 56.7832L185.124 56.9436L184.963 39.0452Z" fill="url(#paint9_linear)"/>
</g>
<path d="M200.372 39.2672L185.277 39.4041L185.436 56.9176L200.531 56.7807L200.372 39.2672Z" fill="#3299D9"/>
<path d="M192.8 50.3376C194.344 50.3236 195.584 49.0916 195.57 47.5858C195.556 46.0801 194.294 44.8707 192.751 44.8847C191.208 44.8987 189.968 46.1307 189.981 47.6365C189.995 49.1423 191.257 50.3516 192.8 50.3376Z" fill="white"/>
<path d="M192.798 50.9793C194.199 50.9666 195.325 49.8505 195.313 48.4865C195.3 47.1224 194.154 46.0269 192.753 46.0396C191.352 46.0523 190.226 47.1684 190.238 48.5325C190.251 49.8965 191.397 50.992 192.798 50.9793Z" fill="white"/>
<path d="M193.423 49.8463L192.234 49.8582L192.254 51.8467L193.443 51.8348L193.423 49.8463Z" fill="white"/>
<path d="M192.928 51.3943C194.534 51.3943 195.851 52.6773 195.851 54.2811L195.883 56.8472L190.07 56.9114L190.038 54.3453C190.038 52.7415 191.322 51.4264 192.928 51.3943Z" fill="white"/>
<path d="M190.808 45.6206C190.808 45.6206 192.479 44.6262 192.8 43.5356C193.314 44.4979 193.956 45.3961 194.759 46.1659L190.808 45.6206Z" fill="white"/>
<g opacity="0.5">
<path opacity="0.5" d="M140.095 112.628V113.045L149.217 128.858V138.256L155.897 141.817V141.624V128.858L164.954 113.045V112.628H140.095Z" fill="url(#paint10_linear)"/>
</g>
<path d="M164.537 112.852H140.352V113.269H164.537V112.852Z" fill="#CFD8DC"/>
<path opacity="0.1" d="M164.537 112.852H140.352V113.269H164.537V112.852Z" fill="black"/>
<path d="M140.352 113.269L149.217 128.826V138.096L155.736 141.4V128.826L164.537 113.269H140.352Z" fill="#202131"/>
<path opacity="0.2" d="M149.634 138.096V128.826L140.77 113.269H140.352L149.217 128.826V138.096H149.634Z" fill="white"/>
<path d="M149.217 138.096L155.737 141.624V141.4L149.634 138.096H149.217Z" fill="#CFD8DC"/>
<path opacity="0.1" d="M149.217 138.096L155.737 141.624V141.4L149.634 138.096H149.217Z" fill="black"/>
<path d="M255.268 147.27H200.444V200.901H255.268V147.27Z" fill="url(#paint11_linear)"/>
<path d="M254.979 147.687H200.701V200.516H254.979V147.687Z" fill="white"/>
<path d="M249.455 152.081H206.225V185.6H249.455V152.081Z" fill="#3299D9"/>
<path d="M247.463 190.315H209.276V192.08H247.463V190.315Z" fill="#202131"/>
<path d="M241.393 193.812H215.378V195.576H241.393V193.812Z" fill="#202131"/>
<path d="M183.582 147.109H128.373V201.125H183.582V147.109Z" fill="url(#paint12_linear)"/>
<path d="M183.325 147.494H128.662V200.708H183.325V147.494Z" fill="white"/>
<path d="M177.769 151.921H134.218V185.697H177.769V151.921Z" fill="#3299D9"/>
<path d="M174.268 189.738H135.824V191.502H174.268V189.738Z" fill="#202131"/>
<path d="M168.134 193.266H141.958V195.031H168.134V193.266Z" fill="#202131"/>
<path d="M66.8039 91.9064C66.8039 91.9064 66.579 117.535 89.2217 112.692C111.896 107.848 112.571 99.9895 138.457 110.158" stroke="#202131" stroke-width="2" stroke-miterlimit="10" stroke-dasharray="12 12"/>
<path d="M236.511 89.5969C236.511 89.5969 236.736 115.226 214.094 110.382C191.419 105.539 190.744 97.6801 164.858 107.848" stroke="#202131" stroke-width="2" stroke-miterlimit="10" stroke-dasharray="12 12"/>
<path d="M155.126 89.5969C155.126 89.5969 152.107 96.7499 156.507 100.214C160.907 103.678 156.058 111.056 156.058 111.056" stroke="#202131" stroke-width="2" stroke-miterlimit="10" stroke-dasharray="12 12"/>
<path d="M93.4933 71.4098C93.4933 71.4098 96.9619 88.2818 113.856 88.2818C130.749 88.2818 145.523 107.207 142.279 109.516" stroke="#202131" stroke-width="2" stroke-miterlimit="10" stroke-dasharray="12 12"/>
<path d="M117.999 61.9474C117.999 61.9474 113.567 70.0947 118.448 78.4345C120.793 82.3477 124.583 85.2025 129.015 86.3893C139.485 89.2441 144.078 87.929 150.855 105.122" stroke="#202131" stroke-width="2" stroke-miterlimit="10" stroke-dasharray="12 12"/>
<path d="M192.703 62.3965C192.703 62.3965 196.268 66.7268 189.62 75.8363C186.987 79.4289 183.325 82.1232 179.15 83.6629C172.437 86.1648 165.886 93.3498 165.886 103.967" stroke="#202131" stroke-width="2" stroke-miterlimit="10" stroke-dasharray="12 12"/>
<g opacity="0.5">
<g opacity="0.5">
<path opacity="0.5" d="M162.642 26.4392H148.799V42.1565H162.642V26.4392Z" fill="url(#paint13_linear)"/>
</g>
<path opacity="0.5" d="M162.321 26.6637H149.217V42.1885H162.321V26.6637Z" fill="#202131"/>
<path opacity="0.5" d="M155.64 36.3828C156.97 36.3828 158.049 35.3057 158.049 33.9771C158.049 32.6485 156.97 31.5714 155.64 31.5714C154.31 31.5714 153.231 32.6485 153.231 33.9771C153.231 35.3057 154.31 36.3828 155.64 36.3828Z" fill="white"/>
<path opacity="0.5" d="M155.64 36.9602C156.846 36.9602 157.824 35.9837 157.824 34.7791C157.824 33.5744 156.846 32.5979 155.64 32.5979C154.434 32.5979 153.456 33.5744 153.456 34.7791C153.456 35.9837 154.434 36.9602 155.64 36.9602Z" fill="white"/>
<path opacity="0.5" d="M156.154 36.1262H155.126V37.8904H156.154V36.1262Z" fill="white"/>
<path opacity="0.5" d="M155.736 37.3451C157.118 37.3451 158.274 38.4678 158.274 39.8791V42.1886H153.231V39.8791C153.231 38.4998 154.355 37.3451 155.736 37.3451Z" fill="white"/>
<path opacity="0.5" d="M154.516 31.411C154.355 31.5072 154.195 31.5714 154.066 31.6676C153.938 31.7317 153.809 31.828 153.745 31.9563C153.713 32.0204 153.713 32.0525 153.681 32.1167C153.617 32.1808 153.488 32.1808 153.392 32.2129C153.071 32.277 152.91 32.6299 152.814 32.9506C152.75 33.1431 152.717 33.3356 152.685 33.528C152.653 33.6563 152.653 33.7846 152.685 33.9129C152.717 33.9771 152.75 34.0091 152.75 34.0733C152.814 34.2658 152.653 34.4582 152.589 34.6507C152.557 34.8431 152.589 35.0356 152.685 35.196C152.717 35.2601 152.717 35.2922 152.75 35.3563C152.782 35.3884 152.814 35.4205 152.846 35.4526C152.91 35.5167 152.974 35.6129 153.007 35.7092C153.36 35.7733 153.713 35.8696 154.034 35.9979C154.58 36.2224 155.094 36.5111 155.672 36.479C155.833 36.479 155.993 36.4469 156.122 36.3828C156.411 36.2865 156.668 36.0941 156.957 35.9979C157.214 35.9337 157.503 35.9016 157.792 35.8696C157.92 35.8375 158.081 35.7413 158.049 35.6129C158.177 35.6771 158.338 35.645 158.434 35.5488C158.531 35.4526 158.627 35.3243 158.659 35.196C158.788 34.9714 158.884 34.7469 158.948 34.5224C159.045 34.0733 159.012 33.5922 158.788 33.1752C158.755 33.0789 158.691 33.0148 158.627 32.9506C158.563 32.9186 158.499 32.8865 158.466 32.8544C158.402 32.8223 158.37 32.7582 158.338 32.694C158.145 32.3733 157.953 32.0846 157.76 31.828C157.567 31.5393 157.31 31.2827 156.989 31.1223C156.507 30.9299 156.154 31.2185 155.704 31.2506C155.512 31.2185 155.319 31.2185 155.094 31.2185C154.869 31.2506 154.677 31.3148 154.516 31.411Z" fill="white"/>
</g>
<g opacity="0.5">
<g opacity="0.5">
<path opacity="0.5" d="M228.996 42.8622H215.153V58.5794H228.996V42.8622Z" fill="url(#paint14_linear)"/>
</g>
<path opacity="0.5" d="M228.675 43.0546H215.571V58.5794H228.675V43.0546Z" fill="#202131"/>
<path opacity="0.5" d="M221.994 52.7736C223.325 52.7736 224.403 51.6965 224.403 50.3679C224.403 49.0392 223.325 47.9622 221.994 47.9622C220.664 47.9622 219.586 49.0392 219.586 50.3679C219.586 51.6965 220.664 52.7736 221.994 52.7736Z" fill="white"/>
<path opacity="0.5" d="M221.994 53.3831C223.201 53.3831 224.178 52.4065 224.178 51.2019C224.178 49.9973 223.201 49.0208 221.994 49.0208C220.788 49.0208 219.81 49.9973 219.81 51.2019C219.81 52.4065 220.788 53.3831 221.994 53.3831Z" fill="white"/>
<path opacity="0.5" d="M222.508 52.517H221.48V54.2811H222.508V52.517Z" fill="white"/>
<path opacity="0.5" d="M222.123 53.7358C223.504 53.7358 224.66 54.8585 224.66 56.2699V58.5793H219.618V56.2699C219.586 54.8906 220.71 53.7358 222.123 53.7358Z" fill="white"/>
<path opacity="0.5" d="M220.87 47.8017C220.71 47.898 220.549 47.9621 220.421 48.0583C220.292 48.1225 220.164 48.2187 220.099 48.347C220.067 48.4112 220.067 48.4433 220.035 48.5074C219.971 48.5716 219.843 48.5716 219.746 48.6036C219.425 48.6678 219.264 49.0206 219.168 49.3414C219.104 49.5338 219.072 49.7263 219.04 49.9188C219.007 50.0471 219.007 50.1754 219.04 50.3037C219.072 50.3678 219.104 50.3999 219.104 50.4641C219.168 50.6565 219.007 50.849 218.943 51.0414C218.911 51.2339 218.943 51.4263 219.04 51.5867C219.072 51.6509 219.072 51.6829 219.104 51.7471C219.136 51.7792 219.168 51.8112 219.2 51.8433C219.264 51.9075 219.329 52.0037 219.361 52.0999C219.714 52.1641 220.067 52.2603 220.389 52.3886C220.934 52.6131 221.448 52.9018 222.026 52.8698C222.187 52.8698 222.348 52.8377 222.476 52.7735C222.765 52.6773 223.022 52.4848 223.311 52.3886C223.568 52.3245 223.857 52.2924 224.146 52.2603C224.275 52.2282 224.435 52.132 224.403 52.0037C224.532 52.0679 224.692 52.0358 224.789 51.9396C224.885 51.8433 224.981 51.715 225.013 51.5867C225.142 51.3622 225.238 51.1377 225.302 50.9131C225.399 50.4641 225.367 49.9829 225.142 49.5659C225.11 49.4697 225.045 49.4055 224.981 49.3414C224.917 49.3093 224.853 49.2772 224.821 49.2452C224.756 49.2131 224.724 49.1489 224.692 49.0848C224.499 48.764 224.307 48.4753 224.114 48.2187C223.921 47.93 223.664 47.6734 223.343 47.5131C222.862 47.3206 222.508 47.6093 222.059 47.6414C221.866 47.6093 221.673 47.6093 221.448 47.6093C221.224 47.6414 221.031 47.7055 220.87 47.8017Z" fill="white"/>
</g>
<path d="M155.223 172.802C158.238 172.802 160.683 170.361 160.683 167.349C160.683 164.337 158.238 161.896 155.223 161.896C152.207 161.896 149.763 164.337 149.763 167.349C149.763 170.361 152.207 172.802 155.223 172.802Z" fill="white"/>
<path d="M155.223 174.149C157.972 174.149 160.201 171.923 160.201 169.177C160.201 166.432 157.972 164.206 155.223 164.206C152.473 164.206 150.244 166.432 150.244 169.177C150.244 171.923 152.473 174.149 155.223 174.149Z" fill="white"/>
<path d="M156.399 172.157L154.087 172.178L154.123 176.156L156.436 176.135L156.399 172.157Z" fill="white"/>
<path d="M155.512 174.951C158.659 174.919 161.261 177.453 161.293 180.597L161.325 185.825L149.891 185.921L149.859 180.693C149.827 177.581 152.364 174.983 155.512 174.951Z" fill="white"/>
<path d="M155.287 163.757C156.387 163.757 157.278 162.866 157.278 161.768C157.278 160.67 156.387 159.779 155.287 159.779C154.187 159.779 153.296 160.67 153.296 161.768C153.296 162.866 154.187 163.757 155.287 163.757Z" fill="white"/>
<path d="M155.801 158.656C156.861 158.464 157.92 158.785 158.916 159.17C159.783 159.49 160.65 159.843 161.325 160.485C162.61 161.672 162.866 163.564 162.899 165.328C162.931 167.06 162.834 168.889 163.637 170.46C164.537 172.192 166.367 173.283 168.326 173.187C167.202 173.925 165.693 173.86 164.472 173.315C163.38 172.834 162.481 172 161.871 170.974C161.485 170.268 161.196 169.53 160.939 168.76C160.104 166.483 158.98 164.334 157.599 162.345C157.407 162.024 157.15 161.736 156.861 161.479C156.443 161.158 155.961 160.966 155.447 160.902C155.03 160.838 154.291 161.03 154.034 160.613C153.456 159.747 155.158 158.785 155.801 158.656Z" fill="white"/>
<path d="M229.06 173.123C231.987 173.123 234.359 170.753 234.359 167.83C234.359 164.907 231.987 162.538 229.06 162.538C226.133 162.538 223.761 164.907 223.761 167.83C223.761 170.753 226.133 173.123 229.06 173.123Z" fill="white"/>
<path d="M230.281 171.006H227.808V175.24H230.281V171.006Z" fill="white"/>
<path d="M229.06 174.021H229.574C232.786 174.021 235.419 176.619 235.419 179.859V185.697H223.215V179.891C223.215 176.619 225.816 174.021 229.06 174.021Z" fill="white"/>
<path d="M235.002 173.187C234.777 173.411 223.889 173.893 223.215 173.187C223.664 170.877 223.215 165.232 223.215 165.232C223.215 161.992 225.848 159.33 229.124 159.33C232.368 159.33 235.034 161.96 235.034 165.232C235.002 165.2 234.295 172.257 235.002 173.187Z" fill="white"/>
<defs>
<linearGradient id="paint0_linear" x1="38.4716" y1="218.833" x2="39.4023" y2="218.833" gradientUnits="userSpaceOnUse">
<stop stop-color="#FD1593"/>
<stop offset="1" stop-color="#FFFF33"/>
</linearGradient>
<linearGradient id="paint1_linear" x1="188.756" y1="46.6735" x2="177.954" y2="29.6732" gradientUnits="userSpaceOnUse">
<stop stop-color="#808080" stop-opacity="0.25"/>
<stop offset="0.54" stop-color="#808080" stop-opacity="0.12"/>
<stop offset="1" stop-color="#808080" stop-opacity="0.1"/>
</linearGradient>
<linearGradient id="paint2_linear" x1="124.439" y1="47.1" x2="132.221" y2="28.9835" gradientUnits="userSpaceOnUse">
<stop stop-color="#808080" stop-opacity="0.25"/>
<stop offset="0.54" stop-color="#808080" stop-opacity="0.12"/>
<stop offset="1" stop-color="#808080" stop-opacity="0.1"/>
</linearGradient>
<linearGradient id="paint3_linear" x1="84.4796" y1="201.679" x2="84.4796" y2="148.036" gradientUnits="userSpaceOnUse">
<stop stop-color="#808080" stop-opacity="0.25"/>
<stop offset="0.54" stop-color="#808080" stop-opacity="0.12"/>
<stop offset="1" stop-color="#808080" stop-opacity="0.1"/>
</linearGradient>
<linearGradient id="paint4_linear" x1="155.282" y1="84.8156" x2="155.282" y2="62.8368" gradientUnits="userSpaceOnUse">
<stop stop-color="#808080" stop-opacity="0.25"/>
<stop offset="0.54" stop-color="#808080" stop-opacity="0.12"/>
<stop offset="1" stop-color="#808080" stop-opacity="0.1"/>
</linearGradient>
<linearGradient id="paint5_linear" x1="118.756" y1="56.9414" x2="118.756" y2="38.147" gradientUnits="userSpaceOnUse">
<stop stop-color="#808080" stop-opacity="0.25"/>
<stop offset="0.54" stop-color="#808080" stop-opacity="0.12"/>
<stop offset="1" stop-color="#808080" stop-opacity="0.1"/>
</linearGradient>
<linearGradient id="paint6_linear" x1="244.113" y1="86.825" x2="229.116" y2="63.0719" gradientUnits="userSpaceOnUse">
<stop stop-color="#808080" stop-opacity="0.25"/>
<stop offset="0.54" stop-color="#808080" stop-opacity="0.12"/>
<stop offset="1" stop-color="#808080" stop-opacity="0.1"/>
</linearGradient>
<linearGradient id="paint7_linear" x1="99.8032" y1="67.1801" x2="86.8816" y2="46.885" gradientUnits="userSpaceOnUse">
<stop stop-color="#808080" stop-opacity="0.25"/>
<stop offset="0.54" stop-color="#808080" stop-opacity="0.12"/>
<stop offset="1" stop-color="#808080" stop-opacity="0.1"/>
</linearGradient>
<linearGradient id="paint8_linear" x1="62.1264" y1="89.4969" x2="72.9971" y2="64.1876" gradientUnits="userSpaceOnUse">
<stop stop-color="#808080" stop-opacity="0.25"/>
<stop offset="0.54" stop-color="#808080" stop-opacity="0.12"/>
<stop offset="1" stop-color="#808080" stop-opacity="0.1"/>
</linearGradient>
<linearGradient id="paint9_linear" x1="188.093" y1="58.9445" x2="196.989" y2="38.1066" gradientUnits="userSpaceOnUse">
<stop stop-color="#808080" stop-opacity="0.25"/>
<stop offset="0.54" stop-color="#808080" stop-opacity="0.12"/>
<stop offset="1" stop-color="#808080" stop-opacity="0.1"/>
</linearGradient>
<linearGradient id="paint10_linear" x1="152.519" y1="141.829" x2="152.519" y2="112.637" gradientUnits="userSpaceOnUse">
<stop stop-color="#808080" stop-opacity="0.25"/>
<stop offset="0.54" stop-color="#808080" stop-opacity="0.12"/>
<stop offset="1" stop-color="#808080" stop-opacity="0.1"/>
</linearGradient>
<linearGradient id="paint11_linear" x1="227.84" y1="200.917" x2="227.84" y2="147.274" gradientUnits="userSpaceOnUse">
<stop stop-color="#808080" stop-opacity="0.25"/>
<stop offset="0.54" stop-color="#808080" stop-opacity="0.12"/>
<stop offset="1" stop-color="#808080" stop-opacity="0.1"/>
</linearGradient>
<linearGradient id="paint12_linear" x1="155.982" y1="201.125" x2="155.982" y2="147.094" gradientUnits="userSpaceOnUse">
<stop stop-color="#808080" stop-opacity="0.25"/>
<stop offset="0.54" stop-color="#808080" stop-opacity="0.12"/>
<stop offset="1" stop-color="#808080" stop-opacity="0.1"/>
</linearGradient>
<linearGradient id="paint13_linear" x1="155.712" y1="42.1835" x2="155.712" y2="26.4511" gradientUnits="userSpaceOnUse">
<stop stop-color="#808080" stop-opacity="0.25"/>
<stop offset="0.54" stop-color="#808080" stop-opacity="0.12"/>
<stop offset="1" stop-color="#808080" stop-opacity="0.1"/>
</linearGradient>
<linearGradient id="paint14_linear" x1="222.071" y1="58.5788" x2="222.071" y2="42.8463" gradientUnits="userSpaceOnUse">
<stop stop-color="#808080" stop-opacity="0.25"/>
<stop offset="0.54" stop-color="#808080" stop-opacity="0.12"/>
<stop offset="1" stop-color="#808080" stop-opacity="0.1"/>
</linearGradient>
</defs>
</svg>
