<svg width="98" height="100" viewBox="0 0 98 100" fill="none" xmlns="http://www.w3.org/2000/svg">
<path d="M69.2754 12.6121L54.3819 35.5803L56.8983 37.1934L71.7918 14.2252L69.2754 12.6121Z" fill="black"/>
<path d="M62.8986 49.8399L62.6093 52.8027L89.8646 55.4343L90.154 52.4715L62.8986 49.8399Z" fill="black"/>
<path d="M55.6804 62.5128L53.2361 64.2319L69.8112 87.5299L72.2554 85.8108L55.6804 62.5128Z" fill="black"/>
<path d="M35.0316 60.1173L16.7201 82.0911L19.0254 83.9902L37.3369 62.0165L35.0316 60.1173Z" fill="black"/>
<path d="M13.687 29.3961L12.1002 31.9204L32.6138 44.6682L34.2006 42.1439L13.687 29.3961Z" fill="black"/>
<path d="M73.2505 15.9159C77.6708 15.9159 81.2542 12.353 81.2542 7.95793C81.2542 3.56289 77.6708 0 73.2505 0C68.8302 0 65.2468 3.56289 65.2468 7.95793C65.2468 12.353 68.8302 15.9159 73.2505 15.9159Z" fill="#3299D9"/>
<path d="M8.00366 36.0784C12.424 36.0784 16.0073 32.5156 16.0073 28.1205C16.0073 23.7255 12.424 20.1626 8.00366 20.1626C3.58336 20.1626 0 23.7255 0 28.1205C0 32.5156 3.58336 36.0784 8.00366 36.0784Z" fill="#32A955"/>
<path d="M14.69 93.2328C19.1103 93.2328 22.6937 89.6699 22.6937 85.2748C22.6937 80.8798 19.1103 77.3169 14.69 77.3169C10.2697 77.3169 6.68634 80.8798 6.68634 85.2748C6.68634 89.6699 10.2697 93.2328 14.69 93.2328Z" fill="#8C00FF"/>
<path d="M73.2505 100C77.6708 100 81.2542 96.4372 81.2542 92.0422C81.2542 87.6471 77.6708 84.0842 73.2505 84.0842C68.8302 84.0842 65.2468 87.6471 65.2468 92.0422C65.2468 96.4372 68.8302 100 73.2505 100Z" fill="#D90429"/>
<path d="M89.9963 61.0638C94.4166 61.0638 98 57.5009 98 53.1059C98 48.7108 94.4166 45.1479 89.9963 45.1479C85.576 45.1479 81.9927 48.7108 81.9927 53.1059C81.9927 57.5009 85.576 61.0638 89.9963 61.0638Z" fill="#F2C029"/>
<path d="M40.0583 37.8052C38.7809 39.4325 37.8428 41.3376 37.3438 43.4214C37.6831 43.4214 38.0424 43.4015 38.4216 43.3817C38.6212 41.3972 39.1801 39.5119 40.0583 37.8052Z" fill="#202131"/>
<path d="M45.3674 37.4082C44.0701 38.9561 43.132 40.8017 42.6729 42.8458C43.0122 42.7664 43.3715 42.7069 43.7108 42.6076C43.9303 40.7422 44.5092 38.976 45.3674 37.4082Z" fill="#202131"/>
<path d="M47.1438 63.4055C46.4053 63.4055 45.6668 63.346 44.9483 63.2269C46.066 62.5522 47.0839 61.8378 48.002 61.1233C49.3593 61.4806 50.7764 61.6393 52.2534 61.5798C52.9719 61.5599 53.6705 61.4806 54.3491 61.3615C52.4529 61.3218 50.6367 60.9646 48.9401 60.3494C49.8982 59.5159 50.7364 58.6824 51.4749 57.8687C52.6725 58.2259 53.9299 58.4244 55.2472 58.4244C55.866 58.4244 56.4847 58.3847 57.0835 58.3053C55.3271 58.2061 53.6505 57.8092 52.1136 57.1344C54.9678 53.7012 55.9857 50.784 55.9857 50.784C54.6884 53.086 52.912 55.011 51.0558 56.6185C50.7564 56.8765 50.4371 57.1345 50.1177 57.3726C49.0998 58.1862 48.0419 58.8808 47.044 59.496C46.5849 59.7937 46.1259 60.0517 45.6668 60.3097C43.9902 61.2424 42.5132 61.8973 41.5751 62.2744C39.679 61.4805 38.0024 60.27 36.6452 58.7816C38.3417 58.4045 39.8986 57.9084 41.3157 57.3527C42.4134 58.4244 43.6709 59.3373 45.0481 60.0319C45.4872 59.7937 45.9662 59.5159 46.4652 59.2182C45.2077 58.5038 44.0701 57.6107 43.0521 56.5986C44.2297 56.043 45.2876 55.4278 46.2257 54.8126C47.2236 55.7651 48.3613 56.5788 49.6187 57.194C49.978 56.936 50.3173 56.678 50.6167 56.42C49.4591 55.7453 48.4012 54.9118 47.4831 53.9394C51.0558 51.3 52.7324 48.7399 52.7324 48.7399C46.545 55.2293 36.266 56.4597 34.9686 56.5788C34.2501 55.3682 33.6912 54.0386 33.3519 52.6296C34.9487 52.5701 36.4456 52.3914 37.8428 52.1335C38.2619 53.2448 38.8208 54.2966 39.4994 55.269C40.0982 55.1102 40.7369 54.9316 41.3955 54.7332C40.7169 53.8005 40.1181 52.8082 39.6591 51.7366C40.9764 51.3992 42.1939 50.9824 43.2916 50.526C43.7108 51.5579 44.2896 52.5304 44.9483 53.4234C45.4472 53.2051 45.9263 52.967 46.4253 52.7288C45.7666 51.8556 45.2077 50.9031 44.7686 49.8909C49.02 47.8469 51.2554 45.4258 51.2554 45.4258C44.7287 50.2879 35.6073 50.3077 32.9927 50.1886C32.9727 49.9306 32.9727 49.6727 32.9727 49.3948C32.9727 48.224 33.1124 47.0729 33.3918 45.9814C34.6293 46.041 35.8069 46.0013 36.9246 45.8822C36.8847 46.3783 36.8847 46.8943 36.9047 47.4103C36.9246 48.1247 37.0045 48.8392 37.1242 49.5337C37.6631 49.494 38.222 49.4345 38.8208 49.375C38.5014 48.2041 38.3218 46.9935 38.2819 45.7235C39.7788 45.4853 41.156 45.1479 42.3735 44.7312C42.3536 45.0487 42.3336 45.3662 42.3336 45.6838C42.3336 46.7157 42.4534 47.7278 42.6929 48.6804C43.1918 48.5613 43.6709 48.4224 44.1699 48.2835C43.7906 47.0134 43.591 45.6838 43.591 44.2946C47.4831 42.7467 49.6187 40.7026 49.6187 40.7026C44.0701 44.3343 36.765 44.1358 34.1104 43.8977C36.266 38.857 41.2758 35.3246 47.1238 35.3246C47.2635 35.3246 47.3833 35.3246 47.523 35.3246C46.9641 35.265 46.3853 35.2253 45.7866 35.2253C37.5833 35.2253 30.9369 41.8338 30.9369 49.9902C30.9369 56.3406 34.9686 61.7584 40.6171 63.8421C41.3157 64.1001 42.0143 64.2986 42.7527 64.4573C43.7307 64.6558 44.7487 64.7749 45.7866 64.7749C50.956 64.7749 55.5267 62.1354 58.1813 58.1466C55.6265 61.3416 51.6346 63.4055 47.1438 63.4055Z" fill="#202131"/>
<path d="M47.0041 32.8042C40.2778 32.8042 34.4497 36.674 31.6554 42.2902C34.3499 37.3091 39.6391 33.9354 45.7267 33.9354C54.5487 33.9354 61.6941 41.04 61.6941 49.8115C61.6941 58.5831 54.5487 65.6877 45.7267 65.6877C39.6391 65.6877 34.3499 62.314 31.6554 57.3329C34.4497 62.9491 40.2579 66.8189 47.0041 66.8189C56.4448 66.8189 64.1092 59.1983 64.1092 49.8115C64.1092 40.4248 56.4448 32.8042 47.0041 32.8042Z" fill="#202131"/>
</svg>
