<svg width="75" height="75" viewBox="0 0 75 75" fill="none" xmlns="http://www.w3.org/2000/svg">
<g clip-path="url(#clip0)">
<path fill-rule="evenodd" clip-rule="evenodd" d="M21.0187 53.9813C22.6668 55.6294 23.6028 58.0304 21.9547 61.408C18.0277 69.4859 0 75 0 75C0 75 5.51411 56.9723 13.592 53.0453C16.9696 51.4175 19.3706 52.3535 21.0187 53.9813Z" fill="#E6812F"/>
<path fill-rule="evenodd" clip-rule="evenodd" d="M18.0684 56.9317C19.0044 57.8677 19.5334 59.231 18.5974 61.1436C16.3592 65.7217 6.1449 68.8552 6.1449 68.8552C6.1449 68.8552 9.27837 58.6409 13.8565 56.4027C15.7692 55.4871 17.1324 56.0161 18.0684 56.9317Z" fill="#F2C029"/>
<path fill-rule="evenodd" clip-rule="evenodd" d="M30.8668 26.9805L12.249 28.2013L0.345886 40.1248L16.0336 48.6503L30.8668 26.9805Z" fill="#3299D9"/>
<path fill-rule="evenodd" clip-rule="evenodd" d="M48.0399 44.1333L46.7987 62.751L34.8752 74.6745L26.3701 58.9665L48.0399 44.1333Z" fill="#3299D9"/>
<path fill-rule="evenodd" clip-rule="evenodd" d="M74.7355 0.264551C55.955 -3.54039 19.4927 34.8956 12.2287 52.9029L17.1731 57.8473L22.1175 62.7917C40.1044 55.5277 78.5404 19.0654 74.7355 0.264551Z" fill="#202131"/>
<path fill-rule="evenodd" clip-rule="evenodd" d="M22.8296 36.0146C17.8853 42.2816 14.0803 48.2637 12.2084 52.9029L17.1528 57.8473L22.0971 62.7916C26.7363 60.9197 32.7184 57.1148 38.9854 52.1704L22.8296 36.0146Z" fill="#D90429"/>
<path fill-rule="evenodd" clip-rule="evenodd" d="M74.7354 0.264533C70.3201 -0.630747 64.9281 0.813909 59.1698 3.76426L71.2357 15.8302C74.2064 10.0719 75.6307 4.67989 74.7354 0.264533Z" fill="#D90429"/>
<path fill-rule="evenodd" clip-rule="evenodd" d="M51.092 23.9081C53.9406 26.7567 53.9406 31.3552 51.092 34.1834C48.2434 37.032 43.6449 37.032 40.8166 34.1834C37.968 31.3348 37.968 26.7363 40.8166 23.9081C43.6449 21.0798 48.2637 21.0798 51.092 23.9081Z" fill="#3299D9"/>
<path fill-rule="evenodd" clip-rule="evenodd" d="M49.9525 25.0678C52.15 27.2653 52.15 30.8464 49.9525 33.0439C47.755 35.2414 44.1739 35.2414 41.9764 33.0439C39.7789 30.8464 39.7789 27.2653 41.9764 25.0678C44.1739 22.8703 47.7347 22.8703 49.9525 25.0678Z" fill="#90CAF9"/>
</g>
<defs>
<clipPath id="clip0">
<rect width="75" height="75" fill="white"/>
</clipPath>
</defs>
</svg>
