<svg id="eREyV6WAmTu1" xmlns="http://www.w3.org/2000/svg" xmlns:xlink="http://www.w3.org/1999/xlink" viewBox="0 0 1039.310000 790.310000" shape-rendering="geometricPrecision" text-rendering="geometricPrecision"><path id="eREyV6WAmTu2" d="M763.650000,519.430000C816.170000,477.940000,839.100000,488.880000,888.770000,441.240000C888.770000,441.240000,947.350000,385.050000,944.320000,332.910000C944.180000,330.430000,943.990000,327.910000,943.990000,327.910000C943.865266,324.620802,943.574898,321.339977,943.120000,318.080000C932.700000,218.480000,863.410000,172.440000,863.410000,172.440000C792.110000,125.080000,704.210000,138.220000,695.560000,139.640000C638.670000,148.930000,602.290000,175.640000,588.030000,187.410000C574.390000,211.260000,549.400000,245.410000,504.150000,267.750000C420.430000,309.060000,355.510000,265.460000,248.440000,301.130000C245.390000,302.130000,240.130000,303.880000,233.330000,306.440000C225.190000,309.510000,138.880000,343.810000,102.590000,411.730000C58.480000,494.270000,113.470000,579.360000,122.370000,592.590000C194.160000,699.360000,360.850000,733,481.890000,717.750000C522.070000,712.750000,598.890000,700.350000,657.230000,652.140000C713.710000,605.460000,697.160000,572,763.650000,519.430000Z" fill="rgb(50,153,217)" stroke="none" stroke-width="1"/><path id="eREyV6WAmTu3" d="M541.900000,772.790000L541.500000,772.790000C533.400000,772.790000,525.100000,772.390000,516.840000,771.610000C514.510000,771.390000,512.840000,769.610000,513.100000,767.730000C513.360000,765.850000,515.460000,764.440000,517.810000,764.660000C525.750000,765.410000,533.720000,765.790000,541.500000,765.790000L541.900000,765.790000C544.250000,765.790000,546.150000,767.360000,546.150000,769.290000C546.150000,771.220000,544.250000,772.790000,541.900000,772.790000ZM566.070000,771.580000C564.098174,771.735434,562.308810,770.426351,561.860000,768.500000C561.580000,766.580000,563.250000,764.840000,565.570000,764.610000C573.400000,763.840000,581.260000,762.680000,588.930000,761.160000C591.210000,760.710000,593.510000,761.870000,594.050000,763.750000C594.590000,765.630000,593.200000,767.520000,590.910000,767.970000C582.910000,769.550000,574.740000,770.750000,566.580000,771.560000C566.410538,771.576643,566.240245,771.583321,566.070000,771.580000ZM493.450000,768.310000C493.138170,768.312747,492.826780,768.285960,492.520000,768.230000C484.720000,766.800000,476.730000,765.010000,468.780000,762.910000C466.540000,762.320000,465.310000,760.350000,466.030000,758.510000C466.750000,756.670000,469.140000,755.650000,471.370000,756.250000C479.070000,758.250000,486.810000,760.010000,494.370000,761.400000C496.660000,761.810000,498.100000,763.680000,497.590000,765.570000C496.968689,767.299081,495.284386,768.413813,493.450000,768.310000ZM613.090000,762.140000C611.428849,762.224867,609.868971,761.339636,609.090000,759.870000C608.260000,758.060000,609.380000,756.040000,611.580000,755.360000C618.910000,753.100000,626.280000,750.490000,633.490000,747.610000C635.525056,746.737562,637.893033,747.414127,639.160000,749.230000C640.160000,750.960000,639.310000,753.060000,637.160000,753.900000C629.720000,756.900000,622.100000,759.580000,614.510000,761.900000C614.050530,762.047294,613.572355,762.128112,613.090000,762.140000ZM447.320000,756.220000C446.772721,756.222030,446.228821,756.134195,445.710000,755.960000C438.380000,753.480000,430.860000,750.680000,423.360000,747.640000C421.260000,746.790000,420.360000,744.690000,421.430000,742.950000C422.717184,741.148477,425.085375,740.486716,427.120000,741.360000C434.440000,744.360000,441.780000,747.060000,448.940000,749.480000C451.110000,750.220000,452.140000,752.260000,451.250000,754.050000C450.444904,755.447309,448.931422,756.282997,447.320000,756.220000ZM656.650000,744.700000C655.233863,744.738039,653.882146,744.108472,653,743C652.429966,742.203612,652.260047,741.188457,652.539673,740.249851C652.819300,739.311244,653.517071,738.554589,654.430000,738.200000C661.260000,734.780000,667.890000,731.080000,674.150000,727.200000C676.066656,726.004734,678.554701,726.290859,680.150000,727.890000C680.816779,728.602795,681.111566,729.586553,680.946649,730.548568C680.781732,731.510583,680.176117,732.339988,679.310000,732.790000C672.830000,736.790000,665.960000,740.640000,658.890000,744.180000C658.193875,744.525012,657.426926,744.703054,656.650000,744.700000ZM403.810000,738.700000C403.089267,738.700258,402.376762,738.546848,401.720000,738.250000C394.890000,735.070000,387.820000,731.590000,380.720000,727.910000C379.809653,727.541873,379.122175,726.771461,378.859662,725.825239C378.597149,724.879017,378.789437,723.864528,379.380000,723.080000C380.848818,721.410897,383.265873,720.957183,385.240000,721.980000C392.240000,725.600000,399.170000,728.980000,405.890000,732.150000C407.890000,733.100000,408.650000,735.240000,407.500000,736.920000C406.621831,738.060206,405.248389,738.707845,403.810000,738.660000ZM695.300000,720.700000C694.163050,720.719252,693.057826,720.324783,692.190000,719.590000C691.412988,718.975669,690.977588,718.026072,691.019154,717.036414C691.060720,716.046757,691.574212,715.137014,692.400000,714.590000C698.140922,710.191646,703.635868,705.481215,708.860000,700.480000C710.541028,699.004006,713.006191,698.847879,714.860000,700.100000C715.690666,700.612189,716.231659,701.485626,716.320188,702.457483C716.408718,703.429340,716.034447,704.386151,715.310000,705.040000C709.880740,710.240879,704.168730,715.138318,698.200000,719.710000C697.367605,720.347062,696.348202,720.691549,695.300000,720.690000ZM362.730000,717.440000C361.893015,717.444351,361.069322,717.230674,360.340000,716.820000C353.940000,713.210000,347.250000,709.310000,340.450000,705.210000C339.575089,704.774506,338.954788,703.954214,338.774090,702.993760C338.593391,702.033306,338.873174,701.043674,339.530000,700.320000C341.101894,698.735404,343.549786,698.422205,345.470000,699.560000C352.200000,703.610000,358.810000,707.480000,365.140000,711.050000C366.030222,711.457867,366.679205,712.257688,366.894947,713.212835C367.110689,714.167983,366.868488,715.169098,366.240000,715.920000C365.345068,716.909550,364.063854,717.460727,362.730000,717.430000ZM323.550000,693.900000C322.639175,693.909129,321.744479,693.659446,320.970000,693.180000C315.220000,689.550000,309.120000,685.640000,301.790000,680.890000C300.932951,680.420088,300.346676,679.574600,300.207071,678.607201C300.067467,677.639802,300.390777,676.663052,301.080000,675.970000C302.707278,674.416897,305.185366,674.177348,307.080000,675.390000C314.380000,680.120000,320.440000,684.010000,326.170000,687.630000C327.035082,688.083423,327.635887,688.918025,327.791349,689.882282C327.946811,690.846539,327.638747,691.827674,326.960000,692.530000C326.059974,693.434875,324.825722,693.927128,323.550000,693.890000ZM726.760000,690.440000C725.933019,690.445228,725.118010,690.242335,724.390000,689.850000C723.498110,689.448313,722.843439,688.655080,722.618199,687.703194C722.392958,686.751308,722.622710,685.748798,723.240000,684.990000C727.588520,679.688421,731.520258,674.058280,735,668.150000C736.265939,666.333477,738.629825,665.649743,740.670000,666.510000C742.780000,667.350000,743.670000,669.440000,742.670000,671.180000C738.995598,677.394123,734.846585,683.315075,730.260000,688.890000C729.375303,689.891324,728.095945,690.454242,726.760000,690.430000ZM285.440000,669.190000C284.489289,669.200011,283.556853,668.928630,282.760000,668.410000C276.440000,664.170000,270.170000,659.800000,264.140000,655.410000C263.315332,654.888522,262.785412,654.008179,262.710578,653.035340C262.635744,652.062501,263.024790,651.111469,263.760000,650.470000C265.456016,649.012310,267.922788,648.884861,269.760000,650.160000C275.710000,654.470000,281.890000,658.780000,288.130000,662.970000C288.975805,663.455144,289.544064,664.309963,289.664038,665.277619C289.784011,666.245275,289.441717,667.212988,288.740000,667.890000C287.855560,668.743245,286.668752,669.210776,285.440000,669.190000ZM747.440000,654.530000C747.045659,654.532814,746.652544,654.485774,746.270000,654.390000C744.020000,653.870000,742.710000,651.930000,743.350000,650.070000C745.445981,643.847126,747.057454,637.471441,748.170000,631C748.520000,629.090000,750.690000,627.780000,753,628C755.310000,628.220000,756.920000,630.070000,756.570000,632C755.433466,638.788112,753.761581,645.475650,751.570000,652C750.866311,653.617252,749.231081,654.626308,747.470000,654.530000ZM249.090000,642.800000C248.028936,642.804010,246.997210,642.451885,246.160000,641.800000C240.250000,637.150000,234.430000,632.370000,228.870000,627.600000C228.083269,626.999634,227.631698,626.058765,227.655443,625.069411C227.679187,624.080057,228.175374,623.161933,228.990000,622.600000C230.781190,621.268621,233.244171,621.309671,234.990000,622.700000C240.470000,627.400000,246.200000,632.110000,251.990000,636.700000C252.805848,637.260290,253.303942,638.177479,253.329666,639.166859C253.355390,640.156238,252.905631,641.098071,252.120000,641.700000C251.271250,642.412385,250.198091,642.801981,249.090000,642.800000ZM756.090000,615.270000C755.805167,615.271518,755.520747,615.248095,755.240000,615.200000C752.940000,614.820000,751.450000,612.970000,751.920000,611.070000C753.593916,604.209160,756.134332,597.589294,759.480000,591.370000C760.682303,589.516004,763.025242,588.767100,765.080000,589.580000C767.230000,590.350000,768.200000,592.420000,767.260000,594.190000C764.157715,599.960367,761.805339,606.103428,760.260000,612.470000C759.662495,614.238459,757.953045,615.386291,756.090000,615.270000ZM215.560000,614C214.380371,614.016709,213.237775,613.588235,212.360000,612.800000C206.950000,607.710000,201.690000,602.510000,196.720000,597.340000C196.025068,596.651647,195.695776,595.675688,195.831625,594.707027C195.967474,593.738365,196.552527,592.890638,197.410000,592.420000C199.301492,591.200969,201.781888,591.436607,203.410000,592.990000C208.300000,598.070000,213.480000,603.190000,218.800000,608.190000C219.529295,608.836546,219.912071,609.788426,219.833411,610.759871C219.754752,611.731317,219.223816,612.609212,218.400000,613.130000C217.568217,613.711109,216.574550,614.015507,215.560000,614ZM185.490000,582.700000C184.176235,582.729313,182.912912,582.194130,182.020000,581.230000C177.250000,575.700000,172.670000,570.060000,168.400000,564.480000C167.812973,563.697245,167.621647,562.686715,167.881900,561.743543C168.142153,560.800371,168.824627,560.030951,169.730000,559.660000C171.700783,558.627252,174.122378,559.077685,175.590000,560.750000C179.770000,566.220000,184.270000,571.750000,188.950000,577.170000C189.593125,577.907835,189.855404,578.903368,189.659303,579.862301C189.463202,580.821235,188.831153,581.633879,187.950000,582.060000C187.197879,582.478200,186.350552,582.695199,185.490000,582.690000ZM775.050000,578.840000C774.214297,578.844236,773.391453,578.634221,772.660000,578.230000C771.769970,577.825408,771.119182,577.029332,770.899629,576.076629C770.680076,575.123925,770.916814,574.123317,771.540000,573.370000C776.388983,567.480854,781.967040,562.232104,788.140000,557.750000C789.973768,556.472828,792.437952,556.591931,794.140000,558.040000C794.878197,558.677033,795.272408,559.625123,795.203497,560.597748C795.134587,561.570372,794.610640,562.453411,793.790000,562.980000C788.127362,567.092905,783.009783,571.908066,778.560000,577.310000C777.668504,578.305479,776.385960,578.860883,775.050000,578.830000ZM810.390000,552C809.027469,552.032321,807.723099,551.448110,806.840000,550.410000C806.230801,549.643844,806.013739,548.637419,806.252986,547.688273C806.492234,546.739127,807.160421,545.955844,808.060000,545.570000C811.820000,543.570000,815.830000,541.450000,820.060000,539.240000C822.850000,537.790000,825.650000,536.340000,828.520000,534.820000C830.488805,533.777165,832.915778,534.219560,834.390000,535.890000C834.987235,536.666536,835.189189,537.676735,834.936406,538.623202C834.683623,539.569668,834.004882,540.344651,833.100000,540.720000C830.220000,542.240000,827.410000,543.720000,824.670000,545.130000C820.390000,547.350000,816.410000,549.420000,812.670000,551.420000C811.968232,551.795243,811.185772,551.994290,810.390000,552ZM159.700000,548.900000C158.237505,548.946502,156.845997,548.269451,155.980000,547.090000C151.980000,541.090000,148.250000,535,144.920000,529.090000C143.920000,527.340000,144.860000,525.260000,146.990000,524.450000C149.035579,523.614057,151.387124,524.322856,152.630000,526.150000C155.890000,531.960000,159.520000,537.890000,163.430000,543.760000C164.550000,545.460000,163.800000,547.580000,161.740000,548.510000C161.096047,548.785479,160.400158,548.918517,159.700000,548.900000ZM851,530.160000C849.680721,530.192264,848.411901,529.652651,847.520000,528.680000C846.876874,527.943956,846.614513,526.949732,846.810729,525.992198C847.006944,525.034665,847.639208,524.223765,848.520000,523.800000C855.220000,519.920000,861.520000,516.050000,867.720000,511.970000C869.611964,510.759438,872.084734,510.990230,873.720000,512.530000C874.415759,513.216940,874.746664,514.191859,874.612803,515.160387C874.478941,516.128916,873.896002,516.977531,873.040000,517.450000C866.690000,521.610000,860.280000,525.570000,853.440000,529.530000C852.695325,529.948697,851.854291,530.165849,851,530.160000ZM139.460000,512.650000C137.795613,512.726072,136.237079,511.833811,135.460000,510.360000C134.320000,507.800000,133.780000,506.570000,133.530000,505.890000C132.120000,502.520000,129.990000,497.430000,127.760000,491.160000C127.110000,489.310000,128.400000,487.360000,130.650000,486.820000C132.900000,486.280000,135.260000,487.340000,135.920000,489.200000C138.090000,495.320000,140.100000,500.120000,141.570000,503.620000L141.570000,503.620000C141.640000,503.790000,142.520000,505.900000,143.430000,507.920000C144.240000,509.740000,143.110000,511.750000,140.910000,512.420000C140.439590,512.563184,139.951629,512.640585,139.460000,512.650000ZM888.870000,505.310000C887.709414,505.327687,886.583499,504.914376,885.710000,504.150000C884.964818,503.519642,884.562518,502.573387,884.625611,501.599392C884.688704,500.625396,885.209721,499.738952,886.030000,499.210000C891.840000,494.910000,897.690000,490.330000,903.440000,485.600000C905.207399,484.235885,907.672601,484.235885,909.440000,485.600000C910.224231,486.180883,910.686758,487.099068,910.686758,488.075000C910.686758,489.050932,910.224231,489.969117,909.440000,490.550000C903.590000,495.370000,897.620000,500.040000,891.700000,504.420000C890.874620,505.008675,889.883748,505.320292,888.870000,505.310000ZM923.190000,477.150000C922.149834,477.160866,921.134744,476.830698,920.300000,476.210000C919.493796,475.660482,918.994483,474.762480,918.953128,473.787685C918.911773,472.812891,919.333235,471.875826,920.090000,471.260000C925.330000,466.640000,930.940000,461.660000,936.440000,456.610000C938.149012,455.171158,940.612928,455.064388,942.440000,456.350000C943.260482,456.881159,943.781287,457.769189,943.844341,458.744558C943.907395,459.719927,943.505264,460.667621,942.760000,461.300000C937.210000,466.380000,931.570000,471.390000,926.300000,476.040000C925.432174,476.774783,924.326950,477.169252,923.190000,477.150000ZM126,474.300000C124.136894,474.413829,122.430026,473.260873,121.840000,471.490000C120.216934,464.876177,118.971587,458.175343,118.110000,451.420000C117.870000,449.500000,119.560000,447.780000,121.900000,447.580000C124.240000,447.380000,126.320000,448.780000,126.560000,450.700000C127.397123,457.232777,128.602374,463.713087,130.170000,470.110000C130.630000,472,129.170000,473.850000,126.840000,474.230000C126.562568,474.277717,126.281503,474.301139,126,474.300000ZM955.400000,447.300000C954.445031,447.307821,953.509091,447.032954,952.710000,446.510000C951.863368,446.021874,951.296479,445.163101,951.180352,444.192757C951.064226,443.222413,951.412461,442.254122,952.120000,441.580000C957.620000,436.070000,962.370000,430.950000,966.650000,425.930000C968.189732,424.320528,970.629098,423.969689,972.560000,425.080000C973.440792,425.503765,974.073056,426.314665,974.269271,427.272198C974.465487,428.229732,974.203126,429.223956,973.560000,429.960000C969.160000,435.120000,964.280000,440.380000,958.650000,446.030000C957.788309,446.863266,956.638661,447.332437,955.440000,447.340000ZM121.110000,434.630000L121.110000,434.630000C118.760000,434.630000,116.860000,433.060000,116.860000,431.130000C116.864605,424.328370,117.342425,417.535302,118.290000,410.800000C118.560000,408.880000,120.640000,407.520000,123,407.730000C125.360000,407.940000,127,409.730000,126.730000,411.610000C125.818059,418.076691,125.360271,424.599324,125.360000,431.130000C125.360000,433.060000,123.450000,434.630000,121.110000,434.630000ZM983,414.570000C982.310823,414.566036,981.629907,414.419639,981,414.140000C978.940000,413.220000,978.180000,411.090000,979.310000,409.390000C983.057156,403.791845,986.325409,397.887580,989.080000,391.740000C990.145910,389.809791,992.446788,388.927436,994.530000,389.650000C996.730000,390.310000,997.870000,392.320000,997.060000,394.130000C994.156388,400.615269,990.710837,406.844023,986.760000,412.750000C985.884659,413.941008,984.477155,414.622299,983,414.570000ZM126.800000,395.070000C126.464154,395.070336,126.129129,395.036833,125.800000,394.970000C123.520000,394.510000,122.130000,392.610000,122.690000,390.740000C122.930000,389.910000,123.190000,389.080000,123.450000,388.250000C125.318068,382.440453,127.569684,376.761303,130.190000,371.250000C131.305506,369.349460,133.614266,368.509911,135.690000,369.250000C137.880000,369.960000,138.960000,371.990000,138.100000,373.790000C135.590195,379.043134,133.435364,384.458609,131.650000,390C131.400000,390.790000,131.160000,391.580000,130.920000,392.360000C130.282542,394.063502,128.616674,395.159255,126.800000,395.070000ZM999.320000,377.190000C999.075886,377.187932,998.832116,377.171235,998.590000,377.140000C996.280000,376.810000,994.730000,375,995.130000,373.090000C996.364047,367.226665,996.990689,361.251784,997,355.260000C997,354.800000,997,354.330000,997,353.870000C997,351.930000,998.850000,350.350000,1001.200000,350.320000C1003.550000,350.290000,1005.470000,351.850000,1005.500000,353.780000C1005.500000,354.270000,1005.500000,354.780000,1005.500000,355.250000C1005.490918,361.635388,1004.820677,368.002674,1003.500000,374.250000C1002.965741,376.086993,1001.229451,377.308211,999.320000,377.190000ZM144.320000,357.930000C143.632028,357.934381,142.950756,357.794720,142.320000,357.520000C140.250000,356.610000,139.460000,354.520000,140.570000,352.780000C143.360000,348.470000,145.830000,345.070000,147.470000,342.830000L147.910000,342.220000C149.570000,339.930000,151.320000,337.610000,153.120000,335.340000C154.613677,333.688405,157.044322,333.275030,159,334.340000C159.902879,334.721740,160.575678,335.503234,160.818962,336.452828C161.062247,337.402421,160.848100,338.411150,160.240000,339.180000C158.500000,341.370000,156.810000,343.610000,155.240000,345.820000L154.800000,346.430000C153.210000,348.620000,150.800000,351.930000,148.100000,356.090000C147.220698,357.310983,145.782851,358.003558,144.280000,357.930000ZM998.660000,337.500000C996.795154,337.608970,995.089341,336.452626,994.500000,334.680000C992.926613,328.291290,990.715516,322.076766,987.900000,316.130000C987.050000,314.330000,988.130000,312.300000,990.320000,311.600000C992.395746,310.855674,994.707207,311.696205,995.820000,313.600000C998.813037,319.916717,1001.158347,326.520442,1002.820000,333.310000C1003.280000,335.210000,1001.820000,337.050000,999.490000,337.430000C999.215263,337.472311,998.937943,337.495699,998.660000,337.500000ZM170.850000,324.580000C169.914987,324.587547,168.997884,324.323533,168.210000,323.820000C167.353998,323.347531,166.771059,322.498916,166.637197,321.530387C166.503336,320.561859,166.834241,319.586940,167.530000,318.900000C172.530000,313.740000,177.950000,308.590000,183.660000,303.610000C185.395399,302.204181,187.860921,302.146652,189.660000,303.470000C190.461142,304.026081,190.952756,304.927727,190.986229,305.902372C191.019701,306.877017,190.591104,307.810266,189.830000,308.420000C184.280000,313.260000,179.010000,318.250000,174.170000,323.260000C173.283886,324.125506,172.088494,324.600782,170.850000,324.580000ZM981.350000,300.400000C979.914363,300.437300,978.547145,299.787128,977.670000,298.650000C973.655674,292.959487,969.244715,287.559403,964.470000,282.490000C963.789683,281.788593,963.478571,280.808228,963.629959,279.842886C963.781347,278.877543,964.377629,278.039478,965.240000,277.580000C967.148039,276.383121,969.627352,276.647582,971.240000,278.220000C976.216683,283.534829,980.814622,289.192032,985,295.150000C986.170000,296.820000,985.480000,298.960000,983.450000,299.930000C982.793150,300.239395,982.076069,300.399884,981.350000,300.400000ZM204,295.520000C202.851845,295.538623,201.737239,295.132664,200.870000,294.380000C200.119683,293.757142,199.708650,292.815758,199.761869,291.842056C199.815088,290.868353,200.326269,289.977374,201.140000,289.440000C208.570000,283.840000,215.250000,279.290000,219.660000,276.290000C221.527788,275.045229,224.003790,275.235056,225.660000,276.750000C226.374240,277.417812,226.730248,278.384277,226.619888,279.355839C226.509528,280.327401,225.945825,281.189396,225.100000,281.680000C220.750000,284.680000,214.170000,289.130000,206.890000,294.610000C206.049852,295.216744,205.036211,295.535918,204,295.520000ZM952,268.780000C950.885947,268.794046,949.802549,268.415210,948.940000,267.710000C943.610000,263.170000,937.770000,258.650000,931.580000,254.270000C930.749334,253.757811,930.208341,252.884374,930.119812,251.912517C930.031282,250.940660,930.405553,249.983849,931.130000,249.330000C932.811958,247.853689,935.279397,247.701530,937.130000,248.960000C943.520000,253.480000,949.550000,258.150000,955.060000,262.850000C955.832740,263.446574,956.276904,264.374164,956.257186,265.350196C956.237468,266.326228,955.756203,267.235122,954.960000,267.800000C954.109880,268.446956,953.068231,268.791826,952,268.780000ZM239.910000,268.640000C238.862428,268.648679,237.840664,268.315113,237,267.690000C236.196336,267.137193,235.700880,266.237371,235.663467,265.262655C235.626053,264.287939,236.051076,263.352785,236.810000,262.740000C241.990000,258.190000,247.450000,253.040000,252.590000,247.880000C254.239016,246.355575,256.715494,246.153330,258.590000,247.390000C259.436370,247.875850,260.003481,248.732975,260.119678,249.701939C260.235875,250.670903,259.887500,251.637812,259.180000,252.310000C253.920000,257.600000,248.340000,262.860000,243.030000,267.530000C242.151596,268.266830,241.036328,268.661081,239.890000,268.640000ZM915.350000,242.730000C914.471552,242.735755,913.607839,242.504280,912.850000,242.060000C906.610000,238.300000,899.950000,234.560000,893.060000,230.950000C892.154678,230.575625,891.474195,229.802524,891.217750,228.857008C890.961306,227.911492,891.157907,226.900506,891.750000,226.120000C893.220899,224.451182,895.644248,224.008693,897.610000,225.050000C904.670000,228.740000,911.480000,232.560000,917.860000,236.410000C918.736469,236.843574,919.358967,237.662982,919.541663,238.623610C919.724360,239.584238,919.446117,240.574953,918.790000,241.300000C917.890852,242.244612,916.633683,242.764194,915.330000,242.730000ZM270.540000,237.730000C269.699971,237.733344,268.873303,237.519788,268.140000,237.110000C267.226306,236.716533,266.554063,235.912154,266.329073,234.943118C266.104083,233.974081,266.353141,232.955795,267,232.200000C269.332190,229.508491,271.442430,226.632411,273.310000,223.600000L278.080000,215.130000C279.315591,213.292956,281.675021,212.581781,283.720000,213.430000C285.850000,214.240000,286.770000,216.320000,285.780000,218.070000L281,226.550000C278.945364,229.947343,276.603469,233.162431,274,236.160000C273.116985,237.149660,271.846096,237.704761,270.520000,237.680000ZM874.300000,221.660000C873.648612,221.661608,873.003185,221.535920,872.400000,221.290000C865.286209,218.338850,858.019080,215.771821,850.630000,213.600000C848.420000,212.960000,847.260000,210.960000,848.040000,209.140000C848.820000,207.320000,851.250000,206.360000,853.470000,207.010000C861.188892,209.264105,868.780013,211.934685,876.210000,215.010000C878.310000,215.880000,879.150000,218.010000,878.100000,219.710000C877.234317,220.953698,875.794130,221.670022,874.280000,221.610000ZM828.740000,208.420000C828.445230,208.421179,828.150876,208.397764,827.860000,208.350000C820.790000,207.130000,813.320000,206.180000,804.340000,205.350000C802,205.140000,800.340000,203.420000,800.570000,201.500000C800.800000,199.580000,802.920000,198.190000,805.250000,198.390000C814.520000,199.220000,822.250000,200.200000,829.610000,201.470000C831.910000,201.860000,833.370000,203.720000,832.890000,205.610000C832.278222,207.362595,830.572310,208.491687,828.720000,208.370000ZM780.690000,203.420000L780.210000,203.420000C772.009330,202.735851,763.853288,201.594072,755.780000,200C753.500000,199.530000,752.110000,197.630000,752.680000,195.760000C753.250000,193.890000,755.550000,192.760000,757.830000,193.210000C765.528726,194.736662,773.307906,195.825080,781.130000,196.470000C783.460000,196.680000,785.130000,198.410000,784.880000,200.330000C784.630000,202.250000,782.800000,203.410000,780.670000,203.410000ZM292.160000,202C291.548790,202.003639,290.942092,201.895179,290.370000,201.680000C288.240000,200.860000,287.320000,198.780000,288.310000,197.030000C293.120000,188.510000,296.230000,183.100000,298.710000,178.920000C299.990878,177.116437,302.356059,176.450189,304.390000,177.320000C306.500000,178.170000,307.390000,180.260000,306.340000,182C303.880000,186.130000,300.800000,191.510000,296.010000,200C295.168772,201.298532,293.706106,202.058358,292.160000,202ZM733.900000,193.640000C733.324052,193.642794,732.752069,193.544643,732.210000,193.350000C727.370000,191.630000,722.340000,189.610000,717.210000,187.350000C714.780000,186.270000,712.400000,185.170000,710.140000,184.080000C708.140000,183.080000,707.450000,180.950000,708.640000,179.280000C710.053497,177.567235,712.460420,177.053538,714.450000,178.040000C716.610000,179.090000,718.890000,180.150000,721.230000,181.180000C726.110000,183.340000,730.930000,185.270000,735.550000,186.920000C737.700000,187.690000,738.690000,189.750000,737.760000,191.520000C736.946952,192.866882,735.472676,193.672769,733.900000,193.630000ZM692.410000,173.250000C691.458346,173.256443,690.525997,172.981609,689.730000,172.460000C683.394941,168.200532,677.378983,163.484689,671.730000,158.350000C670.959232,157.726477,670.534446,156.770990,670.587903,155.781037C670.641361,154.791084,671.166569,153.886896,672,153.350000C673.817064,152.049517,676.283056,152.139937,678,153.570000C683.363909,158.458812,689.079248,162.947525,695.100000,167C695.946083,167.487409,696.514135,168.343884,696.634037,169.312928C696.753940,170.281973,696.411770,171.251072,695.710000,171.930000C694.827176,172.786899,693.640173,173.258103,692.410000,173.240000ZM314.340000,166.560000C313.547142,166.560031,312.765643,166.371512,312.060000,166.010000C311.153451,165.636727,310.472384,164.862640,310.217579,163.915941C309.962774,162.969243,310.163285,161.957879,310.760000,161.180000C315.230000,155.410000,319.900000,149.810000,324.670000,144.520000C326.251723,142.948527,328.698636,142.651931,330.610000,143.800000C331.482263,144.242453,332.096567,145.068334,332.269453,146.030996C332.442340,146.993658,332.153798,147.981683,331.490000,148.700000C326.840000,153.850000,322.280000,159.320000,317.930000,164.940000C317.041931,165.996662,315.719722,166.589631,314.340000,166.550000ZM659,144.420000C657.815067,144.439510,656.667215,144.006831,655.790000,143.210000C651.340000,138.990000,645.940000,133.980000,639.530000,128.810000C638.717497,128.242580,638.227658,127.318863,638.213785,126.327937C638.199912,125.337011,638.663700,124.399943,639.460000,123.810000C641.228591,122.449385,643.691409,122.449385,645.460000,123.810000C652.090000,129.150000,657.640000,134.290000,662.200000,138.620000C662.930342,139.268821,663.310849,140.224797,663.226134,141.198034C663.141419,142.171271,662.601461,143.047126,661.770000,143.560000C660.959210,144.129060,659.990512,144.429811,659,144.420000ZM343.260000,134.540000C342.262973,134.551984,341.287256,134.251225,340.470000,133.680000C339.641268,133.163671,339.105338,132.286022,339.024577,131.312950C338.943815,130.339878,339.327727,129.385886,340.060000,128.740000C345.510000,123.590000,351.210000,118.650000,357,114.050000C358.791190,112.718621,361.254171,112.759671,363,114.150000C363.771618,114.748127,364.213966,115.676664,364.192276,116.652717C364.170586,117.628770,363.687426,118.536740,362.890000,119.100000C357.280000,123.550000,351.750000,128.340000,346.450000,133.340000C345.576864,134.129316,344.436885,134.558148,343.260000,134.540000ZM624.260000,116.730000C623.349175,116.739129,622.454479,116.489446,621.680000,116.010000C615.325583,112.004390,608.766684,108.332741,602.030000,105.010000C600.030000,104.010000,599.360000,101.870000,600.560000,100.210000C601.988167,98.504455,604.401065,98.003665,606.390000,99C613.405432,102.441792,620.234875,106.250392,626.850000,110.410000C627.711775,110.866405,628.309578,111.700599,628.464795,112.663339C628.620013,113.626080,628.314671,114.605882,627.640000,115.310000C626.745486,116.242071,625.501581,116.757040,624.210000,116.730000ZM378.260000,106.920000C377.018060,106.943470,375.818566,106.467995,374.930000,105.600000C374.239124,104.909761,373.912594,103.935084,374.048228,102.967953C374.183863,102.000821,374.765907,101.153567,375.620000,100.680000C382.120000,96.440000,388.870000,92.470000,395.700000,88.880000C397.659869,87.891343,400.040199,88.351786,401.490000,90C402.086660,90.779579,402.287111,91.792186,402.032456,92.740288C401.777801,93.688389,401.096965,94.464287,400.190000,94.840000C393.600000,98.290000,387.090000,102.120000,380.820000,106.220000C380.025897,106.702991,379.109085,106.946086,378.180000,106.920000ZM582.790000,96.160000C582.164329,96.159655,581.544041,96.044411,580.960000,95.820000C578.410000,94.820000,575.740000,93.820000,573.020000,92.820000C568.340000,91.110000,563.620000,89.510000,559.020000,88.060000C556.830000,87.370000,555.740000,85.340000,556.570000,83.540000C557.679172,81.637748,559.987150,80.796955,562.060000,81.540000C566.800000,83.040000,571.650000,84.680000,576.470000,86.430000C579.250000,87.430000,582,88.490000,584.630000,89.520000C586.750000,90.350000,587.630000,92.440000,586.630000,94.190000C585.779379,95.469427,584.325391,96.215354,582.790000,96.160000ZM419,85.510000C417.461823,85.557251,416.010262,84.799256,415.170000,83.510000C414.170000,81.770000,415.050000,79.670000,417.170000,78.840000C418.170000,78.450000,419.250000,78.040000,420.440000,77.620000C427.075587,75.291024,433.861065,73.413407,440.750000,72C443.020000,71.520000,445.330000,72.660000,445.910000,74.530000C446.490000,76.400000,445.110000,78.310000,442.840000,78.780000C436.375212,80.130851,430.007741,81.911471,423.780000,84.110000C422.710000,84.490000,421.780000,84.860000,420.780000,85.210000C420.210729,85.420738,419.606896,85.522507,419,85.510000ZM537.550000,82C537.159661,82.000682,536.770505,81.957069,536.390000,81.870000C528.600000,80.050000,520.800000,78.580000,513.210000,77.490000C510.900000,77.160000,509.350000,75.340000,509.750000,73.490000C510.150000,71.640000,512.360000,70.310000,514.670000,70.640000C522.550000,71.770000,530.670000,73.300000,538.670000,75.180000C540.930000,75.710000,542.240000,77.650000,541.600000,79.510000C540.890451,81.093833,539.283581,82.081761,537.550000,82ZM465.660000,75.580000C463.480000,75.580000,461.660000,74.210000,461.430000,72.380000C461.200000,70.550000,462.960000,68.760000,465.300000,68.590000C470.180000,68.240000,475.220000,68.070000,480.300000,68.070000L480.350000,68.070000C483.570000,68.070000,486.860000,68.140000,490.140000,68.280000C492.480000,68.380000,494.280000,70.030000,494.140000,71.960000C494,73.890000,491.990000,75.360000,489.670000,75.270000C486.550000,75.140000,483.400000,75.070000,480.330000,75.070000L480.330000,75.070000C475.520000,75.070000,470.730000,75.240000,466.090000,75.570000Z" fill="rgb(234,237,239)" stroke="none" stroke-width="1"/><path id="eREyV6WAmTu4" d="M339,183.170000C350.540000,167.520000,378.830000,131.310000,428.380000,109.420000C431.030000,108.250000,432.800000,107.420000,435.480000,106.420000C444.140000,103.350000,487.110000,88.200000,561.060000,115.100000C641.520000,144.370000,631.230000,176.920000,703.230000,208.800000C777.870000,241.800000,807.230000,214.940000,876.540000,251.190000C893.540000,260.050000,965.470000,297.300000,967.320000,352.920000C968.630000,392.200000,935.890000,421.590000,893.620000,458.840000C816.040000,527.200000,773.320000,518.130000,738.430000,571.340000C709.540000,615.420000,730.630000,634.180000,696.430000,673.970000C656.250000,720.750000,592.430000,735.210000,585.160000,736.760000C485.880000,758.030000,395.160000,701.760000,313.240000,648.320000C213.240000,583.050000,180.240000,519.840000,171.240000,499.520000C170.390000,497.630000,169.560000,495.640000,169.560000,495.640000C162.640000,479.120000,146.560000,439.190000,160.280000,396.210000C166.160000,377.800000,176.480000,363.950000,180.590000,358.280000C201.090000,329.980000,228.680000,310.880000,244.230000,300.280000C264.920000,286.170000,298.550000,253.370000,307.890000,236.800000C325.670000,205.270000,334.400000,189.420000,339,183.170000Z" fill="rgb(234,237,239)" stroke="none" stroke-width="1"/><path id="eREyV6WAmTu5" d="M85.660000,659.470000C66.843659,659.470000,51.590000,644.216341,51.590000,625.400000C51.590000,606.583659,66.843659,591.330000,85.660000,591.330000C104.476341,591.330000,119.730000,606.583659,119.730000,625.400000C119.713459,644.209486,104.469486,659.453459,85.660000,659.470000ZM85.660000,602.260000C76.294880,602.255955,67.849849,607.894789,64.264104,616.546258C60.678360,625.197727,62.658340,635.157380,69.280480,641.779520C75.902620,648.401660,85.862273,650.381640,94.513742,646.795896C103.165211,643.210151,108.804045,634.765120,108.800000,625.400000C108.783472,612.626983,98.433017,602.276528,85.660000,602.260000Z" opacity="0" fill="rgb(50,153,217)" stroke="none" stroke-width="1"/><path id="eREyV6WAmTu6" d="M840.530000,688.920000C840.170000,688.920000,839.820000,688.920000,839.470000,688.920000C831.055063,688.277128,824.586359,681.208821,824.690000,672.770000L824.690000,668.490000C824.684496,665.360828,822.149172,662.825504,819.020000,662.820000L814.370000,662.820000C809.999149,662.812509,805.824637,661.003795,802.830000,657.820000C799.820784,654.632707,798.280040,650.333127,798.580000,645.960000C799.251901,637.551219,806.314841,631.095421,814.750000,631.180000L819,631.180000C822.129172,631.174496,824.664496,628.639172,824.670000,625.510000L824.670000,620.870000C824.674739,616.495672,826.483679,612.317020,829.670000,609.320000C832.849065,606.277891,837.159435,604.710484,841.550000,605C849.968831,605.643103,856.438961,612.717345,856.330000,621.160000L856.330000,625.430000C856.330000,628.561455,858.868545,631.100000,862,631.100000L866.270000,631.100000C874.703207,631.015789,881.763087,637.472783,882.430000,645.880000C882.737584,650.252343,881.199847,654.553653,878.190000,657.740000C875.192980,660.926321,871.014328,662.735261,866.640000,662.740000L862,662.740000C858.870828,662.745504,856.335504,665.280828,856.330000,668.410000L856.330000,673.060000C856.322509,677.430851,854.513795,681.605363,851.330000,684.600000C848.417026,687.371429,844.550725,688.917949,840.530000,688.920000ZM814.750000,641.190000C811.619489,641.124237,808.956070,643.457982,808.610000,646.570000C808.502074,648.165858,809.060278,649.735092,810.151783,650.904291C811.243289,652.073491,812.770498,652.738111,814.370000,652.740000L819,652.740000C827.671825,652.751019,834.698981,659.778175,834.710000,668.450000L834.710000,672.730000C834.654730,675.858407,836.990233,678.514554,840.100000,678.860000C841.697809,678.958923,843.266353,678.398729,844.440000,677.310000C845.609413,676.223425,846.269608,674.696271,846.260000,673.100000L846.260000,668.450000C846.271039,659.766467,853.316461,652.734473,862,652.740000L866.640000,652.740000C868.240456,652.741077,869.769460,652.077360,870.861616,650.907465C871.953771,649.737569,872.510951,648.166606,872.400000,646.570000C872.054257,643.461874,869.396711,641.129476,866.270000,641.190000L862,641.190000C853.322652,641.178981,846.291019,634.147348,846.280000,625.470000L846.280000,621.200000C846.336282,618.072950,844.007341,615.415015,840.900000,615.060000C839.301180,614.953878,837.729869,615.515060,836.560000,616.610000C835.387398,617.699351,834.723856,619.229487,834.730000,620.830000L834.730000,625.470000C834.724480,634.153534,827.683535,641.190002,819,641.190000Z" fill="rgb(50,153,217)" stroke="none" stroke-width="1"/><path id="eREyV6WAmTu7" d="M669.070000,120.430000C663.037287,120.433291,657.252743,118.028763,653,113.750000L627,87.800000C618.108633,78.888521,618.108633,64.461479,627,55.550000L653,29.610000C657.276070,25.332356,663.076611,22.929069,669.125000,22.929069C675.173389,22.929069,680.973930,25.332356,685.250000,29.610000L711.190000,55.550000C720.081367,64.461479,720.081367,78.888521,711.190000,87.800000L685.250000,113.800000C680.961527,118.086646,675.133359,120.474826,669.070000,120.430000ZM669.070000,39.430000C667.399223,39.428110,665.797017,40.094196,664.620000,41.280000L638.620000,67.220000C636.171542,69.681474,636.171542,73.658526,638.620000,76.120000L664.620000,102.120000C667.113520,104.489531,671.026480,104.489531,673.520000,102.120000L699.520000,76.170000C701.968458,73.708526,701.968458,69.731474,699.520000,67.270000L673.520000,41.330000C672.349615,40.129503,670.746579,39.448663,669.070000,39.440000Z" opacity="0" fill="rgb(50,153,217)" stroke="none" stroke-width="1"/><path id="eREyV6WAmTu8" d="M983.660000,198.350000C983.664045,206.473420,978.773193,213.799018,971.268904,216.909585C963.764615,220.020152,955.125425,218.302828,949.381298,212.558702C943.637172,206.814575,941.919848,198.175385,945.030415,190.671096C948.140982,183.166807,955.466580,178.275955,963.590000,178.280000C968.912895,178.280000,974.017778,180.394512,977.781633,184.158367C981.545488,187.922222,983.660000,193.027105,983.660000,198.350000Z" opacity="0" fill="rgb(234,237,239)" stroke="none" stroke-width="1"/><path id="eREyV6WAmTu9" d="M374.230000,740.930000C374.230000,748.825103,369.474105,755.942803,362.179981,758.964128C354.885857,761.985454,346.489957,760.315405,340.907276,754.732725C335.324595,749.150044,333.654546,740.754144,336.675871,733.460020C339.697196,726.165896,346.814897,721.410000,354.710000,721.410000C365.490598,721.410000,374.230000,730.149402,374.230000,740.930000Z" fill="rgb(234,237,239)" stroke="none" stroke-width="1"/><path id="eREyV6WAmTu10" d="M205.760000,141.100000L195.760000,151.100000L185.760000,141.100000C182.497845,137.850405,177.222155,137.850405,173.960000,141.100000L173.960000,141.100000C170.710405,144.362155,170.710405,149.637845,173.960000,152.900000L183.960000,162.900000L173.960000,172.900000C170.711558,176.158729,170.711558,181.431271,173.960000,184.690000L173.960000,184.690000C177.222155,187.939595,182.497845,187.939595,185.760000,184.690000L195.760000,174.690000L205.760000,184.690000C209.018729,187.938442,214.291271,187.938442,217.550000,184.690000L217.550000,184.690000C219.115117,183.127433,219.994605,181.006607,219.994605,178.795000C219.994605,176.583393,219.115117,174.462567,217.550000,172.900000L207.550000,162.900000L217.550000,152.900000C219.115724,151.335725,219.995460,149.213243,219.995460,147C219.995460,144.786757,219.115724,142.664275,217.550000,141.100000L217.550000,141.100000C214.291271,137.851558,209.018729,137.851558,205.760000,141.100000Z" fill="rgb(234,237,239)" stroke="none" stroke-width="1"/><rect id="eREyV6WAmTu11" width="249.690000" height="259.160000" rx="3.890000" ry="3.890000" transform="matrix(1 0 0 1 575.16999999999996 252.32937987999998)" fill="rgb(255,255,255)" stroke="none" stroke-width="1"/><rect id="eREyV6WAmTu12" width="280.650000" height="118.350000" rx="3.890000" ry="3.890000" transform="matrix(1 0 0 1 257.79000000000002 250.13000000000000)" fill="rgb(255,255,255)" stroke="none" stroke-width="1"/><path id="eREyV6WAmTu13" d="M820.900000,509.260000L578.240000,509.260000C576.988178,509.260000,575.787628,508.762716,574.902456,507.877544C574.017284,506.992372,573.520000,505.791822,573.520000,504.540000L573.520000,253.210000C573.520000,251.958178,574.017284,250.757628,574.902456,249.872456C575.787628,248.987284,576.988178,248.490000,578.240000,248.490000L820.900000,248.490000C822.151822,248.490000,823.352372,248.987284,824.237544,249.872456C825.122716,250.757628,825.620000,251.958178,825.620000,253.210000L825.620000,504.540000C825.620000,507.146784,823.506784,509.260000,820.900000,509.260000ZM578.240000,250.130000C576.542870,250.135510,575.169991,251.512861,575.170000,253.210000L575.170000,504.540000C575.167332,505.355030,575.489921,506.137447,576.066237,506.713763C576.642553,507.290079,577.424970,507.612668,578.240000,507.610000L820.900000,507.610000C821.715946,507.612658,822.499384,507.290386,823.077285,506.714361C823.655186,506.138336,823.980004,505.355950,823.980000,504.540000L823.980000,253.210000C823.974511,251.511242,822.598758,250.135489,820.900000,250.130000Z" fill="rgb(63,61,86)" stroke="none" stroke-width="1"/><path id="eREyV6WAmTu14" d="M745.310000,354.120000C756.448334,374.701048,752.466592,400.186983,735.581402,416.389834C718.696212,432.592685,693.067792,435.520351,672.963433,423.543006C652.859075,411.565661,643.232144,387.634314,649.441933,365.071501C655.651722,342.508688,676.168248,326.873493,699.570000,326.870000L700.810000,326.870000L700.260000,304.650000L699.570000,304.650000C665.880906,304.663623,636.431397,327.377534,627.860698,359.958178C619.289999,392.538822,633.750589,426.803770,663.072110,443.393032C692.393632,459.982295,729.212164,454.729580,752.724921,430.602717C776.237677,406.475853,780.539573,369.534156,763.200000,340.650000Z" fill="rgb(217,4,41)" stroke="none" stroke-width="1"/><path id="eREyV6WAmTu15" d="M745.310000,354.120000C756.448334,374.701048,752.466592,400.186983,735.581402,416.389834C718.696212,432.592685,693.067792,435.520351,672.963433,423.543006C652.859075,411.565661,643.232144,387.634314,649.441933,365.071501C655.651722,342.508688,676.168248,326.873493,699.570000,326.870000L700.810000,326.870000L700.260000,304.650000L699.570000,304.650000C665.880906,304.663623,636.431397,327.377534,627.860698,359.958178C619.289999,392.538822,633.750589,426.803770,663.072110,443.393032C692.393632,459.982295,729.212164,454.729580,752.724921,430.602717C776.237677,406.475853,780.539573,369.534156,763.200000,340.650000Z" fill="rgb(50,169,85)" stroke="none" stroke-width="1"/><path id="eREyV6WAmTu16" d="M745.310000,354.120000L763.200000,340.670000C749.912261,318.536829,726.074479,304.902254,700.260000,304.670000L700.810000,326.890000C719.452842,327.330839,736.432283,337.720731,745.310000,354.120000Z" fill="rgb(230,230,230)" stroke="none" stroke-width="1"/><rect id="eREyV6WAmTu17" width="1.290000" height="37.030000" rx="0" ry="0" transform="matrix(0.71043100000000 -0.70376700000000 0.70376700000000 0.71043100000000 736.43233825999994 443.50283567999986)" fill="rgb(63,61,86)" stroke="none" stroke-width="1"/><rect id="eREyV6WAmTu18" width="37.030000" height="1.290000" rx="0" ry="0" transform="matrix(0.48923000000000 -0.87215500000000 0.87215500000000 0.48923000000000 735.99718845000007 313.87458924999976)" fill="rgb(63,61,86)" stroke="none" stroke-width="1"/><path id="eREyV6WAmTu19" d="M782.450000,479.490000L744,479.490000C743.315741,479.490000,742.659508,479.218179,742.175665,478.734335C741.691821,478.250492,741.420000,477.594259,741.420000,476.910000L741.420000,471.500000C741.425482,470.077382,742.577382,468.925482,744,468.920000L782.460000,468.920000C783.869249,468.941851,785.000169,470.090581,785,471.500000L785,476.910000C785.005551,478.325495,783.865463,479.478995,782.450000,479.490000Z" fill="rgb(217,4,41)" stroke="none" stroke-width="1"/><path id="eREyV6WAmTu20" d="M772.700000,282.330000L734.240000,282.330000C732.817382,282.324518,731.665482,281.172618,731.660000,279.750000L731.660000,274.330000C731.665482,272.907382,732.817382,271.755482,734.240000,271.750000L772.700000,271.750000C774.120988,271.755508,775.270011,272.909001,775.270000,274.330000L775.270000,279.750000C775.270011,281.170999,774.120988,282.324492,772.700000,282.330000Z" fill="rgb(230,230,230)" stroke="none" stroke-width="1"/><path id="eREyV6WAmTu21" d="M534.730000,368.490000L260.490000,368.490000C258.012523,368.484501,256.005499,366.477477,256,364L256,253.810000C255.999994,251.328619,258.008625,249.315514,260.490000,249.310000L534.730000,249.310000C537.211375,249.315514,539.220006,251.328619,539.220000,253.810000L539.220000,364C539.214501,366.477477,537.207477,368.484501,534.730000,368.490000ZM260.490000,251C258.918266,251.005486,257.645486,252.278266,257.640000,253.850000L257.640000,364C257.645486,365.571734,258.918266,366.844514,260.490000,366.850000L534.730000,366.850000C536.301734,366.844514,537.574514,365.571734,537.580000,364L537.580000,253.810000C537.580000,253.054133,537.279733,252.329224,536.745254,251.794746C536.210776,251.260267,535.485867,250.960000,534.730000,250.960000Z" fill="rgb(63,61,86)" stroke="none" stroke-width="1"/><path id="eREyV6WAmTu22" d="M367.390000,341.140000L340.820000,341.140000C339.420590,341.134511,338.229163,340.120530,338,338.740000C336.266920,327.472922,336.266920,316.007078,338,304.740000C338.229163,303.359470,339.420590,302.345489,340.820000,302.340000L367.390000,302.340000C368.264687,302.328937,369.093928,302.728749,369.630000,303.420000C370.179706,304.116745,370.378802,305.027427,370.170000,305.890000C367.680067,316.299846,367.680067,327.150154,370.170000,337.560000C370.378802,338.422573,370.179706,339.333255,369.630000,340.030000C369.094110,340.725209,368.267761,341.134694,367.390000,341.140000Z" fill="rgb(230,230,230)" stroke="none" stroke-width="1"/><path id="eREyV6WAmTu23" d="M456.360000,341.140000L429.790000,341.140000C428.386806,341.139387,427.189791,340.124250,426.960000,338.740000C425.226920,327.472922,425.226920,316.007078,426.960000,304.740000C427.189791,303.355750,428.386806,302.340613,429.790000,302.340000L456.360000,302.340000C457.231186,302.332078,458.056062,302.731569,458.590000,303.420000C459.139706,304.116745,459.338802,305.027427,459.130000,305.890000C456.640067,316.299846,456.640067,327.150154,459.130000,337.560000C459.338802,338.422573,459.139706,339.333255,458.590000,340.030000C458.056269,340.722457,457.234240,341.131629,456.360000,341.140000Z" fill="rgb(230,230,230)" stroke="none" stroke-width="1"/><path id="eREyV6WAmTu24" d="M322.200000,315.430000L295.630000,315.430000C294.229063,315.428646,293.035325,314.412698,292.810000,313.030000C291.066984,301.763684,291.066984,290.296316,292.810000,279.030000C293.035325,277.647302,294.229063,276.631354,295.630000,276.630000L322.200000,276.630000C323.073996,276.622040,323.901931,277.021223,324.440000,277.710000C324.991846,278.405791,325.187810,279.319060,324.970000,280.180000C322.490180,290.591036,322.490180,301.438964,324.970000,311.850000C325.186263,312.703516,324.995879,313.609071,324.454229,314.303243C323.912579,314.997416,323.080486,315.402257,322.200000,315.400000Z" fill="rgb(50,169,85)" stroke="none" stroke-width="1"/><path id="eREyV6WAmTu25" d="M412.060000,315.430000L385.490000,315.430000C384.617367,315.431915,383.791950,315.033946,383.250000,314.350000C382.700294,313.653255,382.501198,312.742573,382.710000,311.880000C385.199933,301.470154,385.199933,290.619846,382.710000,280.210000C382.501198,279.347427,382.700294,278.436745,383.250000,277.740000C383.786072,277.048749,384.615313,276.648937,385.490000,276.660000L412.060000,276.660000C413.459410,276.665489,414.650837,277.679470,414.880000,279.060000C416.613080,290.327078,416.613080,301.792922,414.880000,313.060000C414.637867,314.428610,413.449861,315.427040,412.060000,315.430000Z" fill="rgb(50,169,85)" stroke="none" stroke-width="1"/><path id="eREyV6WAmTu26" d="M499.590000,315.430000L473,315.430000C472.130195,315.431827,471.307865,315.033569,470.770000,314.350000C470.220294,313.653255,470.021198,312.742573,470.230000,311.880000C472.709820,301.468964,472.709820,290.621036,470.230000,280.210000C470.021198,279.347427,470.220294,278.436745,470.770000,277.740000C471.302933,277.050330,472.128465,276.650520,473,276.660000L499.570000,276.660000C500.971678,276.664731,502.166394,277.677917,502.400000,279.060000C504.133080,290.327078,504.133080,301.792922,502.400000,313.060000C502.154850,314.422782,500.974607,315.418219,499.590000,315.430000Z" fill="rgb(50,169,85)" stroke="none" stroke-width="1"/><path id="eREyV6WAmTu27" d="M499.590000,315.430000L473,315.430000C472.130195,315.431827,471.307865,315.033569,470.770000,314.350000C470.220294,313.653255,470.021198,312.742573,470.230000,311.880000C472.709820,301.468964,472.709820,290.621036,470.230000,280.210000C470.021198,279.347427,470.220294,278.436745,470.770000,277.740000C471.302933,277.050330,472.128465,276.650520,473,276.660000L499.570000,276.660000C500.971678,276.664731,502.166394,277.677917,502.400000,279.060000C504.133080,290.327078,504.133080,301.792922,502.400000,313.060000C502.154850,314.422782,500.974607,315.418219,499.590000,315.430000Z" opacity="0" fill="rgb(217,4,41)" stroke="none" stroke-width="1"/><g id="eREyV6WAmTu28"><path id="eREyV6WAmTu29" d="M351.650000,511.290000C346.866813,510.311721,343.779359,505.644742,344.750000,500.860000C344.858949,500.351850,345.009455,499.853507,345.200000,499.370000L308.730000,421.060000L327.230000,415.860000L357.290000,494.570000C361.377071,496.488561,363.373893,501.168538,361.930788,505.446677C360.487684,509.724817,356.064104,512.239060,351.650000,511.290000Z" fill="rgb(160,97,106)" stroke="none" stroke-width="1"/><polygon id="eREyV6WAmTu30" points="281.020000,636.240000 291.110000,636.240000 295.900000,597.340000 281.020000,597.340000 281.020000,636.240000" fill="rgb(160,97,106)" stroke="none" stroke-width="1"/><path id="eREyV6WAmTu31" d="M310.560000,645.600000L278.860000,645.600000L278.860000,633.360000L298.310000,633.360000C305.071585,633.359998,310.554480,638.838417,310.560000,645.600000Z" fill="rgb(47,46,65)" stroke="none" stroke-width="1"/><polygon id="eREyV6WAmTu32" points="228.600000,625.370000 237.870000,629.340000 257.600000,595.470000 243.910000,589.610000 228.600000,625.370000" fill="rgb(160,97,106)" stroke="none" stroke-width="1"/><path id="eREyV6WAmTu33" d="M252.060000,645.610000L222.930000,633.130000L222.930000,633.130000L227.750000,621.870000L227.750000,621.870000L245.630000,629.530000C251.844100,632.196594,254.722168,639.394003,252.060000,645.610000Z" fill="rgb(47,46,65)" stroke="none" stroke-width="1"/><circle id="eREyV6WAmTu34" r="20.200000" transform="matrix(1 0 0 1 305.95999999999998 364.12000000000000)" fill="rgb(160,97,106)" stroke="none" stroke-width="1"/><path id="eREyV6WAmTu35" d="M291.360000,626.730000L280.260000,624.620000C278.365923,624.279451,277.056586,622.533667,277.260000,620.620000L284.620000,548.840000C284.762880,547.426317,283.853394,546.119682,282.478071,545.762747C281.102749,545.405812,279.672629,546.105254,279.110000,547.410000L246.970000,622.410000C246.582830,623.311775,245.853263,624.022795,244.941820,624.386622C244.030377,624.750449,243.011730,624.737276,242.110000,624.350000L242.060000,624.350000L233.060000,620.350000C231.318722,619.577038,230.452134,617.605552,231.060000,615.800000L253.060000,549.800000C253.119029,549.614509,253.159231,549.423546,253.180000,549.230000L260.280000,489C260.435745,487.658919,261.309584,486.509131,262.560000,486L285.090000,476.850000C286.457608,476.286285,288.029402,476.588856,289.090000,477.620000L317.530000,505.310000C318.414688,506.194340,318.791115,507.466665,318.530000,508.690000L295.680000,623.820000C295.337533,625.556086,293.819517,626.810644,292.050000,626.820000C291.817822,626.810100,291.586949,626.779987,291.360000,626.730000Z" fill="rgb(32,33,49)" stroke="none" stroke-width="1"/><path id="eREyV6WAmTu36" d="M278.700000,492.300000C274.770000,487.740000,271.890000,485.670000,269.930000,486C267.970000,486.330000,266.860000,489,265.660000,491.920000C264.040000,495.850000,262.200000,500.320000,257.660000,500.660000C256.217500,500.908290,254.759302,500.314928,253.900000,499.130000C250.330000,493.810000,258.900000,476.240000,259.680000,474.660000L259.280000,391.520000C259.272843,390.152710,260.018323,388.892309,261.220000,388.240000C284.760000,375.550000,316.540000,397.630000,322.680000,402.180000L322.680000,402.180000C323.673283,402.921968,324.228932,404.112109,324.160000,405.350000C323.420000,419.270000,319.730000,489.520000,319.730000,505.190000C319.730000,509.530000,318.240000,512.280000,315.290000,513.380000C314.291926,513.733653,313.238751,513.906360,312.180000,513.890000C303.180000,513.890000,288.430000,503.560000,278.700000,492.300000Z" fill="rgb(204,204,204)" stroke="none" stroke-width="1"/><path id="eREyV6WAmTu37" d="M311.550000,451.930000C310.553528,451.281007,309.934478,450.188348,309.890000,449L308.300000,411.760000C308.059246,406.999571,311.326749,402.775101,315.994849,401.811525C320.662950,400.847949,325.336122,403.433328,327,407.900000L338.930000,439.170000C339.280984,440.087589,339.252634,441.107093,338.851198,442.003758C338.449762,442.900423,337.708202,443.600625,336.790000,443.950000L314.930000,452.300000C313.816262,452.728789,312.563746,452.590863,311.570000,451.930000Z" fill="rgb(204,204,204)" stroke="none" stroke-width="1"/><path id="eREyV6WAmTu38" d="M256,510.110000C254.053010,508.804879,252.705599,506.778438,252.255298,504.478147C251.804996,502.177856,252.288844,499.792931,253.600000,497.850000C253.894019,497.415726,254.228875,497.010550,254.600000,496.640000L250.740000,410.340000L269.830000,412.590000L267.610000,496.810000C270.678393,500.142925,270.745927,505.251299,267.766717,508.664175C264.787506,512.077052,259.716822,512.700108,256,510.110000Z" fill="rgb(160,97,106)" stroke="none" stroke-width="1"/><path id="eREyV6WAmTu39" d="M242.740000,433.320000C242.030651,432.358460,241.839929,431.109416,242.230000,429.980000L254,394.630000C255.491594,390.127013,260.031990,387.373342,264.714562,388.131804C269.397134,388.890266,272.836126,392.936403,272.830000,397.680000L272.830000,431.150000C272.830007,433.195078,271.175070,434.854488,269.130000,434.860000L245.730000,434.860000C244.543331,434.858776,243.430073,434.285393,242.740000,433.320000Z" fill="rgb(204,204,204)" stroke="none" stroke-width="1"/><path id="eREyV6WAmTu40" d="M292.910000,377.710000C291.344282,378.935038,289.116497,378.824287,287.680000,377.450000C283.246530,373.531136,279.866754,368.562899,277.850000,363C275.730000,356.580000,276.270000,349.050000,280.330000,343.640000C283.760000,339.070000,289.190000,336.490000,294.540000,334.470000C296.626858,333.581386,298.834394,333.008438,301.090000,332.770000C303.366920,332.533573,305.648369,333.173666,307.470000,334.560000C309.283358,336.009939,310.025108,338.421618,309.340000,340.640000C312.086037,338.156212,315.433152,336.432672,319.050000,335.640000C321.339075,335.029375,323.759848,335.130531,325.990000,335.930000C329.090000,337.200000,331.110000,340.320000,332.040000,343.540000C332.803904,346.000736,332.866240,348.625778,332.220000,351.120000C331.537229,353.622584,329.830743,355.721199,327.520000,356.900000C324.680000,358.240000,321.320000,357.730000,318.350000,356.720000C315.380000,355.710000,312.570000,354.200000,309.500000,353.550000C306.430000,352.900000,302.880000,353.280000,300.710000,355.550000C299.180000,357.150000,298.580000,359.390000,298.030000,361.550000L295.190000,372.680000C294.875950,374.304141,294.273067,375.858767,293.410000,377.270000C293.263535,377.438143,293.095400,377.586101,292.910000,377.710000Z" fill="rgb(47,46,65)" stroke="none" stroke-width="1"/><path id="eREyV6WAmTu41" d="M374.850000,538.360000L348.280000,538.360000C346.878322,538.355269,345.683606,537.342083,345.450000,535.960000C343.716920,524.692922,343.716920,513.227078,345.450000,501.960000C345.683606,500.577917,346.878322,499.564731,348.280000,499.560000L374.850000,499.560000C375.721535,499.550520,376.547067,499.950330,377.080000,500.640000C377.629706,501.336745,377.828802,502.247427,377.620000,503.110000C375.140180,513.521036,375.140180,524.368964,377.620000,534.780000C377.828802,535.642573,377.629706,536.553255,377.080000,537.250000C376.548230,537.944839,375.724958,538.354629,374.850000,538.360000Z" fill="rgb(217,4,41)" stroke="none" stroke-width="1"/><path id="eREyV6WAmTu42" d="M330.310000,646.640000L197.870000,646.640000C197.449358,646.593619,197.130967,646.238192,197.130967,645.815000C197.130967,645.391808,197.449358,645.036381,197.870000,644.990000L330.310000,644.990000C330.626432,644.955109,330.934940,645.104282,331.104098,645.373971C331.273257,645.643660,331.273257,645.986340,331.104098,646.256029C330.934940,646.525718,330.626432,646.674891,330.310000,646.640000Z" fill="rgb(63,61,86)" stroke="none" stroke-width="1"/></g><script><![CDATA[!function(t,n){"object"==typeof exports&&"undefined"!=typeof module?module.exports=n():"function"==typeof define&&define.amd?define(n):(t="undefined"!=typeof globalThis?globalThis:t||self).__SVGATOR_PLAYER__=n()}(this,(function(){"use strict";function t(n){return(t="function"==typeof Symbol&&"symbol"==typeof Symbol.iterator?function(t){return typeof t}:function(t){return t&&"function"==typeof Symbol&&t.constructor===Symbol&&t!==Symbol.prototype?"symbol":typeof t})(n)}function n(t,n){if(!(t instanceof n))throw new TypeError("Cannot call a class as a function")}function r(t,n){for(var r=0;r<n.length;r++){var e=n[r];e.enumerable=e.enumerable||!1,e.configurable=!0,"value"in e&&(e.writable=!0),Object.defineProperty(t,e.key,e)}}function e(t,n,e){return n&&r(t.prototype,n),e&&r(t,e),t}function i(t){return(i=Object.setPrototypeOf?Object.getPrototypeOf:function(t){return t.__proto__||Object.getPrototypeOf(t)})(t)}function u(t,n){return(u=Object.setPrototypeOf||function(t,n){return t.__proto__=n,t})(t,n)}function o(t,n){return!n||"object"!=typeof n&&"function"!=typeof n?function(t){if(void 0===t)throw new ReferenceError("this hasn't been initialised - super() hasn't been called");return t}(t):n}function a(t){var n=function(){if("undefined"==typeof Reflect||!Reflect.construct)return!1;if(Reflect.construct.sham)return!1;if("function"==typeof Proxy)return!0;try{return Boolean.prototype.valueOf.call(Reflect.construct(Boolean,[],(function(){}))),!0}catch(t){return!1}}();return function(){var r,e=i(t);if(n){var u=i(this).constructor;r=Reflect.construct(e,arguments,u)}else r=e.apply(this,arguments);return o(this,r)}}function l(t,n,r){return(l="undefined"!=typeof Reflect&&Reflect.get?Reflect.get:function(t,n,r){var e=function(t,n){for(;!Object.prototype.hasOwnProperty.call(t,n)&&null!==(t=i(t)););return t}(t,n);if(e){var u=Object.getOwnPropertyDescriptor(e,n);return u.get?u.get.call(r):u.value}})(t,n,r||t)}var f=Math.abs;function s(t){return t}function c(t,n,r){var e=1-r;return 3*r*e*(t*e+n*r)+r*r*r}function h(){var t=arguments.length>0&&void 0!==arguments[0]?arguments[0]:0,n=arguments.length>1&&void 0!==arguments[1]?arguments[1]:0,r=arguments.length>2&&void 0!==arguments[2]?arguments[2]:1,e=arguments.length>3&&void 0!==arguments[3]?arguments[3]:1;return t<0||t>1||r<0||r>1?null:f(t-n)<=1e-5&&f(r-e)<=1e-5?s:function(i){if(i<=0)return t>0?i*n/t:0===n&&r>0?i*e/r:0;if(i>=1)return r<1?1+(i-1)*(e-1)/(r-1):1===r&&t<1?1+(i-1)*(n-1)/(t-1):1;for(var u,o=0,a=1;o<a;){var l=c(t,r,u=(o+a)/2);if(f(i-l)<1e-5)break;l<i?o=u:a=u}return c(n,e,u)}}function v(){return 1}function y(t){return 1===t?1:0}function d(){var t=arguments.length>0&&void 0!==arguments[0]?arguments[0]:1,n=arguments.length>1&&void 0!==arguments[1]?arguments[1]:0;if(1===t){if(0===n)return y;if(1===n)return v}var r=1/t;return function(t){return t>=1?1:(t+=n*r)-t%r}}function g(t){var n=arguments.length>1&&void 0!==arguments[1]?arguments[1]:2;if(Number.isInteger(t))return t;var r=Math.pow(10,n);return Math.round(t*r)/r}var p=Math.PI/180;function m(t,n,r){return t>=.5?r:n}function b(t,n,r){return 0===t||n===r?n:t*(r-n)+n}function w(t,n,r){var e=b(t,n,r);return e<=0?0:e}function x(t,n,r){return 0===t?n:1===t?r:{x:b(t,n.x,r.x),y:b(t,n.y,r.y)}}function A(t,n,r){return 0===t?n:1===t?r:{x:w(t,n.x,r.x),y:w(t,n.y,r.y)}}function k(t,n,r){var e=function(t,n,r){return Math.round(b(t,n,r))}(t,n,r);return e<=0?0:e>=255?255:e}function _(t,n,r){return 0===t?n:1===t?r:{r:k(t,n.r,r.r),g:k(t,n.g,r.g),b:k(t,n.b,r.b),a:b(t,null==n.a?1:n.a,null==r.a?1:r.a)}}function S(t,n,r){if(0===t)return n;if(1===t)return r;var e=n.length;if(e!==r.length)return m(t,n,r);for(var i=[],u=0;u<e;u++)i.push(_(t,n[u],r[u]));return i}function O(t,n,r){var e=n.length;if(e!==r.length)return m(t,n,r);for(var i=new Array(e),u=0;u<e;u++)i[u]=b(t,n[u],r[u]);return i}function M(t,n){for(var r=[],e=0;e<t;e++)r.push(n);return r}function B(t,n){if(--n<=0)return t;var r=(t=Object.assign([],t)).length;do{for(var e=0;e<r;e++)t.push(t[e])}while(--n>0);return t}var I,j=function(){function t(r){n(this,t),this.list=r,this.length=r.length}return e(t,[{key:"setAttribute",value:function(t,n){for(var r=this.list,e=0;e<this.length;e++)r[e].setAttribute(t,n)}},{key:"removeAttribute",value:function(t){for(var n=this.list,r=0;r<this.length;r++)n[r].removeAttribute(t)}},{key:"style",value:function(t,n){for(var r=this.list,e=0;e<this.length;e++)r[e].style[t]=n}}]),t}(),E=/-./g,F=function(t,n){return n.toUpperCase()};function P(t){return"function"==typeof t?t:m}function R(t){return t?"function"==typeof t?t:Array.isArray(t)?function(t){var n=arguments.length>1&&void 0!==arguments[1]?arguments[1]:s;if(!Array.isArray(t))return n;switch(t.length){case 1:return d(t[0])||n;case 2:return d(t[0],t[1])||n;case 4:return h(t[0],t[1],t[2],t[3])||n}return n}(t,null):function(t,n){var r=arguments.length>2&&void 0!==arguments[2]?arguments[2]:s;switch(t){case"linear":return s;case"steps":return d(n.steps||1,n.jump||0)||r;case"bezier":case"cubic-bezier":return h(n.x1||0,n.y1||0,n.x2||0,n.y2||0)||r}return r}(t.type,t.value,null):null}function q(t,n,r){var e=arguments.length>3&&void 0!==arguments[3]&&arguments[3],i=n.length-1;if(t<=n[0].t)return e?[0,0,n[0].v]:n[0].v;if(t>=n[i].t)return e?[i,1,n[i].v]:n[i].v;var u,o=n[0],a=null;for(u=1;u<=i;u++){if(!(t>n[u].t)){a=n[u];break}o=n[u]}return null==a?e?[i,1,n[i].v]:n[i].v:o.t===a.t?e?[u,1,a.v]:a.v:(t=(t-o.t)/(a.t-o.t),o.e&&(t=o.e(t)),e?[u,t,r(t,o.v,a.v)]:r(t,o.v,a.v))}function T(t,n){var r=arguments.length>2&&void 0!==arguments[2]?arguments[2]:null;return t&&t.length?"function"!=typeof n?null:("function"!=typeof r&&(r=null),function(e){var i=q(e,t,n);return null!=i&&r&&(i=r(i)),i}):null}function N(t,n){return t.t-n.t}function C(n,r,e,i,u){var o,a="@"===e[0],l="#"===e[0],f=I[e],s=m;switch(a?(o=e.substr(1),e=o.replace(E,F)):l&&(e=e.substr(1)),t(f)){case"function":if(s=f(i,u,q,R,e,a,r,n),l)return s;break;case"string":s=T(i,P(f));break;case"object":if((s=T(i,P(f.i),f.f))&&"function"==typeof f.u)return f.u(r,s,e,a,n)}return s?function(t,n,r){var e=arguments.length>3&&void 0!==arguments[3]&&arguments[3];if(e)return t instanceof j?function(e){return t.style(n,r(e))}:function(e){return t.style[n]=r(e)};if(Array.isArray(n)){var i=n.length;return function(e){var u=r(e);if(null==u)for(var o=0;o<i;o++)t[o].removeAttribute(n);else for(var a=0;a<i;a++)t[a].setAttribute(n,u)}}return function(e){var i=r(e);null==i?t.removeAttribute(n):t.setAttribute(n,i)}}(r,e,s,a):null}function z(n,r,e,i){if(!i||"object"!==t(i))return null;var u=null,o=null;return Array.isArray(i)?o=function(t){if(!t||!t.length)return null;for(var n=0;n<t.length;n++)t[n].e&&(t[n].e=R(t[n].e));return t.sort(N)}(i):(o=i.keys,u=i.data||null),o?C(n,r,e,o,u):null}function L(t,n,r){if(!r)return null;var e=[];for(var i in r)if(r.hasOwnProperty(i)){var u=z(t,n,i,r[i]);u&&e.push(u)}return e.length?e:null}function D(t,n){if(!n.duration||n.duration<0)return null;var r=function(t,n){if(!n)return null;var r=[];if(Array.isArray(n))for(var e=n.length,i=0;i<e;i++){var u=n[i];if(2===u.length){var o=null;if("string"==typeof u[0])o=t.getElementById(u[0]);else if(Array.isArray(u[0])){o=[];for(var a=0;a<u[0].length;a++)if("string"==typeof u[0][a]){var l=t.getElementById(u[0][a]);l&&o.push(l)}o=o.length?1===o.length?o[0]:new j(o):null}if(o){var f=L(t,o,u[1]);f&&(r=r.concat(f))}}}else for(var s in n)if(n.hasOwnProperty(s)){var c=t.getElementById(s);if(c){var h=L(t,c,n[s]);h&&(r=r.concat(h))}}return r.length?r:null}(t,n.elements);return r?function(t,n){var r=arguments.length>2&&void 0!==arguments[2]?arguments[2]:1/0,e=arguments.length>3&&void 0!==arguments[3]?arguments[3]:1,i=arguments.length>4&&void 0!==arguments[4]&&arguments[4],u=arguments.length>5&&void 0!==arguments[5]?arguments[5]:1,o=t.length,a=e>0?n:0;i&&r%2==0&&(a=n-a);var l=null;return function(f,s){var c=f%n,h=1+(f-c)/n;s*=e,i&&h%2==0&&(s=-s);var v=!1;if(h>r)c=a,v=!0,-1===u&&(c=e>0?0:n);else if(s<0&&(c=n-c),c===l)return!1;l=c;for(var y=0;y<o;y++)t[y](c);return v}}(r,n.duration,n.iterations||1/0,n.direction||1,!!n.alternate,n.fill||1):null}var V=function(){function t(r,e){var i=arguments.length>2&&void 0!==arguments[2]?arguments[2]:{};n(this,t),this._id=0,this._running=!1,this._rollingBack=!1,this._animations=r,this.duration=e.duration,this.alternate=e.alternate,this.fill=e.fill,this.iterations=e.iterations,this.direction=i.direction||1,this.speed=i.speed||1,this.fps=i.fps||100,this.offset=i.offset||0,this.rollbackStartOffset=0}return e(t,[{key:"_rollback",value:function(){var t=this,n=1/0,r=null;this.rollbackStartOffset=this.offset,this._rollingBack||(this._rollingBack=!0,this._running=!0);this._id=window.requestAnimationFrame((function e(i){if(t._rollingBack){null==r&&(r=i);var u=i-r,o=t.rollbackStartOffset-u,a=Math.round(o*t.speed);if(a>t.duration&&n!=1/0){var l=!!t.alternate&&a/t.duration%2>1,f=a%t.duration;a=(f+=l?t.duration:0)||t.duration}var s=t.fps?1e3/t.fps:0,c=Math.max(0,a);if(c<n-s){t.offset=c,n=c;for(var h=t._animations,v=h.length,y=0;y<v;y++)h[y](c,t.direction)}var d=!1;if(t.iterations>0&&-1===t.fill){var g=t.iterations*t.duration,p=g==a;a=p?0:a,t.offset=p?0:t.offset,d=a>g}a>0&&t.offset>=a&&!d?t._id=window.requestAnimationFrame(e):t.stop()}}))}},{key:"_start",value:function(){var t=this,n=arguments.length>0&&void 0!==arguments[0]?arguments[0]:0,r=-1/0,e=null,i={},u=function u(o){t._running=!0,null==e&&(e=o);var a=Math.round((o-e+n)*t.speed),l=t.fps?1e3/t.fps:0;if(a>r+l&&!t._rollingBack){t.offset=a,r=a;for(var f=t._animations,s=f.length,c=0,h=0;h<s;h++)i[h]?c++:(i[h]=f[h](a,t.direction),i[h]&&c++);if(c===s)return void t._stop()}t._id=window.requestAnimationFrame(u)};this._id=window.requestAnimationFrame(u)}},{key:"_stop",value:function(){this._id&&window.cancelAnimationFrame(this._id),this._running=!1,this._rollingBack=!1}},{key:"play",value:function(){!this._rollingBack&&this._running||(this._rollingBack=!1,this.rollbackStartOffset>this.duration&&(this.offset=this.rollbackStartOffset-(this.rollbackStartOffset-this.offset)%this.duration,this.rollbackStartOffset=0),this._start(this.offset))}},{key:"stop",value:function(){this._stop(),this.offset=0,this.rollbackStartOffset=0;var t=this.direction,n=this._animations;window.requestAnimationFrame((function(){for(var r=0;r<n.length;r++)n[r](0,t)}))}},{key:"reachedToEnd",value:function(){return this.iterations>0&&this.offset>=this.iterations*this.duration}},{key:"restart",value:function(){this._stop(),this.offset=0,this._start()}},{key:"pause",value:function(){this._stop()}},{key:"reverse",value:function(){this.direction=-this.direction}}],[{key:"build",value:function(n,r){return(n=function(t,n){if(I=n,!t||!t.root||!Array.isArray(t.animations))return null;for(var r=document.getElementsByTagName("svg"),e=!1,i=0;i<r.length;i++)if(r[i].id===t.root&&!r[i].svgatorAnimation){(e=r[i]).svgatorAnimation=!0;break}if(!e)return null;var u=t.animations.map((function(t){return D(e,t)})).filter((function(t){return!!t}));return u.length?{element:e,animations:u,animationSettings:t.animationSettings,options:t.options||void 0}:null}(n,r))?{el:n.element,options:n.options||{},player:new t(n.animations,n.animationSettings,n.options)}:null}}]),t}();!function(){for(var t=0,n=["ms","moz","webkit","o"],r=0;r<n.length&&!window.requestAnimationFrame;++r)window.requestAnimationFrame=window[n[r]+"RequestAnimationFrame"],window.cancelAnimationFrame=window[n[r]+"CancelAnimationFrame"]||window[n[r]+"CancelRequestAnimationFrame"];window.requestAnimationFrame||(window.requestAnimationFrame=function(n){var r=Date.now(),e=Math.max(0,16-(r-t)),i=window.setTimeout((function(){n(r+e)}),e);return t=r+e,i},window.cancelAnimationFrame=window.clearTimeout)}();var G=/\.0+$/g;function Q(t){return Number.isInteger(t)?t+"":t.toFixed(6).replace(G,"")}function U(t){var n=arguments.length>1&&void 0!==arguments[1]?arguments[1]:" ";return t&&t.length?t.map(Q).join(n):""}function $(t){return Q(t.x)+","+Q(t.y)}function H(t){return t?null==t.a||t.a>=1?"rgb("+t.r+","+t.g+","+t.b+")":"rgba("+t.r+","+t.g+","+t.b+","+t.a+")":"transparent"}var Y={f:null,i:A,u:function(t,n){return function(r){var e=n(r);t.setAttribute("rx",Q(e.x)),t.setAttribute("ry",Q(e.y))}}},Z={f:null,i:function(t,n,r){return 0===t?n:1===t?r:{width:w(t,n.width,r.width),height:w(t,n.height,r.height)}},u:function(t,n){return function(r){var e=n(r);t.setAttribute("width",Q(e.width)),t.setAttribute("height",Q(e.height))}}},J=Math.sin,K=Math.cos,W=Math.acos,X=Math.asin,tt=Math.tan,nt=Math.atan2,rt=Math.PI/180,et=180/Math.PI,it=Math.sqrt,ut=function(){function t(){var r=arguments.length>0&&void 0!==arguments[0]?arguments[0]:1,e=arguments.length>1&&void 0!==arguments[1]?arguments[1]:0,i=arguments.length>2&&void 0!==arguments[2]?arguments[2]:0,u=arguments.length>3&&void 0!==arguments[3]?arguments[3]:1,o=arguments.length>4&&void 0!==arguments[4]?arguments[4]:0,a=arguments.length>5&&void 0!==arguments[5]?arguments[5]:0;n(this,t),this.m=[r,e,i,u,o,a],this.i=null,this.w=null,this.s=null}return e(t,[{key:"determinant",get:function(){var t=this.m;return t[0]*t[3]-t[1]*t[2]}},{key:"isIdentity",get:function(){if(null===this.i){var t=this.m;this.i=1===t[0]&&0===t[1]&&0===t[2]&&1===t[3]&&0===t[4]&&0===t[5]}return this.i}},{key:"point",value:function(t,n){var r=this.m;return{x:r[0]*t+r[2]*n+r[4],y:r[1]*t+r[3]*n+r[5]}}},{key:"translateSelf",value:function(){var t=arguments.length>0&&void 0!==arguments[0]?arguments[0]:0,n=arguments.length>1&&void 0!==arguments[1]?arguments[1]:0;if(!t&&!n)return this;var r=this.m;return r[4]+=r[0]*t+r[2]*n,r[5]+=r[1]*t+r[3]*n,this.w=this.s=this.i=null,this}},{key:"rotateSelf",value:function(){var t=arguments.length>0&&void 0!==arguments[0]?arguments[0]:0;if(t%=360){var n=J(t*=rt),r=K(t),e=this.m,i=e[0],u=e[1];e[0]=i*r+e[2]*n,e[1]=u*r+e[3]*n,e[2]=e[2]*r-i*n,e[3]=e[3]*r-u*n,this.w=this.s=this.i=null}return this}},{key:"scaleSelf",value:function(){var t=arguments.length>0&&void 0!==arguments[0]?arguments[0]:1,n=arguments.length>1&&void 0!==arguments[1]?arguments[1]:1;if(1!==t||1!==n){var r=this.m;r[0]*=t,r[1]*=t,r[2]*=n,r[3]*=n,this.w=this.s=this.i=null}return this}},{key:"skewSelf",value:function(t,n){if(n%=360,(t%=360)||n){var r=this.m,e=r[0],i=r[1],u=r[2],o=r[3];t&&(t=tt(t*rt),r[2]+=e*t,r[3]+=i*t),n&&(n=tt(n*rt),r[0]+=u*n,r[1]+=o*n),this.w=this.s=this.i=null}return this}},{key:"resetSelf",value:function(){var t=arguments.length>0&&void 0!==arguments[0]?arguments[0]:1,n=arguments.length>1&&void 0!==arguments[1]?arguments[1]:0,r=arguments.length>2&&void 0!==arguments[2]?arguments[2]:0,e=arguments.length>3&&void 0!==arguments[3]?arguments[3]:1,i=arguments.length>4&&void 0!==arguments[4]?arguments[4]:0,u=arguments.length>5&&void 0!==arguments[5]?arguments[5]:0,o=this.m;return o[0]=t,o[1]=n,o[2]=r,o[3]=e,o[4]=i,o[5]=u,this.w=this.s=this.i=null,this}},{key:"recomposeSelf",value:function(){var t=arguments.length>0&&void 0!==arguments[0]?arguments[0]:null,n=arguments.length>1&&void 0!==arguments[1]?arguments[1]:null,r=arguments.length>2&&void 0!==arguments[2]?arguments[2]:null,e=arguments.length>3&&void 0!==arguments[3]?arguments[3]:null,i=arguments.length>4&&void 0!==arguments[4]?arguments[4]:null;return this.isIdentity||this.resetSelf(),t&&(t.x||t.y)&&this.translateSelf(t.x,t.y),n&&this.rotateSelf(n),r&&(r.x&&this.skewSelf(r.x,0),r.y&&this.skewSelf(0,r.y)),!e||1===e.x&&1===e.y||this.scaleSelf(e.x,e.y),i&&(i.x||i.y)&&this.translateSelf(i.x,i.y),this}},{key:"decompose",value:function(){var t=arguments.length>0&&void 0!==arguments[0]?arguments[0]:0,n=arguments.length>1&&void 0!==arguments[1]?arguments[1]:0,r=this.m,e=r[0]*r[0]+r[1]*r[1],i=[[r[0],r[1]],[r[2],r[3]]],u=it(e);if(0===u)return{origin:{x:r[4],y:r[5]},translate:{x:t,y:n},scale:{x:0,y:0},skew:{x:0,y:0},rotate:0};i[0][0]/=u,i[0][1]/=u;var o=r[0]*r[3]-r[1]*r[2]<0;o&&(u=-u);var a=i[0][0]*i[1][0]+i[0][1]*i[1][1];i[1][0]-=i[0][0]*a,i[1][1]-=i[0][1]*a;var l=it(i[1][0]*i[1][0]+i[1][1]*i[1][1]);if(0===l)return{origin:{x:r[4],y:r[5]},translate:{x:t,y:n},scale:{x:u,y:0},skew:{x:0,y:0},rotate:0};i[1][0]/=l,i[1][1]/=l,a/=l;var f=0;return i[1][1]<0?(f=W(i[1][1])*et,i[0][1]<0&&(f=360-f)):f=X(i[0][1])*et,o&&(f=-f),a=nt(a,it(i[0][0]*i[0][0]+i[0][1]*i[0][1]))*et,o&&(a=-a),{origin:{x:r[4],y:r[5]},translate:{x:t,y:n},scale:{x:u,y:l},skew:{x:a,y:0},rotate:f}}},{key:"toString",value:function(){return null===this.s&&(this.s="matrix("+this.m.map(at).join(" ")+")"),this.s}}]),t}(),ot=/\.0+$/;function at(t){return Number.isInteger(t)?t:t.toFixed(14).replace(ot,"")}function lt(t,n,r){return t+(n-t)*r}function ft(t,n,r){var e=arguments.length>3&&void 0!==arguments[3]&&arguments[3],i={x:lt(t.x,n.x,r),y:lt(t.y,n.y,r)};return e&&(i.a=st(t,n)),i}function st(t,n){return Math.atan2(n.y-t.y,n.x-t.x)}Object.freeze({M:2,L:2,Z:0,H:1,V:1,C:6,Q:4,T:2,S:4,A:7});var ct={},ht=null;function vt(n){var r=function(){if(ht)return ht;if("object"!==("undefined"==typeof document?"undefined":t(document)))return{};var n=document.createElementNS("http://www.w3.org/2000/svg","svg");return n.style.position="absolute",n.style.opacity="0.01",n.style.zIndex="-9999",n.style.left="-9999px",n.style.width="1px",n.style.height="1px",ht={svg:n}}().svg;if(!r)return function(t){return null};var e=document.createElementNS(r.namespaceURI,"path");e.setAttributeNS(null,"d",n),e.setAttributeNS(null,"fill","none"),e.setAttributeNS(null,"stroke","none"),r.appendChild(e);var i=e.getTotalLength();return function(t){var n=e.getPointAtLength(i*t);return{x:n.x,y:n.y}}}function yt(t){return ct[t]?ct[t]:ct[t]=vt(t)}function dt(t,n,r,e){if(!t||!e)return!1;var i=["M",t.x,t.y];if(n&&r&&(i.push("C"),i.push(n.x),i.push(n.y),i.push(r.x),i.push(r.y)),n?!r:r){var u=n||r;i.push("Q"),i.push(u.x),i.push(u.y)}return n||r||i.push("L"),i.push(e.x),i.push(e.y),i.join(" ")}function gt(t,n,r,e){var i=arguments.length>4&&void 0!==arguments[4]?arguments[4]:1,u=dt(t,n,r,e),o=yt(u);try{return o(i)}catch(t){return null}}function pt(t,n,r,e){var i=1-e;return i*i*t+2*i*e*n+e*e*r}function mt(t,n,r,e){return 2*(1-e)*(n-t)+2*e*(r-n)}function bt(t,n,r,e){var i=arguments.length>4&&void 0!==arguments[4]&&arguments[4],u=gt(t,n,null,r,e);return u||(u={x:pt(t.x,n.x,r.x,e),y:pt(t.y,n.y,r.y,e)}),i&&(u.a=wt(t,n,r,e)),u}function wt(t,n,r,e){return Math.atan2(mt(t.y,n.y,r.y,e),mt(t.x,n.x,r.x,e))}function xt(t,n,r,e,i){var u=i*i;return i*u*(e-t+3*(n-r))+3*u*(t+r-2*n)+3*i*(n-t)+t}function At(t,n,r,e,i){var u=1-i;return 3*(u*u*(n-t)+2*u*i*(r-n)+i*i*(e-r))}function kt(t,n,r,e,i){var u=arguments.length>5&&void 0!==arguments[5]&&arguments[5],o=gt(t,n,r,e,i);return o||(o={x:xt(t.x,n.x,r.x,e.x,i),y:xt(t.y,n.y,r.y,e.y,i)}),u&&(o.a=_t(t,n,r,e,i)),o}function _t(t,n,r,e,i){return Math.atan2(At(t.y,n.y,r.y,e.y,i),At(t.x,n.x,r.x,e.x,i))}function St(t,n,r){var e=arguments.length>3&&void 0!==arguments[3]&&arguments[3];if(Mt(n)){if(Bt(r))return bt(n,r.start,r,t,e)}else if(Mt(r)){if(n.end)return bt(n,n.end,r,t,e)}else{if(n.end)return r.start?kt(n,n.end,r.start,r,t,e):bt(n,n.end,r,t,e);if(r.start)return bt(n,r.start,r,t,e)}return ft(n,r,t,e)}function Ot(t,n,r){var e=St(t,n,r,!0);return e.a=function(t){var n=arguments.length>1&&void 0!==arguments[1]&&arguments[1];return n?t+Math.PI:t}(e.a)/p,e}function Mt(t){return!t.type||"corner"===t.type}function Bt(t){return null!=t.start&&!Mt(t)}var It=new ut;var jt={f:function(t){return t?t.join(" "):""},i:function(n,r,e){if(0===n)return r;if(1===n)return e;var i=r.length;if(i!==e.length)return m(n,r,e);for(var u,o=new Array(i),a=0;a<i;a++){if((u=t(r[a]))!==t(e[a]))return m(n,r,e);if("number"===u)o[a]=b(n,r[a],e[a]);else{if(r[a]!==e[a])return m(n,r,e);o[a]=r[a]}}return o}},Et={f:null,i:O,u:function(t,n){return function(r){var e=n(r);t.setAttribute("x1",Q(e[0])),t.setAttribute("y1",Q(e[1])),t.setAttribute("x2",Q(e[2])),t.setAttribute("y2",Q(e[3]))}}},Ft={f:Q,i:b},Pt={f:Q,i:function(t,n,r){var e=b(t,n,r);return e<=0?0:e>=1?1:e}},Rt={f:function(t){var n=arguments.length>1&&void 0!==arguments[1]?arguments[1]:" ";return t&&t.length>0&&(t=t.map((function(t){return Math.floor(1e4*t)/1e4}))),U(t,n)},i:function(t,n,r){var e,i,u,o=n.length,a=r.length;if(o!==a)if(0===o)n=M(o=a,0);else if(0===a)a=o,r=M(o,0);else{var l=(u=(e=o)*(i=a)/function(t,n){for(var r;n;)r=n,n=t%n,t=r;return t||1}(e,i))<0?-u:u;n=B(n,Math.floor(l/o)),r=B(r,Math.floor(l/a)),o=a=l}for(var f=[],s=0;s<o;s++)f.push(g(w(t,n[s],r[s]),6));return f}};function qt(t,n,r,e,i,u,o,a){return n=function(t,n,r){for(var e,i,u,o=t.length-1,a={},l=0;l<=o;l++)(e=t[l]).e&&(e.e=n(e.e)),e.v&&"g"===(i=e.v).t&&i.r&&(u=r.getElementById(i.r))&&(a[i.r]=u.querySelectorAll("stop"));return a}(t,e,a),function(e){var i,u=r(e,t,Tt);return u?"c"===u.t?H(u.v):"g"===u.t?(n[u.r]&&function(t,n){for(var r=0,e=t.length;r<e;r++)t[r].setAttribute("stop-color",H(n[r]))}(n[u.r],u.v),(i=u.r)?"url(#"+i+")":"none"):"none":"none"}}function Tt(t,n,r){if(0===t)return n;if(1===t)return r;if(n&&r){var e=n.t;if(e===r.t)switch(n.t){case"c":return{t:e,v:_(t,n.v,r.v)};case"g":if(n.r===r.r)return{t:e,v:S(t,n.v,r.v),r:n.r}}}return m(t,n,r)}var Nt={blur:A,brightness:w,contrast:w,"drop-shadow":function(t,n,r){return 0===t?n:1===t?r:{blur:A(t,n.blur,r.blur),offset:x(t,n.offset,r.offset),color:_(t,n.color,r.color)}},grayscale:w,"hue-rotate":b,invert:w,opacity:w,saturate:w,sepia:w};function Ct(t,n,r){if(0===t)return n;if(1===t)return r;var e=n.length;if(e!==r.length)return m(t,n,r);for(var i,u=[],o=0;o<e;o++){if(n[o].type!==r[o].type)return n;if(!(i=Nt[n[o].type]))return m(t,n,r);u.push({type:n.type,value:i(t,n[o].value,r[o].value)})}return u}var zt={blur:function(t){return t?function(n){t.setAttribute("stdDeviation",$(n))}:null},brightness:function(t,n,r){return(t=Dt(r,n))?function(n){n=Q(n),t.map((function(t){return t.setAttribute("slope",n)}))}:null},contrast:function(t,n,r){return(t=Dt(r,n))?function(n){var r=Q((1-n)/2);n=Q(n),t.map((function(t){t.setAttribute("slope",n),t.setAttribute("intercept",r)}))}:null},"drop-shadow":function(t,n,r){var e=r.getElementById(n+"-blur");if(!e)return null;var i=r.getElementById(n+"-offset");if(!i)return null;var u=r.getElementById(n+"-flood");return u?function(t){e.setAttribute("stdDeviation",$(t.blur)),i.setAttribute("dx",Q(t.offset.x)),i.setAttribute("dy",Q(t.offset.y)),u.setAttribute("flood-color",H(t.color))}:null},grayscale:function(t){return t?function(n){t.setAttribute("values",U(function(t){return[.2126+.7874*(t=1-t),.7152-.7152*t,.0722-.0722*t,0,0,.2126-.2126*t,.7152+.2848*t,.0722-.0722*t,0,0,.2126-.2126*t,.7152-.7152*t,.0722+.9278*t,0,0,0,0,0,1,0]}(n)))}:null},"hue-rotate":function(t){return t?function(n){return t.setAttribute("values",Q(n))}:null},invert:function(t,n,r){return(t=Dt(r,n))?function(n){n=Q(n)+" "+Q(1-n),t.map((function(t){return t.setAttribute("tableValues",n)}))}:null},opacity:function(t,n,r){return(t=r.getElementById(n+"-A"))?function(n){return t.setAttribute("tableValues","0 "+Q(n))}:null},saturate:function(t){return t?function(n){return t.setAttribute("values",Q(n))}:null},sepia:function(t){return t?function(n){return t.setAttribute("values",U(function(t){return[.393+.607*(t=1-t),.769-.769*t,.189-.189*t,0,0,.349-.349*t,.686+.314*t,.168-.168*t,0,0,.272-.272*t,.534-.534*t,.131+.869*t,0,0,0,0,0,1,0]}(n)))}:null}};var Lt=["R","G","B"];function Dt(t,n){var r=Lt.map((function(r){return t.getElementById(n+"-"+r)||null}));return-1!==r.indexOf(null)?null:r}var Vt={fill:qt,"fill-opacity":Pt,stroke:qt,"stroke-opacity":Pt,"stroke-width":Ft,"stroke-dashoffset":{f:Q,i:b},"stroke-dasharray":Rt,opacity:Pt,transform:function(n,r,e,i){if(!(n=function(n,r){if(!n||"object"!==t(n))return null;var e=!1;for(var i in n)n.hasOwnProperty(i)&&(n[i]&&n[i].length?(n[i].forEach((function(t){t.e&&(t.e=r(t.e))})),e=!0):delete n[i]);return e?n:null}(n,i)))return null;var u=function(t,i,u){var o=arguments.length>3&&void 0!==arguments[3]?arguments[3]:null;return n[t]?e(i,n[t],u):r&&r[t]?r[t]:o};return r&&r.a&&n.o?function(t){var r=e(t,n.o,Ot);return It.recomposeSelf(r,u("r",t,b,0)+r.a,u("k",t,x),u("s",t,x),u("t",t,x)).toString()}:function(t){return It.recomposeSelf(u("o",t,St,null),u("r",t,b,0),u("k",t,x),u("s",t,x),u("t",t,x)).toString()}},"#filter":function(t,n,r,e,i,u,o,a){if(!n.items||!t||!t.length)return null;var l=function(t,n){var r=(t=t.map((function(t){return t&&zt[t[0]]?(n.getElementById(t[1]),zt[t[0]](n.getElementById(t[1]),t[1],n)):null}))).length;return function(n){for(var e=0;e<r;e++)t[e]&&t[e](n[e].value)}}(n.items,a);return l?(t=function(t,n){return t.map((function(t){return t.e=n(t.e),t}))}(t,e),function(n){l(r(n,t,Ct))}):null},"#line":Et,points:{f:U,i:O},d:jt,r:Ft,"#size":Z,"#radius":Y,_:function(t,n){if(Array.isArray(t))for(var r=0;r<t.length;r++)this[t[r]]=n;else this[t]=n}};return function(t){!function(t,n){if("function"!=typeof n&&null!==n)throw new TypeError("Super expression must either be null or a function");t.prototype=Object.create(n&&n.prototype,{constructor:{value:t,writable:!0,configurable:!0}}),n&&u(t,n)}(o,t);var r=a(o);function o(){return n(this,o),r.apply(this,arguments)}return e(o,null,[{key:"build",value:function(t){var n=l(i(o),"build",this).call(this,t,Vt);n.el,n.options;var r=n.player;return function(t,n,r){t.play()}(r),r}}]),o}(V)}));
__SVGATOR_PLAYER__.build({"root":"eREyV6WAmTu1","animations":[{"duration":3000,"direction":1,"iterations":0,"fill":1,"alternate":false,"speed":1,"elements":{"eREyV6WAmTu5":{"opacity":[{"t":0,"v":0},{"t":1500,"v":1},{"t":3000,"v":0}]},"eREyV6WAmTu6":{"transform":{"data":{"o":{"x":840.5058898925781,"y":646.9429931640625,"type":"corner"},"t":{"x":-840.5058898925781,"y":-646.9429931640625}},"keys":{"r":[{"t":0,"v":0},{"t":3000,"v":-178.20899278528543}]}}},"eREyV6WAmTu7":{"opacity":[{"t":0,"v":0},{"t":1500,"v":1},{"t":3000,"v":0}]},"eREyV6WAmTu8":{"opacity":[{"t":0,"v":0},{"t":500,"v":1},{"t":1500,"v":0},{"t":2400,"v":1},{"t":3000,"v":0}]},"eREyV6WAmTu10":{"transform":{"data":{"o":{"x":195.75912475585938,"y":162.89501190185547,"type":"corner"},"t":{"x":-195.75912475585938,"y":-162.89501190185547}},"keys":{"r":[{"t":0,"v":0},{"t":3000,"v":179.05640531429174}]}}},"eREyV6WAmTu14":{"opacity":[{"t":0,"v":1},{"t":2000,"v":0},{"t":2100,"v":1},{"t":3000,"v":1}]},"eREyV6WAmTu15":{"opacity":[{"t":0,"v":1},{"t":2000,"v":1},{"t":2100,"v":0}]},"eREyV6WAmTu26":{"opacity":[{"t":0,"v":1},{"t":2000,"v":1}]},"eREyV6WAmTu27":{"opacity":[{"t":0,"v":0},{"t":2000,"v":0},{"t":2100,"v":1},{"t":3000,"v":1}]}}}],"options":{"start":"load","hover":"freeze","click":"freeze","scroll":25,"font":"embed","exportedIds":"unique","svgFormat":"animated","title":"TargetedMarketing-04"},"animationSettings":{"duration":3000,"direction":1,"iterations":0,"fill":1,"alternate":false,"speed":1}})]]></script></svg>