<svg width="291" height="229" viewBox="0 0 291 229" fill="none" xmlns="http://www.w3.org/2000/svg">
<path d="M217.503 151.368C233.467 138.769 240.431 142.078 255.544 127.628C255.544 127.628 273.363 110.566 272.451 94.7498C272.421 93.9908 272.36 93.2319 272.36 93.2319C272.36 92.1997 272.116 90.3175 272.086 90.2568C268.924 60.0199 247.851 46.055 247.851 46.055C226.169 31.6652 199.441 35.6725 196.825 36.0975C179.523 38.9208 168.454 47.0265 164.136 50.6088C160.001 57.8341 152.399 68.2166 138.624 74.9865C113.172 87.5245 93.4371 74.2883 60.8698 85.1262C59.9272 85.4298 58.3459 85.9459 56.2782 86.7352C53.8151 87.6763 27.5727 98.0892 16.5345 118.702C3.06361 143.718 19.7882 169.553 22.4945 173.56C44.3277 205.983 95.0184 216.183 131.812 211.569C144.037 210.02 167.39 206.286 185.118 191.654C202.299 177.476 197.282 167.306 217.503 151.368Z" fill="#3299D9"/>
<path d="M150.057 228.296H149.936C147.473 228.296 144.949 228.175 142.425 227.932C141.726 227.871 141.209 227.325 141.3 226.748C141.391 226.171 142.03 225.746 142.729 225.807C145.131 226.05 147.564 226.141 149.936 226.141H150.057C150.757 226.141 151.335 226.626 151.335 227.203C151.335 227.78 150.787 228.296 150.057 228.296ZM157.416 227.932C156.778 227.932 156.2 227.537 156.139 226.991C156.048 226.414 156.565 225.867 157.264 225.807C159.636 225.564 162.038 225.23 164.38 224.774C165.079 224.623 165.779 224.987 165.931 225.564C166.083 226.141 165.657 226.717 164.988 226.839C162.555 227.325 160.062 227.689 157.599 227.932C157.507 227.901 157.477 227.932 157.416 227.932ZM135.34 226.93C135.249 226.93 135.157 226.93 135.066 226.9C132.694 226.475 130.262 225.928 127.859 225.291C127.19 225.108 126.795 224.501 127.038 223.955C127.251 223.408 127.981 223.074 128.65 223.257C130.991 223.864 133.333 224.41 135.644 224.805C136.343 224.926 136.769 225.503 136.617 226.08C136.465 226.596 135.918 226.93 135.34 226.93ZM171.708 225.048C171.191 225.048 170.705 224.775 170.492 224.349C170.249 223.803 170.583 223.196 171.252 222.983C173.472 222.285 175.722 221.496 177.911 220.615C178.55 220.373 179.341 220.585 179.645 221.101C179.949 221.617 179.675 222.255 179.037 222.528C176.786 223.439 174.445 224.258 172.164 224.957C172.012 225.017 171.86 225.048 171.708 225.048ZM121.291 223.257C121.139 223.257 120.957 223.226 120.805 223.165C118.585 222.407 116.274 221.557 114.024 220.646C113.385 220.373 113.111 219.735 113.446 219.219C113.75 218.703 114.541 218.49 115.179 218.733C117.399 219.644 119.649 220.464 121.808 221.192C122.477 221.405 122.781 222.042 122.507 222.589C122.295 223.014 121.808 223.257 121.291 223.257ZM184.966 219.765C184.54 219.765 184.115 219.583 183.871 219.249C183.507 218.733 183.689 218.096 184.297 217.792C186.365 216.76 188.402 215.637 190.288 214.453C190.865 214.088 191.656 214.179 192.082 214.665C192.507 215.121 192.386 215.788 191.838 216.153C189.862 217.367 187.764 218.521 185.635 219.614C185.422 219.705 185.179 219.765 184.966 219.765ZM108.064 217.914C107.851 217.914 107.638 217.883 107.425 217.762C105.357 216.79 103.198 215.728 101.039 214.635C100.431 214.331 100.249 213.663 100.644 213.178C101.039 212.692 101.83 212.54 102.438 212.844C104.567 213.937 106.665 214.969 108.702 215.94C109.31 216.244 109.554 216.881 109.189 217.397C108.945 217.731 108.52 217.914 108.064 217.914ZM196.704 212.479C196.369 212.479 196.004 212.358 195.761 212.145C195.275 211.72 195.305 211.053 195.822 210.658C197.586 209.292 199.288 207.865 200.839 206.377C201.295 205.922 202.116 205.892 202.664 206.256C203.211 206.651 203.272 207.318 202.816 207.743C201.204 209.292 199.441 210.779 197.616 212.206C197.342 212.388 197.008 212.479 196.704 212.479ZM95.5657 211.478C95.3224 211.478 95.0488 211.417 94.8359 211.295C92.8898 210.202 90.8524 209.019 88.7847 207.774C88.2069 207.44 88.0853 206.772 88.511 206.286C88.9367 205.801 89.7273 205.709 90.3051 206.043C92.3424 207.288 94.3494 208.442 96.2955 209.535C96.8733 209.869 97.0253 210.536 96.63 211.022C96.3867 211.326 95.9914 211.478 95.5657 211.478ZM83.6761 204.343C83.4024 204.343 83.1287 204.283 82.8854 204.131C81.1218 203.038 79.2668 201.854 77.047 200.397C76.4997 200.032 76.3781 199.365 76.8342 198.909C77.2903 198.454 78.0809 198.363 78.6587 198.727C80.8785 200.154 82.7334 201.338 84.4667 202.431C85.0444 202.795 85.1357 203.463 84.7099 203.918C84.4363 204.192 84.041 204.343 83.6761 204.343ZM206.282 203.281C206.039 203.281 205.796 203.22 205.553 203.099C204.975 202.765 204.792 202.097 205.188 201.611C206.587 199.911 207.803 198.181 208.776 196.511C209.08 195.995 209.871 195.752 210.509 196.025C211.148 196.268 211.421 196.906 211.117 197.452C210.083 199.243 208.806 201.034 207.347 202.825C207.103 203.129 206.678 203.281 206.282 203.281ZM72.0905 196.845C71.8168 196.845 71.5127 196.754 71.2695 196.602C69.3537 195.327 67.438 193.991 65.6135 192.655C65.0662 192.261 65.0358 191.593 65.4919 191.168C65.948 190.712 66.769 190.682 67.3164 191.077C69.1409 192.382 70.9958 193.688 72.9115 194.963C73.4589 195.327 73.5501 195.995 73.094 196.45C72.8203 196.693 72.4554 196.845 72.0905 196.845ZM212.577 192.382C212.455 192.382 212.334 192.382 212.212 192.352C211.513 192.2 211.117 191.593 211.33 191.046C212.09 188.891 212.486 186.887 212.79 185.248C212.881 184.671 213.55 184.276 214.249 184.368C214.949 184.459 215.435 185.005 215.344 185.582C215.04 187.312 214.614 189.377 213.824 191.654C213.641 192.079 213.124 192.382 212.577 192.382ZM61.0219 188.83C60.6874 188.83 60.3833 188.739 60.14 188.527C58.3459 187.1 56.5822 185.673 54.8794 184.216C54.3928 183.791 54.3928 183.123 54.9098 182.728C55.4267 182.334 56.2477 182.334 56.7343 182.759C58.4067 184.185 60.14 185.612 61.9037 187.009C62.4206 187.403 62.451 188.102 61.9341 188.496C61.6908 188.709 61.3563 188.83 61.0219 188.83ZM215.192 180.451C215.101 180.451 215.01 180.451 214.918 180.421C214.219 180.3 213.763 179.753 213.915 179.176C214.432 177.051 215.162 175.139 216.226 173.196C216.5 172.649 217.29 172.406 217.929 172.649C218.567 172.892 218.871 173.499 218.598 174.046C217.625 175.837 216.956 177.598 216.469 179.601C216.317 180.117 215.8 180.451 215.192 180.451ZM50.8351 180.087C50.4702 180.087 50.1053 179.966 49.862 179.723C48.22 178.174 46.6083 176.596 45.1183 175.017C44.6622 174.562 44.7838 173.894 45.3312 173.53C45.8785 173.165 46.6995 173.256 47.1557 173.712C48.6457 175.26 50.2269 176.808 51.8385 178.326C52.2947 178.782 52.2643 179.45 51.7169 179.814C51.4432 179.996 51.1392 180.087 50.8351 180.087ZM41.6822 170.585C41.2869 170.585 40.8915 170.433 40.6179 170.13C39.1583 168.46 37.7595 166.729 36.4823 165.06C36.1174 164.574 36.2695 163.906 36.8776 163.602C37.4858 163.299 38.2764 163.451 38.6717 163.936C39.9489 165.606 41.3173 167.276 42.7465 168.915C43.1722 169.401 43.0201 170.069 42.4424 170.403C42.1991 170.524 41.9558 170.585 41.6822 170.585ZM220.97 169.401C220.726 169.401 220.453 169.34 220.24 169.219C219.662 168.885 219.51 168.217 219.905 167.731C221.395 165.91 223.007 164.422 224.953 162.995C225.47 162.601 226.291 162.631 226.778 163.086C227.264 163.511 227.203 164.21 226.656 164.574C224.862 165.879 223.402 167.276 222.034 168.915C221.76 169.249 221.365 169.401 220.97 169.401ZM231.704 161.235C231.278 161.235 230.883 161.052 230.609 160.749C230.214 160.263 230.396 159.595 230.974 159.292C232.13 158.684 233.346 158.047 234.623 157.379C235.474 156.924 236.326 156.499 237.208 156.043C237.816 155.74 238.606 155.861 239.002 156.377C239.397 156.863 239.215 157.531 238.606 157.834C237.725 158.29 236.873 158.745 236.052 159.17C234.745 159.838 233.528 160.476 232.403 161.083C232.19 161.204 231.947 161.235 231.704 161.235ZM33.8368 160.324C33.3807 160.324 32.9246 160.111 32.7117 159.777C31.4954 157.956 30.3703 156.104 29.3364 154.313C29.0323 153.766 29.306 153.159 29.975 152.916C30.6135 152.673 31.4042 152.916 31.6778 153.432C32.6813 155.193 33.776 156.984 34.9619 158.775C35.2964 159.292 35.0836 159.929 34.445 160.233C34.2625 160.263 34.0497 160.324 33.8368 160.324ZM244.05 154.616C243.654 154.616 243.229 154.465 242.985 154.161C242.59 153.675 242.712 153.007 243.289 152.673C245.327 151.489 247.242 150.336 249.128 149.091C249.675 148.727 250.496 148.788 250.952 149.273C251.408 149.729 251.317 150.397 250.739 150.761C248.793 152.036 246.847 153.22 244.779 154.434C244.566 154.556 244.293 154.616 244.05 154.616ZM27.6943 149.304C27.1774 149.304 26.6605 149.03 26.478 148.605C26.1435 147.816 25.9611 147.452 25.9002 147.239C25.4745 146.207 24.836 144.659 24.1366 142.777C23.9237 142.2 24.319 141.623 25.0184 141.471C25.6874 141.319 26.4172 141.623 26.63 142.2C27.299 144.052 27.9072 145.509 28.3329 146.571C28.3633 146.632 28.637 147.27 28.9107 147.877C29.1539 148.423 28.8194 149.03 28.1505 149.243C27.9984 149.304 27.8464 149.304 27.6943 149.304ZM255.574 147.088C255.209 147.088 254.875 146.966 254.601 146.723C254.115 146.298 254.176 145.6 254.692 145.236C256.456 143.93 258.25 142.534 259.984 141.107C260.5 140.682 261.291 140.682 261.808 141.107C262.325 141.532 262.325 142.2 261.808 142.594C260.014 144.052 258.22 145.479 256.426 146.814C256.182 146.996 255.878 147.088 255.574 147.088ZM266.004 138.526C265.7 138.526 265.366 138.435 265.123 138.253C264.606 137.859 264.575 137.191 265.062 136.766C266.643 135.369 268.346 133.851 270.049 132.333C270.535 131.908 271.356 131.848 271.873 132.242C272.39 132.637 272.451 133.305 271.964 133.73C270.262 135.278 268.559 136.796 266.947 138.193C266.704 138.405 266.339 138.526 266.004 138.526ZM23.5892 137.676C22.981 137.676 22.4337 137.343 22.3121 136.826C21.8255 134.792 21.4302 132.728 21.187 130.724C21.1261 130.148 21.6431 129.631 22.3425 129.571C23.0419 129.51 23.6804 129.935 23.7717 130.512C24.0149 132.455 24.3798 134.428 24.8664 136.401C25.0184 136.978 24.5623 137.525 23.8629 137.646C23.7717 137.646 23.6804 137.676 23.5892 137.676ZM275.826 129.48C275.553 129.48 275.249 129.389 275.005 129.237C274.458 128.873 274.367 128.205 274.823 127.749C276.495 126.08 277.924 124.531 279.232 123.013C279.627 122.528 280.448 122.406 281.026 122.74C281.604 123.074 281.756 123.742 281.33 124.228C279.992 125.806 278.502 127.385 276.799 129.115C276.556 129.358 276.191 129.48 275.826 129.48ZM22.0992 125.624C21.3694 125.624 20.7916 125.138 20.8221 124.562C20.8221 122.467 20.9741 120.403 21.2478 118.399C21.339 117.822 21.9776 117.397 22.677 117.458C23.3764 117.519 23.8933 118.065 23.8021 118.642C23.5284 120.585 23.3764 122.558 23.3764 124.562C23.4068 125.138 22.829 125.624 22.0992 125.624ZM284.189 119.522C283.976 119.522 283.763 119.492 283.58 119.401C282.942 119.128 282.729 118.46 283.063 117.944C284.249 116.152 285.253 114.361 286.043 112.57C286.287 112.024 287.017 111.72 287.686 111.933C288.355 112.145 288.689 112.752 288.446 113.299C287.625 115.151 286.56 117.063 285.314 118.945C285.101 119.34 284.645 119.522 284.189 119.522ZM23.8325 113.602C23.7413 113.602 23.6196 113.602 23.5284 113.572C22.829 113.42 22.4033 112.843 22.5857 112.297C22.6466 112.054 22.7378 111.781 22.829 111.538C23.3764 109.838 24.0757 108.077 24.8664 106.377C25.14 105.831 25.8698 105.557 26.5388 105.77C27.2078 105.982 27.5423 106.59 27.2686 107.136C26.5084 108.775 25.8394 110.415 25.3225 112.054C25.2313 112.297 25.1704 112.54 25.1096 112.783C24.9576 113.299 24.4102 113.602 23.8325 113.602ZM289.145 108.199C289.084 108.199 288.993 108.199 288.932 108.168C288.233 108.077 287.746 107.531 287.868 106.954C288.233 105.193 288.415 103.372 288.415 101.55C288.415 101.398 288.415 101.277 288.415 101.125C288.415 100.548 288.993 100.062 289.692 100.062C290.392 100.062 291 100.518 291 101.125C291 101.277 291 101.429 291 101.58C291 103.523 290.787 105.466 290.392 107.348C290.331 107.834 289.784 108.199 289.145 108.199ZM29.1539 102.339C28.9411 102.339 28.7282 102.309 28.5458 102.218C27.9072 101.945 27.6639 101.307 28.0288 100.791C28.8803 99.4857 29.6405 98.4535 30.127 97.7552L30.2486 97.5731C30.7656 96.8748 31.2825 96.1766 31.8299 95.4784C32.2252 94.9926 33.0158 94.8408 33.624 95.1748C34.2321 95.5087 34.3842 96.1463 33.9889 96.632C33.4719 97.2999 32.955 97.9678 32.4684 98.6356L32.3468 98.8178C31.8603 99.4857 31.1305 100.487 30.3095 101.763C30.0662 102.127 29.6101 102.339 29.1539 102.339ZM288.963 96.1463C288.354 96.1463 287.807 95.782 287.686 95.2962C287.229 93.414 286.56 91.5014 285.679 89.6496C285.435 89.1031 285.739 88.496 286.408 88.2835C287.077 88.0709 287.807 88.3442 288.081 88.8906C288.993 90.8639 289.723 92.8676 290.209 94.8712C290.361 95.448 289.905 95.9945 289.206 96.1159C289.115 96.1159 289.023 96.1463 288.963 96.1463ZM37.2425 92.23C36.9689 92.23 36.6648 92.1693 36.4519 91.9872C35.9046 91.6229 35.8134 90.955 36.2391 90.4996C37.7595 88.921 39.4015 87.3727 41.1348 85.8548C41.6213 85.4298 42.4424 85.3994 42.9593 85.8244C43.4763 86.2191 43.5067 86.887 43.0201 87.312C41.3173 88.7692 39.736 90.2871 38.246 91.805C37.9723 92.0782 37.6074 92.23 37.2425 92.23ZM283.702 84.8833C283.246 84.8833 282.82 84.7012 282.577 84.3672C281.421 82.7279 280.053 81.0582 278.563 79.4492C278.137 78.9938 278.229 78.3259 278.806 77.9616C279.384 77.5973 280.175 77.6884 280.631 78.1438C282.212 79.8135 283.611 81.5439 284.827 83.2743C285.192 83.7904 284.979 84.4279 284.341 84.7315C284.128 84.8226 283.915 84.8833 283.702 84.8833ZM47.3381 83.3958C46.9732 83.3958 46.6387 83.2743 46.3955 83.0618C45.9089 82.6368 45.9393 81.9689 46.4867 81.5743C48.7369 79.8742 50.7743 78.5081 52.1122 77.567C52.6596 77.2027 53.4806 77.2634 53.9367 77.7188C54.3928 78.1741 54.3016 78.842 53.7543 79.2063C52.4163 80.1171 50.4398 81.4528 48.22 83.1225C47.9463 83.3047 47.6422 83.3958 47.3381 83.3958ZM274.762 75.2901C274.427 75.2901 274.093 75.1687 273.819 74.9561C272.208 73.59 270.414 72.1935 268.528 70.8881C267.981 70.4935 267.92 69.8256 268.376 69.4006C268.832 68.9452 269.653 68.9148 270.201 69.2791C272.147 70.6453 273.971 72.0721 275.644 73.4989C276.13 73.924 276.13 74.5918 275.613 74.9865C275.401 75.1686 275.066 75.2901 274.762 75.2901ZM58.2243 75.2294C57.9202 75.2294 57.5857 75.1383 57.3424 74.9561C56.8255 74.5615 56.7951 73.8936 57.2816 73.4686C58.8629 72.0721 60.5049 70.5238 62.0861 68.9452C62.5423 68.4898 63.3633 68.4291 63.9106 68.7934C64.458 69.1577 64.5492 69.8256 64.0931 70.281C62.4815 71.8899 60.809 73.4686 59.1669 74.8954C58.9237 75.1079 58.5588 75.2294 58.2243 75.2294ZM263.602 67.3666C263.328 67.3666 263.085 67.3058 262.842 67.1541C260.957 66.0004 258.919 64.8772 256.821 63.7843C256.213 63.4807 256.03 62.8128 256.426 62.3271C256.821 61.8414 257.612 61.6896 258.22 61.9931C260.379 63.1164 262.447 64.27 264.393 65.454C264.97 65.7879 265.092 66.4558 264.666 66.9415C264.393 67.2148 264.028 67.3666 263.602 67.3666ZM67.5292 65.8183C67.286 65.8183 67.0123 65.7576 66.7994 65.6361C66.2217 65.3022 66.0696 64.6343 66.4649 64.1486C67.3772 63.0557 68.0158 62.1753 68.3807 61.5378L69.8403 58.9573C70.1444 58.4109 70.9046 58.1983 71.5431 58.4412C72.1817 58.6841 72.4858 59.3216 72.1817 59.8377L70.7221 62.4182C70.2964 63.1468 69.597 64.1486 68.5935 65.3326C68.3503 65.6665 67.955 65.8183 67.5292 65.8183ZM251.135 60.961C250.952 60.961 250.739 60.9306 250.557 60.8395C248.368 59.9288 246.148 59.1395 243.928 58.5019C243.259 58.3198 242.894 57.7126 243.137 57.1358C243.381 56.5894 244.11 56.2858 244.779 56.4983C247.09 57.1662 249.401 57.9858 251.682 58.9269C252.321 59.2002 252.564 59.8377 252.26 60.3538C252.047 60.7485 251.591 60.961 251.135 60.961ZM237.268 56.9233C237.177 56.9233 237.086 56.9233 236.995 56.8929C234.836 56.5286 232.586 56.2251 229.849 55.9822C229.149 55.9215 228.633 55.4054 228.693 54.7982C228.785 54.2214 229.393 53.7964 230.123 53.8571C232.951 54.1 235.292 54.4036 237.542 54.7982C238.242 54.9196 238.698 55.4965 238.546 56.0429C238.424 56.5894 237.877 56.9233 237.268 56.9233ZM222.673 55.4357C222.612 55.4357 222.581 55.4357 222.52 55.4357C220.574 55.2536 217.959 54.9804 215.101 54.4036C214.401 54.2518 213.976 53.675 214.158 53.1285C214.341 52.5517 215.04 52.2178 215.709 52.3392C217.807 52.7642 219.997 53.0678 222.794 53.341C223.494 53.4017 224.01 53.9178 223.95 54.525C223.889 55.0411 223.311 55.4357 222.673 55.4357ZM74.1278 55.0107C73.9454 55.0107 73.7629 54.9804 73.5805 54.9197C72.9419 54.6768 72.6682 54.0393 72.9419 53.5232C74.4015 50.9427 75.3442 49.3034 76.1044 48.0283C76.4085 47.5122 77.1991 47.2694 77.8377 47.5426C78.4762 47.7854 78.7499 48.423 78.4154 48.9694C77.6552 50.2141 76.743 51.8535 75.2834 54.4339C75.0705 54.7679 74.6144 55.0107 74.1278 55.0107ZM208.441 52.4606C208.259 52.4606 208.107 52.4303 207.924 52.3695C206.465 51.8535 204.914 51.2463 203.363 50.548C202.633 50.2141 201.904 49.8802 201.204 49.5462C200.596 49.2426 200.383 48.6051 200.748 48.089C201.113 47.5729 201.904 47.4211 202.512 47.7247C203.181 48.0283 203.85 48.3623 204.58 48.6658C206.07 49.3337 207.529 49.9105 208.928 50.3963C209.597 50.6391 209.871 51.2463 209.597 51.7927C209.414 52.2178 208.958 52.4606 208.441 52.4606ZM195.822 46.2675C195.548 46.2675 195.244 46.1765 195.001 46.0247C193.146 44.78 191.413 43.4138 189.527 41.7441C189.041 41.3191 189.071 40.6512 189.619 40.2566C190.136 39.8619 190.957 39.8923 191.443 40.3173C193.237 41.9263 194.879 43.2317 196.643 44.3853C197.19 44.7496 197.282 45.4175 196.825 45.8729C196.582 46.1461 196.217 46.2675 195.822 46.2675ZM80.8785 44.2335C80.6352 44.2335 80.392 44.1728 80.1791 44.0817C79.5709 43.7781 79.3885 43.1103 79.7838 42.6245C81.1522 40.8637 82.5509 39.1637 84.0105 37.5547C84.4363 37.069 85.2573 36.9779 85.8046 37.3422C86.3824 37.7065 86.504 38.344 86.0783 38.8297C84.6795 40.4084 83.2807 42.0477 81.9428 43.7478C81.6995 44.0514 81.3042 44.2335 80.8785 44.2335ZM185.666 37.5243C185.301 37.5243 184.936 37.4029 184.693 37.16C183.355 35.885 181.682 34.3671 179.736 32.7884C179.219 32.3634 179.219 31.6955 179.706 31.3009C180.192 30.8759 181.013 30.8759 181.53 31.2705C183.537 32.8795 185.24 34.4581 186.608 35.7635C187.064 36.2189 187.004 36.8868 186.487 37.2511C186.274 37.4333 185.97 37.5243 185.666 37.5243ZM89.6665 34.5189C89.3624 34.5189 89.0583 34.4278 88.8151 34.2456C88.2677 33.851 88.2069 33.1831 88.6934 32.7581C90.3659 31.1794 92.0992 29.6919 93.8324 28.2954C94.3494 27.9007 95.1704 27.9007 95.6569 28.3258C96.1435 28.7508 96.1435 29.4187 95.6265 29.8133C93.9237 31.1794 92.2512 32.6063 90.6396 34.1242C90.3659 34.3974 90.0314 34.5189 89.6665 34.5189ZM175.083 29.1151C174.81 29.1151 174.536 29.0544 174.293 28.9026C172.438 27.7489 170.431 26.6257 168.333 25.5631C167.725 25.2596 167.512 24.622 167.877 24.1059C168.242 23.5899 169.032 23.4381 169.64 23.7416C171.83 24.8345 173.928 25.9882 175.874 27.2025C176.452 27.5668 176.543 28.2347 176.117 28.6901C175.874 28.9633 175.479 29.1151 175.083 29.1151ZM100.279 26.14C99.8837 26.14 99.5188 25.9882 99.2755 25.7453C98.8194 25.2899 98.941 24.622 99.4884 24.2577C101.465 22.9827 103.533 21.7684 105.6 20.6755C106.209 20.3719 106.999 20.4933 107.395 21.0094C107.79 21.4951 107.607 22.163 106.999 22.4666C104.992 23.5291 103.016 24.6828 101.1 25.9274C100.857 26.0489 100.553 26.14 100.279 26.14ZM162.494 22.8613C162.312 22.8613 162.13 22.8309 161.947 22.7702C161.156 22.4666 160.366 22.163 159.545 21.8594C158.116 21.3433 156.686 20.8576 155.288 20.4022C154.619 20.1897 154.284 19.5826 154.558 19.0361C154.801 18.4897 155.561 18.2164 156.23 18.4289C157.66 18.8843 159.15 19.37 160.609 19.9165C161.461 20.2201 162.282 20.554 163.103 20.8576C163.741 21.1005 164.015 21.738 163.711 22.2844C163.437 22.6487 162.981 22.8613 162.494 22.8613ZM112.686 19.6433C112.199 19.6433 111.743 19.4308 111.53 19.0361C111.226 18.52 111.5 17.8825 112.138 17.6093C112.442 17.4878 112.777 17.3664 113.142 17.245C115.118 16.5467 117.186 15.9699 119.315 15.5145C120.014 15.3627 120.713 15.727 120.896 16.2735C121.078 16.8503 120.653 17.4271 119.953 17.5789C117.946 18.0039 116 18.5504 114.145 19.1879C113.811 19.3093 113.537 19.4308 113.233 19.5218C113.05 19.6129 112.868 19.6433 112.686 19.6433ZM148.75 18.5504C148.628 18.5504 148.507 18.5504 148.385 18.52C146.013 17.9736 143.641 17.5182 141.33 17.1842C140.631 17.0932 140.144 16.5467 140.266 15.9699C140.388 15.3931 141.057 14.9985 141.756 15.1199C144.158 15.4538 146.621 15.9396 149.054 16.486C149.753 16.6378 150.149 17.245 149.936 17.7914C149.814 18.2468 149.297 18.5504 148.75 18.5504ZM126.886 16.6074C126.217 16.6074 125.67 16.1824 125.609 15.636C125.548 15.0592 126.065 14.5431 126.795 14.4824C128.285 14.3913 129.805 14.3306 131.356 14.3306C132.329 14.3306 133.333 14.3609 134.336 14.3913C135.036 14.4216 135.583 14.9074 135.553 15.5145C135.522 16.0913 134.914 16.5467 134.184 16.5164C133.242 16.486 132.269 16.4556 131.356 16.4556C129.897 16.4556 128.437 16.5164 127.038 16.6074C126.947 16.6074 126.917 16.6074 126.886 16.6074Z" fill="#EAEDEF"/>
<path d="M88.3589 49.273C91.8559 44.5067 100.461 33.517 115.544 26.8686C116.365 26.5043 116.882 26.2614 117.703 25.9578C120.348 25.0167 133.394 20.4326 155.896 28.599C180.374 37.494 177.242 47.3604 199.136 57.0447C221.821 67.063 230.761 58.8966 251.834 69.9167C257.003 72.6186 278.867 83.9118 279.445 100.791C279.84 112.722 269.897 121.647 257.034 132.941C233.437 153.706 220.453 150.943 209.84 167.094C201.052 180.482 207.468 186.159 197.069 198.241C184.844 212.449 165.444 216.821 163.224 217.306C133.029 223.773 105.448 206.681 80.544 190.47C50.1357 170.646 40.1009 151.459 37.3642 145.296C37.1209 144.72 36.8472 144.112 36.8472 144.112C34.7491 139.103 29.8533 126.96 34.0193 113.936C35.8134 108.35 38.9454 104.13 40.1922 102.43C46.4259 93.839 54.8186 88.0406 59.5318 84.8226C65.8264 80.5421 76.0436 70.5845 78.9019 65.5451C84.3146 55.9822 86.9601 51.1856 88.3589 49.273Z" fill="#EAEDEF"/>
<path d="M11.3347 193.87C5.6179 193.87 0.965424 189.255 0.965424 183.548C0.965424 177.841 5.6179 173.196 11.3347 173.196C17.0514 173.196 21.7039 177.841 21.7039 183.548C21.6735 189.255 17.0514 193.87 11.3347 193.87ZM11.3347 176.505C7.44239 176.505 4.31034 179.662 4.31034 183.518C4.31034 187.404 7.4728 190.53 11.3347 190.53C15.2269 190.53 18.359 187.373 18.359 183.518C18.359 179.662 15.1965 176.505 11.3347 176.505Z" fill="#3299D9"/>
<path d="M240.857 202.826C240.735 202.826 240.644 202.826 240.522 202.826C237.998 202.674 236.022 200.518 236.022 197.908V196.602C236.022 195.661 235.262 194.872 234.288 194.872H232.89C231.552 194.872 230.275 194.325 229.393 193.354C228.48 192.382 228.024 191.107 228.116 189.741C228.268 187.221 230.427 185.248 233.042 185.248H234.349C235.292 185.248 236.083 184.489 236.083 183.518V182.121C236.083 180.785 236.63 179.51 237.603 178.63C238.576 177.719 239.884 177.264 241.222 177.355C243.745 177.507 245.722 179.662 245.722 182.273V183.578C245.722 184.52 246.482 185.309 247.455 185.309H248.763C251.347 185.309 253.506 187.282 253.689 189.802C253.78 191.138 253.324 192.413 252.412 193.415C251.5 194.386 250.222 194.932 248.915 194.932H247.516C246.573 194.932 245.783 195.691 245.783 196.663V198.059C245.783 199.395 245.235 200.67 244.262 201.551C243.259 202.37 242.103 202.826 240.857 202.826ZM233.042 188.345C232.069 188.345 231.248 189.073 231.187 189.984C231.156 190.47 231.308 190.955 231.643 191.289C231.977 191.654 232.434 191.836 232.92 191.836H234.319C236.964 191.836 239.093 193.961 239.093 196.602V197.908C239.093 198.879 239.823 199.699 240.735 199.759C241.222 199.79 241.708 199.638 242.043 199.304C242.407 198.97 242.59 198.515 242.59 198.029V196.632C242.59 193.991 244.718 191.866 247.364 191.866H248.763C249.249 191.866 249.705 191.684 250.04 191.32C250.374 190.955 250.557 190.5 250.496 190.014C250.435 189.104 249.614 188.375 248.641 188.375H247.334C244.688 188.375 242.559 186.25 242.559 183.609V182.303C242.559 181.332 241.83 180.512 240.917 180.451C240.431 180.421 239.944 180.573 239.61 180.907C239.245 181.241 239.063 181.696 239.063 182.182V183.578C239.063 186.22 236.934 188.345 234.288 188.345H233.042Z" fill="#3299D9"/>
<path d="M188.737 30.2384C186.882 30.2384 185.149 29.5098 183.841 28.2044L175.965 20.3416C173.259 17.6397 173.259 13.2378 175.965 10.5662L183.841 2.70344C185.149 1.39803 186.882 0.669434 188.737 0.669434C190.592 0.669434 192.325 1.39803 193.633 2.70344L201.508 10.5662C204.215 13.2681 204.215 17.6701 201.508 20.372L193.633 28.2348C192.325 29.5098 190.592 30.2384 188.737 30.2384ZM188.737 5.6482C188.22 5.6482 187.733 5.8607 187.368 6.19465L179.493 14.0575C178.732 14.8164 178.732 16.0004 179.493 16.7593L187.368 24.6525C188.098 25.3811 189.345 25.3811 190.075 24.6525L197.951 16.7897C198.711 16.0307 198.711 14.8468 197.951 14.0878L190.075 6.22501C189.71 5.8607 189.254 5.6482 188.737 5.6482Z" fill="#3299D9"/>
<path d="M284.401 53.8877C284.401 57.2574 281.665 59.9897 278.289 59.9897C274.914 59.9897 272.177 57.2574 272.177 53.8877C272.177 50.5179 274.914 47.7856 278.289 47.7856C281.665 47.7856 284.401 50.5179 284.401 53.8877Z" fill="#EAEDEF"/>
<path d="M99.0626 218.612C99.0626 221.891 96.4171 224.532 93.133 224.532C89.8489 224.532 87.2034 221.891 87.2034 218.612C87.2034 215.333 89.8489 212.692 93.133 212.692C96.4171 212.692 99.0626 215.333 99.0626 218.612Z" fill="#EAEDEF"/>
<path d="M47.8551 36.5226L44.8142 39.5584L41.7734 36.5226C40.7699 35.5208 39.1887 35.5208 38.1852 36.5226C37.1817 37.5244 37.1817 39.1031 38.1852 40.1049L41.2261 43.1407L38.1852 46.1766C37.1817 47.1784 37.1817 48.757 38.1852 49.7588C39.1887 50.7607 40.7699 50.7607 41.7734 49.7588L44.8142 46.723L47.8551 49.7588C48.8585 50.7607 50.4398 50.7607 51.4432 49.7588C52.4467 48.757 52.4467 47.1784 51.4432 46.1766L48.4024 43.1407L51.4432 40.1049C52.4467 39.1031 52.4467 37.5244 51.4432 36.5226C50.4398 35.5208 48.8281 35.5208 47.8551 36.5226Z" fill="#EAEDEF"/>
<path d="M234.927 148.029H161.369C160.7 148.029 160.183 147.513 160.183 146.845V70.5543C160.183 69.8865 160.7 69.3704 161.369 69.3704H234.927C235.596 69.3704 236.113 69.8865 236.113 70.5543V146.875C236.113 147.513 235.566 148.029 234.927 148.029Z" fill="white"/>
<path d="M147.838 105.558H64.8533C64.1843 105.558 63.6674 105.041 63.6674 104.374V70.7973C63.6674 70.1294 64.1843 69.6133 64.8533 69.6133H147.838C148.507 69.6133 149.024 70.1294 149.024 70.7973V104.374C148.993 105.011 148.476 105.558 147.838 105.558Z" fill="white"/>
<path d="M234.897 148.272H161.096C160.305 148.272 159.666 147.634 159.666 146.845V70.5543C159.666 69.765 160.305 69.1274 161.096 69.1274H234.897C235.687 69.1274 236.326 69.765 236.326 70.5543V146.845C236.326 147.634 235.687 148.272 234.897 148.272ZM161.096 69.6132C160.579 69.6132 160.153 70.0382 160.153 70.5543V146.845C160.153 147.361 160.579 147.786 161.096 147.786H234.897C235.414 147.786 235.839 147.361 235.839 146.845V70.5543C235.839 70.0382 235.414 69.6132 234.897 69.6132H161.096Z" fill="#3F3D56"/>
<path d="M211.908 101.186C216.074 108.866 213.215 118.429 205.522 122.588C197.829 126.748 188.25 123.894 184.084 116.213C179.918 108.533 182.777 98.9697 190.47 94.8106C192.781 93.5659 195.366 92.898 198.011 92.898C198.133 92.898 198.255 92.898 198.376 92.898L198.224 86.1584C198.163 86.1584 198.072 86.1584 198.011 86.1584C185.544 86.1584 175.448 96.2374 175.448 108.684C175.448 121.131 185.544 131.21 198.011 131.21C210.479 131.21 220.574 121.131 220.574 108.684C220.574 104.616 219.449 100.609 217.351 97.0874L211.908 101.186Z" fill="#D90429"/>
<path d="M211.908 101.186L217.351 97.118C213.307 90.4088 206.07 86.2497 198.224 86.189L198.376 92.9285C204.063 93.0499 209.202 96.2072 211.908 101.186Z" fill="#E6E6E6"/>
<path d="M209.489 128.015L209.208 128.293L217.127 136.273L217.408 135.995L209.489 128.015Z" fill="#3F3D56"/>
<path d="M214.574 79.1456L209.07 88.9426L209.415 89.1357L214.919 79.3386L214.574 79.1456Z" fill="#3F3D56"/>
<path d="M223.22 139.255H211.513C211.087 139.255 210.722 138.891 210.722 138.466V136.826C210.722 136.401 211.087 136.037 211.513 136.037H223.22C223.646 136.037 224.01 136.401 224.01 136.826V138.466C223.98 138.891 223.646 139.255 223.22 139.255Z" fill="#32A955"/>
<path d="M220.24 79.3886H208.533C208.107 79.3886 207.742 79.0243 207.742 78.5993V76.96C207.742 76.535 208.107 76.1707 208.533 76.1707H220.24C220.666 76.1707 221.03 76.535 221.03 76.96V78.5993C221.03 79.0243 220.666 79.3886 220.24 79.3886Z" fill="#E6E6E6"/>
<path d="M147.868 105.557H64.4884C63.7282 105.557 63.12 104.95 63.12 104.191V70.7365C63.12 69.9775 63.7282 69.3704 64.4884 69.3704H147.868C148.628 69.3704 149.236 69.9775 149.236 70.7365V104.191C149.236 104.92 148.628 105.557 147.868 105.557ZM64.4884 69.8561C64.0019 69.8561 63.637 70.2508 63.6066 70.7365V104.191C63.6066 104.677 64.0019 105.041 64.4884 105.072H147.868C148.355 105.072 148.719 104.677 148.75 104.191V70.7365C148.75 70.2508 148.355 69.8865 147.868 69.8561H64.4884Z" fill="#3F3D56"/>
<path d="M96.9949 97.2392H88.9063C88.4806 97.2392 88.1157 96.9356 88.0549 96.5106C87.5379 93.0801 87.5379 89.6193 88.0549 86.1888C88.1157 85.7638 88.4806 85.4602 88.9063 85.4602H96.9949C97.2686 85.4602 97.5118 85.5816 97.6639 85.7941C97.8463 86.0067 97.8767 86.2799 97.8159 86.5531C97.0557 89.7104 97.0557 93.0194 97.8159 96.1767C97.8767 96.4499 97.8159 96.7231 97.6639 96.9357C97.5118 97.1178 97.2686 97.2392 96.9949 97.2392Z" fill="#E6E6E6"/>
<path d="M124.058 97.2392H115.97C115.544 97.2392 115.179 96.9356 115.118 96.5106C114.601 93.0801 114.601 89.6193 115.118 86.1888C115.179 85.7638 115.544 85.4602 115.97 85.4602H124.058C124.332 85.4602 124.575 85.5816 124.727 85.7941C124.91 86.0067 124.94 86.2799 124.879 86.5531C124.119 89.7104 124.119 93.0194 124.879 96.1767C124.94 96.4499 124.879 96.7231 124.727 96.9357C124.575 97.1178 124.302 97.2392 124.058 97.2392Z" fill="#E6E6E6"/>
<path d="M83.2504 89.437H75.1617C74.736 89.437 74.3711 89.1334 74.3103 88.7084C73.7934 85.2779 73.7934 81.817 74.3103 78.3866C74.3711 77.9615 74.736 77.658 75.1617 77.658H83.2504C83.524 77.658 83.7673 77.7794 83.9193 77.9919C84.1018 78.2044 84.1322 78.4776 84.0714 78.7509C83.3112 81.9081 83.3112 85.2172 84.0714 88.3744C84.1322 88.6477 84.0714 88.9209 83.9193 89.1334C83.7673 89.3155 83.524 89.437 83.2504 89.437Z" fill="#32A955"/>
<path d="M110.587 89.4371H102.499C102.225 89.4371 101.982 89.3156 101.83 89.1031C101.647 88.8906 101.617 88.6174 101.678 88.3442C102.438 85.1869 102.438 81.8779 101.678 78.7206C101.617 78.4474 101.678 78.1741 101.83 77.9616C101.982 77.7491 102.256 77.6277 102.499 77.6277H110.587C111.013 77.6277 111.378 77.9313 111.439 78.3563C111.956 81.7868 111.956 85.2476 111.439 88.6781C111.378 89.1335 111.013 89.4371 110.587 89.4371Z" fill="#32A955"/>
<path d="M137.195 89.4371H129.106C128.832 89.4371 128.589 89.3156 128.437 89.1031C128.255 88.8906 128.224 88.6174 128.285 88.3442C129.045 85.1869 129.045 81.8779 128.285 78.7206C128.224 78.4474 128.285 78.1741 128.437 77.9616C128.589 77.7491 128.863 77.6277 129.106 77.6277H137.195C137.62 77.6277 137.985 77.9313 138.046 78.3563C138.563 81.7868 138.563 85.2476 138.046 88.6781C137.985 89.1335 137.62 89.4371 137.195 89.4371Z" fill="#D90429"/>
<path d="M92.2208 148.909C90.7612 148.606 89.8185 147.209 90.1226 145.752C90.153 145.6 90.2138 145.448 90.2443 145.296L79.1452 121.526L84.7708 119.947L93.9237 143.839C95.2616 144.477 95.8394 146.086 95.2008 147.422C94.6839 148.545 93.4371 149.152 92.2208 148.909Z" fill="#A0616A"/>
<path d="M70.7221 186.826H73.7934L75.253 175.017H70.7221V186.826Z" fill="#A0616A"/>
<path d="M79.723 189.68H70.0836V185.976H75.9828C78.0505 185.946 79.723 187.616 79.723 189.68Z" fill="#2F2E41"/>
<path d="M54.7881 183.518L57.6161 184.732L63.6066 174.44L59.4406 172.68L54.7881 183.518Z" fill="#A0616A"/>
<path d="M61.9341 189.68L53.0853 185.886L54.5449 182.455L59.988 184.793C61.8733 185.612 62.7247 187.798 61.9341 189.68Z" fill="#2F2E41"/>
<path d="M78.3242 110.354C81.7166 110.354 84.4667 107.609 84.4667 104.222C84.4667 100.835 81.7166 98.0894 78.3242 98.0894C74.9318 98.0894 72.1817 100.835 72.1817 104.222C72.1817 107.609 74.9318 110.354 78.3242 110.354Z" fill="#A0616A"/>
<path d="M73.8846 183.942L70.5093 183.305C69.9315 183.214 69.5362 182.667 69.597 182.091L71.8472 160.293C71.908 159.808 71.5431 159.383 71.0566 159.322C70.6613 159.292 70.3268 159.504 70.1748 159.838L60.4137 182.607C60.1704 183.184 59.5014 183.426 58.9237 183.183L56.1869 181.969C55.67 181.726 55.3963 181.149 55.5788 180.573L62.2686 160.567C62.299 160.506 62.299 160.445 62.299 160.384L64.458 142.078C64.5188 141.684 64.7621 141.319 65.1574 141.168L71.9993 138.375C72.425 138.192 72.8811 138.314 73.2156 138.618L81.8516 147.027C82.1252 147.3 82.2469 147.664 82.1557 148.059L75.1921 183.001C75.1009 183.517 74.6144 183.912 74.0974 183.912C74.0062 183.973 73.9454 183.942 73.8846 183.942Z" fill="#202131"/>
<path d="M70.0227 143.141C68.8368 141.745 67.9549 141.137 67.3468 141.228C66.769 141.319 66.4041 142.139 66.0392 143.02C65.5527 144.204 64.9749 145.57 63.6066 145.661C63.1808 145.721 62.7247 145.57 62.451 145.205C61.3563 143.596 63.9715 138.253 64.2147 137.768L64.0931 112.54C64.0931 112.115 64.3059 111.75 64.6708 111.538C71.8168 107.682 81.4867 114.392 83.372 115.758C83.6761 115.97 83.8585 116.335 83.8281 116.729C83.6152 120.949 82.4901 142.291 82.4901 147.027C82.4901 148.332 82.034 149.182 81.1522 149.516C80.8481 149.638 80.544 149.668 80.2095 149.668C77.4728 149.698 72.9723 146.541 70.0227 143.141Z" fill="#CCCCCC"/>
<path d="M80.0271 130.876C79.723 130.694 79.5405 130.36 79.5101 129.996L79.0236 118.702C78.9628 117.093 80.2095 115.727 81.8211 115.636C83.0983 115.575 84.2538 116.334 84.6795 117.518L88.2981 127.021C88.511 127.597 88.2373 128.235 87.6595 128.478L81.0001 130.998C80.696 131.119 80.3311 131.089 80.0271 130.876Z" fill="#CCCCCC"/>
<path d="M63.12 148.545C61.9037 147.725 61.5692 146.055 62.3902 144.811C62.4815 144.689 62.5727 144.568 62.6943 144.446L61.5084 118.247L67.3164 118.915L66.6474 144.477C67.6509 145.57 67.5596 147.3 66.4649 148.271C65.5223 149.152 64.1539 149.243 63.12 148.545Z" fill="#A0616A"/>
<path d="M59.0757 125.229C58.8629 124.926 58.8021 124.562 58.9237 124.228L62.5119 113.481C63.0288 111.932 64.7013 111.113 66.2217 111.629C67.4076 112.024 68.2286 113.147 68.2286 114.422V124.592C68.2286 125.199 67.7117 125.715 67.1035 125.715H59.988C59.6535 125.685 59.2886 125.533 59.0757 125.229Z" fill="#CCCCCC"/>
<path d="M74.3407 108.35C73.8542 108.715 73.1852 108.684 72.7595 108.259C71.4519 107.045 70.3268 105.557 69.7795 103.857C69.1409 101.914 69.2929 99.6376 70.5397 97.9679C71.5735 96.5714 73.246 95.7821 74.8577 95.1749C75.4962 94.9017 76.1652 94.7196 76.8342 94.6588C77.5336 94.5981 78.233 94.7803 78.7803 95.2053C79.3277 95.6607 79.5709 96.3893 79.3581 97.0571C80.1791 96.2982 81.213 95.7821 82.3077 95.5392C83.0071 95.3571 83.7369 95.3874 84.4059 95.6303C85.3485 96.025 85.9567 96.9661 86.2304 97.9375C86.4736 98.6965 86.4736 99.4858 86.2912 100.245C86.0783 101.004 85.5614 101.641 84.862 102.006C84.0106 102.4 82.9767 102.248 82.0644 101.945C81.1522 101.641 80.3007 101.186 79.3581 100.973C78.4154 100.791 77.3511 100.882 76.6822 101.581C76.226 102.066 76.0436 102.734 75.8611 103.402L75.0097 106.772C74.9185 107.258 74.736 107.743 74.4623 108.168C74.4623 108.229 74.4015 108.29 74.3407 108.35Z" fill="#2F2E41"/>
<path d="M99.2755 157.106H91.1869C90.7612 157.106 90.3963 156.802 90.3355 156.377C89.8185 152.947 89.8185 149.486 90.3355 146.055C90.3963 145.63 90.7612 145.327 91.1869 145.327H99.2755C99.5492 145.327 99.7925 145.448 99.9445 145.661C100.127 145.873 100.157 146.146 100.097 146.42C99.3364 149.577 99.3364 152.886 100.097 156.043C100.157 156.316 100.097 156.59 99.9445 156.802C99.7925 156.984 99.5188 157.106 99.2755 157.106Z" fill="#D90429"/>
<path d="M85.7134 189.984H45.4528C45.3008 189.984 45.2095 189.862 45.2095 189.741C45.2095 189.589 45.3312 189.498 45.4528 189.498H85.7134C85.8655 189.498 85.9567 189.619 85.9567 189.741C85.9567 189.862 85.8655 189.984 85.7134 189.984Z" fill="#3F3D56"/>
</svg>
