<svg id="ea7kQsPmEW61" xmlns="http://www.w3.org/2000/svg" xmlns:xlink="http://www.w3.org/1999/xlink" viewBox="0 0 937.030000 745.420000" shape-rendering="geometricPrecision" text-rendering="geometricPrecision"><g id="ea7kQsPmEW62"><g id="ea7kQsPmEW63"><path id="ea7kQsPmEW64" d="M120.260000,392.420000C98.850000,362.310000,86.090000,359.840000,77,332.210000C74.100000,323.430000,47.800000,239.460000,96.770000,176.380000C152.310000,104.850000,255.300000,123.890000,267.290000,126.040000C352.730000,141.350000,509.540000,188.810000,605.610000,181.040000C660.470000,176.620000,731.530000,170.900000,782.190000,218.820000C835.930000,269.660000,854.190000,368.990000,817.510000,418.360000C760.960000,494.480000,737.250000,568.430000,705.860000,596.640000C679.860000,620,542.040000,737.640000,369.780000,694.640000C334.220000,685.760000,226.680000,658.900000,184.080000,571.850000C156.360000,515.270000,171.310000,464.240000,120.260000,392.420000Z" fill="rgb(242,192,41)" stroke="none" stroke-width="1"/><path id="ea7kQsPmEW65" d="M300.790000,683.100000L300.480000,683.100000C293.650000,683.100000,286.860000,682.880000,280.320000,682.450000C278.387003,682.322975,276.922975,680.652997,277.050000,678.720000C277.177025,676.787003,278.847003,675.322975,280.780000,675.450000C287.170000,675.860000,293.780000,676.080000,300.480000,676.080000L300.790000,676.080000C302.722997,676.080000,304.290000,677.647003,304.290000,679.580000C304.290000,681.512997,302.722997,683.080000,300.790000,683.080000ZM320.720000,682.480000C318.787003,682.535228,317.175229,681.012997,317.120000,679.080000C317.064772,677.147003,318.587003,675.535229,320.520000,675.480000C326.920000,675.100000,333.520000,674.480000,340.210000,673.790000C342.142997,673.574609,343.884609,674.967003,344.100000,676.900000C344.315391,678.832997,342.922997,680.574609,340.990000,680.790000C334.200000,681.540000,327.450000,682.120000,320.930000,682.510000ZM260.720000,680.480000C260.556820,680.490014,260.393180,680.490014,260.230000,680.480000C253.440000,679.530000,246.750000,678.310000,240.320000,676.850000C238.433948,676.421979,237.251979,674.546052,237.680000,672.660000C238.108021,670.773948,239.983948,669.591979,241.870000,670.020000C248.110000,671.440000,254.610000,672.620000,261.200000,673.550000C263.132997,673.682548,264.592548,675.357003,264.460000,677.290000C264.327452,679.222997,262.652997,680.682548,260.720000,680.550000ZM360.370000,678.180000C358.437003,678.326355,356.751355,676.877997,356.605000,674.945000C356.458645,673.012003,357.907003,671.326355,359.840000,671.180000C363.650000,670.590000,367.020000,670.030000,369.840000,669.550000C373.040000,669.020000,376.230000,668.440000,379.320000,667.830000C380.547207,667.588846,381.809848,668.020717,382.632297,668.962933C383.454747,669.905148,383.712055,671.214563,383.307297,672.397933C382.902539,673.581303,381.897207,674.458846,380.670000,674.700000C377.520000,675.320000,374.260000,675.920000,370.990000,676.460000C368.100000,676.940000,364.710000,677.460000,360.870000,678.090000C360.704852,678.119389,360.537698,678.136104,360.370000,678.140000ZM221.880000,671.590000C221.509887,671.592341,221.141822,671.534936,220.790000,671.420000C214.354938,669.311282,208.033171,666.871360,201.850000,664.110000C200.085450,663.320233,199.295233,661.249550,200.085000,659.485000C200.874767,657.720450,202.945450,656.930233,204.710000,657.720000C210.681185,660.371759,216.786076,662.711578,223,664.730000C224.624939,665.272211,225.618652,666.910873,225.348302,668.602419C225.077952,670.293966,223.622992,671.541271,221.910000,671.550000ZM399.440000,670.250000C397.681952,670.255748,396.192449,668.956459,395.959434,667.213913C395.726420,665.471366,396.822210,663.826369,398.520000,663.370000C404.950000,661.600000,411.070000,659.650000,417.230000,657.370000C419.029579,656.757411,420.989110,657.693258,421.643773,659.477962C422.298435,661.262665,421.408844,663.243624,419.640000,663.940000C413.290000,666.270000,406.990000,668.280000,400.370000,670.100000C400.066780,670.180556,399.753647,670.217594,399.440000,670.210000ZM610.520000,662.760000L610.430000,662.760000C603.631501,662.607333,596.850310,662.009385,590.130000,660.970000C588.893861,660.777077,587.854545,659.939336,587.403552,658.772346C586.952559,657.605357,587.158406,656.286412,587.943552,655.312346C588.728698,654.338280,589.973861,653.857077,591.210000,654.050000C597.628497,655.047421,604.106004,655.618671,610.600000,655.760000C612.532997,655.782091,614.082091,657.367003,614.060000,659.300000C614.037909,661.232997,612.452997,662.782091,610.520000,662.760000ZM630.440000,662.150000C628.507003,662.227320,626.877320,660.722997,626.800000,658.790000C626.722680,656.857003,628.227003,655.227320,630.160000,655.150000C636.650000,654.630000,643.160000,653.790000,649.610000,652.650000C651.515382,652.313106,653.333106,653.584618,653.670000,655.490000C654.006894,657.395382,652.735382,659.213106,650.830000,659.550000C644.190000,660.720000,637.430000,661.550000,630.730000,662.130000ZM571.230000,656.640000C570.891053,656.640125,570.553993,656.589566,570.230000,656.490000C563.600000,654.560000,557.640000,652.420000,551.870000,650.360000L551.120000,650.090000C549.300222,649.435543,548.355543,647.429778,549.010000,645.610000C549.664457,643.790222,551.670222,642.845543,553.490000,643.500000L554.240000,643.770000C559.900000,645.770000,565.760000,647.900000,572.240000,649.770000C573.903284,650.272460,574.948644,651.916220,574.698367,653.635621C574.448090,655.355023,572.977505,656.632560,571.240000,656.640000ZM436.890000,656.640000C435.233941,656.645822,433.800464,655.490173,433.454790,653.870582C433.109117,652.250991,433.945869,650.610801,435.460000,649.940000L442.460000,646.790000C446.460000,644.980000,450.130000,643.290000,453.770000,641.790000C454.934925,641.236876,456.309637,641.369145,457.347730,642.134233C458.385823,642.899321,458.919103,644.173268,458.735608,645.449719C458.552113,646.726169,457.681572,647.798311,456.470000,648.240000C452.930000,649.720000,449.270000,651.390000,445.390000,653.160000C443.110000,654.160000,440.770000,655.270000,438.340000,656.350000C437.879945,656.534759,437.385050,656.616672,436.890000,656.590000ZM185.560000,655.280000C184.934432,655.281949,184.319775,655.116199,183.780000,654.800000C177.937723,651.329452,172.301597,647.523064,166.900000,643.400000C165.361887,642.229156,165.064156,640.033113,166.235000,638.495000C167.405844,636.956887,169.601887,636.659156,171.140000,637.830000C176.325767,641.768960,181.734780,645.405019,187.340000,648.720000C188.694716,649.523836,189.345517,651.133637,188.930054,652.653110C188.514591,654.172583,187.135246,655.227290,185.560000,655.230000ZM669.670000,655.280000C667.911952,655.285748,666.422449,653.986459,666.189434,652.243913C665.956420,650.501366,667.052210,648.856369,668.750000,648.400000C675.010000,646.700000,681.290000,644.670000,687.440000,642.400000C689.254255,641.726213,691.271213,642.650745,691.945000,644.465000C692.618787,646.279255,691.694255,648.296213,689.880000,648.970000C683.540000,651.320000,677.050000,653.410000,670.600000,655.170000C670.293432,655.227075,669.980337,655.240541,669.670000,655.210000ZM533.360000,644.120000C533.059380,644.118834,532.760194,644.078494,532.470000,644C526.223806,642.363516,519.851541,641.252969,513.420000,640.680000C511.487003,640.503269,510.063269,638.792997,510.240000,636.860000C510.416731,634.927003,512.127003,633.503269,514.060000,633.680000C520.871785,634.303560,527.621029,635.484176,534.240000,637.210000C535.949699,637.649035,537.064906,639.292489,536.841273,641.043435C536.617640,642.794382,535.125163,644.104779,533.360000,644.100000ZM474,642.360000C472.218135,642.343039,470.733467,640.990027,470.551592,639.217387C470.369717,637.444748,471.548704,635.818441,473.290000,635.440000C480.006604,634.083211,486.829601,633.320267,493.680000,633.160000C494.610584,633.122194,495.517303,633.460061,496.196230,634.097613C496.875158,634.735166,497.269296,635.618878,497.290000,636.550000C497.346146,638.481253,495.830968,640.094762,493.900000,640.160000C487.456613,640.306737,481.038588,641.019479,474.720000,642.290000C474.483051,642.338069,474.241770,642.361526,474,642.360000ZM707,641.360000C705.365095,641.357765,703.949540,640.223981,703.590316,638.629028C703.231092,637.034074,704.023912,635.402909,705.500000,634.700000C711.370000,631.920000,717.220000,628.840000,722.890000,625.540000C724.517944,624.815372,726.430437,625.429527,727.332121,626.966489C728.233805,628.503451,727.836799,630.472512,726.410000,631.540000C720.560000,634.940000,714.540000,638.110000,708.500000,640.980000C708.032081,641.206288,707.519747,641.325833,707,641.330000ZM153.900000,631.140000C152.984562,631.136959,152.106106,630.778406,151.450000,630.140000C146.576054,625.386938,142.041588,620.297776,137.880000,614.910000C137.115452,613.920374,136.936939,612.598041,137.411706,611.441110C137.886472,610.284178,138.942390,609.468415,140.181706,609.301110C141.421021,609.133804,142.655452,609.640374,143.420000,610.630000C147.384440,615.760730,151.705117,620.606037,156.350000,625.130000C157.355561,626.128979,157.661584,627.634725,157.125750,628.946973C156.589915,630.259221,155.317399,631.120396,153.900000,631.130000ZM741.470000,621.340000C739.942092,621.338572,738.591683,620.346187,738.133992,618.888440C737.676301,617.430694,738.217114,615.844518,739.470000,614.970000C744.900000,611.180000,750.160000,607.180000,755.110000,603.060000C756.595646,601.822882,758.802882,602.024354,760.040000,603.510000C761.277118,604.995646,761.075646,607.202882,759.590000,608.440000C754.490000,612.690000,749.070000,616.810000,743.470000,620.710000C742.889452,621.105313,742.202344,621.314585,741.500000,621.310000ZM129.530000,599.740000C128.294783,599.733123,127.154658,599.075651,126.530000,598.010000C123.290000,592.480000,120.230000,586.600000,117.190000,580.010000C116.380903,578.253734,117.148734,576.174097,118.905000,575.365000C120.661266,574.555903,122.740903,575.323734,123.550000,577.080000C126.490000,583.440000,129.440000,589.130000,132.550000,594.460000C133.521929,596.128673,132.963378,598.269038,131.300000,599.250000C130.770551,599.553696,130.170362,599.712367,129.560000,599.710000ZM772.040000,595.740000C770.608660,595.760813,769.308917,594.907901,768.758343,593.586524C768.207769,592.265147,768.517355,590.741681,769.540000,589.740000C774.110000,585.070000,778.540000,580.150000,782.600000,575.110000C783.820549,573.610547,786.025547,573.384451,787.525000,574.605000C789.024453,575.825549,789.250549,578.030547,788.030000,579.530000C783.800000,584.730000,779.260000,589.810000,774.540000,594.640000C773.891581,595.310744,773.002814,595.695757,772.070000,595.710000ZM797.160000,564.840000C796.468833,564.842102,795.792967,564.636556,795.220000,564.250000C793.602531,563.183599,793.154951,561.008360,794.220000,559.390000C797.830000,553.990000,801.220000,548.340000,804.370000,542.600000C805.313932,540.946270,807.406744,540.350575,809.080060,541.259335C810.753376,542.168095,811.393181,544.247846,810.520000,545.940000C807.300000,551.870000,803.770000,557.710000,800.040000,563.280000C799.397967,564.226045,798.333265,564.797622,797.190000,564.810000ZM112.600000,563.690000C111.158517,563.686595,109.865666,562.802222,109.340000,561.460000C107.150000,555.830000,104.890000,549.670000,102.440000,542.620000C101.847863,540.807343,102.815766,538.854251,104.616774,538.227576C106.417782,537.600902,108.389017,538.531298,109.050000,540.320000C111.480000,547.320000,113.710000,553.370000,115.870000,558.920000C116.284743,559.998343,116.142261,561.211725,115.488993,562.164656C114.835726,563.117587,113.755349,563.688009,112.600000,563.690000ZM816.190000,529.840000C815.714758,529.841133,815.244587,529.742329,814.810000,529.550000C813.957215,529.182810,813.285275,528.491818,812.942064,527.629103C812.598853,526.766387,812.612500,525.802652,812.980000,524.950000C815.550000,519.030000,817.910000,512.850000,819.980000,506.610000C820.595798,504.776415,822.581415,503.789203,824.415000,504.405000C826.248585,505.020798,827.235797,507.006415,826.620000,508.840000C824.460000,515.270000,822.020000,521.630000,819.380000,527.730000C818.824391,528.981916,817.589584,529.794700,816.220000,529.810000ZM99.390000,526.050000C97.880823,526.051981,96.541347,525.083685,96.070000,523.650000Q93.070000,514.580000,89.880000,504.650000C89.494153,503.460306,89.772310,502.155136,90.609693,501.226135C91.447075,500.297135,92.716464,499.885441,93.939693,500.146135C95.162922,500.406829,96.154153,501.300306,96.540000,502.490000C98.680000,509.090000,100.720000,515.400000,102.710000,521.430000C103.003822,522.310471,102.934798,523.271716,102.518193,524.101174C102.101587,524.930631,101.371724,525.559962,100.490000,525.850000C100.136113,525.974025,99.764895,526.041519,99.390000,526.050000ZM828.950000,492.050000C827.869762,492.055457,826.847884,491.560372,826.182644,490.709256C825.517403,489.858139,825.283792,488.746938,825.550000,487.700000C827.110000,481.450000,828.480000,474.970000,829.620000,468.440000C829.786773,467.165046,830.639201,466.084195,831.840180,465.624882C833.041160,465.165569,834.397288,465.401760,835.372270,466.240050C836.347251,467.078341,836.784077,468.383735,836.510000,469.640000C835.350000,476.340000,833.950000,482.990000,832.340000,489.400000C831.958329,490.939764,830.586215,492.028417,829,492.050000ZM87.090000,488.110000C85.564783,488.108725,84.214952,487.122621,83.750000,485.670000C81.400000,478.270000,79.520000,472.190000,77.850000,466.540000C77.297715,464.687085,78.352085,462.737285,80.205000,462.185000C82.057915,461.632715,84.007715,462.687085,84.560000,464.540000C86.220000,470.150000,88.080000,476.190000,90.420000,483.540000C90.702419,484.423157,90.621791,485.382396,90.195909,486.206017C89.770028,487.029638,89.033905,487.649931,88.150000,487.930000C87.809064,488.048254,87.450860,488.109081,87.090000,488.110000ZM835.800000,452.790000L835.440000,452.790000C834.518040,452.696638,833.671061,452.240441,833.085788,451.521982C832.500516,450.803522,832.225007,449.881794,832.320000,448.960000C832.970000,442.470000,833.320000,435.870000,833.500000,429.340000C833.535899,427.407003,835.132003,425.869101,837.065000,425.905000C838.997997,425.940899,840.535899,427.537003,840.500000,429.470000C840.370000,436.200000,839.960000,442.990000,839.280000,449.660000C839.095220,451.441840,837.591390,452.794422,835.800000,452.790000ZM75.880000,449.790000C74.282138,449.789933,72.887183,448.707710,72.490000,447.160000C70.730000,440.280000,69.270000,433.870000,68.020000,427.530000C67.715753,426.280101,68.121675,424.964039,69.077113,424.102673C70.032551,423.241307,71.383500,422.973481,72.595291,423.405192C73.807083,423.836903,74.684390,424.898564,74.880000,426.170000C76.110000,432.380000,77.550000,438.680000,79.270000,445.430000C79.500140,446.329183,79.362617,447.283002,78.887842,448.080550C78.413066,448.878099,77.640150,449.453672,76.740000,449.680000C76.461000,449.765416,76.171686,449.812514,75.880000,449.820000ZM836.570000,413C834.721957,412.993103,833.195820,411.554423,833.080000,409.710000C832.680000,403.220000,832.010000,396.630000,831.080000,390.150000C830.803858,388.236333,832.131333,386.461142,834.045000,386.185000C835.958667,385.908858,837.733858,387.236333,838.010000,389.150000C839.010000,395.810000,839.650000,402.580000,840.060000,409.260000C840.117455,410.187036,839.804071,411.098893,839.188865,411.794751C838.573659,412.490609,837.707088,412.913396,836.780000,412.970000ZM68.220000,410.720000C66.457976,410.718876,64.971511,409.408045,64.750000,407.660000C63.890000,400.940000,63.280000,394.170000,62.940000,387.540000C62.840589,385.607003,64.327003,383.959411,66.260000,383.860000C68.192997,383.760589,69.840589,385.247003,69.940000,387.180000C70.270000,393.630000,70.860000,400.180000,71.710000,406.770000C71.952873,408.677909,70.615092,410.425942,68.710000,410.690000ZM831,373.490000C829.356843,373.486847,827.935781,372.344180,827.580000,370.740000C826.170000,364.390000,824.490000,357.990000,822.580000,351.740000C822.152853,350.522744,822.429926,349.169205,823.301023,348.217703C824.172121,347.266200,825.496002,346.871012,826.746144,347.189308C827.996286,347.507605,828.969989,348.487778,829.280000,349.740000C831.280000,356.190000,832.960000,362.740000,834.410000,369.290000C834.825484,371.175788,833.635184,373.041784,831.750000,373.460000C831.501913,373.498064,831.250334,373.508127,831,373.490000ZM66.200000,370.930000L66.100000,370.930000C65.171640,370.906435,64.290703,370.514888,63.651139,369.841564C63.011575,369.168240,62.665821,368.268344,62.690000,367.340000C62.870000,360.710000,63.310000,353.930000,64.010000,347.180000C64.206061,345.247003,65.932003,343.838939,67.865000,344.035000C69.797997,344.231061,71.206061,345.957003,71.010000,347.890000C70.340000,354.470000,69.900000,361.080000,69.730000,367.530000C69.670281,369.437133,68.097990,370.947243,66.190000,370.930000ZM819.450000,335.330000C818.004265,335.330635,816.707813,334.439822,816.190000,333.090000C813.850000,327.020000,811.240000,320.930000,808.440000,314.980000C807.904102,313.847468,808.013110,312.515067,808.725962,311.484699C809.438814,310.454332,810.647211,309.882535,811.895962,309.984699C813.144713,310.086864,814.244102,310.847468,814.780000,311.980000C817.650000,318.080000,820.320000,324.330000,822.720000,330.550000C823.413578,332.353090,822.519711,334.377700,820.720000,335.080000C820.313038,335.243719,819.878657,335.328559,819.440000,335.330000ZM70.070000,331.230000C69.893632,331.244519,69.716368,331.244519,69.540000,331.230000C68.619075,331.092154,67.791426,330.591995,67.241164,329.840785C66.690903,329.089574,66.463665,328.149614,66.610000,327.230000C67.670000,320.230000,68.870000,313.780000,70.280000,307.380000C70.694214,305.491186,72.561186,304.295786,74.450000,304.710000C76.338814,305.124214,77.534214,306.991186,77.120000,308.880000C75.740000,315.130000,74.570000,321.480000,73.530000,328.280000C73.254910,329.982151,71.784235,331.232436,70.060000,331.230000ZM802.500000,299.230000C801.228807,299.230214,800.057437,298.541172,799.440000,297.430000C796.260000,291.750000,792.830000,286.070000,789.250000,280.560000C788.510650,279.513236,788.402509,278.146094,788.968096,276.996109C789.533683,275.846125,790.682549,275.097205,791.962980,275.043813C793.243410,274.990421,794.450637,275.641094,795.110000,276.740000C798.790000,282.380000,802.300000,288.200000,805.550000,294.020000C806.146121,295.096237,806.135237,296.406024,805.521313,297.472205C804.907389,298.538387,803.780055,299.205304,802.550000,299.230000ZM78.690000,292.230000C78.351604,292.232630,78.014663,292.185458,77.690000,292.090000C75.839986,291.531398,74.789519,289.582447,75.340000,287.730000C77.340000,281.210000,79.500000,274.730000,81.910000,268.590000C82.614163,266.789552,84.644552,265.900837,86.445000,266.605000C88.245448,267.309163,89.134163,269.339552,88.430000,271.140000C86.090000,277.140000,83.940000,283.400000,82.050000,289.740000C81.618641,291.244782,80.245376,292.283899,78.680000,292.290000ZM780.750000,265.750000C779.647977,265.751579,778.609950,265.232566,777.950000,264.350000C777.200000,263.350000,776.440000,262.350000,775.670000,261.350000C772.450000,257.150000,769.060000,253,765.590000,249.010000C764.322506,247.549207,764.479207,245.337494,765.940000,244.070000C767.400793,242.802506,769.612506,242.959207,770.880000,244.420000C774.440000,248.520000,777.880000,252.780000,781.220000,257.080000C782.010000,258.080000,782.780000,259.130000,783.550000,260.160000C784.109042,260.900046,784.349543,261.832634,784.218117,262.750743C784.086690,263.668851,783.594210,264.496513,782.850000,265.050000C782.251313,265.531926,781.508484,265.799485,780.740000,265.810000ZM93.210000,255.180000C92.671451,255.180061,92.140455,255.053307,91.660000,254.810000C90.824978,254.401298,90.187533,253.676324,89.889042,252.795869C89.590551,251.915413,89.655685,250.952252,90.070000,250.120000C93.070000,244.040000,96.380000,238.070000,99.870000,232.390000C100.525582,231.318203,101.703162,230.677571,102.959157,230.709424C104.215151,230.741276,105.358745,231.440774,105.959157,232.544424C106.559569,233.648073,106.525582,234.988203,105.870000,236.060000C102.480000,241.560000,99.290000,247.330000,96.380000,253.230000C95.781451,254.431143,94.551994,255.187433,93.210000,255.180000ZM754.600000,235.710000C753.677846,235.711102,752.791659,235.352322,752.130000,234.710000C747.520000,230.130000,742.660000,225.630000,737.670000,221.350000C736.236766,220.082637,736.086768,217.899278,737.333218,216.447820C738.579668,214.996362,740.760623,214.814725,742.230000,216.040000C747.350000,220.430000,752.340000,225.040000,757.070000,229.740000C758.088514,230.737886,758.399852,232.253884,757.857057,233.572413C757.314262,234.890943,756.025860,235.748381,754.600000,235.740000ZM114.110000,221.270000C113.345659,221.265719,112.602752,221.016915,111.990000,220.560000C110.452179,219.387376,110.152575,217.191772,111.320000,215.650000C115.390000,210.270000,119.770000,205.040000,124.320000,200.110000C125.640750,198.734511,127.819551,198.669440,129.220032,199.963660C130.620514,201.257879,130.727216,203.435038,129.460000,204.860000C125.050000,209.630000,120.810000,214.680000,116.880000,219.860000C116.227448,220.736697,115.202833,221.258252,114.110000,221.270000ZM724.380000,209.720000C723.625891,209.719280,722.892421,209.473620,722.290000,209.020000C717.110000,205.150000,711.660000,201.360000,706.110000,197.750000C705.028766,197.083753,704.393284,195.884073,704.449518,194.615298C704.505751,193.346523,705.244876,192.207768,706.380812,191.639788C707.516747,191.071808,708.871228,191.163740,709.920000,191.880000C715.610000,195.570000,721.170000,199.450000,726.480000,203.410000C727.693984,204.311436,728.191827,205.890545,727.714352,207.325244C727.236877,208.759943,725.892055,209.725804,724.380000,209.720000ZM141.160000,192C139.708853,191.999200,138.408710,191.103001,137.891647,189.747097C137.374584,188.391193,137.747858,186.856850,138.830000,185.890000C143.930000,181.340000,149.210000,177.030000,154.510000,173.080000C156.060360,172.004033,158.184600,172.350924,159.312134,173.864194C160.439669,175.377464,160.164466,177.512175,158.690000,178.690000C153.550000,182.520000,148.440000,186.690000,143.490000,191.110000C142.850481,191.685190,142.020129,192.002363,141.160000,192ZM691,188C690.393208,187.999223,689.797042,187.840705,689.270000,187.540000C683.700000,184.370000,678,181.320000,671.840000,178.220000C670.721759,177.659093,669.987701,176.544219,669.914340,175.295340C669.840980,174.046461,670.439460,172.853312,671.484340,172.165340C672.529221,171.477368,673.861759,171.399093,674.980000,171.960000C681.250000,175.120000,687.060000,178.230000,692.730000,181.460000C694.108092,182.246269,694.784896,183.861198,694.379150,185.395058C693.973404,186.928918,692.586617,187.997974,691,188ZM655.420000,170C654.912631,170.000831,654.411113,169.891657,653.950000,169.680000L650.200000,167.950000C645.970000,165.950000,641.200000,163.810000,635.860000,161.480000C634.670422,161.011647,633.830850,159.931950,633.670009,158.663652C633.509167,157.395353,634.052649,156.140262,635.087660,155.389794C636.122672,154.639326,637.484524,154.512893,638.640000,155.060000C644.100000,157.420000,648.870000,159.620000,653.080000,161.560000L656.890000,163.320000C658.385634,164.007629,659.199962,165.644554,658.846179,167.252221C658.492396,168.859887,657.066129,170.003747,655.420000,170ZM173.170000,168.390000C171.594050,168.397788,170.207259,167.351349,169.782330,165.833747C169.357402,164.316146,169.999150,162.701716,171.350000,161.890000C177.145714,158.384012,183.120512,155.182989,189.250000,152.300000C191.000743,151.471573,193.091573,152.219257,193.920000,153.970000C194.748427,155.720743,194.000743,157.811573,192.250000,158.640000C186.340019,161.417994,180.578869,164.502179,174.990000,167.880000C174.422946,168.184664,173.782677,168.326561,173.140000,168.290000ZM375.560000,165C372,165,368.350000,164.880000,364.720000,164.630000C362.787003,164.500213,361.325213,162.827997,361.455000,160.895000C361.584787,158.962003,363.257003,157.500213,365.190000,157.630000C371.671709,158.072911,378.175274,158.096293,384.660000,157.700000C386.592997,157.578497,388.258497,159.047003,388.380000,160.980000C388.501503,162.912997,387.032997,164.578497,385.100000,164.700000C382,164.870000,378.760000,165,375.560000,165ZM345.170000,162.180000C344.961916,162.179357,344.754346,162.159270,344.550000,162.120000C337.879762,160.933487,331.279802,159.381144,324.780000,157.470000C322.924323,156.917715,321.867715,154.965677,322.420000,153.110000C322.972285,151.254323,324.924323,150.197715,326.780000,150.750000C333.026762,152.589212,339.369601,154.084786,345.780000,155.230000C347.712997,155.398447,349.143447,157.102003,348.975000,159.035000C348.806553,160.967997,347.102997,162.398447,345.170000,162.230000ZM404.640000,162.100000C402.845641,162.091641,401.348263,160.727633,401.173033,158.941831C400.997803,157.156029,402.201490,155.526981,403.960000,155.170000C409.730000,154.020000,415.780000,152.510000,422.960000,150.390000C424.160412,150.032734,425.460238,150.343020,426.369845,151.203975C427.279453,152.064929,427.660651,153.345754,427.369845,154.563975C427.079040,155.782195,426.160412,156.752734,424.960000,157.110000C417.540000,159.280000,411.300000,160.850000,405.320000,162.040000C405.094597,162.069302,404.867107,162.079339,404.640000,162.070000ZM618.700000,154.280000C618.289906,154.280735,617.883162,154.206165,617.500000,154.060000C611.280000,151.780000,604.980000,149.690000,598.780000,147.860000C597.581374,147.502734,596.664397,146.533148,596.374485,145.316475C596.084573,144.099801,596.465771,142.820882,597.374485,141.961475C598.283199,141.102067,599.581374,140.792734,600.780000,141.150000C607.130000,143.020000,613.570000,145.150000,619.930000,147.490000C621.530049,148.070685,622.480332,149.718313,622.181706,151.394074C621.883080,153.069836,620.422144,154.287776,618.720000,154.280000ZM209.200000,151.440000C207.490947,151.436350,206.034448,150.198941,205.754685,148.512938C205.474922,146.826934,206.453717,145.185431,208.070000,144.630000C214.494130,142.446712,221.038213,140.633734,227.670000,139.200000C228.903956,138.904271,230.201325,139.299567,231.060731,140.233122C231.920137,141.166677,232.206958,142.492256,231.810350,143.697580C231.413743,144.902904,230.395834,145.799166,229.150000,146.040000C222.780141,147.420326,216.493438,149.159770,210.320000,151.250000C209.958308,151.365880,209.579671,151.419971,209.200000,151.410000ZM306.820000,151.380000C306.435422,151.379540,306.053581,151.315337,305.690000,151.190000C300.250000,149.330000,293.850000,147.190000,286.920000,145.570000C285.675371,145.309038,284.670221,144.393514,284.294486,143.178596C283.918752,141.963678,284.231561,140.640552,285.111564,139.722511C285.991566,138.804471,287.300278,138.435983,288.530000,138.760000C295.760000,140.470000,302.350000,142.650000,307.950000,144.570000C309.566283,145.125431,310.545078,146.766934,310.265315,148.452938C309.985552,150.138941,308.529053,151.376350,306.820000,151.380000ZM443.020000,151.380000C441.299853,151.357782,439.850878,150.088801,439.602019,148.386605C439.353160,146.684410,440.378208,145.053730,442.020000,144.540000C447.650000,142.760000,454.250000,140.700000,461.240000,138.760000C463.069459,138.328985,464.912719,139.419879,465.415214,141.231009C465.917708,143.042139,464.900010,144.926800,463.110000,145.500000C456.230000,147.410000,449.710000,149.450000,444.110000,151.220000C443.747066,151.308375,443.372431,151.338751,443,151.310000ZM248.100000,143C246.167003,143.088366,244.528366,141.592997,244.440000,139.660000C244.351634,137.727003,245.847003,136.088366,247.780000,136C252.130000,135.590000,256.280000,135.390000,260.460000,135.390000L260.460000,135.390000C263.070000,135.390000,265.690000,135.470000,268.240000,135.640000C269.490430,135.720385,270.602989,136.461760,271.158589,137.584856C271.714189,138.707952,271.628419,140.042144,270.933589,141.084856C270.238759,142.127567,269.040430,142.720385,267.790000,142.640000C265.390000,142.490000,262.920000,142.410000,260.460000,142.410000L260.460000,142.410000C256.510000,142.410000,252.580000,142.600000,248.460000,142.990000ZM580.460000,143C580.204060,142.999131,579.949064,142.968934,579.700000,142.910000C573.700000,141.580000,567.530000,140.430000,561.450000,139.490000L560.340000,139.330000C559.102075,139.151367,558.053484,138.325878,557.589222,137.164487C557.124960,136.003096,557.315559,134.682246,558.089222,133.699487C558.862885,132.716729,560.102075,132.221367,561.340000,132.400000L562.480000,132.570000C568.710000,133.570000,575.010000,134.710000,581.190000,136.080000C582.940360,136.460711,584.120763,138.101555,583.925209,139.882133C583.729654,141.662711,582.221266,143.008254,580.430000,143ZM481.460000,140.900000C479.645609,140.918497,478.117942,139.547324,477.941001,137.741487C477.764061,135.935650,478.996526,134.294031,480.780000,133.960000C487.580000,132.590000,494.130000,131.570000,500.780000,130.850000C502.053274,130.649011,503.333965,131.164169,504.113403,132.190862C504.892841,133.217555,505.044850,134.589579,504.509053,135.761989C503.973256,136.934398,502.836390,137.717401,501.550000,137.800000C495.100000,138.510000,488.760000,139.500000,482.160000,140.800000C481.942686,140.847180,481.722012,140.877272,481.500000,140.890000ZM541,137.150000L540.740000,137.150000C534.160000,136.680000,527.500000,136.490000,521.120000,136.590000C519.187003,136.620376,517.595376,135.077997,517.565000,133.145000C517.534624,131.212003,519.077003,129.620376,521.010000,129.590000C527.590000,129.480000,534.460000,129.680000,541.240000,130.160000C543.172997,130.226274,544.686274,131.847003,544.620000,133.780000C544.553726,135.712997,542.932997,137.226274,541,137.160000Z" fill="rgb(242,192,41)" stroke="none" stroke-width="1"/><path id="ea7kQsPmEW66" d="M557.760000,163.590000C594.380000,169.210000,621.560000,181.510000,639.940000,189.980000C668.640000,203.220000,717.560000,225.780000,756.320000,276.260000C768.960000,292.720000,818.500000,359.390000,807.630000,450.260000C805.180000,470.750000,797.460000,528.130000,749.630000,575.200000C743.230000,581.490000,696.500000,626.150000,625.800000,630.970000C568.690000,634.870000,559.720000,608.420000,498.630000,608.660000C439.250000,608.900000,435.330000,633.940000,365.890000,645.480000C334.220000,650.730000,242.310000,665.990000,180.710000,614.240000C150.020000,588.450000,139.570000,556.240000,118.710000,491.690000C102.420000,441.420000,88.900000,399.690000,95.960000,344.290000C99.140000,319.340000,106.960000,257.820000,157.310000,211.540000C167.210000,202.440000,198.210000,174.670000,244.310000,168.030000C286.230000,162.030000,297.510000,179.650000,345.820000,187.030000C436.210000,200.770000,461.820000,148.880000,557.760000,163.590000Z" transform="matrix(1 0 0 1 0 2.80544799000006)" fill="rgb(234,237,239)" stroke="none" stroke-width="1"/><path id="ea7kQsPmEW67" d="M607.470000,745.420000C593.461653,745.424045,580.830597,736.988199,575.467967,724.046947C570.105336,711.105696,573.067496,696.208291,582.972894,686.302894C592.878291,676.397496,607.775696,673.435336,620.716947,678.797967C633.658199,684.160597,642.094045,696.791653,642.090000,710.800000C642.067957,729.910960,626.580960,745.397957,607.470000,745.420000ZM607.470000,687.270000C597.953003,687.270000,589.373112,693.002900,585.731115,701.795459C582.089118,710.588017,584.102245,720.708690,590.831777,727.438223C597.561310,734.167755,607.681983,736.180882,616.474541,732.538885C625.267100,728.896888,631,720.316997,631,710.800000C630.983472,697.811592,620.458408,687.286528,607.470000,687.270000Z" fill="rgb(234,237,239)" stroke="none" stroke-width="1"/><path id="ea7kQsPmEW68" d="M895.090000,355.150000L894.030000,355.150000C885.628969,354.478619,879.175986,347.427490,879.250000,339L879.250000,334.720000C879.244496,331.596351,876.713649,329.065504,873.590000,329.060000L868.940000,329.060000C864.569396,329.051323,860.395333,327.242804,857.400000,324.060000C854.386518,320.875327,852.845082,316.573813,853.150000,312.200000C853.816913,303.792783,860.876793,297.335789,869.310000,297.420000L873.590000,297.420000C876.717549,297.414484,879.250005,294.877553,879.250000,291.750000L879.250000,287.110000C879.256304,282.738902,881.065213,278.563939,884.250000,275.570000C887.434016,272.555448,891.736015,271.013838,896.110000,271.320000C904.517217,271.986913,910.974211,279.046793,910.890000,287.480000L910.890000,291.750000C910.889995,294.877553,913.422451,297.414484,916.550000,297.420000L920.830000,297.420000C929.249276,297.328566,936.308029,303.758710,937,312.150000C937.302065,316.520425,935.760832,320.817744,932.750000,324C929.754667,327.182804,925.580604,328.991323,921.210000,329L916.560000,329C913.436351,329.005504,910.905504,331.536351,910.900000,334.660000L910.900000,339.310000C910.896076,343.681593,909.086776,347.857459,905.900000,350.850000C902.983648,353.620040,899.112204,355.160022,895.090000,355.150000ZM869.310000,307.420000C866.183289,307.359476,863.525743,309.691874,863.180000,312.800000C863.072074,314.395858,863.630278,315.965092,864.721783,317.134291C865.813289,318.303491,867.340498,318.968111,868.940000,318.970000L873.590000,318.970000C882.261825,318.981019,889.288981,326.008175,889.300000,334.680000L889.300000,339C889.239476,342.126711,891.571874,344.784257,894.680000,345.130000C896.278989,345.237339,897.850771,344.675988,899.020000,343.580000C900.192081,342.494457,900.855800,340.967543,900.850000,339.370000L900.850000,334.720000C900.855508,326.044270,907.884275,319.011029,916.560000,319L921.210000,319C922.820311,319.007044,924.360557,318.341990,925.459650,317.165068C926.558743,315.988147,927.117029,314.406068,927,312.800000C926.654257,309.691874,923.996711,307.359476,920.870000,307.420000L916.590000,307.420000C907.914275,307.408971,900.885508,300.375730,900.880000,291.700000L900.880000,287.430000C900.940524,284.303289,898.608126,281.645743,895.500000,281.300000C893.904142,281.192074,892.334908,281.750278,891.165709,282.841783C889.996509,283.933289,889.331889,285.460498,889.330000,287.060000L889.330000,291.700000C889.324492,300.375730,882.295725,307.408971,873.620000,307.420000Z" transform="matrix(1 0 0 1 0 1.44628905999997)" fill="rgb(242,192,41)" stroke="none" stroke-width="1"/><path id="ea7kQsPmEW69" d="M263.610000,97.500000C257.556720,97.518198,251.748022,95.112612,247.480000,90.820000L221.530000,64.870000C212.638633,55.958521,212.638633,41.531479,221.530000,32.620000L247.480000,6.680000C251.756070,2.402356,257.556611,-0.000931,263.605000,-0.000931C269.653389,-0.000931,275.453930,2.402356,279.730000,6.680000L305.680000,32.620000C314.560380,41.536020,314.560380,55.953980,305.680000,64.870000L279.730000,90.820000C275.465051,95.111088,269.660037,97.516640,263.610000,97.500000ZM263.610000,16.500000C261.935758,16.495437,260.329456,17.161728,259.150000,18.350000L233.210000,44.300000C230.761542,46.761474,230.761542,50.738526,233.210000,53.200000L259.150000,79.200000C261.643520,81.569531,265.556480,81.569531,268.050000,79.200000L294,53.200000C296.448458,50.738526,296.448458,46.761474,294,44.300000L268.050000,18.360000C266.877328,17.173829,265.277979,16.507433,263.610000,16.510000Z" fill="rgb(234,237,239)" stroke="none" stroke-width="1"/><path id="ea7kQsPmEW610" d="M40.160000,469.800000C40.160000,477.921602,35.267665,485.243499,27.764283,488.351501C20.260902,491.459503,11.624136,489.741544,5.881296,483.998704C0.138456,478.255864,-1.579503,469.619098,1.528499,462.115717C4.636501,454.612335,11.958398,449.720000,20.080000,449.720000C31.169878,449.720000,40.160000,458.710122,40.160000,469.800000Z" transform="matrix(1 0 0 1 0.00044198000000 0)" fill="rgb(234,237,239)" stroke="none" stroke-width="1"/><path id="ea7kQsPmEW611" d="M610.190000,97.770000C610.190000,105.665103,605.434105,112.782803,598.139981,115.804128C590.845857,118.825454,582.449957,117.155405,576.867276,111.572725C571.284595,105.990044,569.614546,97.594144,572.635871,90.300020C575.657196,83.005896,582.774897,78.250000,590.670000,78.250000C601.450598,78.250000,610.190000,86.989402,610.190000,97.770000Z" transform="matrix(-0.11649779304195 -1.05065267131569 1.05065267131569 -0.11649779304195 556.75942017982982 729.74898514735185)" opacity="0" fill="rgb(242,192,41)" stroke="none" stroke-width="1"/><path id="ea7kQsPmEW612" d="M103.450000,621.160000L93.450000,631.160000L83.450000,621.160000C80.191271,617.911558,74.918729,617.911558,71.660000,621.160000L71.660000,621.160000C70.094276,622.724275,69.214540,624.846757,69.214540,627.060000C69.214540,629.273243,70.094276,631.395725,71.660000,632.960000L81.660000,642.960000L71.660000,652.960000C70.094883,654.522567,69.215395,656.643393,69.215395,658.855000C69.215395,661.066607,70.094883,663.187433,71.660000,664.750000L71.660000,664.750000C73.222567,666.315117,75.343393,667.194605,77.555000,667.194605C79.766607,667.194605,81.887433,666.315117,83.450000,664.750000L93.450000,654.750000L103.450000,664.750000C105.012567,666.315117,107.133393,667.194605,109.345000,667.194605C111.556607,667.194605,113.677433,666.315117,115.240000,664.750000L115.240000,664.750000C116.805117,663.187433,117.684605,661.066607,117.684605,658.855000C117.684605,656.643393,116.805117,654.522567,115.240000,652.960000L105.240000,642.960000L115.240000,632.960000C116.805724,631.395725,117.685460,629.273243,117.685460,627.060000C117.685460,624.846757,116.805724,622.724275,115.240000,621.160000L115.240000,621.160000C111.981271,617.911558,106.708729,617.911558,103.450000,621.160000Z" fill="rgb(242,192,41)" stroke="none" stroke-width="1"/><g id="ea7kQsPmEW613" opacity="0"><path id="ea7kQsPmEW614" d="M636,436.710000L243,436.710000L243,352.710000L636,352.710000Z" transform="matrix(1 0 0 1 0 0.92239124000002)" fill="rgb(255,255,255)" stroke="none" stroke-width="1"/><circle id="ea7kQsPmEW615" r="21.340000" transform="matrix(1 0 0 1 293.88000000000000 394.70999999999998)" fill="rgb(140,0,255)" stroke="none" stroke-width="1"/><path id="ea7kQsPmEW616" d="M343.160000,380.490000C341.269819,380.590285,339.788613,382.152161,339.788613,384.045000C339.788613,385.937839,341.269819,387.499715,343.160000,387.600000L602.820000,387.600000C604.710181,387.499715,606.191387,385.937839,606.191387,384.045000C606.191387,382.152161,604.710181,380.590285,602.820000,380.490000Z" fill="rgb(140,0,255)" stroke="none" stroke-width="1"/><path id="ea7kQsPmEW617" d="M343.160000,401.820000C341.193866,401.820000,339.600000,403.413866,339.600000,405.380000C339.600000,407.346134,341.193866,408.940000,343.160000,408.940000L507.310000,408.940000C509.276134,408.940000,510.870000,407.346134,510.870000,405.380000C510.870000,403.413866,509.276134,401.820000,507.310000,401.820000L343.160000,401.820000Z" fill="rgb(140,0,255)" stroke="none" stroke-width="1"/><path id="ea7kQsPmEW618" d="M636,436.710000L243,436.710000L243,352.710000L636,352.710000ZM249,430.710000L630,430.710000L630,358.710000L249,358.710000Z" fill="rgb(32,33,49)" stroke="none" stroke-width="1"/></g><g id="ea7kQsPmEW619"><path id="ea7kQsPmEW620" d="M343.160000,489.920000C341.193866,489.920000,339.600000,491.513866,339.600000,493.480000C339.600000,495.446134,341.193866,497.040000,343.160000,497.040000L602.820000,497.040000C604.786134,497.040000,606.380000,495.446134,606.380000,493.480000C606.380000,491.513866,604.786134,489.920000,602.820000,489.920000Z" fill="rgb(32,33,49)" stroke="none" stroke-width="1"/><circle id="ea7kQsPmEW621" r="21.340000" transform="matrix(1 0 0 1 293.88000000000000 505.63999999999999)" fill="rgb(32,33,49)" stroke="none" stroke-width="1"/><path id="ea7kQsPmEW622" d="M343.160000,512.750000C341.193866,512.750000,339.600000,514.343866,339.600000,516.310000C339.600000,518.276134,341.193866,519.870000,343.160000,519.870000L507.310000,519.870000C509.276134,519.870000,510.870000,518.276134,510.870000,516.310000C510.870000,514.343866,509.276134,512.750000,507.310000,512.750000L343.160000,512.750000Z" fill="rgb(32,33,49)" stroke="none" stroke-width="1"/><path id="ea7kQsPmEW623" d="M636,547.640000L243,547.640000L243,463.640000L636,463.640000ZM249,541.640000L630,541.640000L630,469.640000L249,469.640000Z" fill="rgb(32,33,49)" stroke="none" stroke-width="1"/></g><path id="ea7kQsPmEW624" d="M746.630000,415.850000C745.187132,411.605780,747.456589,406.995246,751.700000,405.550000C752.154021,405.401513,752.618701,405.287850,753.090000,405.210000L757.540000,387.210000L769.140000,387.210000L762.500000,412.540000C762.844829,416.655602,760.060305,420.379932,756.015259,421.213411C751.970212,422.046889,747.940217,419.726685,746.630000,415.810000Z" fill="rgb(255,183,183)" stroke="none" stroke-width="1"/><path id="ea7kQsPmEW625" d="M766.210000,404.200000L748.450000,403L757.050000,351.730000L751.580000,295.280000L769.530000,287.920000L781.530000,350.610000L781.530000,350.720000Z" fill="rgb(63,61,86)" stroke="none" stroke-width="1"/><path id="ea7kQsPmEW626" d="M628.860000,398.190000C628.822580,396.033882,629.645408,393.951639,631.146607,392.403528C632.647805,390.855417,634.703751,389.968924,636.860000,389.940000C637.338754,389.928145,637.817556,389.961627,638.290000,390.040000L648,374.250000L659,377.830000L645,399.920000C644.070856,403.942897,640.283240,406.637873,636.178041,406.197029C632.072842,405.756185,628.943798,402.318451,628.890000,398.190000Z" fill="rgb(255,183,183)" stroke="none" stroke-width="1"/><polygon id="ea7kQsPmEW627" points="683.640000,595.550000 674.190000,595.550000 669.700000,559.100000 683.640000,559.100000 683.640000,595.550000" fill="rgb(255,183,183)" stroke="none" stroke-width="1"/><path id="ea7kQsPmEW628" d="M686.050000,604.710000L655.580000,604.710000L655.580000,604.320000C655.580000,601.174532,656.829532,598.157895,659.053714,595.933714C661.277895,593.709532,664.294532,592.460000,667.440000,592.460000L686.050000,592.460000Z" fill="rgb(47,46,65)" stroke="none" stroke-width="1"/><polygon id="ea7kQsPmEW629" points="749.560000,595.550000 740.110000,595.550000 735.620000,559.100000 749.560000,559.100000 749.560000,595.550000" fill="rgb(255,183,183)" stroke="none" stroke-width="1"/><path id="ea7kQsPmEW630" d="M752,604.710000L721.500000,604.710000L721.500000,604.320000C721.500000,601.174532,722.749532,598.157895,724.973714,595.933714C727.197895,593.709532,730.214532,592.460000,733.360000,592.460000L752,592.460000Z" fill="rgb(47,46,65)" stroke="none" stroke-width="1"/><circle id="ea7kQsPmEW631" r="22.450000" transform="matrix(1 0 0 1 740.58000000000004 230.84999999999999)" fill="rgb(255,184,184)" stroke="none" stroke-width="1"/><path id="ea7kQsPmEW632" d="M733,229.620000C726.074890,232.447942,718.131974,229.596503,714.586653,223.009766C711.041333,216.423029,713.035694,208.222836,719.210000,204C725.210000,200,734.110000,201.320000,739.900000,206C747.915480,202.359505,757.365091,204.320592,763.270000,210.850000C768.860000,217.320000,769.470000,227.590000,765.390000,235.130000C761.769320,243.109220,762.350212,252.366012,766.940000,259.830000C765.190000,259.760000,761.330000,259.440000,756.500000,259.020000C755.100000,258.900000,754.500000,254.800000,752.970000,254.660000C751.620000,254.550000,749.350000,258.400000,747.970000,258.280000C737.490000,257.400000,725.750000,256.500000,720.420000,256.670000C724.390000,247.210000,728.400000,237.820000,733,229.620000Z" fill="rgb(47,46,65)" stroke="none" stroke-width="1"/><path id="ea7kQsPmEW633" d="M757.790000,389C757.790000,389,765.090000,396.530000,760.630000,435.370000L757.550000,517.840000L752.110000,590.840000L734.590000,589.670000L719.200000,421.610000L697.660000,483.120000L686.060000,584.800000L669.250000,583.630000L666.380000,482.520000L673.740000,404.370000Z" fill="rgb(32,33,49)" stroke="none" stroke-width="1"/><path id="ea7kQsPmEW634" d="M685.580000,409.070000C676.580000,409.070000,673.010000,408,672.750000,407.910000L672.330000,407.780000L672.400000,407.350000C672.460000,407,678.480000,371.890000,686.750000,353.460000L692.560000,278.700000C692.905437,274.131314,696.352459,270.402564,700.880000,269.700000L700.960000,270.200000L700.880000,269.700000L715.660000,267.380000L724.710000,259.380000L746.360000,260.580000L748.270000,269.740000C750.860000,270.470000,767.960000,275.740000,769.650000,288.250000L769.650000,288.410000L769.580000,288.550000L738.260000,348.790000C740.910000,351.400000,761.820000,372.890000,763.260000,400.350000L763.260000,401.010000L762.610000,400.870000C762.550000,400.870000,755.860000,399.580000,720.660000,405.530000C704.430000,408.310000,693.110000,409.070000,685.580000,409.070000Z" fill="rgb(63,61,86)" stroke="none" stroke-width="1"/><path id="ea7kQsPmEW635" d="M650.870000,397.830000L638.100000,388L666.590000,331L693.090000,275.140000C693.852058,273.545327,695.523365,272.590626,697.284082,272.744216C699.044799,272.897806,700.525562,274.127466,701,275.830000L707.560000,299.620000L687.050000,353Z" fill="rgb(63,61,86)" stroke="none" stroke-width="1"/><g id="ea7kQsPmEW636" opacity="0"><polygon id="ea7kQsPmEW637" points="464.400000,304.440000 410.400000,304.440000 410.400000,250.440000 437.400000,250.440000 437.400000,252.440000 412.400000,252.440000 412.400000,302.440000 462.400000,302.440000 462.400000,277.440000 464.400000,277.440000 464.400000,304.440000" fill="rgb(63,61,86)" stroke="none" stroke-width="1"/><polygon id="ea7kQsPmEW638" points="436.380000,288.490000 423.270000,273.430000 425.530000,271.460000 436.410000,283.950000 466.280000,250.450000 468.520000,252.440000 436.380000,288.490000" transform="matrix(1 0 0 1 0 1.46000000000004)" fill="rgb(140,0,255)" stroke="none" stroke-width="1"/></g><g id="ea7kQsPmEW639"><polygon id="ea7kQsPmEW640" points="164.900000,593.270000 177.070000,593.270000 182.860000,546.310000 164.900000,546.310000 164.900000,593.270000" fill="rgb(159,97,106)" stroke="none" stroke-width="1"/><path id="ea7kQsPmEW641" d="M161.790000,589.290000L185.790000,589.290000C194.228911,589.290000,201.070000,596.131089,201.070000,604.570000L201.070000,605.070000L161.790000,605.070000Z" fill="rgb(47,46,65)" stroke="none" stroke-width="1"/><polygon id="ea7kQsPmEW642" points="106.210000,593.270000 118.380000,593.270000 124.170000,546.310000 106.210000,546.310000 106.210000,593.270000" fill="rgb(159,97,106)" stroke="none" stroke-width="1"/><path id="ea7kQsPmEW643" d="M103.100000,589.290000L127.100000,589.290000C135.538911,589.290000,142.380000,596.131089,142.380000,604.570000L142.380000,605.070000L103.100000,605.070000Z" fill="rgb(47,46,65)" stroke="none" stroke-width="1"/><polygon id="ea7kQsPmEW644" points="111.580000,272.200000 97.690000,270.930000 88.860000,312.600000 90.120000,350.470000 104.010000,400.970000 122.940000,389.610000 112.840000,337.850000 111.580000,272.200000" fill="rgb(63,61,86)" stroke="none" stroke-width="1"/><polygon id="ea7kQsPmEW645" points="102.790000,396.560000 105.900000,423.070000 108.820000,484.930000 102.110000,577.120000 126.100000,575.830000 137.860000,479.880000 145.040000,435.690000 155.140000,486.190000 161.450000,580.880000 186.070000,578.910000 186.070000,485.860000 186.700000,418.020000 177.870000,391.500000 102.790000,396.560000" fill="rgb(32,33,49)" stroke="none" stroke-width="1"/><path id="ea7kQsPmEW646" d="M154.510000,247C154.510000,247,145.670000,234.370000,129.260000,243.210000L121.680000,253.310000L97.680000,270.980000L102.680000,330.320000L96.370000,404.810000L186.010000,403.550000L170.920000,329L170.920000,249.470000Z" fill="rgb(63,61,86)" stroke="none" stroke-width="1"/><polygon id="ea7kQsPmEW647" style="isolation:isolate" points="105.900000,291.890000 98.660000,378.440000 107.800000,331.540000 105.900000,291.890000" opacity="0.25" fill="rgb(0,0,0)" stroke="none" stroke-width="1"/><path id="ea7kQsPmEW648" d="M256.580000,364.460000C251.711614,366.114034,246.424137,363.508351,244.770000,358.640000C244.589643,358.120215,244.459057,357.584477,244.380000,357.040000L223.730000,351.940000L223.730000,338.630000L252.800000,346.250000C257.526587,345.848749,261.806042,349.046787,262.760369,353.693387C263.714695,358.339987,261.042125,362.965843,256.540000,364.460000Z" fill="rgb(159,97,106)" stroke="none" stroke-width="1"/><rect id="ea7kQsPmEW649" width="20.200000" height="8.840000" rx="0" ry="0" transform="matrix(0.17192900000000 -0.98510900000000 0.98510900000000 0.17192900000000 231.50002633999992 358.36194453999985)" fill="rgb(230,230,230)" stroke="none" stroke-width="1"/><circle id="ea7kQsPmEW650" r="25.350000" transform="matrix(1 0 0 1 140.46000000000001 207.00999999999999)" fill="rgb(159,97,106)" stroke="none" stroke-width="1"/><path id="ea7kQsPmEW651" d="M142.350000,229.370000C129.443562,232.589638,116.212363,225.432799,111.843401,212.868787C107.474440,200.304776,113.410536,186.482774,125.530000,181C129.986746,179.011820,134.859960,178.136701,139.730000,178.450000C147.310000,178.850000,154.730000,181.650000,162.270000,181.450000L163.370000,183.210000L167.510000,182.210000L168.400000,185.500000L169.490000,185.500000C171.490000,189.140000,168.300000,194.340000,164.170000,194.300000C162.551286,194.122438,160.953733,193.787521,159.400000,193.300000C157.800000,192.950000,155.920000,193.040000,154.810000,194.300000C153.380000,195.870000,154.010000,198.300000,154.300000,200.420000C154.590000,202.540000,153.860000,205.350000,151.730000,205.420000C150.650000,205.420000,149.620000,204.680000,148.550000,204.880000C147.310000,205.120000,146.680000,206.620000,146.870000,207.880000C147.170346,209.109788,147.670312,210.282006,148.350000,211.350000C151.302530,217.831590,148.918168,225.496842,142.810000,229.160000" fill="rgb(47,46,65)" stroke="none" stroke-width="1"/><path id="ea7kQsPmEW652" d="M164.890000,254.350000L170.890000,249.470000C170.890000,249.470000,183.050000,248.630000,182.830000,261.470000L202.290000,322.340000L239.620000,335.560000L234.620000,361.560000L181.800000,341.480000L155,297Z" fill="rgb(63,61,86)" stroke="none" stroke-width="1"/><path id="ea7kQsPmEW653" d="M129.260000,245.680000L130.520000,239.370000C130.520000,239.370000,149.090000,233.060000,151.170000,245.680000Z" fill="rgb(230,230,230)" stroke="none" stroke-width="1"/></g></g></g><script><![CDATA[!function(t,n){"object"==typeof exports&&"undefined"!=typeof module?module.exports=n():"function"==typeof define&&define.amd?define(n):(t="undefined"!=typeof globalThis?globalThis:t||self).__SVGATOR_PLAYER__=n()}(this,(function(){"use strict";function t(n){return(t="function"==typeof Symbol&&"symbol"==typeof Symbol.iterator?function(t){return typeof t}:function(t){return t&&"function"==typeof Symbol&&t.constructor===Symbol&&t!==Symbol.prototype?"symbol":typeof t})(n)}function n(t,n){if(!(t instanceof n))throw new TypeError("Cannot call a class as a function")}function r(t,n){for(var r=0;r<n.length;r++){var e=n[r];e.enumerable=e.enumerable||!1,e.configurable=!0,"value"in e&&(e.writable=!0),Object.defineProperty(t,e.key,e)}}function e(t,n,e){return n&&r(t.prototype,n),e&&r(t,e),t}function i(t){return(i=Object.setPrototypeOf?Object.getPrototypeOf:function(t){return t.__proto__||Object.getPrototypeOf(t)})(t)}function o(t,n){return(o=Object.setPrototypeOf||function(t,n){return t.__proto__=n,t})(t,n)}function u(t,n){return!n||"object"!=typeof n&&"function"!=typeof n?function(t){if(void 0===t)throw new ReferenceError("this hasn't been initialised - super() hasn't been called");return t}(t):n}function a(t){var n=function(){if("undefined"==typeof Reflect||!Reflect.construct)return!1;if(Reflect.construct.sham)return!1;if("function"==typeof Proxy)return!0;try{return Boolean.prototype.valueOf.call(Reflect.construct(Boolean,[],(function(){}))),!0}catch(t){return!1}}();return function(){var r,e=i(t);if(n){var o=i(this).constructor;r=Reflect.construct(e,arguments,o)}else r=e.apply(this,arguments);return u(this,r)}}function l(t,n,r){return(l="undefined"!=typeof Reflect&&Reflect.get?Reflect.get:function(t,n,r){var e=function(t,n){for(;!Object.prototype.hasOwnProperty.call(t,n)&&null!==(t=i(t)););return t}(t,n);if(e){var o=Object.getOwnPropertyDescriptor(e,n);return o.get?o.get.call(r):o.value}})(t,n,r||t)}var f=Math.abs;function s(t){return t}function c(t,n,r){var e=1-r;return 3*r*e*(t*e+n*r)+r*r*r}function h(){var t=arguments.length>0&&void 0!==arguments[0]?arguments[0]:0,n=arguments.length>1&&void 0!==arguments[1]?arguments[1]:0,r=arguments.length>2&&void 0!==arguments[2]?arguments[2]:1,e=arguments.length>3&&void 0!==arguments[3]?arguments[3]:1;return t<0||t>1||r<0||r>1?null:f(t-n)<=1e-5&&f(r-e)<=1e-5?s:function(i){if(i<=0)return t>0?i*n/t:0===n&&r>0?i*e/r:0;if(i>=1)return r<1?1+(i-1)*(e-1)/(r-1):1===r&&t<1?1+(i-1)*(n-1)/(t-1):1;for(var o,u=0,a=1;u<a;){var l=c(t,r,o=(u+a)/2);if(f(i-l)<1e-5)break;l<i?u=o:a=o}return c(n,e,o)}}function v(){return 1}function y(t){return 1===t?1:0}function d(){var t=arguments.length>0&&void 0!==arguments[0]?arguments[0]:1,n=arguments.length>1&&void 0!==arguments[1]?arguments[1]:0;if(1===t){if(0===n)return y;if(1===n)return v}var r=1/t;return function(t){return t>=1?1:(t+=n*r)-t%r}}function g(t){var n=arguments.length>1&&void 0!==arguments[1]?arguments[1]:2;if(Number.isInteger(t))return t;var r=Math.pow(10,n);return Math.round(t*r)/r}var p=Math.PI/180;function m(t,n,r){return t>=.5?r:n}function b(t,n,r){return 0===t||n===r?n:t*(r-n)+n}function w(t,n,r){var e=b(t,n,r);return e<=0?0:e}function x(t,n,r){return 0===t?n:1===t?r:{x:b(t,n.x,r.x),y:b(t,n.y,r.y)}}function k(t,n,r){var e=function(t,n,r){return Math.round(b(t,n,r))}(t,n,r);return e<=0?0:e>=255?255:e}function A(t,n,r){return 0===t?n:1===t?r:{r:k(t,n.r,r.r),g:k(t,n.g,r.g),b:k(t,n.b,r.b),a:b(t,null==n.a?1:n.a,null==r.a?1:r.a)}}function _(t,n,r){if(0===t)return n;if(1===t)return r;var e=n.length;if(e!==r.length)return m(t,n,r);for(var i=[],o=0;o<e;o++)i.push(A(t,n[o],r[o]));return i}function S(t,n){for(var r=[],e=0;e<t;e++)r.push(n);return r}function O(t,n){if(--n<=0)return t;var r=(t=Object.assign([],t)).length;do{for(var e=0;e<r;e++)t.push(t[e])}while(--n>0);return t}var M,j=function(){function t(r){n(this,t),this.list=r,this.length=r.length}return e(t,[{key:"setAttribute",value:function(t,n){for(var r=this.list,e=0;e<this.length;e++)r[e].setAttribute(t,n)}},{key:"removeAttribute",value:function(t){for(var n=this.list,r=0;r<this.length;r++)n[r].removeAttribute(t)}},{key:"style",value:function(t,n){for(var r=this.list,e=0;e<this.length;e++)r[e].style[t]=n}}]),t}(),F=/-./g,P=function(t,n){return n.toUpperCase()};function B(t){return"function"==typeof t?t:m}function I(t){return t?"function"==typeof t?t:Array.isArray(t)?function(t){var n=arguments.length>1&&void 0!==arguments[1]?arguments[1]:s;if(!Array.isArray(t))return n;switch(t.length){case 1:return d(t[0])||n;case 2:return d(t[0],t[1])||n;case 4:return h(t[0],t[1],t[2],t[3])||n}return n}(t,null):function(t,n){var r=arguments.length>2&&void 0!==arguments[2]?arguments[2]:s;switch(t){case"linear":return s;case"steps":return d(n.steps||1,n.jump||0)||r;case"bezier":case"cubic-bezier":return h(n.x1||0,n.y1||0,n.x2||0,n.y2||0)||r}return r}(t.type,t.value,null):null}function R(t,n,r){var e=arguments.length>3&&void 0!==arguments[3]&&arguments[3],i=n.length-1;if(t<=n[0].t)return e?[0,0,n[0].v]:n[0].v;if(t>=n[i].t)return e?[i,1,n[i].v]:n[i].v;var o,u=n[0],a=null;for(o=1;o<=i;o++){if(!(t>n[o].t)){a=n[o];break}u=n[o]}return null==a?e?[i,1,n[i].v]:n[i].v:u.t===a.t?e?[o,1,a.v]:a.v:(t=(t-u.t)/(a.t-u.t),u.e&&(t=u.e(t)),e?[o,t,r(t,u.v,a.v)]:r(t,u.v,a.v))}function q(t,n){var r=arguments.length>2&&void 0!==arguments[2]?arguments[2]:null;return t&&t.length?"function"!=typeof n?null:("function"!=typeof r&&(r=null),function(e){var i=R(e,t,n);return null!=i&&r&&(i=r(i)),i}):null}function E(t,n){return t.t-n.t}function T(n,r,e,i,o){var u,a="@"===e[0],l="#"===e[0],f=M[e],s=m;switch(a?(u=e.substr(1),e=u.replace(F,P)):l&&(e=e.substr(1)),t(f)){case"function":if(s=f(i,o,R,I,e,a,r,n),l)return s;break;case"string":s=q(i,B(f));break;case"object":if((s=q(i,B(f.i),f.f))&&"function"==typeof f.u)return f.u(r,s,e,a,n)}return s?function(t,n,r){var e=arguments.length>3&&void 0!==arguments[3]&&arguments[3];if(e)return t instanceof j?function(e){return t.style(n,r(e))}:function(e){return t.style[n]=r(e)};if(Array.isArray(n)){var i=n.length;return function(e){var o=r(e);if(null==o)for(var u=0;u<i;u++)t[u].removeAttribute(n);else for(var a=0;a<i;a++)t[a].setAttribute(n,o)}}return function(e){var i=r(e);null==i?t.removeAttribute(n):t.setAttribute(n,i)}}(r,e,s,a):null}function N(n,r,e,i){if(!i||"object"!==t(i))return null;var o=null,u=null;return Array.isArray(i)?u=function(t){if(!t||!t.length)return null;for(var n=0;n<t.length;n++)t[n].e&&(t[n].e=I(t[n].e));return t.sort(E)}(i):(u=i.keys,o=i.data||null),u?T(n,r,e,u,o):null}function C(t,n,r){if(!r)return null;var e=[];for(var i in r)if(r.hasOwnProperty(i)){var o=N(t,n,i,r[i]);o&&e.push(o)}return e.length?e:null}function z(t,n){if(!n.duration||n.duration<0)return null;var r=function(t,n){if(!n)return null;var r=[];if(Array.isArray(n))for(var e=n.length,i=0;i<e;i++){var o=n[i];if(2===o.length){var u=null;if("string"==typeof o[0])u=t.getElementById(o[0]);else if(Array.isArray(o[0])){u=[];for(var a=0;a<o[0].length;a++)if("string"==typeof o[0][a]){var l=t.getElementById(o[0][a]);l&&u.push(l)}u=u.length?1===u.length?u[0]:new j(u):null}if(u){var f=C(t,u,o[1]);f&&(r=r.concat(f))}}}else for(var s in n)if(n.hasOwnProperty(s)){var c=t.getElementById(s);if(c){var h=C(t,c,n[s]);h&&(r=r.concat(h))}}return r.length?r:null}(t,n.elements);return r?function(t,n){var r=arguments.length>2&&void 0!==arguments[2]?arguments[2]:1/0,e=arguments.length>3&&void 0!==arguments[3]?arguments[3]:1,i=arguments.length>4&&void 0!==arguments[4]&&arguments[4],o=arguments.length>5&&void 0!==arguments[5]?arguments[5]:1,u=t.length,a=e>0?n:0;i&&r%2==0&&(a=n-a);var l=null;return function(f,s){var c=f%n,h=1+(f-c)/n;s*=e,i&&h%2==0&&(s=-s);var v=!1;if(h>r)c=a,v=!0,-1===o&&(c=e>0?0:n);else if(s<0&&(c=n-c),c===l)return!1;l=c;for(var y=0;y<u;y++)t[y](c);return v}}(r,n.duration,n.iterations||1/0,n.direction||1,!!n.alternate,n.fill||1):null}var L=function(){function t(r,e){var i=arguments.length>2&&void 0!==arguments[2]?arguments[2]:{};n(this,t),this._id=0,this._running=!1,this._rollingBack=!1,this._animations=r,this.duration=e.duration,this.alternate=e.alternate,this.fill=e.fill,this.iterations=e.iterations,this.direction=i.direction||1,this.speed=i.speed||1,this.fps=i.fps||100,this.offset=i.offset||0,this.rollbackStartOffset=0}return e(t,[{key:"_rollback",value:function(){var t=this,n=1/0,r=null;this.rollbackStartOffset=this.offset,this._rollingBack||(this._rollingBack=!0,this._running=!0);this._id=window.requestAnimationFrame((function e(i){if(t._rollingBack){null==r&&(r=i);var o=i-r,u=t.rollbackStartOffset-o,a=Math.round(u*t.speed);if(a>t.duration&&n!=1/0){var l=!!t.alternate&&a/t.duration%2>1,f=a%t.duration;a=(f+=l?t.duration:0)||t.duration}var s=t.fps?1e3/t.fps:0,c=Math.max(0,a);if(c<n-s){t.offset=c,n=c;for(var h=t._animations,v=h.length,y=0;y<v;y++)h[y](c,t.direction)}var d=!1;if(t.iterations>0&&-1===t.fill){var g=t.iterations*t.duration,p=g==a;a=p?0:a,t.offset=p?0:t.offset,d=a>g}a>0&&t.offset>=a&&!d?t._id=window.requestAnimationFrame(e):t.stop()}}))}},{key:"_start",value:function(){var t=this,n=arguments.length>0&&void 0!==arguments[0]?arguments[0]:0,r=-1/0,e=null,i={},o=function o(u){t._running=!0,null==e&&(e=u);var a=Math.round((u-e+n)*t.speed),l=t.fps?1e3/t.fps:0;if(a>r+l&&!t._rollingBack){t.offset=a,r=a;for(var f=t._animations,s=f.length,c=0,h=0;h<s;h++)i[h]?c++:(i[h]=f[h](a,t.direction),i[h]&&c++);if(c===s)return void t._stop()}t._id=window.requestAnimationFrame(o)};this._id=window.requestAnimationFrame(o)}},{key:"_stop",value:function(){this._id&&window.cancelAnimationFrame(this._id),this._running=!1,this._rollingBack=!1}},{key:"play",value:function(){!this._rollingBack&&this._running||(this._rollingBack=!1,this.rollbackStartOffset>this.duration&&(this.offset=this.rollbackStartOffset-(this.rollbackStartOffset-this.offset)%this.duration,this.rollbackStartOffset=0),this._start(this.offset))}},{key:"stop",value:function(){this._stop(),this.offset=0,this.rollbackStartOffset=0;var t=this.direction,n=this._animations;window.requestAnimationFrame((function(){for(var r=0;r<n.length;r++)n[r](0,t)}))}},{key:"reachedToEnd",value:function(){return this.iterations>0&&this.offset>=this.iterations*this.duration}},{key:"restart",value:function(){this._stop(),this.offset=0,this._start()}},{key:"pause",value:function(){this._stop()}},{key:"reverse",value:function(){this.direction=-this.direction}}],[{key:"build",value:function(n,r){return(n=function(t,n){if(M=n,!t||!t.root||!Array.isArray(t.animations))return null;for(var r=document.getElementsByTagName("svg"),e=!1,i=0;i<r.length;i++)if(r[i].id===t.root&&!r[i].svgatorAnimation){(e=r[i]).svgatorAnimation=!0;break}if(!e)return null;var o=t.animations.map((function(t){return z(e,t)})).filter((function(t){return!!t}));return o.length?{element:e,animations:o,animationSettings:t.animationSettings,options:t.options||void 0}:null}(n,r))?{el:n.element,options:n.options||{},player:new t(n.animations,n.animationSettings,n.options)}:null}}]),t}();!function(){for(var t=0,n=["ms","moz","webkit","o"],r=0;r<n.length&&!window.requestAnimationFrame;++r)window.requestAnimationFrame=window[n[r]+"RequestAnimationFrame"],window.cancelAnimationFrame=window[n[r]+"CancelAnimationFrame"]||window[n[r]+"CancelRequestAnimationFrame"];window.requestAnimationFrame||(window.requestAnimationFrame=function(n){var r=Date.now(),e=Math.max(0,16-(r-t)),i=window.setTimeout((function(){n(r+e)}),e);return t=r+e,i},window.cancelAnimationFrame=window.clearTimeout)}();var D=/\.0+$/g;function Q(t){return Number.isInteger(t)?t+"":t.toFixed(6).replace(D,"")}function U(t){var n=arguments.length>1&&void 0!==arguments[1]?arguments[1]:" ";return t&&t.length?t.map(Q).join(n):""}function V(t){return t?null==t.a||t.a>=1?"rgb("+t.r+","+t.g+","+t.b+")":"rgba("+t.r+","+t.g+","+t.b+","+t.a+")":"transparent"}var $={f:null,i:function(t,n,r){return 0===t?n:1===t?r:{x:w(t,n.x,r.x),y:w(t,n.y,r.y)}},u:function(t,n){return function(r){var e=n(r);t.setAttribute("rx",Q(e.x)),t.setAttribute("ry",Q(e.y))}}},G={f:null,i:function(t,n,r){return 0===t?n:1===t?r:{width:w(t,n.width,r.width),height:w(t,n.height,r.height)}},u:function(t,n){return function(r){var e=n(r);t.setAttribute("width",Q(e.width)),t.setAttribute("height",Q(e.height))}}},H=Math.sin,Y=Math.cos,Z=Math.acos,J=Math.asin,K=Math.tan,W=Math.atan2,X=Math.PI/180,tt=180/Math.PI,nt=Math.sqrt,rt=function(){function t(){var r=arguments.length>0&&void 0!==arguments[0]?arguments[0]:1,e=arguments.length>1&&void 0!==arguments[1]?arguments[1]:0,i=arguments.length>2&&void 0!==arguments[2]?arguments[2]:0,o=arguments.length>3&&void 0!==arguments[3]?arguments[3]:1,u=arguments.length>4&&void 0!==arguments[4]?arguments[4]:0,a=arguments.length>5&&void 0!==arguments[5]?arguments[5]:0;n(this,t),this.m=[r,e,i,o,u,a],this.i=null,this.w=null,this.s=null}return e(t,[{key:"determinant",get:function(){var t=this.m;return t[0]*t[3]-t[1]*t[2]}},{key:"isIdentity",get:function(){if(null===this.i){var t=this.m;this.i=1===t[0]&&0===t[1]&&0===t[2]&&1===t[3]&&0===t[4]&&0===t[5]}return this.i}},{key:"point",value:function(t,n){var r=this.m;return{x:r[0]*t+r[2]*n+r[4],y:r[1]*t+r[3]*n+r[5]}}},{key:"translateSelf",value:function(){var t=arguments.length>0&&void 0!==arguments[0]?arguments[0]:0,n=arguments.length>1&&void 0!==arguments[1]?arguments[1]:0;if(!t&&!n)return this;var r=this.m;return r[4]+=r[0]*t+r[2]*n,r[5]+=r[1]*t+r[3]*n,this.w=this.s=this.i=null,this}},{key:"rotateSelf",value:function(){var t=arguments.length>0&&void 0!==arguments[0]?arguments[0]:0;if(t%=360){var n=H(t*=X),r=Y(t),e=this.m,i=e[0],o=e[1];e[0]=i*r+e[2]*n,e[1]=o*r+e[3]*n,e[2]=e[2]*r-i*n,e[3]=e[3]*r-o*n,this.w=this.s=this.i=null}return this}},{key:"scaleSelf",value:function(){var t=arguments.length>0&&void 0!==arguments[0]?arguments[0]:1,n=arguments.length>1&&void 0!==arguments[1]?arguments[1]:1;if(1!==t||1!==n){var r=this.m;r[0]*=t,r[1]*=t,r[2]*=n,r[3]*=n,this.w=this.s=this.i=null}return this}},{key:"skewSelf",value:function(t,n){if(n%=360,(t%=360)||n){var r=this.m,e=r[0],i=r[1],o=r[2],u=r[3];t&&(t=K(t*X),r[2]+=e*t,r[3]+=i*t),n&&(n=K(n*X),r[0]+=o*n,r[1]+=u*n),this.w=this.s=this.i=null}return this}},{key:"resetSelf",value:function(){var t=arguments.length>0&&void 0!==arguments[0]?arguments[0]:1,n=arguments.length>1&&void 0!==arguments[1]?arguments[1]:0,r=arguments.length>2&&void 0!==arguments[2]?arguments[2]:0,e=arguments.length>3&&void 0!==arguments[3]?arguments[3]:1,i=arguments.length>4&&void 0!==arguments[4]?arguments[4]:0,o=arguments.length>5&&void 0!==arguments[5]?arguments[5]:0,u=this.m;return u[0]=t,u[1]=n,u[2]=r,u[3]=e,u[4]=i,u[5]=o,this.w=this.s=this.i=null,this}},{key:"recomposeSelf",value:function(){var t=arguments.length>0&&void 0!==arguments[0]?arguments[0]:null,n=arguments.length>1&&void 0!==arguments[1]?arguments[1]:null,r=arguments.length>2&&void 0!==arguments[2]?arguments[2]:null,e=arguments.length>3&&void 0!==arguments[3]?arguments[3]:null,i=arguments.length>4&&void 0!==arguments[4]?arguments[4]:null;return this.isIdentity||this.resetSelf(),t&&(t.x||t.y)&&this.translateSelf(t.x,t.y),n&&this.rotateSelf(n),r&&(r.x&&this.skewSelf(r.x,0),r.y&&this.skewSelf(0,r.y)),!e||1===e.x&&1===e.y||this.scaleSelf(e.x,e.y),i&&(i.x||i.y)&&this.translateSelf(i.x,i.y),this}},{key:"decompose",value:function(){var t=arguments.length>0&&void 0!==arguments[0]?arguments[0]:0,n=arguments.length>1&&void 0!==arguments[1]?arguments[1]:0,r=this.m,e=r[0]*r[0]+r[1]*r[1],i=[[r[0],r[1]],[r[2],r[3]]],o=nt(e);if(0===o)return{origin:{x:r[4],y:r[5]},translate:{x:t,y:n},scale:{x:0,y:0},skew:{x:0,y:0},rotate:0};i[0][0]/=o,i[0][1]/=o;var u=r[0]*r[3]-r[1]*r[2]<0;u&&(o=-o);var a=i[0][0]*i[1][0]+i[0][1]*i[1][1];i[1][0]-=i[0][0]*a,i[1][1]-=i[0][1]*a;var l=nt(i[1][0]*i[1][0]+i[1][1]*i[1][1]);if(0===l)return{origin:{x:r[4],y:r[5]},translate:{x:t,y:n},scale:{x:o,y:0},skew:{x:0,y:0},rotate:0};i[1][0]/=l,i[1][1]/=l,a/=l;var f=0;return i[1][1]<0?(f=Z(i[1][1])*tt,i[0][1]<0&&(f=360-f)):f=J(i[0][1])*tt,u&&(f=-f),a=W(a,nt(i[0][0]*i[0][0]+i[0][1]*i[0][1]))*tt,u&&(a=-a),{origin:{x:r[4],y:r[5]},translate:{x:t,y:n},scale:{x:o,y:l},skew:{x:a,y:0},rotate:f}}},{key:"toString",value:function(){return null===this.s&&(this.s="matrix("+this.m.map(it).join(" ")+")"),this.s}}]),t}(),et=/\.0+$/;function it(t){return Number.isInteger(t)?t:t.toFixed(14).replace(et,"")}function ot(t,n,r){return t+(n-t)*r}function ut(t,n,r){var e=arguments.length>3&&void 0!==arguments[3]&&arguments[3],i={x:ot(t.x,n.x,r),y:ot(t.y,n.y,r)};return e&&(i.a=at(t,n)),i}function at(t,n){return Math.atan2(n.y-t.y,n.x-t.x)}Object.freeze({M:2,L:2,Z:0,H:1,V:1,C:6,Q:4,T:2,S:4,A:7});var lt={},ft=null;function st(n){var r=function(){if(ft)return ft;if("object"!==("undefined"==typeof document?"undefined":t(document)))return{};var n=document.createElementNS("http://www.w3.org/2000/svg","svg");return n.style.position="absolute",n.style.opacity="0.01",n.style.zIndex="-9999",n.style.left="-9999px",n.style.width="1px",n.style.height="1px",ft={svg:n}}().svg;if(!r)return function(t){return null};var e=document.createElementNS(r.namespaceURI,"path");e.setAttributeNS(null,"d",n),e.setAttributeNS(null,"fill","none"),e.setAttributeNS(null,"stroke","none"),r.appendChild(e);var i=e.getTotalLength();return function(t){var n=e.getPointAtLength(i*t);return{x:n.x,y:n.y}}}function ct(t){return lt[t]?lt[t]:lt[t]=st(t)}function ht(t,n,r,e){if(!t||!e)return!1;var i=["M",t.x,t.y];if(n&&r&&(i.push("C"),i.push(n.x),i.push(n.y),i.push(r.x),i.push(r.y)),n?!r:r){var o=n||r;i.push("Q"),i.push(o.x),i.push(o.y)}return n||r||i.push("L"),i.push(e.x),i.push(e.y),i.join(" ")}function vt(t,n,r,e){var i=arguments.length>4&&void 0!==arguments[4]?arguments[4]:1,o=ht(t,n,r,e),u=ct(o);try{return u(i)}catch(t){return null}}function yt(t,n,r,e){var i=1-e;return i*i*t+2*i*e*n+e*e*r}function dt(t,n,r,e){return 2*(1-e)*(n-t)+2*e*(r-n)}function gt(t,n,r,e){var i=arguments.length>4&&void 0!==arguments[4]&&arguments[4],o=vt(t,n,null,r,e);return o||(o={x:yt(t.x,n.x,r.x,e),y:yt(t.y,n.y,r.y,e)}),i&&(o.a=pt(t,n,r,e)),o}function pt(t,n,r,e){return Math.atan2(dt(t.y,n.y,r.y,e),dt(t.x,n.x,r.x,e))}function mt(t,n,r,e,i){var o=i*i;return i*o*(e-t+3*(n-r))+3*o*(t+r-2*n)+3*i*(n-t)+t}function bt(t,n,r,e,i){var o=1-i;return 3*(o*o*(n-t)+2*o*i*(r-n)+i*i*(e-r))}function wt(t,n,r,e,i){var o=arguments.length>5&&void 0!==arguments[5]&&arguments[5],u=vt(t,n,r,e,i);return u||(u={x:mt(t.x,n.x,r.x,e.x,i),y:mt(t.y,n.y,r.y,e.y,i)}),o&&(u.a=xt(t,n,r,e,i)),u}function xt(t,n,r,e,i){return Math.atan2(bt(t.y,n.y,r.y,e.y,i),bt(t.x,n.x,r.x,e.x,i))}function kt(t,n,r){var e=arguments.length>3&&void 0!==arguments[3]&&arguments[3];if(_t(n)){if(St(r))return gt(n,r.start,r,t,e)}else if(_t(r)){if(n.end)return gt(n,n.end,r,t,e)}else{if(n.end)return r.start?wt(n,n.end,r.start,r,t,e):gt(n,n.end,r,t,e);if(r.start)return gt(n,r.start,r,t,e)}return ut(n,r,t,e)}function At(t,n,r){var e=kt(t,n,r,!0);return e.a=function(t){var n=arguments.length>1&&void 0!==arguments[1]&&arguments[1];return n?t+Math.PI:t}(e.a)/p,e}function _t(t){return!t.type||"corner"===t.type}function St(t){return null!=t.start&&!_t(t)}var Ot=new rt;var Mt={f:Q,i:b},jt={f:Q,i:function(t,n,r){var e=b(t,n,r);return e<=0?0:e>=1?1:e}};function Ft(t,n,r,e,i,o,u,a){return n=function(t,n,r){for(var e,i,o,u=t.length-1,a={},l=0;l<=u;l++)(e=t[l]).e&&(e.e=n(e.e)),e.v&&"g"===(i=e.v).t&&i.r&&(o=r.getElementById(i.r))&&(a[i.r]=o.querySelectorAll("stop"));return a}(t,e,a),function(e){var i,o=r(e,t,Pt);return o?"c"===o.t?V(o.v):"g"===o.t?(n[o.r]&&function(t,n){for(var r=0,e=t.length;r<e;r++)t[r].setAttribute("stop-color",V(n[r]))}(n[o.r],o.v),(i=o.r)?"url(#"+i+")":"none"):"none":"none"}}function Pt(t,n,r){if(0===t)return n;if(1===t)return r;if(n&&r){var e=n.t;if(e===r.t)switch(n.t){case"c":return{t:e,v:A(t,n.v,r.v)};case"g":if(n.r===r.r)return{t:e,v:_(t,n.v,r.v),r:n.r}}}return m(t,n,r)}var Bt={fill:Ft,"fill-opacity":jt,stroke:Ft,"stroke-opacity":jt,"stroke-width":Mt,"stroke-dashoffset":{f:Q,i:b},"stroke-dasharray":{f:function(t){var n=arguments.length>1&&void 0!==arguments[1]?arguments[1]:" ";return t&&t.length>0&&(t=t.map((function(t){return Math.floor(1e4*t)/1e4}))),U(t,n)},i:function(t,n,r){var e,i,o,u=n.length,a=r.length;if(u!==a)if(0===u)n=S(u=a,0);else if(0===a)a=u,r=S(u,0);else{var l=(o=(e=u)*(i=a)/function(t,n){for(var r;n;)r=n,n=t%n,t=r;return t||1}(e,i))<0?-o:o;n=O(n,Math.floor(l/u)),r=O(r,Math.floor(l/a)),u=a=l}for(var f=[],s=0;s<u;s++)f.push(g(w(t,n[s],r[s]),6));return f}},opacity:jt,transform:function(n,r,e,i){if(!(n=function(n,r){if(!n||"object"!==t(n))return null;var e=!1;for(var i in n)n.hasOwnProperty(i)&&(n[i]&&n[i].length?(n[i].forEach((function(t){t.e&&(t.e=r(t.e))})),e=!0):delete n[i]);return e?n:null}(n,i)))return null;var o=function(t,i,o){var u=arguments.length>3&&void 0!==arguments[3]?arguments[3]:null;return n[t]?e(i,n[t],o):r&&r[t]?r[t]:u};return r&&r.a&&n.o?function(t){var r=e(t,n.o,At);return Ot.recomposeSelf(r,o("r",t,b,0)+r.a,o("k",t,x),o("s",t,x),o("t",t,x)).toString()}:function(t){return Ot.recomposeSelf(o("o",t,kt,null),o("r",t,b,0),o("k",t,x),o("s",t,x),o("t",t,x)).toString()}},r:Mt,"#size":G,"#radius":$,_:function(t,n){if(Array.isArray(t))for(var r=0;r<t.length;r++)this[t[r]]=n;else this[t]=n}};return function(t){!function(t,n){if("function"!=typeof n&&null!==n)throw new TypeError("Super expression must either be null or a function");t.prototype=Object.create(n&&n.prototype,{constructor:{value:t,writable:!0,configurable:!0}}),n&&o(t,n)}(u,t);var r=a(u);function u(){return n(this,u),r.apply(this,arguments)}return e(u,null,[{key:"build",value:function(t){var n=l(i(u),"build",this).call(this,t,Bt);n.el,n.options;var r=n.player;return function(t,n,r){t.play()}(r),r}}]),u}(L)}));
this.__SVGATOR_PLAYER__.build({"root":"ea7kQsPmEW61","animations":[{"duration":3000,"direction":1,"iterations":0,"fill":1,"alternate":false,"speed":1,"elements":{"ea7kQsPmEW68":{"transform":{"data":{"o":{"x":895.0746765136719,"y":314.6621856664453,"type":"corner"},"t":{"x":-895.0746765136719,"y":-313.2158966064453}},"keys":{"r":[{"t":0,"v":0},{"t":3000,"v":183.91603777303203}]}}},"ea7kQsPmEW610":{"opacity":[{"t":200,"v":1},{"t":1200,"v":0},{"t":2500,"v":1}]},"ea7kQsPmEW611":{"opacity":[{"t":0,"v":0},{"t":1500,"v":1},{"t":3000,"v":0}]},"ea7kQsPmEW612":{"transform":{"data":{"o":{"x":93.44999694824219,"y":642.9591064453125,"type":"corner"},"t":{"x":-93.44999694824219,"y":-642.9591064453125}},"keys":{"r":[{"t":0,"v":0},{"t":3000,"v":-184.38237652817367}]}}},"ea7kQsPmEW613":{"opacity":[{"t":0,"v":0},{"t":880,"v":0},{"t":900,"v":0},{"t":2000,"v":0},{"t":3000,"v":1}]},"ea7kQsPmEW619":{"transform":{"data":{"t":{"x":-439.5,"y":-505.64001465}},"keys":{"o":[{"t":0,"v":{"x":439.5,"y":505.64001465,"type":"corner"}},{"t":1500,"v":{"x":439.5,"y":395.6323912437507,"type":"corner"}},{"t":2000,"v":{"x":439.5,"y":394.7099999950008,"type":"corner"}}]}},"opacity":[{"t":1500,"v":1},{"t":2000,"v":0},{"t":3000,"v":0}]},"ea7kQsPmEW636":{"opacity":[{"t":0,"v":0},{"t":2000,"v":0},{"t":3000,"v":1}]}}}],"options":{"start":"load","hover":"freeze","click":"freeze","scroll":25,"font":"embed","exportedIds":"unique","svgFormat":"animated","title":"Teamwork"},"animationSettings":{"duration":3000,"direction":1,"iterations":0,"fill":1,"alternate":false,"speed":1}})]]></script></svg>