<svg width="308" height="246" viewBox="0 0 308 246" fill="none" xmlns="http://www.w3.org/2000/svg">
<g clip-path="url(#clip0)">
<path d="M39.5437 129.501C32.5093 119.568 28.3018 118.743 25.3106 109.634C24.3573 106.73 15.7123 79.0407 31.819 58.2162C50.0623 34.6195 83.9193 40.8899 87.8638 41.616C115.936 46.6654 167.51 62.3415 199.066 59.7673C217.112 58.3152 240.45 56.4341 257.116 72.2422C274.768 89.0075 280.783 121.812 268.719 138.082C250.147 163.197 242.324 187.619 232.035 196.925C223.489 204.648 178.193 243.459 121.556 229.268C109.854 226.331 74.5183 217.486 60.5153 188.741C51.41 170.061 56.3078 153.197 39.5437 129.501Z" fill="#F2C029"/>
<path d="M98.8756 225.439H98.7769C96.5417 225.439 94.3065 225.373 92.137 225.241C91.5125 225.208 91.0194 224.647 91.0523 224.02C91.0852 223.393 91.644 222.898 92.2685 222.931C94.3723 223.063 96.5417 223.129 98.7441 223.129H98.8427C99.4672 223.129 99.9932 223.657 99.9932 224.284C100.026 224.911 99.5001 225.439 98.8756 225.439ZM105.417 225.241C104.825 225.241 104.299 224.779 104.266 224.152C104.234 223.525 104.727 222.964 105.351 222.931C107.455 222.799 109.624 222.634 111.827 222.37C112.451 222.304 113.043 222.766 113.109 223.393C113.174 224.02 112.714 224.614 112.09 224.68C109.854 224.944 107.652 225.109 105.483 225.241C105.483 225.241 105.45 225.241 105.417 225.241ZM85.6944 224.548C85.6286 224.548 85.5957 224.548 85.53 224.548C83.2948 224.218 81.0924 223.822 78.9887 223.36C78.3641 223.228 77.9697 222.601 78.134 221.974C78.2655 221.347 78.8901 220.951 79.5146 221.116C81.5526 221.578 83.6892 221.974 85.8587 222.271C86.4833 222.37 86.9106 222.931 86.8448 223.591C86.7462 224.152 86.2532 224.548 85.6944 224.548ZM118.467 223.789C117.908 223.789 117.415 223.393 117.316 222.799C117.218 222.172 117.645 221.578 118.269 221.479C119.518 221.281 120.636 221.116 121.556 220.951C122.608 220.786 123.66 220.588 124.679 220.39C125.304 220.258 125.895 220.687 126.027 221.314C126.158 221.941 125.731 222.535 125.107 222.667C124.055 222.865 123.003 223.063 121.918 223.261C120.965 223.426 119.847 223.591 118.598 223.789C118.565 223.789 118.499 223.789 118.467 223.789ZM72.9404 221.644C72.809 221.644 72.7104 221.611 72.5789 221.578C70.4423 220.885 68.3385 220.06 66.3663 219.169C65.7746 218.905 65.5116 218.212 65.7746 217.651C66.0376 217.057 66.7279 216.793 67.2867 217.057C69.1932 217.915 71.2312 218.707 73.302 219.367C73.8937 219.565 74.2224 220.225 74.0252 220.819C73.8608 221.314 73.4335 221.644 72.9404 221.644ZM131.286 221.182C130.793 221.182 130.333 220.852 130.169 220.324C130.004 219.697 130.366 219.07 130.958 218.905C133.061 218.311 135.099 217.684 137.104 216.925C137.696 216.694 138.353 217.024 138.584 217.618C138.814 218.212 138.485 218.872 137.893 219.103C135.822 219.862 133.752 220.522 131.549 221.149C131.516 221.182 131.418 221.182 131.286 221.182ZM200.677 218.707C198.343 218.641 196.173 218.443 193.971 218.113C193.346 218.014 192.919 217.42 193.018 216.793C193.116 216.166 193.708 215.737 194.333 215.836C196.403 216.166 198.507 216.331 200.71 216.397C201.334 216.397 201.86 216.958 201.827 217.585C201.827 218.212 201.301 218.707 200.677 218.707ZM207.218 218.509C206.626 218.509 206.133 218.047 206.067 217.453C206.002 216.826 206.495 216.265 207.119 216.199C209.256 216.034 211.393 215.737 213.529 215.374C214.154 215.275 214.745 215.671 214.877 216.298C214.975 216.925 214.581 217.519 213.956 217.651C211.787 218.047 209.552 218.311 207.349 218.509C207.284 218.509 207.251 218.509 207.218 218.509ZM187.758 216.694C187.66 216.694 187.528 216.694 187.43 216.661C185.26 216.034 183.288 215.308 181.381 214.648L181.151 214.549C180.56 214.318 180.231 213.658 180.461 213.064C180.691 212.469 181.349 212.139 181.94 212.37L182.17 212.469C184.044 213.13 185.951 213.823 188.087 214.45C188.712 214.615 189.04 215.275 188.876 215.869C188.712 216.364 188.251 216.694 187.758 216.694ZM143.613 216.694C143.185 216.694 142.758 216.43 142.561 216.001C142.298 215.407 142.561 214.747 143.153 214.483C143.942 214.12 144.698 213.79 145.454 213.427C146.768 212.833 147.985 212.271 149.168 211.776C149.76 211.545 150.417 211.809 150.68 212.403C150.91 212.998 150.647 213.658 150.056 213.922C148.905 214.417 147.689 214.978 146.407 215.539C145.651 215.869 144.895 216.232 144.106 216.595C143.942 216.661 143.777 216.694 143.613 216.694ZM61.0083 216.232C60.8111 216.232 60.6139 216.166 60.4166 216.067C58.4773 214.912 56.6365 213.658 54.8615 212.338C54.3684 211.941 54.2698 211.215 54.6314 210.72C55.0258 210.225 55.749 210.126 56.2421 210.489C57.9185 211.776 59.7264 212.998 61.5671 214.087C62.1259 214.417 62.2903 215.11 61.9616 215.671C61.7644 216.034 61.4028 216.232 61.0083 216.232ZM220.136 216.232C219.643 216.232 219.183 215.902 219.019 215.374C218.854 214.747 219.216 214.12 219.84 213.955C221.911 213.394 223.949 212.734 225.987 211.974C226.579 211.743 227.236 212.04 227.466 212.668C227.696 213.262 227.401 213.922 226.776 214.153C224.705 214.945 222.569 215.605 220.432 216.199C220.333 216.232 220.235 216.232 220.136 216.232ZM175.333 212.569C175.235 212.569 175.136 212.569 175.037 212.536C172.966 211.974 170.961 211.644 168.759 211.446C168.134 211.38 167.674 210.819 167.707 210.192C167.773 209.565 168.332 209.103 168.956 209.136C171.257 209.334 173.427 209.73 175.596 210.291C176.221 210.456 176.582 211.083 176.418 211.71C176.286 212.238 175.826 212.569 175.333 212.569ZM155.808 212.007C155.282 212.007 154.789 211.644 154.69 211.083C154.559 210.456 154.953 209.862 155.578 209.73C157.616 209.301 159.785 209.07 162.283 208.971C162.941 208.938 163.434 209.466 163.467 210.093C163.5 210.72 162.974 211.248 162.349 211.281C159.982 211.347 157.945 211.578 156.038 211.974C155.972 211.974 155.907 212.007 155.808 212.007ZM232.397 211.644C231.97 211.644 231.542 211.413 231.345 210.984C231.082 210.423 231.312 209.73 231.904 209.433C233.843 208.509 235.75 207.486 237.624 206.397C238.182 206.067 238.873 206.265 239.201 206.826C239.53 207.387 239.333 208.08 238.774 208.41C236.867 209.532 234.862 210.588 232.89 211.512C232.726 211.611 232.561 211.644 232.397 211.644ZM50.5883 208.278C50.2924 208.278 49.9966 208.179 49.7994 207.948C48.1887 206.364 46.7095 204.714 45.3289 202.932C44.9345 202.437 45.0331 201.711 45.5261 201.315C46.0192 200.919 46.7424 201.018 47.1368 201.513C48.4517 203.229 49.8322 204.78 51.3772 206.298C51.8374 206.76 51.8373 207.486 51.41 207.915C51.1799 208.179 50.8841 208.278 50.5883 208.278ZM243.737 205.044C243.376 205.044 243.014 204.879 242.784 204.549C242.423 204.021 242.554 203.295 243.08 202.932C244.855 201.678 246.597 200.358 248.208 199.005C248.701 198.608 249.424 198.674 249.819 199.17C250.213 199.665 250.147 200.391 249.654 200.787C247.978 202.173 246.203 203.559 244.362 204.846C244.198 204.978 243.968 205.044 243.737 205.044ZM42.6006 197.915C42.2062 197.915 41.8117 197.717 41.6145 197.354C40.5626 195.539 39.5436 193.592 38.5575 191.414C38.2946 190.82 38.5575 190.16 39.1163 189.896C39.708 189.632 40.3654 189.896 40.6284 190.457C41.5816 192.569 42.5678 194.45 43.5868 196.199C43.9155 196.76 43.7182 197.453 43.1923 197.783C42.9951 197.882 42.7979 197.915 42.6006 197.915ZM253.796 196.595C253.5 196.595 253.204 196.496 253.007 196.265C252.547 195.803 252.547 195.077 252.974 194.648C254.486 193.097 255.933 191.48 257.28 189.83C257.675 189.335 258.398 189.269 258.891 189.665C259.384 190.061 259.45 190.787 259.055 191.282C257.675 192.998 256.163 194.681 254.618 196.265C254.388 196.496 254.092 196.595 253.796 196.595ZM262.047 186.398C261.816 186.398 261.619 186.332 261.422 186.2C260.896 185.837 260.765 185.143 261.093 184.582C262.277 182.8 263.394 180.952 264.413 179.038C264.709 178.477 265.399 178.279 265.958 178.576C266.517 178.873 266.714 179.566 266.418 180.127C265.367 182.074 264.216 184.021 262.967 185.837C262.77 186.233 262.408 186.398 262.047 186.398ZM37.0126 186.035C36.5524 186.035 36.1251 185.771 35.9279 185.309C35.2047 183.46 34.4815 181.414 33.6598 179.104C33.4625 178.51 33.7584 177.85 34.3829 177.619C34.9746 177.421 35.632 177.718 35.8621 178.345C36.651 180.655 37.407 182.635 38.0973 184.483C38.3274 185.077 38.0316 185.738 37.4399 185.969C37.3084 186.002 37.1769 186.035 37.0126 186.035ZM268.292 174.847C268.128 174.847 267.996 174.814 267.832 174.748C267.24 174.484 266.977 173.824 267.24 173.23C268.095 171.283 268.851 169.236 269.541 167.19C269.738 166.596 270.396 166.266 270.987 166.464C271.579 166.662 271.908 167.322 271.711 167.916C270.987 170.028 270.199 172.141 269.344 174.154C269.18 174.583 268.752 174.847 268.292 174.847ZM32.6736 173.626C32.1806 173.626 31.7533 173.329 31.5889 172.834C30.9315 170.853 30.2741 168.741 29.5509 166.563C29.3537 165.969 29.6824 165.309 30.3069 165.111C30.8986 164.913 31.556 165.243 31.7533 165.87C32.4435 168.048 33.1338 170.127 33.7912 172.108C33.9885 172.702 33.6598 173.362 33.0681 173.56C32.9037 173.593 32.8051 173.626 32.6736 173.626ZM272.499 162.405C272.401 162.405 272.302 162.405 272.204 162.372C271.579 162.207 271.218 161.58 271.382 160.986C271.908 158.94 272.335 156.794 272.73 154.616C272.828 153.989 273.42 153.56 274.044 153.692C274.669 153.791 275.096 154.385 274.965 155.012C274.57 157.223 274.11 159.402 273.584 161.547C273.453 162.042 272.993 162.405 272.499 162.405ZM28.6305 161.085C28.1375 161.085 27.6773 160.755 27.5458 160.293C26.7569 157.851 26.1652 155.837 25.6064 153.989C25.442 153.362 25.7708 152.735 26.3953 152.57C27.0198 152.405 27.6444 152.735 27.8087 153.362C28.3676 155.21 28.9592 157.19 29.7481 159.633C29.9454 160.227 29.6166 160.887 28.9921 161.085C28.8606 161.085 28.7291 161.085 28.6305 161.085ZM274.735 149.435C274.702 149.435 274.669 149.435 274.603 149.435C273.979 149.369 273.518 148.808 273.584 148.181C273.814 146.036 273.946 143.857 273.979 141.712C273.979 141.085 274.505 140.557 275.162 140.59C275.787 140.59 276.313 141.118 276.28 141.778C276.247 143.99 276.115 146.234 275.885 148.445C275.819 148.973 275.326 149.435 274.735 149.435ZM24.949 148.445C24.423 148.445 23.9629 148.082 23.8314 147.587C23.2397 145.31 22.7795 143.197 22.3522 141.118C22.2207 140.491 22.648 139.897 23.2726 139.765C23.8971 139.633 24.4888 140.062 24.6203 140.689C25.0147 142.735 25.5078 144.815 26.0666 147.059C26.2309 147.686 25.8365 148.313 25.2448 148.478C25.1462 148.445 25.0476 148.445 24.949 148.445ZM274.998 136.267C274.406 136.267 273.88 135.805 273.847 135.178C273.716 133.033 273.486 130.855 273.19 128.709C273.091 128.082 273.551 127.488 274.176 127.389C274.8 127.29 275.392 127.752 275.491 128.379C275.787 130.591 276.017 132.802 276.148 135.013C276.181 135.64 275.721 136.201 275.063 136.234C275.031 136.267 274.998 136.267 274.998 136.267ZM22.4179 135.541C21.8591 135.541 21.3661 135.112 21.2674 134.518C20.9716 132.307 20.7744 130.062 20.6758 127.884C20.6429 127.257 21.136 126.696 21.7605 126.663C22.3851 126.63 22.9439 127.125 22.9767 127.752C23.0753 129.864 23.2726 132.043 23.5684 134.221C23.6341 134.848 23.2068 135.442 22.5823 135.508C22.5165 135.541 22.4837 135.541 22.4179 135.541ZM273.157 123.264C272.631 123.264 272.138 122.901 272.039 122.373C271.579 120.294 271.02 118.149 270.396 116.102C270.199 115.475 270.56 114.848 271.152 114.65C271.743 114.452 272.401 114.815 272.598 115.409C273.256 117.555 273.814 119.7 274.275 121.845C274.406 122.472 274.012 123.099 273.387 123.231C273.321 123.264 273.223 123.264 273.157 123.264ZM21.7605 122.406C21.7605 122.406 21.7276 122.406 21.7605 122.406C21.1031 122.373 20.5772 121.845 20.61 121.218C20.6758 119.04 20.8073 116.796 21.0373 114.551C21.1031 113.924 21.6619 113.462 22.2864 113.528C22.911 113.594 23.3712 114.155 23.3054 114.782C23.0753 116.961 22.9439 119.139 22.8781 121.251C22.8781 121.911 22.3851 122.406 21.7605 122.406ZM269.344 110.657C268.884 110.657 268.456 110.36 268.259 109.931C267.503 107.918 266.648 105.905 265.728 103.958C265.465 103.397 265.695 102.703 266.287 102.406C266.846 102.142 267.536 102.373 267.832 102.968C268.785 104.981 269.64 107.027 270.429 109.106C270.659 109.7 270.363 110.36 269.771 110.591C269.64 110.657 269.508 110.657 269.344 110.657ZM23.0425 109.304C22.9767 109.304 22.911 109.304 22.8781 109.304C22.2536 109.205 21.8262 108.611 21.9249 107.984C22.2864 105.674 22.6809 103.562 23.1411 101.449C23.2726 100.822 23.8971 100.426 24.5217 100.558C25.1462 100.69 25.5407 101.317 25.4092 101.944C24.949 104.024 24.5874 106.103 24.2258 108.347C24.0943 108.908 23.6013 109.304 23.0425 109.304ZM263.789 98.7432C263.394 98.7432 263 98.5452 262.77 98.1492C261.718 96.268 260.6 94.3869 259.417 92.5717C259.055 92.0437 259.22 91.3177 259.746 90.9876C260.272 90.6246 260.995 90.7896 261.323 91.3177C262.54 93.1658 263.69 95.1129 264.742 97.0271C265.038 97.5881 264.841 98.2812 264.315 98.6112C264.183 98.7102 263.986 98.7432 263.789 98.7432ZM25.8694 96.466C25.7708 96.466 25.6393 96.466 25.5407 96.433C24.9161 96.235 24.5874 95.608 24.7846 94.9809C25.442 92.8358 26.1652 90.6906 26.9541 88.6775C27.1842 88.0834 27.8416 87.7864 28.4333 88.0174C29.025 88.2484 29.3208 88.9085 29.0907 89.5025C28.3347 91.4827 27.6115 93.5618 26.987 95.641C26.8226 96.136 26.3624 96.466 25.8694 96.466ZM256.623 87.7204C256.261 87.7204 255.933 87.5554 255.702 87.2584C255.44 86.9283 255.209 86.5983 254.946 86.2683C253.895 84.8822 252.777 83.5291 251.626 82.209C251.199 81.714 251.265 80.9879 251.725 80.5919C252.218 80.1628 252.941 80.2288 253.336 80.6909C254.519 82.044 255.637 83.4631 256.721 84.8822C256.984 85.2122 257.247 85.5422 257.477 85.9053C257.872 86.4003 257.74 87.1264 257.247 87.5224C257.116 87.6544 256.886 87.7204 256.623 87.7204ZM30.6356 84.2221C30.4713 84.2221 30.2741 84.1891 30.1426 84.0901C29.5838 83.7931 29.3537 83.1001 29.6166 82.539C30.6028 80.5259 31.6875 78.5457 32.838 76.6976C33.1667 76.1695 33.8899 75.9715 34.4158 76.3346C34.9417 76.6646 35.139 77.3906 34.7774 77.9187C33.6598 79.7338 32.6079 81.6479 31.6546 83.5951C31.4574 83.9911 31.063 84.2221 30.6356 84.2221ZM248.044 77.7867C247.748 77.7867 247.452 77.6877 247.222 77.4566C245.71 75.9385 244.099 74.4534 242.456 73.0343C241.962 72.6053 241.93 71.8792 242.324 71.4172C242.751 70.9222 243.475 70.8892 243.935 71.2852C245.611 72.7373 247.255 74.2554 248.8 75.8065C249.26 76.2686 249.26 76.9946 248.8 77.4236C248.635 77.6877 248.339 77.7867 248.044 77.7867ZM37.5057 73.0343C37.2756 73.0343 37.0126 72.9683 36.8154 72.8033C36.3223 72.4073 36.2237 71.6812 36.5853 71.1862C37.933 69.4041 39.3793 67.6879 40.8585 66.0708C41.2858 65.6088 42.009 65.5758 42.4692 66.0048C42.9293 66.4338 42.9622 67.1599 42.5349 67.6219C41.0886 69.206 39.708 70.8562 38.3932 72.5723C38.1959 72.8693 37.8672 73.0343 37.5057 73.0343ZM238.117 69.206C237.886 69.206 237.623 69.14 237.426 68.975C235.717 67.6879 233.942 66.4338 232.101 65.2458C231.575 64.8827 231.411 64.1897 231.772 63.6616C232.134 63.1336 232.824 62.9686 233.35 63.3316C235.224 64.5527 237.065 65.8398 238.807 67.1269C239.3 67.5229 239.431 68.216 239.037 68.744C238.807 69.041 238.445 69.206 238.117 69.206ZM46.4137 63.3646C46.0849 63.3646 45.7891 63.2326 45.559 62.9686C45.1317 62.5066 45.1646 61.7475 45.6576 61.3515C47.334 59.8334 49.0762 58.4143 50.8184 57.1272C51.3114 56.7311 52.0346 56.8631 52.429 57.3582C52.8235 57.8532 52.692 58.5793 52.1989 58.9753C50.5225 60.2294 48.8461 61.6155 47.2026 63.0676C46.9396 63.2656 46.6766 63.3646 46.4137 63.3646ZM227.138 62.0115C226.94 62.0115 226.743 61.9785 226.579 61.8465C224.738 60.7904 222.864 59.8004 220.859 58.7773C220.301 58.4803 220.07 57.7872 220.333 57.2262C220.629 56.6651 221.32 56.4341 221.878 56.6981C223.949 57.7542 225.856 58.7773 227.729 59.8334C228.288 60.1634 228.485 60.8564 228.157 61.4175C227.927 61.8135 227.532 62.0115 227.138 62.0115ZM215.436 56.0711C215.271 56.0711 215.107 56.0381 214.943 55.9721L213.726 55.411C212.346 54.751 210.768 54.0579 209.026 53.2659C208.434 53.0019 208.171 52.3418 208.434 51.7478C208.697 51.1537 209.355 50.8897 209.946 51.1537C211.754 51.9458 213.299 52.6718 214.68 53.2989L215.929 53.8929C216.52 54.1569 216.75 54.85 216.488 55.411C216.29 55.8071 215.863 56.0711 215.436 56.0711ZM56.8995 55.543C56.505 55.543 56.1434 55.345 55.9133 54.982C55.5846 54.421 55.749 53.7279 56.3078 53.3979C58.2143 52.2428 60.2194 51.1537 62.1917 50.2297C62.7505 49.9656 63.4408 50.1967 63.7366 50.7907C63.9996 51.3847 63.7695 52.0448 63.1778 52.3418C61.2713 53.2329 59.3648 54.2559 57.4911 55.378C57.3268 55.477 57.1296 55.543 56.8995 55.543ZM123.463 54.454C122.28 54.454 121.096 54.421 119.913 54.322C119.288 54.289 118.795 53.7279 118.828 53.1009C118.861 52.4738 119.42 51.9788 120.044 52.0118C122.214 52.1438 124.35 52.1768 126.454 52.0448C127.079 52.0118 127.638 52.4738 127.67 53.1339C127.703 53.7609 127.243 54.322 126.586 54.355C125.567 54.421 124.515 54.454 123.463 54.454ZM113.47 53.4969C113.404 53.4969 113.339 53.4969 113.273 53.4639C111.071 53.0679 108.967 52.5728 106.765 51.9128C106.14 51.7478 105.811 51.0877 105.976 50.4937C106.14 49.8666 106.797 49.5366 107.389 49.7016C109.493 50.3287 111.531 50.7907 113.635 51.1867C114.259 51.2857 114.686 51.9128 114.555 52.5398C114.489 53.1339 113.996 53.4969 113.47 53.4969ZM132.996 53.4969C132.47 53.4969 131.977 53.1009 131.878 52.5728C131.746 51.9458 132.174 51.3517 132.798 51.2197C134.705 50.8567 136.677 50.3287 139.044 49.6356C139.668 49.4706 140.293 49.8006 140.457 50.4277C140.622 51.0547 140.293 51.6818 139.668 51.8468C137.236 52.5728 135.165 53.0679 133.226 53.4639C133.16 53.4969 133.094 53.4969 132.996 53.4969ZM203.372 50.8897C203.241 50.8897 203.109 50.8567 202.978 50.8237C200.94 50.0646 198.869 49.3716 196.831 48.7776C196.206 48.6125 195.878 47.9525 196.042 47.3584C196.206 46.7314 196.864 46.4014 197.455 46.5664C199.526 47.1934 201.663 47.8865 203.734 48.6455C204.325 48.8766 204.621 49.5366 204.424 50.1306C204.292 50.6257 203.832 50.8897 203.372 50.8897ZM68.7658 49.9656C68.2728 49.9656 67.8455 49.6686 67.6811 49.1736C67.4839 48.5795 67.8126 47.9195 68.4043 47.7215C70.508 46.9954 72.6775 46.4014 74.847 45.9393C75.4715 45.8073 76.0961 46.2034 76.2275 46.8304C76.359 47.4575 75.9646 48.0845 75.34 48.2165C73.2692 48.6785 71.1654 49.2396 69.1603 49.9326C68.9959 49.9656 68.8973 49.9656 68.7658 49.9656ZM100.848 49.9656C100.716 49.9656 100.585 49.9326 100.486 49.8996C98.7112 49.2726 96.6075 48.5795 94.3065 48.0515C93.682 47.9195 93.3204 47.2924 93.4519 46.6654C93.5834 46.0383 94.2079 45.6753 94.8324 45.8073C97.1992 46.3684 99.3686 47.0944 101.209 47.7215C101.801 47.9195 102.13 48.5795 101.933 49.1736C101.768 49.6356 101.341 49.9656 100.848 49.9656ZM145.618 49.9326C145.125 49.9326 144.665 49.6026 144.533 49.1406C144.336 48.5465 144.665 47.8865 145.289 47.6885C147.13 47.0944 149.299 46.4344 151.6 45.7743C152.225 45.6093 152.85 45.9723 153.014 46.5664C153.178 47.1934 152.817 47.8205 152.225 47.9855C149.957 48.6125 147.82 49.2726 145.98 49.8666C145.848 49.9326 145.749 49.9326 145.618 49.9326ZM81.5526 47.1934C80.9609 47.1934 80.4679 46.7314 80.4021 46.1374C80.3364 45.5103 80.7966 44.9493 81.454 44.8833C82.9003 44.7513 84.248 44.6852 85.6286 44.6852C86.4832 44.6852 87.3379 44.7183 88.1925 44.7513C88.8171 44.7843 89.3101 45.3453 89.2773 45.9723C89.2444 46.5994 88.6856 47.0944 88.061 47.0614C87.2721 46.9954 86.4504 46.9954 85.6615 46.9954C84.3466 46.9954 83.0647 47.0614 81.717 47.1934C81.6184 47.1934 81.5855 47.1934 81.5526 47.1934ZM190.815 47.1934C190.717 47.1934 190.651 47.1934 190.552 47.1604C188.58 46.7314 186.542 46.3354 184.537 46.0383L184.175 45.9723C183.551 45.8733 183.124 45.2793 183.222 44.6522C183.321 44.0252 183.913 43.5962 184.537 43.6952L184.899 43.7612C186.937 44.0912 189.007 44.4542 191.045 44.9163C191.67 45.0483 192.064 45.6753 191.933 46.3024C191.802 46.8304 191.341 47.1934 190.815 47.1934ZM158.273 46.5004C157.747 46.5004 157.254 46.1374 157.156 45.5763C157.024 44.9493 157.419 44.3552 158.043 44.2232C160.278 43.7612 162.448 43.4312 164.617 43.2001C165.242 43.1341 165.834 43.5962 165.899 44.2232C165.965 44.8503 165.505 45.4113 164.88 45.5103C162.777 45.7413 160.673 46.0714 158.503 46.5004C158.438 46.5004 158.339 46.5004 158.273 46.5004ZM177.831 45.2463C177.799 45.2463 177.766 45.2463 177.733 45.2463C175.563 45.0813 173.394 45.0153 171.29 45.0483C170.633 45.0483 170.14 44.5532 170.107 43.9262C170.107 43.2992 170.6 42.7711 171.224 42.7381C173.394 42.7051 175.662 42.7711 177.864 42.9361C178.489 42.9691 178.982 43.5302 178.916 44.1572C178.949 44.7843 178.456 45.2463 177.831 45.2463Z" fill="#F2C029"/>
<path d="M183.354 53.9919C195.384 55.84 204.325 59.8993 210.374 62.7045C219.807 67.0608 235.881 74.5193 248.635 91.1856C252.777 96.631 269.081 118.611 265.498 148.61C264.709 155.375 262.145 174.319 246.433 189.83C244.329 191.909 228.978 206.628 205.739 208.245C186.969 209.532 184.011 200.787 163.927 200.886C144.402 200.952 143.12 209.235 120.307 213.03C109.887 214.78 79.679 219.796 59.4305 202.734C49.3392 194.219 45.9206 183.592 39.0506 162.306C33.6926 145.706 29.2551 131.944 31.5889 113.66C32.6408 105.443 35.2047 85.1131 51.7716 69.866C55.0258 66.8628 65.2158 57.6881 80.3693 55.51C94.1422 53.5298 97.8566 59.3382 113.733 61.7804C143.383 66.2687 151.798 49.1405 183.354 53.9919Z" fill="#EAEDEF"/>
<path d="M199.69 246C193.412 246 188.317 240.885 188.317 234.581C188.317 228.278 193.412 223.162 199.69 223.162C205.969 223.162 211.064 228.278 211.064 234.581C211.064 240.885 205.969 246 199.69 246ZM199.69 226.826C195.417 226.826 191.966 230.324 191.966 234.581C191.966 238.871 195.45 242.337 199.69 242.337C203.964 242.337 207.415 238.838 207.415 234.581C207.415 230.291 203.931 226.826 199.69 226.826Z" fill="#EAEDEF"/>
<path d="M294.227 117.225C294.096 117.225 293.997 117.225 293.866 117.225C291.137 117.06 289.001 114.716 289.001 111.878V110.459C289.001 109.436 288.179 108.578 287.127 108.578H285.615C284.169 108.578 282.788 107.984 281.835 106.928C280.849 105.872 280.356 104.486 280.454 103C280.619 100.261 282.952 98.1161 285.779 98.1161H287.193C288.212 98.1161 289.066 97.2911 289.066 96.235V94.7169C289.066 93.2648 289.658 91.8787 290.71 90.9216C291.762 89.9315 293.175 89.4365 294.622 89.5355C297.35 89.7005 299.486 92.0437 299.486 94.8819V96.301C299.486 97.3241 300.308 98.1821 301.36 98.1821H302.774C305.568 98.1821 307.901 100.327 308.099 103.066C308.197 104.519 307.704 105.905 306.718 106.994C305.732 108.05 304.351 108.644 302.938 108.644H301.426C300.407 108.644 299.552 109.469 299.552 110.525V112.043C299.552 113.495 298.961 114.881 297.909 115.838C296.791 116.729 295.542 117.225 294.227 117.225ZM285.746 101.449C284.695 101.449 283.807 102.241 283.741 103.232C283.708 103.76 283.873 104.288 284.234 104.651C284.596 105.047 285.089 105.245 285.615 105.245H287.127C289.987 105.245 292.288 107.555 292.288 110.426V111.845C292.288 112.901 293.077 113.792 294.063 113.858C294.589 113.891 295.115 113.726 295.476 113.363C295.871 113 296.068 112.505 296.068 111.977V110.459C296.068 107.588 298.369 105.278 301.229 105.278H302.741C303.267 105.278 303.76 105.08 304.121 104.684C304.483 104.288 304.68 103.793 304.614 103.265C304.549 102.274 303.661 101.482 302.609 101.482H301.196C298.336 101.482 296.035 99.1722 296.035 96.301V94.8819C296.035 93.8258 295.246 92.9348 294.26 92.8688C293.734 92.8357 293.208 93.0008 292.847 93.3638C292.452 93.7268 292.255 94.2219 292.255 94.7499V96.268C292.255 99.1392 289.954 101.449 287.094 101.449H285.746Z" fill="#F2C029"/>
<path d="M86.6476 32.1773C84.6425 32.1773 82.7688 31.3853 81.3554 29.9662L72.8418 21.4185C69.9163 18.4813 69.9163 13.696 72.8418 10.7917L81.3554 2.24412C82.7688 0.825017 84.6425 0.032959 86.6476 0.032959C88.6527 0.032959 90.5264 0.825017 91.9398 2.24412L100.453 10.7917C103.379 13.729 103.379 18.5143 100.453 21.4515L91.9398 29.9992C90.5264 31.3853 88.6527 32.1773 86.6476 32.1773ZM86.6476 5.44535C86.0888 5.44535 85.5629 5.67637 85.1684 6.0394L76.6549 14.587C75.8331 15.4121 75.8331 16.6992 76.6549 17.5242L85.1684 26.0719C85.9573 26.8639 87.305 26.8639 88.0939 26.0719L96.6404 17.5572C97.4621 16.7322 97.4621 15.4451 96.6404 14.62L88.1268 6.0724C87.7323 5.67637 87.2064 5.44535 86.6476 5.44535Z" fill="#EAEDEF"/>
<path d="M13.2141 155.045C13.2141 158.709 10.2557 161.679 6.60704 161.679C2.95838 161.679 0 158.709 0 155.045C0 151.382 2.95838 148.412 6.60704 148.412C10.2557 148.412 13.2141 151.382 13.2141 155.045Z" fill="#EAEDEF"/>
<path d="M200.578 32.2763C200.578 35.8406 197.718 38.7118 194.168 38.7118C190.618 38.7118 187.758 35.8406 187.758 32.2763C187.758 28.712 190.618 25.8408 194.168 25.8408C197.685 25.8408 200.578 28.712 200.578 32.2763Z" fill="#F2C029"/>
<path d="M33.9885 205.011L30.7014 208.311L27.4143 205.011C26.3296 203.922 24.6203 203.922 23.5355 205.011C22.4508 206.1 22.4508 207.816 23.5355 208.905L26.8226 212.205L23.5355 215.506C22.4508 216.595 22.4508 218.311 23.5355 219.4C24.6203 220.489 26.3296 220.489 27.4143 219.4L30.7014 216.1L33.9885 219.4C35.0732 220.489 36.7825 220.489 37.8672 219.4C38.952 218.311 38.952 216.595 37.8672 215.506L34.5802 212.205L37.8672 208.905C38.952 207.816 38.952 206.1 37.8672 205.011C36.8154 203.922 35.0732 203.922 33.9885 205.011Z" fill="#F2C029"/>
<path d="M209.059 144.122H79.8762V116.4H209.059V144.122Z" fill="white"/>
<path d="M96.6075 137.29C100.474 137.29 103.609 134.143 103.609 130.26C103.609 126.378 100.474 123.231 96.6075 123.231C92.7407 123.231 89.606 126.378 89.606 130.26C89.606 134.143 92.7407 137.29 96.6075 137.29Z" fill="#8C00FF"/>
<path d="M112.813 125.574C112.155 125.574 111.629 126.102 111.629 126.762C111.629 127.422 112.155 127.95 112.813 127.95H198.178C198.836 127.95 199.362 127.422 199.329 126.762C199.329 126.102 198.803 125.607 198.178 125.607H112.813V125.574Z" fill="#8C00FF"/>
<path d="M112.813 161.679C112.155 161.679 111.629 162.207 111.629 162.867C111.629 163.527 112.155 164.055 112.813 164.055H198.178C198.836 164.055 199.362 163.527 199.329 162.867C199.329 162.207 198.803 161.712 198.178 161.712H112.813V161.679Z" fill="#202131"/>
<path d="M112.813 132.604C112.155 132.604 111.629 133.132 111.629 133.759C111.629 134.419 112.155 134.947 112.78 134.947H166.754C167.411 134.947 167.937 134.419 167.937 133.759C167.937 133.099 167.411 132.571 166.754 132.571H112.813V132.604Z" fill="#8C00FF"/>
<path d="M209.059 144.122H79.8762V116.4H209.059V144.122ZM81.8484 142.141H207.086V118.38H81.8484V142.141Z" fill="#202131"/>
<path d="M96.6075 173.89C100.474 173.89 103.609 170.743 103.609 166.86C103.609 162.978 100.474 159.831 96.6075 159.831C92.7407 159.831 89.606 162.978 89.606 166.86C89.606 170.743 92.7407 173.89 96.6075 173.89Z" fill="#202131"/>
<path d="M112.813 169.236C112.155 169.236 111.629 169.764 111.629 170.391C111.629 171.052 112.155 171.58 112.78 171.58H166.754C167.411 171.58 167.937 171.052 167.937 170.391C167.937 169.731 167.411 169.203 166.754 169.203H112.813V169.236Z" fill="#202131"/>
<path d="M209.059 180.721H79.8762V152.999H209.059V180.721ZM81.8484 178.741H207.086V154.979H81.8484V178.741Z" fill="#202131"/>
<path d="M245.414 137.224C244.954 135.838 245.677 134.287 247.09 133.825C247.255 133.759 247.386 133.726 247.55 133.726L248.997 127.785H252.81L250.64 136.135C250.772 137.62 249.687 138.907 248.208 139.039C246.959 139.171 245.808 138.412 245.414 137.224Z" fill="#FFB7B7"/>
<path d="M251.857 133.396L246.006 133L248.832 116.07L247.025 97.4231L252.941 94.981L256.886 115.673V115.706L251.857 133.396Z" fill="#3F3D56"/>
<path d="M206.725 131.416C206.692 129.931 207.875 128.709 209.355 128.676C209.519 128.676 209.683 128.676 209.815 128.709L213.003 123.495L216.619 124.683L212.017 131.977C211.688 133.429 210.242 134.32 208.796 133.99C207.58 133.726 206.725 132.67 206.725 131.416Z" fill="#FFB7B7"/>
<path d="M224.705 196.529H221.615L220.136 184.516H224.705V196.529Z" fill="#FFB7B7"/>
<path d="M225.527 199.566H215.501V199.434C215.501 197.288 217.244 195.506 219.413 195.506H225.527V199.566Z" fill="#2F2E41"/>
<path d="M246.4 196.529H243.277L241.798 184.516H246.4V196.529Z" fill="#FFB7B7"/>
<path d="M247.189 199.566H237.163V199.434C237.163 197.288 238.905 195.506 241.075 195.506H247.189V199.566Z" fill="#2F2E41"/>
<path d="M243.442 83.5621C247.508 83.5621 250.805 80.2523 250.805 76.1695C250.805 72.0867 247.508 68.777 243.442 68.777C239.375 68.777 236.079 72.0867 236.079 76.1695C236.079 80.2523 239.375 83.5621 243.442 83.5621Z" fill="#FFB8B8"/>
<path d="M240.943 75.7735C238.478 76.7965 235.684 75.6415 234.665 73.1663C233.778 71.0211 234.501 68.5789 236.44 67.2918C238.412 65.9718 241.338 66.4008 243.244 67.9519C245.874 66.7638 248.997 67.3909 250.936 69.536C252.777 71.6812 252.974 75.0474 251.626 77.5556C250.443 80.1958 250.64 83.232 252.12 85.7072C251.528 85.6742 250.279 85.5752 248.701 85.4432C248.241 85.4102 248.044 84.0571 247.55 83.9911C247.09 83.9581 246.367 85.2122 245.907 85.1792C242.455 84.8821 238.61 84.5851 236.867 84.6511C238.117 81.5819 239.431 78.4797 240.943 75.7735Z" fill="#2F2E41"/>
<path d="M249.095 128.379C249.095 128.379 251.495 130.855 250.016 143.693L248.997 170.92L247.222 195.011L241.469 194.615L236.407 139.138L229.34 159.435L225.527 192.998L220.005 192.602L219.051 159.237L221.484 133.462L249.095 128.379Z" fill="#202131"/>
<path d="M225.363 135.013C222.404 135.013 221.221 134.65 221.155 134.617L221.024 134.584L221.057 134.452C221.089 134.32 223.062 122.736 225.757 116.664L227.664 91.9777C227.762 90.4596 228.913 89.2385 230.392 89.0075L230.425 89.1725L230.392 89.0075L235.257 88.2485L238.215 85.6083L245.348 86.0043L245.973 89.0405C246.827 89.2715 252.448 91.0207 253.007 95.146V95.212L252.974 95.245L242.686 115.112C243.54 115.97 250.443 123.066 250.903 132.142V132.373L250.706 132.34C250.673 132.34 248.471 131.911 236.933 133.891C231.542 134.749 227.828 135.013 225.363 135.013Z" fill="#3F3D56"/>
<path d="M213.956 131.284L209.749 128.049L219.117 109.238L227.828 90.7896C228.157 90.0966 228.978 89.7995 229.669 90.1296C230.03 90.2946 230.293 90.6246 230.425 91.0206L232.594 98.8752L225.823 116.498L213.956 131.284Z" fill="#3F3D56"/>
<path d="M152.652 100.459H134.902V82.6381H143.777V83.2981H135.559V99.7993H151.995V91.5487H152.652V100.459Z" fill="#3F3D56"/>
<path d="M143.448 95.212L139.142 90.2286L139.866 89.6016L143.448 93.7269L153.277 82.6381L154 83.2981L143.448 95.212Z" fill="#8C00FF"/>
<path d="M42.502 81.087L42.9294 79.0078C42.9294 79.0078 49.0433 76.9287 49.7008 81.087H42.502Z" fill="#E6E6E6"/>
<path d="M54.204 195.803H58.2143L60.1208 180.292H54.204V195.803Z" fill="#9F616A"/>
<path d="M53.1851 194.483H61.0741C63.8352 194.483 66.1033 196.727 66.1033 199.533V199.698H53.1851V194.483Z" fill="#2F2E41"/>
<path d="M34.9088 195.803H38.9191L40.8256 180.292H34.9088V195.803Z" fill="#9F616A"/>
<path d="M33.8899 194.483H41.7789C44.54 194.483 46.8081 196.727 46.8081 199.533V199.698H33.8899V194.483Z" fill="#2F2E41"/>
<path d="M36.6839 89.8326L32.1148 89.4036L29.2222 103.166L29.6166 115.674L34.1857 132.34L40.3983 128.577L37.0783 111.482L36.6839 89.8326Z" fill="#3F3D56"/>
<path d="M33.7912 130.888L34.8102 139.633L35.7635 160.029L33.5611 190.457L41.4502 190.028L45.3289 158.379L47.6627 143.792L50.9827 160.458L53.0864 191.711L61.1727 191.051V160.359L61.3699 137.95L58.4773 129.204L33.7912 130.888Z" fill="#202131"/>
<path d="M50.7855 81.4829C50.7855 81.4829 47.8928 77.3246 42.4692 80.2289L39.971 83.5621L32.082 89.4035L33.7584 108.974L31.6875 133.561L61.1398 133.132L56.1763 108.578V82.341L50.7855 81.4829Z" fill="#3F3D56"/>
<path opacity="0.25" d="M34.8102 96.334L32.4435 124.881L35.4348 109.403L34.8102 96.334Z" fill="black"/>
<path d="M84.3466 120.294C82.736 120.855 80.9938 119.964 80.4679 118.38C80.4021 118.215 80.3693 118.017 80.3364 117.852L73.5321 116.168V111.779L83.0975 114.287C84.8068 114.155 86.286 115.409 86.4175 117.093C86.549 118.512 85.6943 119.832 84.3466 120.294Z" fill="#9F616A"/>
<path d="M77.2564 111.711L76.1143 118.278L78.9638 118.777L80.1059 112.21L77.2564 111.711Z" fill="#E6E6E6"/>
<path d="M46.1836 76.6976C50.7947 76.6976 54.5328 72.9446 54.5328 68.315C54.5328 63.6854 50.7947 59.9324 46.1836 59.9324C41.5724 59.9324 37.8344 63.6854 37.8344 68.315C37.8344 72.9446 41.5724 76.6976 46.1836 76.6976Z" fill="#9F616A"/>
<path d="M46.8081 75.7075C42.2719 76.7966 37.7029 73.9914 36.6181 69.4371C35.6649 65.5098 37.6371 61.4505 41.2858 59.7674C42.765 59.1073 44.3428 58.8103 45.9535 58.9423C48.4516 59.0743 50.8841 59.9984 53.3494 59.9324L53.711 60.5264L55.0587 60.1964L55.3545 61.2855H55.7161C56.3735 62.4736 55.3217 64.1897 53.9739 64.1897C53.448 64.1237 52.9221 64.0247 52.3961 63.8597C51.8702 63.7607 51.2457 63.7607 50.8841 64.1567C50.4239 64.6847 50.6211 65.4768 50.7197 66.1699C50.8183 66.8629 50.5882 67.787 49.8651 67.82C49.5035 67.82 49.1748 67.589 48.8132 67.655C48.4188 67.721 48.1887 68.216 48.2544 68.645C48.353 69.0411 48.5174 69.4371 48.7475 69.8001C49.7336 71.9453 48.9447 74.4865 46.9396 75.6745" fill="#2F2E41"/>
<path d="M54.2041 83.9252L56.1763 82.3081C56.1763 82.3081 60.1866 82.044 60.0879 86.2684L66.4978 106.367L78.7586 110.723L77.1151 119.304L59.7592 112.67L50.9498 98.0172L54.2041 83.9252Z" fill="#3F3D56"/>
</g>
<defs>
<clipPath id="clip0">
<rect width="308" height="246" fill="white"/>
</clipPath>
</defs>
</svg>
