<svg width="103" height="82" viewBox="0 0 103 82" fill="none" xmlns="http://www.w3.org/2000/svg">
<g clip-path="url(#clip0)">
<path d="M71.339 8.66383C71.7467 13.3028 68.8252 13.985 65.0884 14.8718C59.1095 16.2362 54.4215 19.7836 52.1115 25.8552C51.9076 26.3327 51.7038 26.8102 51.5 27.2878C51.432 27.4242 51.2282 27.5607 50.8206 27.9018C48.9861 25.3094 47.4914 22.5806 44.3661 21.148C39.814 19.1014 35.1939 18.7603 30.37 19.3743C27.2447 19.7154 24.1873 19.8518 21.2658 18.351C17.0534 15.3493 13.2487 11.9384 10.7348 7.29943C10.1913 6.34436 9.51185 5.38928 9.57979 4.16133C9.57979 4.02489 13.8601 7.70875 15.7625 9.6189C16.1702 10.0282 16.5099 10.7786 17.1893 10.1647C17.5969 9.75534 17.4611 9.20958 17.1214 8.73205C15.8984 6.8219 15.2869 4.57065 14.3357 2.18296C17.2572 3.0016 17.6649 6.20792 20.4505 7.29943C19.7711 4.70709 18.8199 2.52406 18.6161 0.136371C18.5481 -0.409387 29.6906 10.7104 36.4848 12.4841C41.3087 13.7803 45.657 15.7587 48.5785 20.0565C49.3938 21.2845 49.8694 20.8751 50.6167 20.0565C54.3535 16.0998 59.1774 14.3943 64.409 13.5074C65.2922 13.371 65.9037 13.3028 66.0396 12.143C66.1754 10.8469 65.4281 9.07314 66.719 8.39095C68.0778 7.77697 69.8443 8.11807 71.339 8.66383Z" fill="#3299D9"/>
<path d="M49.1899 42.7737C49.8014 41.2729 50.4808 39.7721 51.2961 37.7937C52.3153 39.431 53.0626 40.7271 53.9459 41.9551C57.275 46.5258 62.3027 48.2995 67.3984 49.8004C71.8826 51.0965 76.4347 52.0516 80.9188 53.2113C81.8021 53.416 82.7533 53.7571 83.5006 54.2346C85.403 55.4626 87.5092 56.6905 87.1695 59.4875C86.8298 62.421 84.7915 63.7854 82.2777 64.3994C80.3753 64.8769 78.4729 65.4227 76.5026 64.6722C77.4538 64.3311 78.4729 63.99 79.3562 63.5807C81.2585 62.6256 82.2777 60.9884 82.2777 58.8053C82.2777 56.7588 80.8509 55.8037 79.1523 54.985C74.872 52.802 70.1161 52.1198 65.564 50.8237C59.5851 49.1182 53.81 47.0716 49.1899 42.7737Z" fill="#3299D9"/>
<path d="M75.7552 25.9915C81.1227 24.4224 86.2862 28.1063 86.6939 33.5639C84.0442 33.9732 81.7341 34.1096 80.9868 30.494C80.3753 27.9699 77.9973 26.8784 75.7552 25.9915Z" fill="#3299D9"/>
<path d="M65.4961 75.519C62.3707 74.4958 59.2454 73.2678 56.5957 71.2212C51.5 67.1963 48.1029 62.2844 48.9182 55.326C43.6188 54.0981 42.9393 54.7121 44.1623 59.8285C46.2005 68.0831 51.9077 72.722 59.721 74.7686C63.1181 75.6555 64.7487 76.9517 64.2052 80.4991C63.9334 81.3859 64.3411 81.4542 65.1564 81.4542C66.1075 81.5906 68.2817 81.5906 68.4176 81.4542C69.3688 77.8385 68.3496 76.4741 65.4961 75.519Z" fill="#3299D9"/>
<path d="M94.6431 43.0466C91.1781 41 87.3054 40.1131 83.5686 38.9534C78.8127 37.5208 73.785 37.0432 69.3008 34.6555C67.8061 33.8369 66.4472 32.7454 66.5831 30.8352C66.651 28.7887 67.7381 27.356 69.6405 26.5374C71.6108 25.7188 73.6491 25.5141 75.6873 26.0599C81.0547 24.4908 86.2183 28.1747 86.626 33.6322C90.9063 34.3827 95.2546 34.0416 99.6029 34.3827C101.641 34.5191 102.049 33.7687 101.777 31.9268C100.69 23.4675 95.3905 17.4642 86.7619 15.2812C84.4518 14.6672 82.6174 13.985 83.2289 10.9833C83.5006 9.61893 82.8892 8.73208 81.4624 8.73208C78.0653 8.66386 74.6682 8.18632 71.2711 8.73208C71.6788 13.371 68.7572 14.0532 65.0204 14.9401C59.0415 16.3045 54.3536 19.8519 52.0435 25.9234C51.8397 26.401 51.6359 26.8785 51.4321 27.356C51.3641 27.4925 51.1603 27.6289 50.7526 27.97C48.9182 25.3777 47.4235 22.6489 44.2981 21.2163C39.746 19.1697 35.126 18.8286 30.3021 19.4426C27.1768 19.7837 24.1194 19.9201 21.1979 18.4193C18.684 18.7604 16.7817 17.1913 14.6755 16.2362C11.5501 14.599 9.57981 11.5973 6.72625 9.61893C7.6095 14.7354 11.0066 18.0782 14.8793 21.2163C10.6669 19.9883 7.1339 17.5324 3.46504 15.2812C5.36741 19.1697 8.49274 21.8985 12.2975 24.9001C7.33773 24.559 3.73681 22.376 0 20.807C4.2124 26.1281 9.37599 29.8119 16.1022 30.8352C17.8008 31.0399 19.4314 31.3128 21.1299 31.5174C19.2955 32.3361 13.7922 31.6539 12.841 31.4492C12.2975 31.8585 6.3186 30.0166 3.12533 30.5624C8.28892 34.7238 14.1999 35.406 19.7032 37.5208C16.3061 37.6572 12.909 37.7254 9.51187 37.8619C12.841 39.772 16.3061 40.1813 19.7711 40.4542C23.2361 40.7271 26.6332 40.0449 30.5059 40.0449C26.0897 44.4792 21.062 46.4575 15.7625 48.0266C25.0026 52.3244 36.4169 41.8186 39.1346 39.5674C37.7078 42.9783 32.2045 48.0266 32.9518 47.8901C36.8245 47.208 40.2216 45.5025 42.9393 42.569C43.347 42.1597 43.5508 41.2728 44.7737 41.6822C43.7546 43.2512 42.8034 44.6838 41.7843 46.2529C43.9584 45.8436 44.9776 44.0699 46.812 42.8419C46.4723 44.2063 46.2685 45.0931 45.8608 46.7304C47.6952 45.366 48.5785 44.2063 49.2579 42.7737C49.8694 41.2728 50.5488 39.772 51.3641 37.7936C52.3832 39.4309 53.1306 40.7271 54.0138 41.955C57.343 46.5258 62.3707 48.2995 67.4664 49.8003C71.9505 51.0965 76.5026 52.0516 80.9868 53.2113C81.87 53.4159 82.8212 53.757 83.5686 54.2346C85.471 55.4625 87.5772 56.6905 87.2375 59.4875C86.8977 62.4209 84.8595 63.7853 82.3456 64.3993C80.4433 64.8768 78.5409 65.4226 76.5706 64.6722C76.3667 64.604 76.1629 64.5357 75.9591 64.5357C70.4558 64.3311 65.496 63.1714 64.4769 56.4858C64.341 55.7354 63.9334 55.4625 63.186 55.4625C58.3621 55.3943 53.5383 54.5075 48.6464 55.2579C47.8311 62.2163 51.2282 67.1281 56.3239 71.1531C58.9736 73.1996 62.0989 74.4276 65.2243 75.4509C68.0778 76.406 68.9611 78.1115 68.1458 80.8402L67.9419 81.5224C68.4175 81.5224 68.5534 81.386 68.9611 81.4542C72.1543 82.0682 75.3476 81.7271 78.6088 82C80.5112 82.2046 81.3945 81.5907 81.1227 79.6123C80.783 77.4293 81.8021 76.7471 83.9083 76.5424C88.3925 75.9966 92.5369 74.4276 96.2058 71.6988C105.922 64.2629 105.174 49.3228 94.6431 43.0466Z" fill="#202131"/>
<path d="M6.72628 9.55061C6.65833 9.48239 6.65834 9.41417 6.59039 9.34595C6.65834 9.48239 6.65833 9.55061 6.72628 9.55061C6.65833 9.61883 6.72628 9.55061 6.72628 9.55061Z" fill="#BA9244"/>
</g>
<defs>
<clipPath id="clip0">
<rect width="103" height="82" fill="white"/>
</clipPath>
</defs>
</svg>
